solid CATIA STL
  facet normal -9.790285e-001  -0.000000e+000 -2.037237e-001
    outer loop
      vertex  1.375490e+000  2.800000e+000  5.983539e-001
      vertex  1.500000e+000  2.800000e+000  0.000000e+000
      vertex  1.500000e+000  2.000000e+000  0.000000e+000
    endloop
  endfacet
  facet normal -5.184154e-001  -0.000000e+000 -8.551289e-001
    outer loop
      vertex  5.000000e-001  2.000000e+000  1.414214e+000
      vertex  5.000000e-001  2.800000e+000  1.414214e+000
      vertex  1.022630e+000  2.800000e+000  1.097373e+000
    endloop
  endfacet
  facet normal -5.137954e-001 -4.116756e-003 -8.579028e-001
    outer loop
      vertex  5.000000e-001  2.000000e+000  1.414214e+000
      vertex  1.022630e+000  2.800000e+000  1.097373e+000
      vertex  9.352347e-001 -2.000000e+000  1.172747e+000
    endloop
  endfacet
  facet normal -4.338725e-001  7.177905e-003 -9.009457e-001
    outer loop
      vertex  5.000000e-001  2.000000e+000  1.414214e+000
      vertex  9.352347e-001 -2.000000e+000  1.172747e+000
      vertex  3.337814e-001 -2.000000e+000  1.462392e+000
    endloop
  endfacet
  facet normal -1.691000e-001 -4.844087e-003 -9.855870e-001
    outer loop
      vertex  5.000000e-001  2.000000e+000  1.414214e+000
      vertex  3.337814e-001 -2.000000e+000  1.462392e+000
      vertex  1.776357e-015  2.000000e+000  1.500000e+000
    endloop
  endfacet
  facet normal  9.749279e-001  0.000000e+000 -2.225209e-001
    outer loop
      vertex -1.351453e+000 -2.000000e+000  6.508256e-001
      vertex -1.500000e+000 -2.000000e+000  1.836970e-016
      vertex -1.500000e+000  2.000000e+000  1.836970e-016
    endloop
  endfacet
  facet normal  9.749278e-001  0.000000e+000 -2.225209e-001
    outer loop
      vertex -1.351453e+000 -2.000000e+000  6.508256e-001
      vertex -1.500000e+000  2.000000e+000  1.836970e-016
      vertex -1.500000e+000  2.800000e+000  1.836970e-016
    endloop
  endfacet
  facet normal  9.790249e-001  2.675579e-003 -2.037230e-001
    outer loop
      vertex -1.351453e+000 -2.000000e+000  6.508256e-001
      vertex -1.500000e+000  2.800000e+000  1.836970e-016
      vertex -1.375490e+000  2.800000e+000  5.983539e-001
    endloop
  endfacet
  facet normal  8.164945e-001 -2.222643e-003 -5.773489e-001
    outer loop
      vertex -1.351453e+000 -2.000000e+000  6.508256e-001
      vertex -1.375490e+000  2.800000e+000  5.983539e-001
      vertex -1.022630e+000  2.800000e+000  1.097373e+000
    endloop
  endfacet
  facet normal  7.818238e-001  4.444411e-003 -6.234836e-001
    outer loop
      vertex -1.351453e+000 -2.000000e+000  6.508256e-001
      vertex -1.022630e+000  2.800000e+000  1.097373e+000
      vertex -9.352347e-001 -2.000000e+000  1.172747e+000
    endloop
  endfacet
  facet normal  5.184113e-001 -3.989049e-003 -8.551221e-001
    outer loop
      vertex -9.352347e-001 -2.000000e+000  1.172747e+000
      vertex -1.022630e+000  2.800000e+000  1.097373e+000
      vertex -5.000000e-001  2.800000e+000  1.414214e+000
    endloop
  endfacet
  facet normal  4.851350e-001  0.000000e+000 -8.744393e-001
    outer loop
      vertex -9.352347e-001 -2.000000e+000  1.172747e+000
      vertex -5.000000e-001  2.800000e+000  1.414214e+000
      vertex -5.000000e-001  2.000000e+000  1.414214e+000
    endloop
  endfacet
  facet normal  4.338725e-001  7.177909e-003 -9.009457e-001
    outer loop
      vertex -9.352347e-001 -2.000000e+000  1.172747e+000
      vertex -5.000000e-001  2.000000e+000  1.414214e+000
      vertex -3.337814e-001 -2.000000e+000  1.462392e+000
    endloop
  endfacet
  facet normal  0.000000e+000 -1.204371e-002 -9.999275e-001
    outer loop
      vertex -3.337814e-001 -2.000000e+000  1.462392e+000
      vertex -5.000000e-001  2.000000e+000  1.414214e+000
      vertex  3.337814e-001 -2.000000e+000  1.462392e+000
    endloop
  endfacet
  facet normal  1.690558e-001  2.337103e-002 -9.853294e-001
    outer loop
      vertex  3.337814e-001 -2.000000e+000  1.462392e+000
      vertex -5.000000e-001  2.000000e+000  1.414214e+000
      vertex  1.776357e-015  2.000000e+000  1.500000e+000
    endloop
  endfacet
  facet normal -8.164828e-001  5.800041e-003 -5.773407e-001
    outer loop
      vertex  1.022630e+000  2.800000e+000  1.097373e+000
      vertex  1.375490e+000  2.800000e+000  5.983539e-001
      vertex  9.352347e-001 -2.000000e+000  1.172747e+000
    endloop
  endfacet
  facet normal -7.818282e-001 -2.900604e-003 -6.234871e-001
    outer loop
      vertex  9.352347e-001 -2.000000e+000  1.172747e+000
      vertex  1.375490e+000  2.800000e+000  5.983539e-001
      vertex  1.351453e+000 -2.000000e+000  6.508256e-001
    endloop
  endfacet
  facet normal -9.783165e-001  2.635129e-003 -2.070987e-001
    outer loop
      vertex  1.375490e+000  2.800000e+000  5.983539e-001
      vertex  1.500000e+000  2.000000e+000  0.000000e+000
      vertex  1.351453e+000 -2.000000e+000  6.508256e-001
    endloop
  endfacet
  facet normal -9.749279e-001  0.000000e+000 -2.225209e-001
    outer loop
      vertex  1.351453e+000 -2.000000e+000  6.508256e-001
      vertex  1.500000e+000  2.000000e+000  0.000000e+000
      vertex  1.500000e+000 -2.000000e+000  0.000000e+000
    endloop
  endfacet
  facet normal  9.790285e-001  0.000000e+000  2.037237e-001
    outer loop
      vertex -1.375490e+000  2.800000e+000 -5.983539e-001
      vertex -1.500000e+000  2.800000e+000  1.836970e-016
      vertex -1.500000e+000  2.000000e+000  1.836970e-016
    endloop
  endfacet
  facet normal  5.184154e-001  0.000000e+000  8.551289e-001
    outer loop
      vertex -5.000000e-001  2.000000e+000 -1.414214e+000
      vertex -5.000000e-001  2.800000e+000 -1.414214e+000
      vertex -1.022630e+000  2.800000e+000 -1.097373e+000
    endloop
  endfacet
  facet normal  5.137954e-001 -4.116756e-003  8.579028e-001
    outer loop
      vertex -5.000000e-001  2.000000e+000 -1.414214e+000
      vertex -1.022630e+000  2.800000e+000 -1.097373e+000
      vertex -9.352347e-001 -2.000000e+000 -1.172747e+000
    endloop
  endfacet
  facet normal  4.338725e-001  7.177905e-003  9.009457e-001
    outer loop
      vertex -5.000000e-001  2.000000e+000 -1.414214e+000
      vertex -9.352347e-001 -2.000000e+000 -1.172747e+000
      vertex -3.337814e-001 -2.000000e+000 -1.462392e+000
    endloop
  endfacet
  facet normal  1.691000e-001 -4.844087e-003  9.855870e-001
    outer loop
      vertex -5.000000e-001  2.000000e+000 -1.414214e+000
      vertex -3.337814e-001 -2.000000e+000 -1.462392e+000
      vertex  0.000000e+000  2.000000e+000 -1.500000e+000
    endloop
  endfacet
  facet normal -9.749279e-001  0.000000e+000  2.225209e-001
    outer loop
      vertex  1.351453e+000 -2.000000e+000 -6.508256e-001
      vertex  1.500000e+000 -2.000000e+000  0.000000e+000
      vertex  1.500000e+000  2.000000e+000  0.000000e+000
    endloop
  endfacet
  facet normal -9.749278e-001  0.000000e+000  2.225209e-001
    outer loop
      vertex  1.351453e+000 -2.000000e+000 -6.508256e-001
      vertex  1.500000e+000  2.000000e+000  0.000000e+000
      vertex  1.500000e+000  2.800000e+000  0.000000e+000
    endloop
  endfacet
  facet normal -9.790249e-001  2.675579e-003  2.037230e-001
    outer loop
      vertex  1.351453e+000 -2.000000e+000 -6.508256e-001
      vertex  1.500000e+000  2.800000e+000  0.000000e+000
      vertex  1.375490e+000  2.800000e+000 -5.983539e-001
    endloop
  endfacet
  facet normal -8.164945e-001 -2.222643e-003  5.773489e-001
    outer loop
      vertex  1.351453e+000 -2.000000e+000 -6.508256e-001
      vertex  1.375490e+000  2.800000e+000 -5.983539e-001
      vertex  1.022630e+000  2.800000e+000 -1.097373e+000
    endloop
  endfacet
  facet normal -7.818238e-001  4.444411e-003  6.234836e-001
    outer loop
      vertex  1.351453e+000 -2.000000e+000 -6.508256e-001
      vertex  1.022630e+000  2.800000e+000 -1.097373e+000
      vertex  9.352347e-001 -2.000000e+000 -1.172747e+000
    endloop
  endfacet
  facet normal -5.184113e-001 -3.989049e-003  8.551221e-001
    outer loop
      vertex  9.352347e-001 -2.000000e+000 -1.172747e+000
      vertex  1.022630e+000  2.800000e+000 -1.097373e+000
      vertex  5.000000e-001  2.800000e+000 -1.414214e+000
    endloop
  endfacet
  facet normal -4.851350e-001  0.000000e+000  8.744393e-001
    outer loop
      vertex  9.352347e-001 -2.000000e+000 -1.172747e+000
      vertex  5.000000e-001  2.800000e+000 -1.414214e+000
      vertex  5.000000e-001  2.000000e+000 -1.414214e+000
    endloop
  endfacet
  facet normal -4.338725e-001  7.177909e-003  9.009457e-001
    outer loop
      vertex  9.352347e-001 -2.000000e+000 -1.172747e+000
      vertex  5.000000e-001  2.000000e+000 -1.414214e+000
      vertex  3.337814e-001 -2.000000e+000 -1.462392e+000
    endloop
  endfacet
  facet normal  0.000000e+000 -1.204371e-002  9.999275e-001
    outer loop
      vertex  3.337814e-001 -2.000000e+000 -1.462392e+000
      vertex  5.000000e-001  2.000000e+000 -1.414214e+000
      vertex -3.337814e-001 -2.000000e+000 -1.462392e+000
    endloop
  endfacet
  facet normal -1.690558e-001  2.337103e-002  9.853294e-001
    outer loop
      vertex -3.337814e-001 -2.000000e+000 -1.462392e+000
      vertex  5.000000e-001  2.000000e+000 -1.414214e+000
      vertex  0.000000e+000  2.000000e+000 -1.500000e+000
    endloop
  endfacet
  facet normal  8.164828e-001  5.800041e-003  5.773407e-001
    outer loop
      vertex -1.022630e+000  2.800000e+000 -1.097373e+000
      vertex -1.375490e+000  2.800000e+000 -5.983539e-001
      vertex -9.352347e-001 -2.000000e+000 -1.172747e+000
    endloop
  endfacet
  facet normal  7.818282e-001 -2.900604e-003  6.234871e-001
    outer loop
      vertex -9.352347e-001 -2.000000e+000 -1.172747e+000
      vertex -1.375490e+000  2.800000e+000 -5.983539e-001
      vertex -1.351453e+000 -2.000000e+000 -6.508256e-001
    endloop
  endfacet
  facet normal  9.783165e-001  2.635129e-003  2.070987e-001
    outer loop
      vertex -1.375490e+000  2.800000e+000 -5.983539e-001
      vertex -1.500000e+000  2.000000e+000  1.836970e-016
      vertex -1.351453e+000 -2.000000e+000 -6.508256e-001
    endloop
  endfacet
  facet normal  9.749279e-001  0.000000e+000  2.225209e-001
    outer loop
      vertex -1.351453e+000 -2.000000e+000 -6.508256e-001
      vertex -1.500000e+000  2.000000e+000  1.836970e-016
      vertex -1.500000e+000 -2.000000e+000  1.836970e-016
    endloop
  endfacet
  facet normal  0.000000e+000  1.000000e+000  0.000000e+000
    outer loop
      vertex  1.500000e+000  2.000000e+000 -3.000000e+000
      vertex  1.500000e+000  2.000000e+000  0.000000e+000
      vertex  2.500000e+000  2.000000e+000 -3.000000e+000
    endloop
  endfacet
  facet normal  0.000000e+000  1.000000e+000  0.000000e+000
    outer loop
      vertex  2.500000e+000  2.000000e+000 -3.000000e+000
      vertex  1.500000e+000  2.000000e+000  0.000000e+000
      vertex  1.500000e+000  2.000000e+000  3.000000e+000
    endloop
  endfacet
  facet normal  -0.000000e+000  1.000000e+000  0.000000e+000
    outer loop
      vertex  2.500000e+000  2.000000e+000 -3.000000e+000
      vertex  1.500000e+000  2.000000e+000  3.000000e+000
      vertex  2.500000e+000  2.000000e+000  3.000000e+000
    endloop
  endfacet
  facet normal  0.000000e+000  1.000000e+000  0.000000e+000
    outer loop
      vertex -5.000000e-001  2.000000e+000  1.414214e+000
      vertex -5.000000e-001  2.000000e+000  3.000000e+000
      vertex  1.776357e-015  2.000000e+000  1.500000e+000
    endloop
  endfacet
  facet normal  0.000000e+000  1.000000e+000  -0.000000e+000
    outer loop
      vertex  1.776357e-015  2.000000e+000  1.500000e+000
      vertex -5.000000e-001  2.000000e+000  3.000000e+000
      vertex  5.000000e-001  2.000000e+000  3.000000e+000
    endloop
  endfacet
  facet normal  0.000000e+000  1.000000e+000  0.000000e+000
    outer loop
      vertex  1.776357e-015  2.000000e+000  1.500000e+000
      vertex  5.000000e-001  2.000000e+000  3.000000e+000
      vertex  5.000000e-001  2.000000e+000  1.414214e+000
    endloop
  endfacet
  facet normal  0.000000e+000  1.000000e+000  0.000000e+000
    outer loop
      vertex -5.000000e-001  2.000000e+000 -1.414214e+000
      vertex  0.000000e+000  2.000000e+000 -1.500000e+000
      vertex -5.000000e-001  2.000000e+000 -3.000000e+000
    endloop
  endfacet
  facet normal  0.000000e+000  9.999999e-001  0.000000e+000
    outer loop
      vertex -5.000000e-001  2.000000e+000 -3.000000e+000
      vertex  0.000000e+000  2.000000e+000 -1.500000e+000
      vertex  5.000000e-001  2.000000e+000 -1.414214e+000
    endloop
  endfacet
  facet normal  0.000000e+000  1.000000e+000  0.000000e+000
    outer loop
      vertex -5.000000e-001  2.000000e+000 -3.000000e+000
      vertex  5.000000e-001  2.000000e+000 -1.414214e+000
      vertex  5.000000e-001  2.000000e+000 -3.000000e+000
    endloop
  endfacet
  facet normal  0.000000e+000  1.000000e+000  -0.000000e+000
    outer loop
      vertex -1.500000e+000  2.000000e+000  3.000000e+000
      vertex -1.500000e+000  2.000000e+000  1.836970e-016
      vertex -2.500000e+000  2.000000e+000  3.000000e+000
    endloop
  endfacet
  facet normal  0.000000e+000  1.000000e+000  0.000000e+000
    outer loop
      vertex -2.500000e+000  2.000000e+000  3.000000e+000
      vertex -1.500000e+000  2.000000e+000  1.836970e-016
      vertex -1.500000e+000  2.000000e+000 -3.000000e+000
    endloop
  endfacet
  facet normal  0.000000e+000  1.000000e+000  0.000000e+000
    outer loop
      vertex -2.500000e+000  2.000000e+000  3.000000e+000
      vertex -1.500000e+000  2.000000e+000 -3.000000e+000
      vertex -2.500000e+000  2.000000e+000 -3.000000e+000
    endloop
  endfacet
  facet normal  1.000000e+000  0.000000e+000  0.000000e+000
    outer loop
      vertex -5.000000e-001  2.000000e+000 -1.414214e+000
      vertex -5.000000e-001  2.000000e+000 -3.000000e+000
      vertex -5.000000e-001  2.800000e+000 -1.414214e+000
    endloop
  endfacet
  facet normal  1.000000e+000  0.000000e+000  0.000000e+000
    outer loop
      vertex -5.000000e-001  2.800000e+000 -1.414214e+000
      vertex -5.000000e-001  2.000000e+000 -3.000000e+000
      vertex -5.000000e-001  2.800000e+000 -3.000000e+000
    endloop
  endfacet
  facet normal  1.000000e+000  0.000000e+000  0.000000e+000
    outer loop
      vertex -5.000000e-001  2.000000e+000  3.000000e+000
      vertex -5.000000e-001  2.000000e+000  1.414214e+000
      vertex -5.000000e-001  2.800000e+000  3.000000e+000
    endloop
  endfacet
  facet normal  1.000000e+000  0.000000e+000  0.000000e+000
    outer loop
      vertex -5.000000e-001  2.800000e+000  3.000000e+000
      vertex -5.000000e-001  2.000000e+000  1.414214e+000
      vertex -5.000000e-001  2.800000e+000  1.414214e+000
    endloop
  endfacet
  facet normal  0.000000e+000  1.000000e+000  0.000000e+000
    outer loop
      vertex -1.500000e+000  2.800000e+000 -3.000000e+000
      vertex -1.500000e+000  2.800000e+000  1.836970e-016
      vertex -1.375490e+000  2.800000e+000 -5.983539e-001
    endloop
  endfacet
  facet normal  0.000000e+000  1.000000e+000  0.000000e+000
    outer loop
      vertex -1.500000e+000  2.800000e+000 -3.000000e+000
      vertex -1.375490e+000  2.800000e+000 -5.983539e-001
      vertex -1.022630e+000  2.800000e+000 -1.097373e+000
    endloop
  endfacet
  facet normal  0.000000e+000  1.000000e+000  0.000000e+000
    outer loop
      vertex -1.500000e+000  2.800000e+000 -3.000000e+000
      vertex -1.022630e+000  2.800000e+000 -1.097373e+000
      vertex -5.000000e-001  2.800000e+000 -1.414214e+000
    endloop
  endfacet
  facet normal  0.000000e+000  1.000000e+000  0.000000e+000
    outer loop
      vertex -1.500000e+000  2.800000e+000 -3.000000e+000
      vertex -5.000000e-001  2.800000e+000 -1.414214e+000
      vertex -5.000000e-001  2.800000e+000 -3.000000e+000
    endloop
  endfacet
  facet normal  0.000000e+000  1.000000e+000  0.000000e+000
    outer loop
      vertex -1.500000e+000  2.800000e+000  3.000000e+000
      vertex -5.000000e-001  2.800000e+000  3.000000e+000
      vertex -5.000000e-001  2.800000e+000  1.414214e+000
    endloop
  endfacet
  facet normal  0.000000e+000  1.000000e+000  0.000000e+000
    outer loop
      vertex -1.500000e+000  2.800000e+000  3.000000e+000
      vertex -5.000000e-001  2.800000e+000  1.414214e+000
      vertex -1.022630e+000  2.800000e+000  1.097373e+000
    endloop
  endfacet
  facet normal  0.000000e+000  1.000000e+000  0.000000e+000
    outer loop
      vertex -1.500000e+000  2.800000e+000  3.000000e+000
      vertex -1.022630e+000  2.800000e+000  1.097373e+000
      vertex -1.375490e+000  2.800000e+000  5.983539e-001
    endloop
  endfacet
  facet normal  0.000000e+000  1.000000e+000  0.000000e+000
    outer loop
      vertex -1.500000e+000  2.800000e+000  3.000000e+000
      vertex -1.375490e+000  2.800000e+000  5.983539e-001
      vertex -1.500000e+000  2.800000e+000  1.836970e-016
    endloop
  endfacet
  facet normal -1.000000e+000  0.000000e+000  0.000000e+000
    outer loop
      vertex -1.500000e+000  2.000000e+000  1.836970e-016
      vertex -1.500000e+000  2.000000e+000  3.000000e+000
      vertex -1.500000e+000  2.800000e+000  1.836970e-016
    endloop
  endfacet
  facet normal -1.000000e+000  0.000000e+000  0.000000e+000
    outer loop
      vertex -1.500000e+000  2.800000e+000  1.836970e-016
      vertex -1.500000e+000  2.000000e+000  3.000000e+000
      vertex -1.500000e+000  2.800000e+000  3.000000e+000
    endloop
  endfacet
  facet normal -1.000000e+000  0.000000e+000  0.000000e+000
    outer loop
      vertex -1.500000e+000  2.000000e+000 -3.000000e+000
      vertex -1.500000e+000  2.000000e+000  1.836970e-016
      vertex -1.500000e+000  2.800000e+000 -3.000000e+000
    endloop
  endfacet
  facet normal -1.000000e+000  0.000000e+000  0.000000e+000
    outer loop
      vertex -1.500000e+000  2.800000e+000 -3.000000e+000
      vertex -1.500000e+000  2.000000e+000  1.836970e-016
      vertex -1.500000e+000  2.800000e+000  1.836970e-016
    endloop
  endfacet
  facet normal  1.000000e+000  0.000000e+000  0.000000e+000
    outer loop
      vertex  1.500000e+000  2.000000e+000  3.000000e+000
      vertex  1.500000e+000  2.000000e+000  0.000000e+000
      vertex  1.500000e+000  2.800000e+000  3.000000e+000
    endloop
  endfacet
  facet normal  1.000000e+000  0.000000e+000  0.000000e+000
    outer loop
      vertex  1.500000e+000  2.800000e+000  3.000000e+000
      vertex  1.500000e+000  2.000000e+000  0.000000e+000
      vertex  1.500000e+000  2.800000e+000  0.000000e+000
    endloop
  endfacet
  facet normal  1.000000e+000  0.000000e+000  0.000000e+000
    outer loop
      vertex  1.500000e+000  2.000000e+000  0.000000e+000
      vertex  1.500000e+000  2.000000e+000 -3.000000e+000
      vertex  1.500000e+000  2.800000e+000  0.000000e+000
    endloop
  endfacet
  facet normal  1.000000e+000  0.000000e+000  0.000000e+000
    outer loop
      vertex  1.500000e+000  2.800000e+000  0.000000e+000
      vertex  1.500000e+000  2.000000e+000 -3.000000e+000
      vertex  1.500000e+000  2.800000e+000 -3.000000e+000
    endloop
  endfacet
  facet normal  -0.000000e+000  1.000000e+000  0.000000e+000
    outer loop
      vertex  1.500000e+000  2.800000e+000 -3.000000e+000
      vertex  1.375490e+000  2.800000e+000 -5.983539e-001
      vertex  1.500000e+000  2.800000e+000  0.000000e+000
    endloop
  endfacet
  facet normal  -0.000000e+000  1.000000e+000  0.000000e+000
    outer loop
      vertex  5.000000e-001  2.800000e+000 -3.000000e+000
      vertex  5.000000e-001  2.800000e+000 -1.414214e+000
      vertex  1.022630e+000  2.800000e+000 -1.097373e+000
    endloop
  endfacet
  facet normal  -0.000000e+000  1.000000e+000  0.000000e+000
    outer loop
      vertex  5.000000e-001  2.800000e+000 -3.000000e+000
      vertex  1.022630e+000  2.800000e+000 -1.097373e+000
      vertex  1.375490e+000  2.800000e+000 -5.983539e-001
    endloop
  endfacet
  facet normal  0.000000e+000  9.999999e-001  0.000000e+000
    outer loop
      vertex  5.000000e-001  2.800000e+000 -3.000000e+000
      vertex  1.375490e+000  2.800000e+000 -5.983539e-001
      vertex  1.500000e+000  2.800000e+000 -3.000000e+000
    endloop
  endfacet
  facet normal  0.000000e+000  1.000000e+000  -0.000000e+000
    outer loop
      vertex  1.500000e+000  2.800000e+000  3.000000e+000
      vertex  1.500000e+000  2.800000e+000  0.000000e+000
      vertex  1.375490e+000  2.800000e+000  5.983539e-001
    endloop
  endfacet
  facet normal  0.000000e+000  1.000000e+000  -0.000000e+000
    outer loop
      vertex  1.500000e+000  2.800000e+000  3.000000e+000
      vertex  1.375490e+000  2.800000e+000  5.983539e-001
      vertex  1.022630e+000  2.800000e+000  1.097373e+000
    endloop
  endfacet
  facet normal  0.000000e+000  1.000000e+000  -0.000000e+000
    outer loop
      vertex  1.500000e+000  2.800000e+000  3.000000e+000
      vertex  1.022630e+000  2.800000e+000  1.097373e+000
      vertex  5.000000e-001  2.800000e+000  1.414214e+000
    endloop
  endfacet
  facet normal  0.000000e+000  1.000000e+000  0.000000e+000
    outer loop
      vertex  1.500000e+000  2.800000e+000  3.000000e+000
      vertex  5.000000e-001  2.800000e+000  1.414214e+000
      vertex  5.000000e-001  2.800000e+000  3.000000e+000
    endloop
  endfacet
  facet normal -1.000000e+000  0.000000e+000  0.000000e+000
    outer loop
      vertex  5.000000e-001  2.000000e+000 -3.000000e+000
      vertex  5.000000e-001  2.000000e+000 -1.414214e+000
      vertex  5.000000e-001  2.800000e+000 -3.000000e+000
    endloop
  endfacet
  facet normal -1.000000e+000  0.000000e+000  0.000000e+000
    outer loop
      vertex  5.000000e-001  2.800000e+000 -3.000000e+000
      vertex  5.000000e-001  2.000000e+000 -1.414214e+000
      vertex  5.000000e-001  2.800000e+000 -1.414214e+000
    endloop
  endfacet
  facet normal -1.000000e+000  0.000000e+000  0.000000e+000
    outer loop
      vertex  5.000000e-001  2.000000e+000  1.414214e+000
      vertex  5.000000e-001  2.000000e+000  3.000000e+000
      vertex  5.000000e-001  2.800000e+000  1.414214e+000
    endloop
  endfacet
  facet normal -1.000000e+000  0.000000e+000  0.000000e+000
    outer loop
      vertex  5.000000e-001  2.800000e+000  1.414214e+000
      vertex  5.000000e-001  2.000000e+000  3.000000e+000
      vertex  5.000000e-001  2.800000e+000  3.000000e+000
    endloop
  endfacet
  facet normal  -0.000000e+000 -9.999999e-001  0.000000e+000
    outer loop
      vertex -9.352347e-001 -2.000000e+000  1.172747e+000
      vertex -3.337814e-001 -2.000000e+000  1.462392e+000
      vertex -7.500000e+000 -2.000000e+000  3.000000e+000
    endloop
  endfacet
  facet normal  0.000000e+000 -1.000000e+000  -0.000000e+000
    outer loop
      vertex  7.500000e+000 -2.000000e+000 -3.000000e+000
      vertex  7.500000e+000 -2.000000e+000  3.000000e+000
      vertex  1.500000e+000 -2.000000e+000  0.000000e+000
    endloop
  endfacet
  facet normal  0.000000e+000 -1.000000e+000  -0.000000e+000
    outer loop
      vertex  7.500000e+000 -2.000000e+000 -3.000000e+000
      vertex  1.500000e+000 -2.000000e+000  0.000000e+000
      vertex  1.351453e+000 -2.000000e+000 -6.508256e-001
    endloop
  endfacet
  facet normal  0.000000e+000 -1.000000e+000  -0.000000e+000
    outer loop
      vertex  7.500000e+000 -2.000000e+000 -3.000000e+000
      vertex  1.351453e+000 -2.000000e+000 -6.508256e-001
      vertex  9.352347e-001 -2.000000e+000 -1.172747e+000
    endloop
  endfacet
  facet normal  0.000000e+000 -9.999999e-001  -0.000000e+000
    outer loop
      vertex  7.500000e+000 -2.000000e+000 -3.000000e+000
      vertex  9.352347e-001 -2.000000e+000 -1.172747e+000
      vertex  3.337814e-001 -2.000000e+000 -1.462392e+000
    endloop
  endfacet
  facet normal  -0.000000e+000 -1.000000e+000  -0.000000e+000
    outer loop
      vertex  7.500000e+000 -2.000000e+000 -3.000000e+000
      vertex  3.337814e-001 -2.000000e+000 -1.462392e+000
      vertex -3.337814e-001 -2.000000e+000 -1.462392e+000
    endloop
  endfacet
  facet normal  0.000000e+000 -1.000000e+000  -0.000000e+000
    outer loop
      vertex  7.500000e+000 -2.000000e+000 -3.000000e+000
      vertex -3.337814e-001 -2.000000e+000 -1.462392e+000
      vertex -7.500000e+000 -2.000000e+000 -3.000000e+000
    endloop
  endfacet
  facet normal  -0.000000e+000 -9.999999e-001  0.000000e+000
    outer loop
      vertex -7.500000e+000 -2.000000e+000 -3.000000e+000
      vertex -3.337814e-001 -2.000000e+000 -1.462392e+000
      vertex -9.352347e-001 -2.000000e+000 -1.172747e+000
    endloop
  endfacet
  facet normal  -0.000000e+000 -1.000000e+000  0.000000e+000
    outer loop
      vertex -7.500000e+000 -2.000000e+000 -3.000000e+000
      vertex -9.352347e-001 -2.000000e+000 -1.172747e+000
      vertex -1.351453e+000 -2.000000e+000 -6.508256e-001
    endloop
  endfacet
  facet normal  -0.000000e+000 -1.000000e+000  0.000000e+000
    outer loop
      vertex -7.500000e+000 -2.000000e+000 -3.000000e+000
      vertex -1.351453e+000 -2.000000e+000 -6.508256e-001
      vertex -1.500000e+000 -2.000000e+000  1.836970e-016
    endloop
  endfacet
  facet normal  -0.000000e+000 -1.000000e+000  0.000000e+000
    outer loop
      vertex -7.500000e+000 -2.000000e+000 -3.000000e+000
      vertex -1.500000e+000 -2.000000e+000  1.836970e-016
      vertex -1.351453e+000 -2.000000e+000  6.508256e-001
    endloop
  endfacet
  facet normal  -0.000000e+000 -9.999999e-001  0.000000e+000
    outer loop
      vertex -7.500000e+000 -2.000000e+000 -3.000000e+000
      vertex -1.351453e+000 -2.000000e+000  6.508256e-001
      vertex -9.352347e-001 -2.000000e+000  1.172747e+000
    endloop
  endfacet
  facet normal  -0.000000e+000 -1.000000e+000  0.000000e+000
    outer loop
      vertex -7.500000e+000 -2.000000e+000 -3.000000e+000
      vertex -9.352347e-001 -2.000000e+000  1.172747e+000
      vertex -7.500000e+000 -2.000000e+000  3.000000e+000
    endloop
  endfacet
  facet normal  0.000000e+000 -1.000000e+000  0.000000e+000
    outer loop
      vertex  7.500000e+000 -2.000000e+000  3.000000e+000
      vertex -7.500000e+000 -2.000000e+000  3.000000e+000
      vertex -3.337814e-001 -2.000000e+000  1.462392e+000
    endloop
  endfacet
  facet normal  0.000000e+000 -1.000000e+000  0.000000e+000
    outer loop
      vertex  7.500000e+000 -2.000000e+000  3.000000e+000
      vertex -3.337814e-001 -2.000000e+000  1.462392e+000
      vertex  3.337814e-001 -2.000000e+000  1.462392e+000
    endloop
  endfacet
  facet normal  0.000000e+000 -9.999999e-001  0.000000e+000
    outer loop
      vertex  7.500000e+000 -2.000000e+000  3.000000e+000
      vertex  3.337814e-001 -2.000000e+000  1.462392e+000
      vertex  9.352347e-001 -2.000000e+000  1.172747e+000
    endloop
  endfacet
  facet normal  0.000000e+000 -1.000000e+000  0.000000e+000
    outer loop
      vertex  7.500000e+000 -2.000000e+000  3.000000e+000
      vertex  9.352347e-001 -2.000000e+000  1.172747e+000
      vertex  1.351453e+000 -2.000000e+000  6.508256e-001
    endloop
  endfacet
  facet normal  0.000000e+000 -1.000000e+000  0.000000e+000
    outer loop
      vertex  7.500000e+000 -2.000000e+000  3.000000e+000
      vertex  1.351453e+000 -2.000000e+000  6.508256e-001
      vertex  1.500000e+000 -2.000000e+000  0.000000e+000
    endloop
  endfacet
  facet normal  0.000000e+000  0.000000e+000  1.000000e+000
    outer loop
      vertex  7.500000e+000 -2.000000e+000  3.000000e+000
      vertex  7.500000e+000  2.800000e+000  3.000000e+000
      vertex  6.500000e+000  2.800000e+000  3.000000e+000
    endloop
  endfacet
  facet normal  0.000000e+000  0.000000e+000  1.000000e+000
    outer loop
      vertex  7.500000e+000 -2.000000e+000  3.000000e+000
      vertex  6.500000e+000  2.800000e+000  3.000000e+000
      vertex  6.500000e+000  2.000000e+000  3.000000e+000
    endloop
  endfacet
  facet normal  0.000000e+000  0.000000e+000  1.000000e+000
    outer loop
      vertex  7.500000e+000 -2.000000e+000  3.000000e+000
      vertex  6.500000e+000  2.000000e+000  3.000000e+000
      vertex  5.500000e+000  2.000000e+000  3.000000e+000
    endloop
  endfacet
  facet normal  0.000000e+000  0.000000e+000  1.000000e+000
    outer loop
      vertex  7.500000e+000 -2.000000e+000  3.000000e+000
      vertex  5.500000e+000  2.000000e+000  3.000000e+000
      vertex  4.500000e+000  2.000000e+000  3.000000e+000
    endloop
  endfacet
  facet normal  0.000000e+000  0.000000e+000  1.000000e+000
    outer loop
      vertex  7.500000e+000 -2.000000e+000  3.000000e+000
      vertex  4.500000e+000  2.000000e+000  3.000000e+000
      vertex  3.500000e+000  2.000000e+000  3.000000e+000
    endloop
  endfacet
  facet normal  0.000000e+000  0.000000e+000  1.000000e+000
    outer loop
      vertex  7.500000e+000 -2.000000e+000  3.000000e+000
      vertex  3.500000e+000  2.000000e+000  3.000000e+000
      vertex  2.500000e+000  2.000000e+000  3.000000e+000
    endloop
  endfacet
  facet normal  0.000000e+000  0.000000e+000  1.000000e+000
    outer loop
      vertex  7.500000e+000 -2.000000e+000  3.000000e+000
      vertex  2.500000e+000  2.000000e+000  3.000000e+000
      vertex  1.500000e+000  2.000000e+000  3.000000e+000
    endloop
  endfacet
  facet normal  0.000000e+000  0.000000e+000  1.000000e+000
    outer loop
      vertex  7.500000e+000 -2.000000e+000  3.000000e+000
      vertex  1.500000e+000  2.000000e+000  3.000000e+000
      vertex  5.000000e-001  2.000000e+000  3.000000e+000
    endloop
  endfacet
  facet normal  0.000000e+000  0.000000e+000  1.000000e+000
    outer loop
      vertex  7.500000e+000 -2.000000e+000  3.000000e+000
      vertex  5.000000e-001  2.000000e+000  3.000000e+000
      vertex -5.000000e-001  2.000000e+000  3.000000e+000
    endloop
  endfacet
  facet normal  0.000000e+000  0.000000e+000  1.000000e+000
    outer loop
      vertex  7.500000e+000 -2.000000e+000  3.000000e+000
      vertex -5.000000e-001  2.000000e+000  3.000000e+000
      vertex -1.500000e+000  2.000000e+000  3.000000e+000
    endloop
  endfacet
  facet normal  0.000000e+000  0.000000e+000  1.000000e+000
    outer loop
      vertex  7.500000e+000 -2.000000e+000  3.000000e+000
      vertex -1.500000e+000  2.000000e+000  3.000000e+000
      vertex -2.500000e+000  2.000000e+000  3.000000e+000
    endloop
  endfacet
  facet normal  0.000000e+000  0.000000e+000  1.000000e+000
    outer loop
      vertex  7.500000e+000 -2.000000e+000  3.000000e+000
      vertex -2.500000e+000  2.000000e+000  3.000000e+000
      vertex -3.500000e+000  2.000000e+000  3.000000e+000
    endloop
  endfacet
  facet normal  0.000000e+000  0.000000e+000  1.000000e+000
    outer loop
      vertex  7.500000e+000 -2.000000e+000  3.000000e+000
      vertex -3.500000e+000  2.000000e+000  3.000000e+000
      vertex -4.500000e+000  2.000000e+000  3.000000e+000
    endloop
  endfacet
  facet normal  0.000000e+000  0.000000e+000  1.000000e+000
    outer loop
      vertex  7.500000e+000 -2.000000e+000  3.000000e+000
      vertex -4.500000e+000  2.000000e+000  3.000000e+000
      vertex -5.500000e+000  2.000000e+000  3.000000e+000
    endloop
  endfacet
  facet normal  0.000000e+000  0.000000e+000  1.000000e+000
    outer loop
      vertex  7.500000e+000 -2.000000e+000  3.000000e+000
      vertex -5.500000e+000  2.000000e+000  3.000000e+000
      vertex -6.500000e+000  2.000000e+000  3.000000e+000
    endloop
  endfacet
  facet normal  0.000000e+000  0.000000e+000  1.000000e+000
    outer loop
      vertex  7.500000e+000 -2.000000e+000  3.000000e+000
      vertex -6.500000e+000  2.000000e+000  3.000000e+000
      vertex -7.500000e+000 -2.000000e+000  3.000000e+000
    endloop
  endfacet
  facet normal  0.000000e+000  0.000000e+000  1.000000e+000
    outer loop
      vertex -7.500000e+000 -2.000000e+000  3.000000e+000
      vertex -6.500000e+000  2.000000e+000  3.000000e+000
      vertex -7.500000e+000  2.800000e+000  3.000000e+000
    endloop
  endfacet
  facet normal  -0.000000e+000  0.000000e+000  1.000000e+000
    outer loop
      vertex -7.500000e+000  2.800000e+000  3.000000e+000
      vertex -6.500000e+000  2.000000e+000  3.000000e+000
      vertex -6.500000e+000  2.800000e+000  3.000000e+000
    endloop
  endfacet
  facet normal  0.000000e+000  0.000000e+000  1.000000e+000
    outer loop
      vertex -5.500000e+000  2.000000e+000  3.000000e+000
      vertex -4.500000e+000  2.000000e+000  3.000000e+000
      vertex -5.500000e+000  2.800000e+000  3.000000e+000
    endloop
  endfacet
  facet normal  -0.000000e+000  0.000000e+000  1.000000e+000
    outer loop
      vertex -5.500000e+000  2.800000e+000  3.000000e+000
      vertex -4.500000e+000  2.000000e+000  3.000000e+000
      vertex -4.500000e+000  2.800000e+000  3.000000e+000
    endloop
  endfacet
  facet normal  0.000000e+000  0.000000e+000  1.000000e+000
    outer loop
      vertex -3.500000e+000  2.000000e+000  3.000000e+000
      vertex -2.500000e+000  2.000000e+000  3.000000e+000
      vertex -3.500000e+000  2.800000e+000  3.000000e+000
    endloop
  endfacet
  facet normal  -0.000000e+000  0.000000e+000  1.000000e+000
    outer loop
      vertex -3.500000e+000  2.800000e+000  3.000000e+000
      vertex -2.500000e+000  2.000000e+000  3.000000e+000
      vertex -2.500000e+000  2.800000e+000  3.000000e+000
    endloop
  endfacet
  facet normal  0.000000e+000  0.000000e+000  1.000000e+000
    outer loop
      vertex -1.500000e+000  2.000000e+000  3.000000e+000
      vertex -5.000000e-001  2.000000e+000  3.000000e+000
      vertex -1.500000e+000  2.800000e+000  3.000000e+000
    endloop
  endfacet
  facet normal  -0.000000e+000  0.000000e+000  1.000000e+000
    outer loop
      vertex -1.500000e+000  2.800000e+000  3.000000e+000
      vertex -5.000000e-001  2.000000e+000  3.000000e+000
      vertex -5.000000e-001  2.800000e+000  3.000000e+000
    endloop
  endfacet
  facet normal  0.000000e+000  0.000000e+000  1.000000e+000
    outer loop
      vertex  5.000000e-001  2.000000e+000  3.000000e+000
      vertex  1.500000e+000  2.000000e+000  3.000000e+000
      vertex  5.000000e-001  2.800000e+000  3.000000e+000
    endloop
  endfacet
  facet normal  -0.000000e+000  0.000000e+000  1.000000e+000
    outer loop
      vertex  5.000000e-001  2.800000e+000  3.000000e+000
      vertex  1.500000e+000  2.000000e+000  3.000000e+000
      vertex  1.500000e+000  2.800000e+000  3.000000e+000
    endloop
  endfacet
  facet normal  0.000000e+000  0.000000e+000  1.000000e+000
    outer loop
      vertex  2.500000e+000  2.000000e+000  3.000000e+000
      vertex  3.500000e+000  2.000000e+000  3.000000e+000
      vertex  2.500000e+000  2.800000e+000  3.000000e+000
    endloop
  endfacet
  facet normal  -0.000000e+000  0.000000e+000  1.000000e+000
    outer loop
      vertex  2.500000e+000  2.800000e+000  3.000000e+000
      vertex  3.500000e+000  2.000000e+000  3.000000e+000
      vertex  3.500000e+000  2.800000e+000  3.000000e+000
    endloop
  endfacet
  facet normal  0.000000e+000  0.000000e+000  1.000000e+000
    outer loop
      vertex  4.500000e+000  2.000000e+000  3.000000e+000
      vertex  5.500000e+000  2.000000e+000  3.000000e+000
      vertex  4.500000e+000  2.800000e+000  3.000000e+000
    endloop
  endfacet
  facet normal  -0.000000e+000  0.000000e+000  1.000000e+000
    outer loop
      vertex  4.500000e+000  2.800000e+000  3.000000e+000
      vertex  5.500000e+000  2.000000e+000  3.000000e+000
      vertex  5.500000e+000  2.800000e+000  3.000000e+000
    endloop
  endfacet
  facet normal  0.000000e+000  0.000000e+000 -1.000000e+000
    outer loop
      vertex  7.500000e+000 -2.000000e+000 -3.000000e+000
      vertex -7.500000e+000 -2.000000e+000 -3.000000e+000
      vertex -6.500000e+000  2.000000e+000 -3.000000e+000
    endloop
  endfacet
  facet normal  0.000000e+000  0.000000e+000 -1.000000e+000
    outer loop
      vertex  7.500000e+000 -2.000000e+000 -3.000000e+000
      vertex -6.500000e+000  2.000000e+000 -3.000000e+000
      vertex -5.500000e+000  2.000000e+000 -3.000000e+000
    endloop
  endfacet
  facet normal  0.000000e+000  0.000000e+000 -1.000000e+000
    outer loop
      vertex  7.500000e+000 -2.000000e+000 -3.000000e+000
      vertex -5.500000e+000  2.000000e+000 -3.000000e+000
      vertex -4.500000e+000  2.000000e+000 -3.000000e+000
    endloop
  endfacet
  facet normal  0.000000e+000  0.000000e+000 -1.000000e+000
    outer loop
      vertex  7.500000e+000 -2.000000e+000 -3.000000e+000
      vertex -4.500000e+000  2.000000e+000 -3.000000e+000
      vertex -3.500000e+000  2.000000e+000 -3.000000e+000
    endloop
  endfacet
  facet normal  0.000000e+000  0.000000e+000 -1.000000e+000
    outer loop
      vertex  7.500000e+000 -2.000000e+000 -3.000000e+000
      vertex -3.500000e+000  2.000000e+000 -3.000000e+000
      vertex -2.500000e+000  2.000000e+000 -3.000000e+000
    endloop
  endfacet
  facet normal  0.000000e+000  0.000000e+000 -1.000000e+000
    outer loop
      vertex  7.500000e+000 -2.000000e+000 -3.000000e+000
      vertex -2.500000e+000  2.000000e+000 -3.000000e+000
      vertex -1.500000e+000  2.000000e+000 -3.000000e+000
    endloop
  endfacet
  facet normal  0.000000e+000  0.000000e+000 -1.000000e+000
    outer loop
      vertex  7.500000e+000 -2.000000e+000 -3.000000e+000
      vertex -1.500000e+000  2.000000e+000 -3.000000e+000
      vertex -5.000000e-001  2.000000e+000 -3.000000e+000
    endloop
  endfacet
  facet normal  0.000000e+000  0.000000e+000 -1.000000e+000
    outer loop
      vertex  7.500000e+000 -2.000000e+000 -3.000000e+000
      vertex -5.000000e-001  2.000000e+000 -3.000000e+000
      vertex  5.000000e-001  2.000000e+000 -3.000000e+000
    endloop
  endfacet
  facet normal  0.000000e+000  0.000000e+000 -1.000000e+000
    outer loop
      vertex  7.500000e+000 -2.000000e+000 -3.000000e+000
      vertex  5.000000e-001  2.000000e+000 -3.000000e+000
      vertex  1.500000e+000  2.000000e+000 -3.000000e+000
    endloop
  endfacet
  facet normal  0.000000e+000  0.000000e+000 -1.000000e+000
    outer loop
      vertex  7.500000e+000 -2.000000e+000 -3.000000e+000
      vertex  1.500000e+000  2.000000e+000 -3.000000e+000
      vertex  2.500000e+000  2.000000e+000 -3.000000e+000
    endloop
  endfacet
  facet normal  0.000000e+000  0.000000e+000 -1.000000e+000
    outer loop
      vertex  7.500000e+000 -2.000000e+000 -3.000000e+000
      vertex  2.500000e+000  2.000000e+000 -3.000000e+000
      vertex  3.500000e+000  2.000000e+000 -3.000000e+000
    endloop
  endfacet
  facet normal  0.000000e+000  0.000000e+000 -1.000000e+000
    outer loop
      vertex  7.500000e+000 -2.000000e+000 -3.000000e+000
      vertex  3.500000e+000  2.000000e+000 -3.000000e+000
      vertex  4.500000e+000  2.000000e+000 -3.000000e+000
    endloop
  endfacet
  facet normal  0.000000e+000  0.000000e+000 -1.000000e+000
    outer loop
      vertex  7.500000e+000 -2.000000e+000 -3.000000e+000
      vertex  4.500000e+000  2.000000e+000 -3.000000e+000
      vertex  5.500000e+000  2.000000e+000 -3.000000e+000
    endloop
  endfacet
  facet normal  0.000000e+000  0.000000e+000 -1.000000e+000
    outer loop
      vertex  7.500000e+000 -2.000000e+000 -3.000000e+000
      vertex  5.500000e+000  2.000000e+000 -3.000000e+000
      vertex  6.500000e+000  2.000000e+000 -3.000000e+000
    endloop
  endfacet
  facet normal  0.000000e+000  0.000000e+000 -1.000000e+000
    outer loop
      vertex  7.500000e+000 -2.000000e+000 -3.000000e+000
      vertex  6.500000e+000  2.000000e+000 -3.000000e+000
      vertex  6.500000e+000  2.800000e+000 -3.000000e+000
    endloop
  endfacet
  facet normal  0.000000e+000  0.000000e+000 -1.000000e+000
    outer loop
      vertex  7.500000e+000 -2.000000e+000 -3.000000e+000
      vertex  6.500000e+000  2.800000e+000 -3.000000e+000
      vertex  7.500000e+000  2.800000e+000 -3.000000e+000
    endloop
  endfacet
  facet normal  0.000000e+000  0.000000e+000 -1.000000e+000
    outer loop
      vertex -7.500000e+000 -2.000000e+000 -3.000000e+000
      vertex -7.500000e+000  2.800000e+000 -3.000000e+000
      vertex -6.500000e+000  2.000000e+000 -3.000000e+000
    endloop
  endfacet
  facet normal  0.000000e+000  0.000000e+000 -1.000000e+000
    outer loop
      vertex -6.500000e+000  2.000000e+000 -3.000000e+000
      vertex -7.500000e+000  2.800000e+000 -3.000000e+000
      vertex -6.500000e+000  2.800000e+000 -3.000000e+000
    endloop
  endfacet
  facet normal  0.000000e+000  0.000000e+000 -1.000000e+000
    outer loop
      vertex -5.500000e+000  2.000000e+000 -3.000000e+000
      vertex -5.500000e+000  2.800000e+000 -3.000000e+000
      vertex -4.500000e+000  2.000000e+000 -3.000000e+000
    endloop
  endfacet
  facet normal  0.000000e+000  0.000000e+000 -1.000000e+000
    outer loop
      vertex -4.500000e+000  2.000000e+000 -3.000000e+000
      vertex -5.500000e+000  2.800000e+000 -3.000000e+000
      vertex -4.500000e+000  2.800000e+000 -3.000000e+000
    endloop
  endfacet
  facet normal  0.000000e+000  0.000000e+000 -1.000000e+000
    outer loop
      vertex -3.500000e+000  2.000000e+000 -3.000000e+000
      vertex -3.500000e+000  2.800000e+000 -3.000000e+000
      vertex -2.500000e+000  2.000000e+000 -3.000000e+000
    endloop
  endfacet
  facet normal  0.000000e+000  0.000000e+000 -1.000000e+000
    outer loop
      vertex -2.500000e+000  2.000000e+000 -3.000000e+000
      vertex -3.500000e+000  2.800000e+000 -3.000000e+000
      vertex -2.500000e+000  2.800000e+000 -3.000000e+000
    endloop
  endfacet
  facet normal  0.000000e+000  0.000000e+000 -1.000000e+000
    outer loop
      vertex -1.500000e+000  2.000000e+000 -3.000000e+000
      vertex -1.500000e+000  2.800000e+000 -3.000000e+000
      vertex -5.000000e-001  2.000000e+000 -3.000000e+000
    endloop
  endfacet
  facet normal  0.000000e+000  0.000000e+000 -1.000000e+000
    outer loop
      vertex -5.000000e-001  2.000000e+000 -3.000000e+000
      vertex -1.500000e+000  2.800000e+000 -3.000000e+000
      vertex -5.000000e-001  2.800000e+000 -3.000000e+000
    endloop
  endfacet
  facet normal  0.000000e+000  0.000000e+000 -1.000000e+000
    outer loop
      vertex  5.000000e-001  2.000000e+000 -3.000000e+000
      vertex  5.000000e-001  2.800000e+000 -3.000000e+000
      vertex  1.500000e+000  2.000000e+000 -3.000000e+000
    endloop
  endfacet
  facet normal  0.000000e+000  0.000000e+000 -1.000000e+000
    outer loop
      vertex  1.500000e+000  2.000000e+000 -3.000000e+000
      vertex  5.000000e-001  2.800000e+000 -3.000000e+000
      vertex  1.500000e+000  2.800000e+000 -3.000000e+000
    endloop
  endfacet
  facet normal  0.000000e+000  0.000000e+000 -1.000000e+000
    outer loop
      vertex  2.500000e+000  2.000000e+000 -3.000000e+000
      vertex  2.500000e+000  2.800000e+000 -3.000000e+000
      vertex  3.500000e+000  2.000000e+000 -3.000000e+000
    endloop
  endfacet
  facet normal  0.000000e+000  0.000000e+000 -1.000000e+000
    outer loop
      vertex  3.500000e+000  2.000000e+000 -3.000000e+000
      vertex  2.500000e+000  2.800000e+000 -3.000000e+000
      vertex  3.500000e+000  2.800000e+000 -3.000000e+000
    endloop
  endfacet
  facet normal  0.000000e+000  0.000000e+000 -1.000000e+000
    outer loop
      vertex  4.500000e+000  2.000000e+000 -3.000000e+000
      vertex  4.500000e+000  2.800000e+000 -3.000000e+000
      vertex  5.500000e+000  2.000000e+000 -3.000000e+000
    endloop
  endfacet
  facet normal  0.000000e+000  0.000000e+000 -1.000000e+000
    outer loop
      vertex  5.500000e+000  2.000000e+000 -3.000000e+000
      vertex  4.500000e+000  2.800000e+000 -3.000000e+000
      vertex  5.500000e+000  2.800000e+000 -3.000000e+000
    endloop
  endfacet
  facet normal  1.000000e+000  0.000000e+000  0.000000e+000
    outer loop
      vertex  7.500000e+000  2.800000e+000 -3.000000e+000
      vertex  7.500000e+000  2.800000e+000  3.000000e+000
      vertex  7.500000e+000 -2.000000e+000 -3.000000e+000
    endloop
  endfacet
  facet normal  1.000000e+000  0.000000e+000  0.000000e+000
    outer loop
      vertex  7.500000e+000 -2.000000e+000 -3.000000e+000
      vertex  7.500000e+000  2.800000e+000  3.000000e+000
      vertex  7.500000e+000 -2.000000e+000  3.000000e+000
    endloop
  endfacet
  facet normal  0.000000e+000  1.000000e+000  -0.000000e+000
    outer loop
      vertex  7.500000e+000  2.800000e+000  3.000000e+000
      vertex  7.500000e+000  2.800000e+000 -3.000000e+000
      vertex  6.500000e+000  2.800000e+000  3.000000e+000
    endloop
  endfacet
  facet normal  0.000000e+000  1.000000e+000  0.000000e+000
    outer loop
      vertex  6.500000e+000  2.800000e+000  3.000000e+000
      vertex  7.500000e+000  2.800000e+000 -3.000000e+000
      vertex  6.500000e+000  2.800000e+000 -3.000000e+000
    endloop
  endfacet
  facet normal  0.000000e+000  1.000000e+000  0.000000e+000
    outer loop
      vertex  5.500000e+000  2.000000e+000  3.000000e+000
      vertex  6.500000e+000  2.000000e+000  3.000000e+000
      vertex  5.500000e+000  2.000000e+000 -3.000000e+000
    endloop
  endfacet
  facet normal  0.000000e+000  1.000000e+000  0.000000e+000
    outer loop
      vertex  5.500000e+000  2.000000e+000 -3.000000e+000
      vertex  6.500000e+000  2.000000e+000  3.000000e+000
      vertex  6.500000e+000  2.000000e+000 -3.000000e+000
    endloop
  endfacet
  facet normal  0.000000e+000  1.000000e+000  0.000000e+000
    outer loop
      vertex  3.500000e+000  2.000000e+000  3.000000e+000
      vertex  4.500000e+000  2.000000e+000  3.000000e+000
      vertex  3.500000e+000  2.000000e+000 -3.000000e+000
    endloop
  endfacet
  facet normal  0.000000e+000  1.000000e+000  0.000000e+000
    outer loop
      vertex  3.500000e+000  2.000000e+000 -3.000000e+000
      vertex  4.500000e+000  2.000000e+000  3.000000e+000
      vertex  4.500000e+000  2.000000e+000 -3.000000e+000
    endloop
  endfacet
  facet normal  0.000000e+000  1.000000e+000  0.000000e+000
    outer loop
      vertex -6.500000e+000  2.000000e+000  3.000000e+000
      vertex -5.500000e+000  2.000000e+000  3.000000e+000
      vertex -6.500000e+000  2.000000e+000 -3.000000e+000
    endloop
  endfacet
  facet normal  0.000000e+000  1.000000e+000  0.000000e+000
    outer loop
      vertex -6.500000e+000  2.000000e+000 -3.000000e+000
      vertex -5.500000e+000  2.000000e+000  3.000000e+000
      vertex -5.500000e+000  2.000000e+000 -3.000000e+000
    endloop
  endfacet
  facet normal  0.000000e+000  1.000000e+000  0.000000e+000
    outer loop
      vertex -4.500000e+000  2.000000e+000  3.000000e+000
      vertex -3.500000e+000  2.000000e+000  3.000000e+000
      vertex -4.500000e+000  2.000000e+000 -3.000000e+000
    endloop
  endfacet
  facet normal  0.000000e+000  1.000000e+000  0.000000e+000
    outer loop
      vertex -4.500000e+000  2.000000e+000 -3.000000e+000
      vertex -3.500000e+000  2.000000e+000  3.000000e+000
      vertex -3.500000e+000  2.000000e+000 -3.000000e+000
    endloop
  endfacet
  facet normal -1.000000e+000  0.000000e+000  0.000000e+000
    outer loop
      vertex  6.500000e+000  2.000000e+000 -3.000000e+000
      vertex  6.500000e+000  2.000000e+000  3.000000e+000
      vertex  6.500000e+000  2.800000e+000 -3.000000e+000
    endloop
  endfacet
  facet normal -1.000000e+000  0.000000e+000  0.000000e+000
    outer loop
      vertex  6.500000e+000  2.800000e+000 -3.000000e+000
      vertex  6.500000e+000  2.000000e+000  3.000000e+000
      vertex  6.500000e+000  2.800000e+000  3.000000e+000
    endloop
  endfacet
  facet normal -1.000000e+000  0.000000e+000  0.000000e+000
    outer loop
      vertex  4.500000e+000  2.000000e+000 -3.000000e+000
      vertex  4.500000e+000  2.000000e+000  3.000000e+000
      vertex  4.500000e+000  2.800000e+000 -3.000000e+000
    endloop
  endfacet
  facet normal -1.000000e+000  0.000000e+000  0.000000e+000
    outer loop
      vertex  4.500000e+000  2.800000e+000 -3.000000e+000
      vertex  4.500000e+000  2.000000e+000  3.000000e+000
      vertex  4.500000e+000  2.800000e+000  3.000000e+000
    endloop
  endfacet
  facet normal  1.000000e+000  0.000000e+000  0.000000e+000
    outer loop
      vertex  5.500000e+000  2.000000e+000  3.000000e+000
      vertex  5.500000e+000  2.000000e+000 -3.000000e+000
      vertex  5.500000e+000  2.800000e+000  3.000000e+000
    endloop
  endfacet
  facet normal  1.000000e+000  0.000000e+000  0.000000e+000
    outer loop
      vertex  5.500000e+000  2.800000e+000  3.000000e+000
      vertex  5.500000e+000  2.000000e+000 -3.000000e+000
      vertex  5.500000e+000  2.800000e+000 -3.000000e+000
    endloop
  endfacet
  facet normal -1.000000e+000  0.000000e+000  0.000000e+000
    outer loop
      vertex  2.500000e+000  2.000000e+000 -3.000000e+000
      vertex  2.500000e+000  2.000000e+000  3.000000e+000
      vertex  2.500000e+000  2.800000e+000 -3.000000e+000
    endloop
  endfacet
  facet normal -1.000000e+000  0.000000e+000  0.000000e+000
    outer loop
      vertex  2.500000e+000  2.800000e+000 -3.000000e+000
      vertex  2.500000e+000  2.000000e+000  3.000000e+000
      vertex  2.500000e+000  2.800000e+000  3.000000e+000
    endloop
  endfacet
  facet normal  1.000000e+000  0.000000e+000  0.000000e+000
    outer loop
      vertex  3.500000e+000  2.000000e+000  3.000000e+000
      vertex  3.500000e+000  2.000000e+000 -3.000000e+000
      vertex  3.500000e+000  2.800000e+000  3.000000e+000
    endloop
  endfacet
  facet normal  1.000000e+000  0.000000e+000  0.000000e+000
    outer loop
      vertex  3.500000e+000  2.800000e+000  3.000000e+000
      vertex  3.500000e+000  2.000000e+000 -3.000000e+000
      vertex  3.500000e+000  2.800000e+000 -3.000000e+000
    endloop
  endfacet
  facet normal -1.000000e+000  0.000000e+000  0.000000e+000
    outer loop
      vertex -3.500000e+000  2.000000e+000 -3.000000e+000
      vertex -3.500000e+000  2.000000e+000  3.000000e+000
      vertex -3.500000e+000  2.800000e+000 -3.000000e+000
    endloop
  endfacet
  facet normal -1.000000e+000  0.000000e+000  0.000000e+000
    outer loop
      vertex -3.500000e+000  2.800000e+000 -3.000000e+000
      vertex -3.500000e+000  2.000000e+000  3.000000e+000
      vertex -3.500000e+000  2.800000e+000  3.000000e+000
    endloop
  endfacet
  facet normal  1.000000e+000  0.000000e+000  0.000000e+000
    outer loop
      vertex -2.500000e+000  2.000000e+000  3.000000e+000
      vertex -2.500000e+000  2.000000e+000 -3.000000e+000
      vertex -2.500000e+000  2.800000e+000  3.000000e+000
    endloop
  endfacet
  facet normal  1.000000e+000  0.000000e+000  0.000000e+000
    outer loop
      vertex -2.500000e+000  2.800000e+000  3.000000e+000
      vertex -2.500000e+000  2.000000e+000 -3.000000e+000
      vertex -2.500000e+000  2.800000e+000 -3.000000e+000
    endloop
  endfacet
  facet normal -1.000000e+000  0.000000e+000  0.000000e+000
    outer loop
      vertex -5.500000e+000  2.000000e+000 -3.000000e+000
      vertex -5.500000e+000  2.000000e+000  3.000000e+000
      vertex -5.500000e+000  2.800000e+000 -3.000000e+000
    endloop
  endfacet
  facet normal -1.000000e+000  0.000000e+000  0.000000e+000
    outer loop
      vertex -5.500000e+000  2.800000e+000 -3.000000e+000
      vertex -5.500000e+000  2.000000e+000  3.000000e+000
      vertex -5.500000e+000  2.800000e+000  3.000000e+000
    endloop
  endfacet
  facet normal  1.000000e+000  0.000000e+000  0.000000e+000
    outer loop
      vertex -4.500000e+000  2.000000e+000  3.000000e+000
      vertex -4.500000e+000  2.000000e+000 -3.000000e+000
      vertex -4.500000e+000  2.800000e+000  3.000000e+000
    endloop
  endfacet
  facet normal  1.000000e+000  0.000000e+000  0.000000e+000
    outer loop
      vertex -4.500000e+000  2.800000e+000  3.000000e+000
      vertex -4.500000e+000  2.000000e+000 -3.000000e+000
      vertex -4.500000e+000  2.800000e+000 -3.000000e+000
    endloop
  endfacet
  facet normal  0.000000e+000  1.000000e+000  -0.000000e+000
    outer loop
      vertex  5.500000e+000  2.800000e+000  3.000000e+000
      vertex  5.500000e+000  2.800000e+000 -3.000000e+000
      vertex  4.500000e+000  2.800000e+000  3.000000e+000
    endloop
  endfacet
  facet normal  0.000000e+000  1.000000e+000  0.000000e+000
    outer loop
      vertex  4.500000e+000  2.800000e+000  3.000000e+000
      vertex  5.500000e+000  2.800000e+000 -3.000000e+000
      vertex  4.500000e+000  2.800000e+000 -3.000000e+000
    endloop
  endfacet
  facet normal  0.000000e+000  1.000000e+000  -0.000000e+000
    outer loop
      vertex  3.500000e+000  2.800000e+000  3.000000e+000
      vertex  3.500000e+000  2.800000e+000 -3.000000e+000
      vertex  2.500000e+000  2.800000e+000  3.000000e+000
    endloop
  endfacet
  facet normal  0.000000e+000  1.000000e+000  0.000000e+000
    outer loop
      vertex  2.500000e+000  2.800000e+000  3.000000e+000
      vertex  3.500000e+000  2.800000e+000 -3.000000e+000
      vertex  2.500000e+000  2.800000e+000 -3.000000e+000
    endloop
  endfacet
  facet normal  0.000000e+000  1.000000e+000  -0.000000e+000
    outer loop
      vertex -2.500000e+000  2.800000e+000  3.000000e+000
      vertex -2.500000e+000  2.800000e+000 -3.000000e+000
      vertex -3.500000e+000  2.800000e+000  3.000000e+000
    endloop
  endfacet
  facet normal  0.000000e+000  1.000000e+000  0.000000e+000
    outer loop
      vertex -3.500000e+000  2.800000e+000  3.000000e+000
      vertex -2.500000e+000  2.800000e+000 -3.000000e+000
      vertex -3.500000e+000  2.800000e+000 -3.000000e+000
    endloop
  endfacet
  facet normal  0.000000e+000  1.000000e+000  -0.000000e+000
    outer loop
      vertex -4.500000e+000  2.800000e+000  3.000000e+000
      vertex -4.500000e+000  2.800000e+000 -3.000000e+000
      vertex -5.500000e+000  2.800000e+000  3.000000e+000
    endloop
  endfacet
  facet normal  0.000000e+000  1.000000e+000  0.000000e+000
    outer loop
      vertex -5.500000e+000  2.800000e+000  3.000000e+000
      vertex -4.500000e+000  2.800000e+000 -3.000000e+000
      vertex -5.500000e+000  2.800000e+000 -3.000000e+000
    endloop
  endfacet
  facet normal  0.000000e+000  1.000000e+000  -0.000000e+000
    outer loop
      vertex -6.500000e+000  2.800000e+000  3.000000e+000
      vertex -6.500000e+000  2.800000e+000 -3.000000e+000
      vertex -7.500000e+000  2.800000e+000  3.000000e+000
    endloop
  endfacet
  facet normal  0.000000e+000  1.000000e+000  0.000000e+000
    outer loop
      vertex -7.500000e+000  2.800000e+000  3.000000e+000
      vertex -6.500000e+000  2.800000e+000 -3.000000e+000
      vertex -7.500000e+000  2.800000e+000 -3.000000e+000
    endloop
  endfacet
  facet normal -1.000000e+000  0.000000e+000  0.000000e+000
    outer loop
      vertex -7.500000e+000 -2.000000e+000 -3.000000e+000
      vertex -7.500000e+000 -2.000000e+000  3.000000e+000
      vertex -7.500000e+000  2.800000e+000 -3.000000e+000
    endloop
  endfacet
  facet normal -1.000000e+000  0.000000e+000  0.000000e+000
    outer loop
      vertex -7.500000e+000  2.800000e+000 -3.000000e+000
      vertex -7.500000e+000 -2.000000e+000  3.000000e+000
      vertex -7.500000e+000  2.800000e+000  3.000000e+000
    endloop
  endfacet
  facet normal  1.000000e+000  0.000000e+000  0.000000e+000
    outer loop
      vertex -6.500000e+000  2.000000e+000  3.000000e+000
      vertex -6.500000e+000  2.000000e+000 -3.000000e+000
      vertex -6.500000e+000  2.800000e+000  3.000000e+000
    endloop
  endfacet
  facet normal  1.000000e+000  0.000000e+000  0.000000e+000
    outer loop
      vertex -6.500000e+000  2.800000e+000  3.000000e+000
      vertex -6.500000e+000  2.000000e+000 -3.000000e+000
      vertex -6.500000e+000  2.800000e+000 -3.000000e+000
    endloop
  endfacet
endsolid CATIA STL
