solid CATIA STL
  facet normal  0.000000e+000 -1.000000e+000  0.000000e+000
    outer loop
      vertex -4.592425e-016  0.000000e+000 -2.500000e+000
      vertex -1.700000e+001  0.000000e+000 -6.500000e+000
      vertex -1.686603e+001  0.000000e+000 -7.000000e+000
    endloop
  endfacet
  facet normal  0.000000e+000 -1.000000e+000  0.000000e+000
    outer loop
      vertex -4.592425e-016  0.000000e+000 -2.500000e+000
      vertex -1.686603e+001  0.000000e+000 -7.000000e+000
      vertex -1.650000e+001  0.000000e+000 -7.366025e+000
    endloop
  endfacet
  facet normal  0.000000e+000 -1.000000e+000  0.000000e+000
    outer loop
      vertex -4.592425e-016  0.000000e+000 -2.500000e+000
      vertex -1.650000e+001  0.000000e+000 -7.366025e+000
      vertex -1.600000e+001  0.000000e+000 -7.500000e+000
    endloop
  endfacet
  facet normal  0.000000e+000 -9.999999e-001  0.000000e+000
    outer loop
      vertex  1.700000e+001  0.000000e+000 -6.500000e+000
      vertex  1.469463e+000  0.000000e+000  2.022542e+000
      vertex  2.022542e+000  0.000000e+000  1.469463e+000
    endloop
  endfacet
  facet normal  0.000000e+000 -1.000000e+000  0.000000e+000
    outer loop
      vertex  1.700000e+001  0.000000e+000 -6.500000e+000
      vertex  2.022542e+000  0.000000e+000  1.469463e+000
      vertex  2.377641e+000  0.000000e+000  7.725425e-001
    endloop
  endfacet
  facet normal  0.000000e+000 -1.000000e+000  0.000000e+000
    outer loop
      vertex  1.700000e+001  0.000000e+000 -6.500000e+000
      vertex  2.377641e+000  0.000000e+000  7.725425e-001
      vertex  2.500000e+000  0.000000e+000  0.000000e+000
    endloop
  endfacet
  facet normal  0.000000e+000 -1.000000e+000  -0.000000e+000
    outer loop
      vertex  1.700000e+001  0.000000e+000 -6.500000e+000
      vertex  2.500000e+000  0.000000e+000  0.000000e+000
      vertex  2.377641e+000  0.000000e+000 -7.725425e-001
    endloop
  endfacet
  facet normal  0.000000e+000 -1.000000e+000  -0.000000e+000
    outer loop
      vertex  1.700000e+001  0.000000e+000 -6.500000e+000
      vertex  2.377641e+000  0.000000e+000 -7.725425e-001
      vertex  2.022542e+000  0.000000e+000 -1.469463e+000
    endloop
  endfacet
  facet normal  0.000000e+000 -1.000000e+000  -0.000000e+000
    outer loop
      vertex  1.700000e+001  0.000000e+000 -6.500000e+000
      vertex  2.022542e+000  0.000000e+000 -1.469463e+000
      vertex  1.469463e+000  0.000000e+000 -2.022542e+000
    endloop
  endfacet
  facet normal  0.000000e+000 -1.000000e+000  -0.000000e+000
    outer loop
      vertex  1.700000e+001  0.000000e+000 -6.500000e+000
      vertex  1.469463e+000  0.000000e+000 -2.022542e+000
      vertex  7.725425e-001  0.000000e+000 -2.377641e+000
    endloop
  endfacet
  facet normal  0.000000e+000 -1.000000e+000  -0.000000e+000
    outer loop
      vertex  1.700000e+001  0.000000e+000 -6.500000e+000
      vertex  7.725425e-001  0.000000e+000 -2.377641e+000
      vertex -4.592425e-016  0.000000e+000 -2.500000e+000
    endloop
  endfacet
  facet normal  -0.000000e+000 -1.000000e+000  -0.000000e+000
    outer loop
      vertex  1.700000e+001  0.000000e+000  6.500000e+000
      vertex  1.686603e+001  0.000000e+000  7.000000e+000
      vertex  1.650000e+001  0.000000e+000  7.366025e+000
    endloop
  endfacet
  facet normal  0.000000e+000 -1.000000e+000  -0.000000e+000
    outer loop
      vertex  1.700000e+001  0.000000e+000  6.500000e+000
      vertex  1.650000e+001  0.000000e+000  7.366025e+000
      vertex  1.530808e-016  0.000000e+000  2.500000e+000
    endloop
  endfacet
  facet normal  0.000000e+000 -1.000000e+000  0.000000e+000
    outer loop
      vertex  1.700000e+001  0.000000e+000  6.500000e+000
      vertex  1.530808e-016  0.000000e+000  2.500000e+000
      vertex  7.725425e-001  0.000000e+000  2.377641e+000
    endloop
  endfacet
  facet normal  0.000000e+000 -1.000000e+000  0.000000e+000
    outer loop
      vertex  1.700000e+001  0.000000e+000  6.500000e+000
      vertex  7.725425e-001  0.000000e+000  2.377641e+000
      vertex  1.469463e+000  0.000000e+000  2.022542e+000
    endloop
  endfacet
  facet normal  0.000000e+000 -1.000000e+000  0.000000e+000
    outer loop
      vertex  1.700000e+001  0.000000e+000  6.500000e+000
      vertex  1.469463e+000  0.000000e+000  2.022542e+000
      vertex  1.700000e+001  0.000000e+000 -6.500000e+000
    endloop
  endfacet
  facet normal  -0.000000e+000 -1.000000e+000  0.000000e+000
    outer loop
      vertex -1.700000e+001  0.000000e+000 -6.500000e+000
      vertex -4.592425e-016  0.000000e+000 -2.500000e+000
      vertex -7.725425e-001  0.000000e+000 -2.377641e+000
    endloop
  endfacet
  facet normal  -0.000000e+000 -1.000000e+000  0.000000e+000
    outer loop
      vertex -1.700000e+001  0.000000e+000 -6.500000e+000
      vertex -7.725425e-001  0.000000e+000 -2.377641e+000
      vertex -1.469463e+000  0.000000e+000 -2.022542e+000
    endloop
  endfacet
  facet normal  -0.000000e+000 -1.000000e+000  0.000000e+000
    outer loop
      vertex -1.700000e+001  0.000000e+000 -6.500000e+000
      vertex -1.469463e+000  0.000000e+000 -2.022542e+000
      vertex -2.022542e+000  0.000000e+000 -1.469463e+000
    endloop
  endfacet
  facet normal  -0.000000e+000 -1.000000e+000  0.000000e+000
    outer loop
      vertex -1.700000e+001  0.000000e+000 -6.500000e+000
      vertex -2.022542e+000  0.000000e+000 -1.469463e+000
      vertex -2.377641e+000  0.000000e+000 -7.725425e-001
    endloop
  endfacet
  facet normal  -0.000000e+000 -1.000000e+000  0.000000e+000
    outer loop
      vertex -1.700000e+001  0.000000e+000 -6.500000e+000
      vertex -2.377641e+000  0.000000e+000 -7.725425e-001
      vertex -2.500000e+000  0.000000e+000  3.061617e-016
    endloop
  endfacet
  facet normal  -0.000000e+000 -9.999999e-001  0.000000e+000
    outer loop
      vertex -1.700000e+001  0.000000e+000 -6.500000e+000
      vertex -2.500000e+000  0.000000e+000  3.061617e-016
      vertex -2.377641e+000  0.000000e+000  7.725425e-001
    endloop
  endfacet
  facet normal  -0.000000e+000 -1.000000e+000  0.000000e+000
    outer loop
      vertex -1.700000e+001  0.000000e+000 -6.500000e+000
      vertex -2.377641e+000  0.000000e+000  7.725425e-001
      vertex -2.022542e+000  0.000000e+000  1.469463e+000
    endloop
  endfacet
  facet normal  -0.000000e+000 -9.999999e-001  0.000000e+000
    outer loop
      vertex -1.700000e+001  0.000000e+000 -6.500000e+000
      vertex -2.022542e+000  0.000000e+000  1.469463e+000
      vertex -1.469463e+000  0.000000e+000  2.022542e+000
    endloop
  endfacet
  facet normal  0.000000e+000 -1.000000e+000  0.000000e+000
    outer loop
      vertex -1.700000e+001  0.000000e+000  6.500000e+000
      vertex -1.700000e+001  0.000000e+000 -6.500000e+000
      vertex -1.469463e+000  0.000000e+000  2.022542e+000
    endloop
  endfacet
  facet normal  0.000000e+000 -1.000000e+000  0.000000e+000
    outer loop
      vertex -1.700000e+001  0.000000e+000  6.500000e+000
      vertex -1.469463e+000  0.000000e+000  2.022542e+000
      vertex -7.725425e-001  0.000000e+000  2.377641e+000
    endloop
  endfacet
  facet normal  0.000000e+000 -1.000000e+000  0.000000e+000
    outer loop
      vertex -1.700000e+001  0.000000e+000  6.500000e+000
      vertex -7.725425e-001  0.000000e+000  2.377641e+000
      vertex  1.530808e-016  0.000000e+000  2.500000e+000
    endloop
  endfacet
  facet normal  -0.000000e+000 -1.000000e+000  0.000000e+000
    outer loop
      vertex  1.530808e-016  0.000000e+000  2.500000e+000
      vertex  1.650000e+001  0.000000e+000  7.366025e+000
      vertex  1.600000e+001  0.000000e+000  7.500000e+000
    endloop
  endfacet
  facet normal  -0.000000e+000 -1.000000e+000  0.000000e+000
    outer loop
      vertex  1.530808e-016  0.000000e+000  2.500000e+000
      vertex  1.600000e+001  0.000000e+000  7.500000e+000
      vertex -1.600000e+001  0.000000e+000  7.500000e+000
    endloop
  endfacet
  facet normal  0.000000e+000 -1.000000e+000  -0.000000e+000
    outer loop
      vertex  1.530808e-016  0.000000e+000  2.500000e+000
      vertex -1.600000e+001  0.000000e+000  7.500000e+000
      vertex -1.650000e+001  0.000000e+000  7.366025e+000
    endloop
  endfacet
  facet normal  0.000000e+000 -1.000000e+000  -0.000000e+000
    outer loop
      vertex  1.530808e-016  0.000000e+000  2.500000e+000
      vertex -1.650000e+001  0.000000e+000  7.366025e+000
      vertex -1.686603e+001  0.000000e+000  7.000000e+000
    endloop
  endfacet
  facet normal  0.000000e+000 -1.000000e+000  -0.000000e+000
    outer loop
      vertex  1.530808e-016  0.000000e+000  2.500000e+000
      vertex -1.686603e+001  0.000000e+000  7.000000e+000
      vertex -1.700000e+001  0.000000e+000  6.500000e+000
    endloop
  endfacet
  facet normal  0.000000e+000 -1.000000e+000  0.000000e+000
    outer loop
      vertex -1.600000e+001  0.000000e+000 -7.500000e+000
      vertex  1.600000e+001  0.000000e+000 -7.500000e+000
      vertex -4.592425e-016  0.000000e+000 -2.500000e+000
    endloop
  endfacet
  facet normal  0.000000e+000 -1.000000e+000  0.000000e+000
    outer loop
      vertex -4.592425e-016  0.000000e+000 -2.500000e+000
      vertex  1.600000e+001  0.000000e+000 -7.500000e+000
      vertex  1.700000e+001  0.000000e+000 -6.500000e+000
    endloop
  endfacet
  facet normal  -0.000000e+000 -1.000000e+000  0.000000e+000
    outer loop
      vertex  1.600000e+001  0.000000e+000 -7.500000e+000
      vertex  1.650000e+001  0.000000e+000 -7.366025e+000
      vertex  1.700000e+001  0.000000e+000 -6.500000e+000
    endloop
  endfacet
  facet normal  0.000000e+000 -1.000000e+000  0.000000e+000
    outer loop
      vertex  1.700000e+001  0.000000e+000 -6.500000e+000
      vertex  1.650000e+001  0.000000e+000 -7.366025e+000
      vertex  1.686603e+001  0.000000e+000 -7.000000e+000
    endloop
  endfacet
  facet normal  5.877852e-001  0.000000e+000  8.090170e-001
    outer loop
      vertex -2.317628e-001  3.000000e+000 -7.132924e-001
      vertex -6.067628e-001  5.500000e+000 -4.408389e-001
      vertex -6.067628e-001  3.000000e+000 -4.408389e-001
    endloop
  endfacet
  facet normal  9.510564e-001  -0.000000e+000  3.090169e-001
    outer loop
      vertex -6.067628e-001  3.000000e+000 -4.408389e-001
      vertex -6.067628e-001  5.500000e+000 -4.408389e-001
      vertex -7.500000e-001  5.500000e+000 -1.836970e-016
    endloop
  endfacet
  facet normal  9.510564e-001  2.270620e-017  3.090169e-001
    outer loop
      vertex -6.067628e-001  3.000000e+000 -4.408389e-001
      vertex -7.500000e-001  5.500000e+000 -1.836970e-016
      vertex -7.500000e-001  3.000000e+000  0.000000e+000
    endloop
  endfacet
  facet normal  5.877852e-001  -0.000000e+000  8.090170e-001
    outer loop
      vertex -6.067628e-001  5.500000e+000 -4.408389e-001
      vertex -2.317628e-001  3.000000e+000 -7.132924e-001
      vertex -2.317628e-001  5.500000e+000 -7.132924e-001
    endloop
  endfacet
  facet normal  0.000000e+000  0.000000e+000  1.000000e+000
    outer loop
      vertex -2.317628e-001  5.500000e+000 -7.132924e-001
      vertex -2.317628e-001  3.000000e+000 -7.132924e-001
      vertex  2.317628e-001  3.000000e+000 -7.132924e-001
    endloop
  endfacet
  facet normal  0.000000e+000  -0.000000e+000  1.000000e+000
    outer loop
      vertex -2.317628e-001  5.500000e+000 -7.132924e-001
      vertex  2.317628e-001  3.000000e+000 -7.132924e-001
      vertex  2.317628e-001  5.500000e+000 -7.132924e-001
    endloop
  endfacet
  facet normal -5.877852e-001  0.000000e+000  8.090170e-001
    outer loop
      vertex  2.317628e-001  5.500000e+000 -7.132924e-001
      vertex  2.317628e-001  3.000000e+000 -7.132924e-001
      vertex  6.067628e-001  3.000000e+000 -4.408389e-001
    endloop
  endfacet
  facet normal -5.877852e-001  0.000000e+000  8.090170e-001
    outer loop
      vertex  2.317628e-001  5.500000e+000 -7.132924e-001
      vertex  6.067628e-001  3.000000e+000 -4.408389e-001
      vertex  6.067628e-001  5.500000e+000 -4.408389e-001
    endloop
  endfacet
  facet normal -9.510564e-001  0.000000e+000  3.090169e-001
    outer loop
      vertex  6.067628e-001  5.500000e+000 -4.408389e-001
      vertex  6.067628e-001  3.000000e+000 -4.408389e-001
      vertex  7.500000e-001  3.000000e+000  9.184851e-017
    endloop
  endfacet
  facet normal -9.510564e-001  0.000000e+000  3.090169e-001
    outer loop
      vertex  6.067628e-001  5.500000e+000 -4.408389e-001
      vertex  7.500000e-001  3.000000e+000  9.184851e-017
      vertex  7.500000e-001  5.500000e+000  9.184851e-017
    endloop
  endfacet
  facet normal -5.877852e-001  -0.000000e+000 -8.090170e-001
    outer loop
      vertex  2.317628e-001  3.000000e+000  7.132924e-001
      vertex  6.067628e-001  5.500000e+000  4.408389e-001
      vertex  6.067628e-001  3.000000e+000  4.408389e-001
    endloop
  endfacet
  facet normal -9.510564e-001  0.000000e+000 -3.090169e-001
    outer loop
      vertex  6.067628e-001  3.000000e+000  4.408389e-001
      vertex  6.067628e-001  5.500000e+000  4.408389e-001
      vertex  7.500000e-001  5.500000e+000  9.184851e-017
    endloop
  endfacet
  facet normal -9.510564e-001  -0.000000e+000 -3.090169e-001
    outer loop
      vertex  6.067628e-001  3.000000e+000  4.408389e-001
      vertex  7.500000e-001  5.500000e+000  9.184851e-017
      vertex  7.500000e-001  3.000000e+000  9.184851e-017
    endloop
  endfacet
  facet normal -5.877852e-001  0.000000e+000 -8.090170e-001
    outer loop
      vertex  6.067628e-001  5.500000e+000  4.408389e-001
      vertex  2.317628e-001  3.000000e+000  7.132924e-001
      vertex  2.317628e-001  5.500000e+000  7.132924e-001
    endloop
  endfacet
  facet normal  0.000000e+000  -0.000000e+000 -1.000000e+000
    outer loop
      vertex  2.317628e-001  5.500000e+000  7.132924e-001
      vertex  2.317628e-001  3.000000e+000  7.132924e-001
      vertex -2.317628e-001  3.000000e+000  7.132924e-001
    endloop
  endfacet
  facet normal  0.000000e+000  0.000000e+000 -1.000000e+000
    outer loop
      vertex  2.317628e-001  5.500000e+000  7.132924e-001
      vertex -2.317628e-001  3.000000e+000  7.132924e-001
      vertex -2.317628e-001  5.500000e+000  7.132924e-001
    endloop
  endfacet
  facet normal  5.877852e-001  0.000000e+000 -8.090170e-001
    outer loop
      vertex -2.317628e-001  5.500000e+000  7.132924e-001
      vertex -2.317628e-001  3.000000e+000  7.132924e-001
      vertex -6.067628e-001  3.000000e+000  4.408389e-001
    endloop
  endfacet
  facet normal  5.877852e-001  0.000000e+000 -8.090170e-001
    outer loop
      vertex -2.317628e-001  5.500000e+000  7.132924e-001
      vertex -6.067628e-001  3.000000e+000  4.408389e-001
      vertex -6.067628e-001  5.500000e+000  4.408389e-001
    endloop
  endfacet
  facet normal  9.510564e-001  0.000000e+000 -3.090169e-001
    outer loop
      vertex -6.067628e-001  5.500000e+000  4.408389e-001
      vertex -6.067628e-001  3.000000e+000  4.408389e-001
      vertex -7.500000e-001  3.000000e+000  0.000000e+000
    endloop
  endfacet
  facet normal  9.510564e-001 -2.270620e-017 -3.090169e-001
    outer loop
      vertex -6.067628e-001  5.500000e+000  4.408389e-001
      vertex -7.500000e-001  3.000000e+000  0.000000e+000
      vertex -7.500000e-001  5.500000e+000 -1.836970e-016
    endloop
  endfacet
  facet normal  -0.000000e+000 -1.000000e+000  0.000000e+000
    outer loop
      vertex -4.592425e-016  3.000000e+000 -2.500000e+000
      vertex  7.725425e-001  3.000000e+000 -2.377641e+000
      vertex  1.469463e+000  3.000000e+000 -2.022542e+000
    endloop
  endfacet
  facet normal  -0.000000e+000 -1.000000e+000  0.000000e+000
    outer loop
      vertex -4.592425e-016  3.000000e+000 -2.500000e+000
      vertex  1.469463e+000  3.000000e+000 -2.022542e+000
      vertex  2.022542e+000  3.000000e+000 -1.469463e+000
    endloop
  endfacet
  facet normal  -0.000000e+000 -1.000000e+000  0.000000e+000
    outer loop
      vertex -4.592425e-016  3.000000e+000 -2.500000e+000
      vertex  2.022542e+000  3.000000e+000 -1.469463e+000
      vertex  2.377641e+000  3.000000e+000 -7.725425e-001
    endloop
  endfacet
  facet normal  -0.000000e+000 -1.000000e+000  0.000000e+000
    outer loop
      vertex -4.592425e-016  3.000000e+000 -2.500000e+000
      vertex  2.377641e+000  3.000000e+000 -7.725425e-001
      vertex  2.317628e-001  3.000000e+000 -7.132924e-001
    endloop
  endfacet
  facet normal  -0.000000e+000 -1.000000e+000  0.000000e+000
    outer loop
      vertex -4.592425e-016  3.000000e+000 -2.500000e+000
      vertex  2.317628e-001  3.000000e+000 -7.132924e-001
      vertex -2.317628e-001  3.000000e+000 -7.132924e-001
    endloop
  endfacet
  facet normal  0.000000e+000 -1.000000e+000  -0.000000e+000
    outer loop
      vertex -4.592425e-016  3.000000e+000 -2.500000e+000
      vertex -2.317628e-001  3.000000e+000 -7.132924e-001
      vertex -2.377641e+000  3.000000e+000 -7.725425e-001
    endloop
  endfacet
  facet normal  0.000000e+000 -1.000000e+000  0.000000e+000
    outer loop
      vertex -4.592425e-016  3.000000e+000 -2.500000e+000
      vertex -2.377641e+000  3.000000e+000 -7.725425e-001
      vertex -2.022542e+000  3.000000e+000 -1.469463e+000
    endloop
  endfacet
  facet normal  0.000000e+000 -1.000000e+000  0.000000e+000
    outer loop
      vertex -4.592425e-016  3.000000e+000 -2.500000e+000
      vertex -2.022542e+000  3.000000e+000 -1.469463e+000
      vertex -1.469463e+000  3.000000e+000 -2.022542e+000
    endloop
  endfacet
  facet normal  0.000000e+000 -1.000000e+000  0.000000e+000
    outer loop
      vertex -4.592425e-016  3.000000e+000 -2.500000e+000
      vertex -1.469463e+000  3.000000e+000 -2.022542e+000
      vertex -7.725425e-001  3.000000e+000 -2.377641e+000
    endloop
  endfacet
  facet normal  -0.000000e+000 -1.000000e+000  0.000000e+000
    outer loop
      vertex -2.377641e+000  3.000000e+000 -7.725425e-001
      vertex -2.317628e-001  3.000000e+000 -7.132924e-001
      vertex -6.067628e-001  3.000000e+000 -4.408389e-001
    endloop
  endfacet
  facet normal  -0.000000e+000 -1.000000e+000  0.000000e+000
    outer loop
      vertex -2.377641e+000  3.000000e+000 -7.725425e-001
      vertex -6.067628e-001  3.000000e+000 -4.408389e-001
      vertex -7.500000e-001  3.000000e+000  0.000000e+000
    endloop
  endfacet
  facet normal  -0.000000e+000 -9.999999e-001  0.000000e+000
    outer loop
      vertex -2.377641e+000  3.000000e+000 -7.725425e-001
      vertex -7.500000e-001  3.000000e+000  0.000000e+000
      vertex -2.500000e+000  3.000000e+000  3.061617e-016
    endloop
  endfacet
  facet normal  0.000000e+000 -1.000000e+000  0.000000e+000
    outer loop
      vertex -1.469463e+000  3.000000e+000  2.022542e+000
      vertex -2.022542e+000  3.000000e+000  1.469463e+000
      vertex -7.725425e-001  3.000000e+000  2.377641e+000
    endloop
  endfacet
  facet normal  0.000000e+000 -1.000000e+000  0.000000e+000
    outer loop
      vertex -7.725425e-001  3.000000e+000  2.377641e+000
      vertex -2.022542e+000  3.000000e+000  1.469463e+000
      vertex -2.377641e+000  3.000000e+000  7.725425e-001
    endloop
  endfacet
  facet normal  0.000000e+000 -1.000000e+000  0.000000e+000
    outer loop
      vertex -7.725425e-001  3.000000e+000  2.377641e+000
      vertex -2.377641e+000  3.000000e+000  7.725425e-001
      vertex  1.530808e-016  3.000000e+000  2.500000e+000
    endloop
  endfacet
  facet normal  0.000000e+000 -1.000000e+000  0.000000e+000
    outer loop
      vertex  1.530808e-016  3.000000e+000  2.500000e+000
      vertex -2.377641e+000  3.000000e+000  7.725425e-001
      vertex -2.317628e-001  3.000000e+000  7.132924e-001
    endloop
  endfacet
  facet normal  0.000000e+000 -1.000000e+000  0.000000e+000
    outer loop
      vertex  1.530808e-016  3.000000e+000  2.500000e+000
      vertex -2.317628e-001  3.000000e+000  7.132924e-001
      vertex  7.725425e-001  3.000000e+000  2.377641e+000
    endloop
  endfacet
  facet normal  0.000000e+000 -9.999999e-001  0.000000e+000
    outer loop
      vertex  7.725425e-001  3.000000e+000  2.377641e+000
      vertex -2.317628e-001  3.000000e+000  7.132924e-001
      vertex  2.317628e-001  3.000000e+000  7.132924e-001
    endloop
  endfacet
  facet normal  0.000000e+000 -1.000000e+000  0.000000e+000
    outer loop
      vertex  7.725425e-001  3.000000e+000  2.377641e+000
      vertex  2.317628e-001  3.000000e+000  7.132924e-001
      vertex  1.469463e+000  3.000000e+000  2.022542e+000
    endloop
  endfacet
  facet normal  0.000000e+000 -1.000000e+000  0.000000e+000
    outer loop
      vertex  2.022542e+000  3.000000e+000  1.469463e+000
      vertex  1.469463e+000  3.000000e+000  2.022542e+000
      vertex  2.377641e+000  3.000000e+000  7.725425e-001
    endloop
  endfacet
  facet normal  -0.000000e+000 -1.000000e+000  0.000000e+000
    outer loop
      vertex  2.377641e+000  3.000000e+000  7.725425e-001
      vertex  1.469463e+000  3.000000e+000  2.022542e+000
      vertex  2.317628e-001  3.000000e+000  7.132924e-001
    endloop
  endfacet
  facet normal  0.000000e+000 -9.999999e-001  0.000000e+000
    outer loop
      vertex  2.377641e+000  3.000000e+000  7.725425e-001
      vertex  2.317628e-001  3.000000e+000  7.132924e-001
      vertex  2.500000e+000  3.000000e+000  0.000000e+000
    endloop
  endfacet
  facet normal  0.000000e+000 -9.999999e-001  0.000000e+000
    outer loop
      vertex  2.500000e+000  3.000000e+000  0.000000e+000
      vertex  2.317628e-001  3.000000e+000  7.132924e-001
      vertex  6.067628e-001  3.000000e+000  4.408389e-001
    endloop
  endfacet
  facet normal  0.000000e+000 -1.000000e+000  0.000000e+000
    outer loop
      vertex  2.500000e+000  3.000000e+000  0.000000e+000
      vertex  6.067628e-001  3.000000e+000  4.408389e-001
      vertex  7.500000e-001  3.000000e+000  9.184851e-017
    endloop
  endfacet
  facet normal  0.000000e+000 -1.000000e+000  0.000000e+000
    outer loop
      vertex -2.317628e-001  3.000000e+000  7.132924e-001
      vertex -2.377641e+000  3.000000e+000  7.725425e-001
      vertex -6.067628e-001  3.000000e+000  4.408389e-001
    endloop
  endfacet
  facet normal  -0.000000e+000 -1.000000e+000  0.000000e+000
    outer loop
      vertex -6.067628e-001  3.000000e+000  4.408389e-001
      vertex -2.377641e+000  3.000000e+000  7.725425e-001
      vertex -2.500000e+000  3.000000e+000  3.061617e-016
    endloop
  endfacet
  facet normal  0.000000e+000 -9.999999e-001  0.000000e+000
    outer loop
      vertex -6.067628e-001  3.000000e+000  4.408389e-001
      vertex -2.500000e+000  3.000000e+000  3.061617e-016
      vertex -7.500000e-001  3.000000e+000  0.000000e+000
    endloop
  endfacet
  facet normal  0.000000e+000 -9.999999e-001  0.000000e+000
    outer loop
      vertex  2.500000e+000  3.000000e+000  0.000000e+000
      vertex  7.500000e-001  3.000000e+000  9.184851e-017
      vertex  2.377641e+000  3.000000e+000 -7.725425e-001
    endloop
  endfacet
  facet normal  0.000000e+000 -1.000000e+000  0.000000e+000
    outer loop
      vertex  2.377641e+000  3.000000e+000 -7.725425e-001
      vertex  7.500000e-001  3.000000e+000  9.184851e-017
      vertex  6.067628e-001  3.000000e+000 -4.408389e-001
    endloop
  endfacet
  facet normal  0.000000e+000 -1.000000e+000  -0.000000e+000
    outer loop
      vertex  2.377641e+000  3.000000e+000 -7.725425e-001
      vertex  6.067628e-001  3.000000e+000 -4.408389e-001
      vertex  2.317628e-001  3.000000e+000 -7.132924e-001
    endloop
  endfacet
  facet normal -1.564346e-001  0.000000e+000  9.876883e-001
    outer loop
      vertex -4.592425e-016  3.000000e+000 -2.500000e+000
      vertex  7.725425e-001  0.000000e+000 -2.377641e+000
      vertex  7.725425e-001  3.000000e+000 -2.377641e+000
    endloop
  endfacet
  facet normal -4.539904e-001  0.000000e+000  8.910066e-001
    outer loop
      vertex  7.725425e-001  3.000000e+000 -2.377641e+000
      vertex  7.725425e-001  0.000000e+000 -2.377641e+000
      vertex  1.469463e+000  0.000000e+000 -2.022542e+000
    endloop
  endfacet
  facet normal -4.539904e-001  0.000000e+000  8.910066e-001
    outer loop
      vertex  7.725425e-001  3.000000e+000 -2.377641e+000
      vertex  1.469463e+000  0.000000e+000 -2.022542e+000
      vertex  1.469463e+000  3.000000e+000 -2.022542e+000
    endloop
  endfacet
  facet normal -7.071068e-001  0.000000e+000  7.071068e-001
    outer loop
      vertex  1.469463e+000  3.000000e+000 -2.022542e+000
      vertex  1.469463e+000  0.000000e+000 -2.022542e+000
      vertex  2.022542e+000  0.000000e+000 -1.469463e+000
    endloop
  endfacet
  facet normal -7.071068e-001  0.000000e+000  7.071068e-001
    outer loop
      vertex  1.469463e+000  3.000000e+000 -2.022542e+000
      vertex  2.022542e+000  0.000000e+000 -1.469463e+000
      vertex  2.022542e+000  3.000000e+000 -1.469463e+000
    endloop
  endfacet
  facet normal -8.910066e-001  0.000000e+000  4.539904e-001
    outer loop
      vertex  2.022542e+000  3.000000e+000 -1.469463e+000
      vertex  2.022542e+000  0.000000e+000 -1.469463e+000
      vertex  2.377641e+000  0.000000e+000 -7.725425e-001
    endloop
  endfacet
  facet normal -8.910066e-001  0.000000e+000  4.539904e-001
    outer loop
      vertex  2.022542e+000  3.000000e+000 -1.469463e+000
      vertex  2.377641e+000  0.000000e+000 -7.725425e-001
      vertex  2.377641e+000  3.000000e+000 -7.725425e-001
    endloop
  endfacet
  facet normal -9.876883e-001  0.000000e+000  1.564346e-001
    outer loop
      vertex  2.377641e+000  3.000000e+000 -7.725425e-001
      vertex  2.377641e+000  0.000000e+000 -7.725425e-001
      vertex  2.500000e+000  0.000000e+000  0.000000e+000
    endloop
  endfacet
  facet normal -9.876883e-001  0.000000e+000  1.564346e-001
    outer loop
      vertex  2.377641e+000  3.000000e+000 -7.725425e-001
      vertex  2.500000e+000  0.000000e+000  0.000000e+000
      vertex  2.500000e+000  3.000000e+000  0.000000e+000
    endloop
  endfacet
  facet normal -1.564346e-001  0.000000e+000  9.876883e-001
    outer loop
      vertex  7.725425e-001  0.000000e+000 -2.377641e+000
      vertex -4.592425e-016  3.000000e+000 -2.500000e+000
      vertex -4.592425e-016  0.000000e+000 -2.500000e+000
    endloop
  endfacet
  facet normal  1.564346e-001  -0.000000e+000  9.876883e-001
    outer loop
      vertex -4.592425e-016  0.000000e+000 -2.500000e+000
      vertex -4.592425e-016  3.000000e+000 -2.500000e+000
      vertex -7.725425e-001  3.000000e+000 -2.377641e+000
    endloop
  endfacet
  facet normal  1.564346e-001  0.000000e+000  9.876883e-001
    outer loop
      vertex -4.592425e-016  0.000000e+000 -2.500000e+000
      vertex -7.725425e-001  3.000000e+000 -2.377641e+000
      vertex -7.725425e-001  0.000000e+000 -2.377641e+000
    endloop
  endfacet
  facet normal  4.539904e-001  -0.000000e+000  8.910066e-001
    outer loop
      vertex -7.725425e-001  0.000000e+000 -2.377641e+000
      vertex -7.725425e-001  3.000000e+000 -2.377641e+000
      vertex -1.469463e+000  3.000000e+000 -2.022542e+000
    endloop
  endfacet
  facet normal  4.539904e-001  0.000000e+000  8.910066e-001
    outer loop
      vertex -7.725425e-001  0.000000e+000 -2.377641e+000
      vertex -1.469463e+000  3.000000e+000 -2.022542e+000
      vertex -1.469463e+000  0.000000e+000 -2.022542e+000
    endloop
  endfacet
  facet normal  7.071068e-001  -0.000000e+000  7.071068e-001
    outer loop
      vertex -1.469463e+000  0.000000e+000 -2.022542e+000
      vertex -1.469463e+000  3.000000e+000 -2.022542e+000
      vertex -2.022542e+000  3.000000e+000 -1.469463e+000
    endloop
  endfacet
  facet normal  7.071068e-001  0.000000e+000  7.071068e-001
    outer loop
      vertex -1.469463e+000  0.000000e+000 -2.022542e+000
      vertex -2.022542e+000  3.000000e+000 -1.469463e+000
      vertex -2.022542e+000  0.000000e+000 -1.469463e+000
    endloop
  endfacet
  facet normal  8.910066e-001  -0.000000e+000  4.539904e-001
    outer loop
      vertex -2.022542e+000  0.000000e+000 -1.469463e+000
      vertex -2.022542e+000  3.000000e+000 -1.469463e+000
      vertex -2.377641e+000  3.000000e+000 -7.725425e-001
    endloop
  endfacet
  facet normal  8.910066e-001  0.000000e+000  4.539904e-001
    outer loop
      vertex -2.022542e+000  0.000000e+000 -1.469463e+000
      vertex -2.377641e+000  3.000000e+000 -7.725425e-001
      vertex -2.377641e+000  0.000000e+000 -7.725425e-001
    endloop
  endfacet
  facet normal  9.876883e-001  -0.000000e+000  1.564346e-001
    outer loop
      vertex -2.377641e+000  0.000000e+000 -7.725425e-001
      vertex -2.377641e+000  3.000000e+000 -7.725425e-001
      vertex -2.500000e+000  3.000000e+000  3.061617e-016
    endloop
  endfacet
  facet normal  9.876883e-001  0.000000e+000  1.564346e-001
    outer loop
      vertex -2.377641e+000  0.000000e+000 -7.725425e-001
      vertex -2.500000e+000  3.000000e+000  3.061617e-016
      vertex -2.500000e+000  0.000000e+000  3.061617e-016
    endloop
  endfacet
  facet normal  1.564346e-001  0.000000e+000 -9.876883e-001
    outer loop
      vertex  1.530808e-016  3.000000e+000  2.500000e+000
      vertex -7.725425e-001  0.000000e+000  2.377641e+000
      vertex -7.725425e-001  3.000000e+000  2.377641e+000
    endloop
  endfacet
  facet normal  4.539904e-001  0.000000e+000 -8.910066e-001
    outer loop
      vertex -7.725425e-001  3.000000e+000  2.377641e+000
      vertex -7.725425e-001  0.000000e+000  2.377641e+000
      vertex -1.469463e+000  0.000000e+000  2.022542e+000
    endloop
  endfacet
  facet normal  4.539904e-001  0.000000e+000 -8.910066e-001
    outer loop
      vertex -7.725425e-001  3.000000e+000  2.377641e+000
      vertex -1.469463e+000  0.000000e+000  2.022542e+000
      vertex -1.469463e+000  3.000000e+000  2.022542e+000
    endloop
  endfacet
  facet normal  7.071068e-001  0.000000e+000 -7.071068e-001
    outer loop
      vertex -1.469463e+000  3.000000e+000  2.022542e+000
      vertex -1.469463e+000  0.000000e+000  2.022542e+000
      vertex -2.022542e+000  0.000000e+000  1.469463e+000
    endloop
  endfacet
  facet normal  7.071068e-001  0.000000e+000 -7.071068e-001
    outer loop
      vertex -1.469463e+000  3.000000e+000  2.022542e+000
      vertex -2.022542e+000  0.000000e+000  1.469463e+000
      vertex -2.022542e+000  3.000000e+000  1.469463e+000
    endloop
  endfacet
  facet normal  8.910066e-001  0.000000e+000 -4.539904e-001
    outer loop
      vertex -2.022542e+000  3.000000e+000  1.469463e+000
      vertex -2.022542e+000  0.000000e+000  1.469463e+000
      vertex -2.377641e+000  0.000000e+000  7.725425e-001
    endloop
  endfacet
  facet normal  8.910066e-001  0.000000e+000 -4.539904e-001
    outer loop
      vertex -2.022542e+000  3.000000e+000  1.469463e+000
      vertex -2.377641e+000  0.000000e+000  7.725425e-001
      vertex -2.377641e+000  3.000000e+000  7.725425e-001
    endloop
  endfacet
  facet normal  9.876883e-001  0.000000e+000 -1.564346e-001
    outer loop
      vertex -2.377641e+000  3.000000e+000  7.725425e-001
      vertex -2.377641e+000  0.000000e+000  7.725425e-001
      vertex -2.500000e+000  0.000000e+000  3.061617e-016
    endloop
  endfacet
  facet normal  9.876883e-001  0.000000e+000 -1.564346e-001
    outer loop
      vertex -2.377641e+000  3.000000e+000  7.725425e-001
      vertex -2.500000e+000  0.000000e+000  3.061617e-016
      vertex -2.500000e+000  3.000000e+000  3.061617e-016
    endloop
  endfacet
  facet normal  1.564346e-001  0.000000e+000 -9.876883e-001
    outer loop
      vertex -7.725425e-001  0.000000e+000  2.377641e+000
      vertex  1.530808e-016  3.000000e+000  2.500000e+000
      vertex  1.530808e-016  0.000000e+000  2.500000e+000
    endloop
  endfacet
  facet normal -1.564346e-001  0.000000e+000 -9.876883e-001
    outer loop
      vertex  1.530808e-016  0.000000e+000  2.500000e+000
      vertex  1.530808e-016  3.000000e+000  2.500000e+000
      vertex  7.725425e-001  3.000000e+000  2.377641e+000
    endloop
  endfacet
  facet normal -1.564346e-001  -0.000000e+000 -9.876883e-001
    outer loop
      vertex  1.530808e-016  0.000000e+000  2.500000e+000
      vertex  7.725425e-001  3.000000e+000  2.377641e+000
      vertex  7.725425e-001  0.000000e+000  2.377641e+000
    endloop
  endfacet
  facet normal -4.539904e-001  0.000000e+000 -8.910066e-001
    outer loop
      vertex  7.725425e-001  0.000000e+000  2.377641e+000
      vertex  7.725425e-001  3.000000e+000  2.377641e+000
      vertex  1.469463e+000  3.000000e+000  2.022542e+000
    endloop
  endfacet
  facet normal -4.539904e-001  -0.000000e+000 -8.910066e-001
    outer loop
      vertex  7.725425e-001  0.000000e+000  2.377641e+000
      vertex  1.469463e+000  3.000000e+000  2.022542e+000
      vertex  1.469463e+000  0.000000e+000  2.022542e+000
    endloop
  endfacet
  facet normal -7.071068e-001  0.000000e+000 -7.071068e-001
    outer loop
      vertex  1.469463e+000  0.000000e+000  2.022542e+000
      vertex  1.469463e+000  3.000000e+000  2.022542e+000
      vertex  2.022542e+000  3.000000e+000  1.469463e+000
    endloop
  endfacet
  facet normal -7.071068e-001  -0.000000e+000 -7.071068e-001
    outer loop
      vertex  1.469463e+000  0.000000e+000  2.022542e+000
      vertex  2.022542e+000  3.000000e+000  1.469463e+000
      vertex  2.022542e+000  0.000000e+000  1.469463e+000
    endloop
  endfacet
  facet normal -8.910066e-001  0.000000e+000 -4.539904e-001
    outer loop
      vertex  2.022542e+000  0.000000e+000  1.469463e+000
      vertex  2.022542e+000  3.000000e+000  1.469463e+000
      vertex  2.377641e+000  3.000000e+000  7.725425e-001
    endloop
  endfacet
  facet normal -8.910066e-001  -0.000000e+000 -4.539904e-001
    outer loop
      vertex  2.022542e+000  0.000000e+000  1.469463e+000
      vertex  2.377641e+000  3.000000e+000  7.725425e-001
      vertex  2.377641e+000  0.000000e+000  7.725425e-001
    endloop
  endfacet
  facet normal -9.876883e-001  0.000000e+000 -1.564346e-001
    outer loop
      vertex  2.377641e+000  0.000000e+000  7.725425e-001
      vertex  2.377641e+000  3.000000e+000  7.725425e-001
      vertex  2.500000e+000  3.000000e+000  0.000000e+000
    endloop
  endfacet
  facet normal -9.876883e-001  -0.000000e+000 -1.564346e-001
    outer loop
      vertex  2.377641e+000  0.000000e+000  7.725425e-001
      vertex  2.500000e+000  3.000000e+000  0.000000e+000
      vertex  2.500000e+000  0.000000e+000  0.000000e+000
    endloop
  endfacet
  facet normal  0.000000e+000  1.000000e+000  -0.000000e+000
    outer loop
      vertex  1.700000e+001  6.000000e+000  6.500000e+000
      vertex  1.700000e+001  6.000000e+000 -6.500000e+000
      vertex  7.793619e-001  6.000000e+000  9.772896e-001
    endloop
  endfacet
  facet normal  0.000000e+000  9.999999e-001  -0.000000e+000
    outer loop
      vertex  1.700000e+001  6.000000e+000  6.500000e+000
      vertex  7.793619e-001  6.000000e+000  9.772896e-001
      vertex  2.781508e-001  6.000000e+000  1.218660e+000
    endloop
  endfacet
  facet normal  0.000000e+000  1.000000e+000  0.000000e+000
    outer loop
      vertex  1.700000e+001  6.000000e+000  6.500000e+000
      vertex  2.781508e-001  6.000000e+000  1.218660e+000
      vertex  1.600000e+001  6.000000e+000  7.500000e+000
    endloop
  endfacet
  facet normal  0.000000e+000  1.000000e+000  0.000000e+000
    outer loop
      vertex  1.700000e+001  6.000000e+000  6.500000e+000
      vertex  1.600000e+001  6.000000e+000  7.500000e+000
      vertex  1.650000e+001  6.000000e+000  7.366025e+000
    endloop
  endfacet
  facet normal  0.000000e+000  1.000000e+000  0.000000e+000
    outer loop
      vertex  1.700000e+001  6.000000e+000  6.500000e+000
      vertex  1.650000e+001  6.000000e+000  7.366025e+000
      vertex  1.686603e+001  6.000000e+000  7.000000e+000
    endloop
  endfacet
  facet normal  -0.000000e+000  1.000000e+000  0.000000e+000
    outer loop
      vertex -1.700000e+001  6.000000e+000  6.500000e+000
      vertex -1.686603e+001  6.000000e+000  7.000000e+000
      vertex -1.650000e+001  6.000000e+000  7.366025e+000
    endloop
  endfacet
  facet normal  0.000000e+000  1.000000e+000  0.000000e+000
    outer loop
      vertex -1.700000e+001  6.000000e+000  6.500000e+000
      vertex -1.650000e+001  6.000000e+000  7.366025e+000
      vertex -2.781514e-001  6.000000e+000  1.218660e+000
    endloop
  endfacet
  facet normal  0.000000e+000  1.000000e+000  0.000000e+000
    outer loop
      vertex -1.700000e+001  6.000000e+000  6.500000e+000
      vertex -2.781514e-001  6.000000e+000  1.218660e+000
      vertex -7.793624e-001  6.000000e+000  9.772893e-001
    endloop
  endfacet
  facet normal  0.000000e+000  1.000000e+000  0.000000e+000
    outer loop
      vertex -1.700000e+001  6.000000e+000  6.500000e+000
      vertex -7.793624e-001  6.000000e+000  9.772893e-001
      vertex -1.700000e+001  6.000000e+000 -6.500000e+000
    endloop
  endfacet
  facet normal  0.000000e+000  1.000000e+000  -0.000000e+000
    outer loop
      vertex -2.781511e-001  6.000000e+000 -1.218660e+000
      vertex -1.600000e+001  6.000000e+000 -7.500000e+000
      vertex -1.650000e+001  6.000000e+000 -7.366025e+000
    endloop
  endfacet
  facet normal  0.000000e+000  1.000000e+000  -0.000000e+000
    outer loop
      vertex -2.781511e-001  6.000000e+000 -1.218660e+000
      vertex -1.650000e+001  6.000000e+000 -7.366025e+000
      vertex -1.686603e+001  6.000000e+000 -7.000000e+000
    endloop
  endfacet
  facet normal  0.000000e+000  1.000000e+000  -0.000000e+000
    outer loop
      vertex -2.781511e-001  6.000000e+000 -1.218660e+000
      vertex -1.686603e+001  6.000000e+000 -7.000000e+000
      vertex -1.700000e+001  6.000000e+000 -6.500000e+000
    endloop
  endfacet
  facet normal  -0.000000e+000  1.000000e+000  0.000000e+000
    outer loop
      vertex  1.700000e+001  6.000000e+000 -6.500000e+000
      vertex  2.781512e-001  6.000000e+000 -1.218660e+000
      vertex  7.793623e-001  6.000000e+000 -9.772893e-001
    endloop
  endfacet
  facet normal  -0.000000e+000  1.000000e+000  0.000000e+000
    outer loop
      vertex  1.700000e+001  6.000000e+000 -6.500000e+000
      vertex  7.793623e-001  6.000000e+000 -9.772893e-001
      vertex  1.126211e+000  6.000000e+000 -5.423546e-001
    endloop
  endfacet
  facet normal  -0.000000e+000  1.000000e+000  0.000000e+000
    outer loop
      vertex  1.700000e+001  6.000000e+000 -6.500000e+000
      vertex  1.126211e+000  6.000000e+000 -5.423546e-001
      vertex  1.250000e+000  6.000000e+000  6.416450e-007
    endloop
  endfacet
  facet normal  -0.000000e+000  1.000000e+000  -0.000000e+000
    outer loop
      vertex  1.700000e+001  6.000000e+000 -6.500000e+000
      vertex  1.250000e+000  6.000000e+000  6.416450e-007
      vertex  1.126211e+000  6.000000e+000  5.423552e-001
    endloop
  endfacet
  facet normal  -0.000000e+000  1.000000e+000  -0.000000e+000
    outer loop
      vertex  1.700000e+001  6.000000e+000 -6.500000e+000
      vertex  1.126211e+000  6.000000e+000  5.423552e-001
      vertex  7.793619e-001  6.000000e+000  9.772896e-001
    endloop
  endfacet
  facet normal  0.000000e+000  1.000000e+000  0.000000e+000
    outer loop
      vertex -1.700000e+001  6.000000e+000 -6.500000e+000
      vertex -7.793624e-001  6.000000e+000  9.772893e-001
      vertex -1.126211e+000  6.000000e+000  5.423546e-001
    endloop
  endfacet
  facet normal  0.000000e+000  1.000000e+000  0.000000e+000
    outer loop
      vertex -1.700000e+001  6.000000e+000 -6.500000e+000
      vertex -1.126211e+000  6.000000e+000  5.423546e-001
      vertex -1.250000e+000  6.000000e+000  2.628276e-016
    endloop
  endfacet
  facet normal  0.000000e+000  1.000000e+000  0.000000e+000
    outer loop
      vertex -1.700000e+001  6.000000e+000 -6.500000e+000
      vertex -1.250000e+000  6.000000e+000  2.628276e-016
      vertex -1.126211e+000  6.000000e+000 -5.423547e-001
    endloop
  endfacet
  facet normal  0.000000e+000  1.000000e+000  0.000000e+000
    outer loop
      vertex -1.700000e+001  6.000000e+000 -6.500000e+000
      vertex -1.126211e+000  6.000000e+000 -5.423547e-001
      vertex -7.793622e-001  6.000000e+000 -9.772894e-001
    endloop
  endfacet
  facet normal  0.000000e+000  9.999999e-001  0.000000e+000
    outer loop
      vertex -1.700000e+001  6.000000e+000 -6.500000e+000
      vertex -7.793622e-001  6.000000e+000 -9.772894e-001
      vertex -2.781511e-001  6.000000e+000 -1.218660e+000
    endloop
  endfacet
  facet normal  0.000000e+000  1.000000e+000  0.000000e+000
    outer loop
      vertex -1.600000e+001  6.000000e+000 -7.500000e+000
      vertex -2.781511e-001  6.000000e+000 -1.218660e+000
      vertex  1.600000e+001  6.000000e+000 -7.500000e+000
    endloop
  endfacet
  facet normal  0.000000e+000  1.000000e+000  0.000000e+000
    outer loop
      vertex  1.600000e+001  6.000000e+000 -7.500000e+000
      vertex -2.781511e-001  6.000000e+000 -1.218660e+000
      vertex  2.781512e-001  6.000000e+000 -1.218660e+000
    endloop
  endfacet
  facet normal  0.000000e+000  1.000000e+000  0.000000e+000
    outer loop
      vertex  1.600000e+001  6.000000e+000 -7.500000e+000
      vertex  2.781512e-001  6.000000e+000 -1.218660e+000
      vertex  1.650000e+001  6.000000e+000 -7.366025e+000
    endloop
  endfacet
  facet normal  0.000000e+000  1.000000e+000  -0.000000e+000
    outer loop
      vertex  1.650000e+001  6.000000e+000 -7.366025e+000
      vertex  2.781512e-001  6.000000e+000 -1.218660e+000
      vertex  1.700000e+001  6.000000e+000 -6.500000e+000
    endloop
  endfacet
  facet normal  0.000000e+000  1.000000e+000  0.000000e+000
    outer loop
      vertex  1.650000e+001  6.000000e+000 -7.366025e+000
      vertex  1.700000e+001  6.000000e+000 -6.500000e+000
      vertex  1.686603e+001  6.000000e+000 -7.000000e+000
    endloop
  endfacet
  facet normal  0.000000e+000  1.000000e+000  -0.000000e+000
    outer loop
      vertex  1.600000e+001  6.000000e+000  7.500000e+000
      vertex  2.781508e-001  6.000000e+000  1.218660e+000
      vertex -1.600000e+001  6.000000e+000  7.500000e+000
    endloop
  endfacet
  facet normal  0.000000e+000  1.000000e+000  0.000000e+000
    outer loop
      vertex -1.600000e+001  6.000000e+000  7.500000e+000
      vertex  2.781508e-001  6.000000e+000  1.218660e+000
      vertex -2.781514e-001  6.000000e+000  1.218660e+000
    endloop
  endfacet
  facet normal  0.000000e+000  1.000000e+000  0.000000e+000
    outer loop
      vertex -1.600000e+001  6.000000e+000  7.500000e+000
      vertex -2.781514e-001  6.000000e+000  1.218660e+000
      vertex -1.650000e+001  6.000000e+000  7.366025e+000
    endloop
  endfacet
  facet normal  6.980736e-001  6.980736e-001 -1.593307e-001
    outer loop
      vertex -7.500000e-001  5.500000e+000 -1.836970e-016
      vertex -1.250000e+000  6.000000e+000  2.628276e-016
      vertex -1.126211e+000  6.000000e+000  5.423546e-001
    endloop
  endfacet
  facet normal  4.849512e-001  7.843838e-001 -3.867356e-001
    outer loop
      vertex -7.500000e-001  5.500000e+000 -1.836970e-016
      vertex -1.126211e+000  6.000000e+000  5.423546e-001
      vertex -7.793624e-001  6.000000e+000  9.772893e-001
    endloop
  endfacet
  facet normal  7.938161e-001  5.507541e-001 -2.579264e-001
    outer loop
      vertex -7.500000e-001  5.500000e+000 -1.836970e-016
      vertex -7.793624e-001  6.000000e+000  9.772893e-001
      vertex -6.067628e-001  5.500000e+000  4.408389e-001
    endloop
  endfacet
  facet normal -3.144247e-001  6.890904e-001 -6.529101e-001
    outer loop
      vertex  2.781508e-001  6.000000e+000  1.218660e+000
      vertex  7.793619e-001  6.000000e+000  9.772896e-001
      vertex  2.317628e-001  5.500000e+000  7.132924e-001
    endloop
  endfacet
  facet normal -5.041121e-001  7.643650e-001 -4.020163e-001
    outer loop
      vertex  2.317628e-001  5.500000e+000  7.132924e-001
      vertex  7.793619e-001  6.000000e+000  9.772896e-001
      vertex  1.126211e+000  6.000000e+000  5.423552e-001
    endloop
  endfacet
  facet normal -4.646157e-001  6.125244e-001 -6.394888e-001
    outer loop
      vertex  2.317628e-001  5.500000e+000  7.132924e-001
      vertex  1.126211e+000  6.000000e+000  5.423552e-001
      vertex  6.067628e-001  5.500000e+000  4.408389e-001
    endloop
  endfacet
  facet normal -6.696743e-001  7.267554e-001 -1.528492e-001
    outer loop
      vertex  6.067628e-001  5.500000e+000  4.408389e-001
      vertex  1.126211e+000  6.000000e+000  5.423552e-001
      vertex  1.250000e+000  6.000000e+000  6.416450e-007
    endloop
  endfacet
  facet normal -6.891516e-001  6.891519e-001 -2.239189e-001
    outer loop
      vertex  6.067628e-001  5.500000e+000  4.408389e-001
      vertex  1.250000e+000  6.000000e+000  6.416450e-007
      vertex  7.500000e-001  5.500000e+000  9.184851e-017
    endloop
  endfacet
  facet normal  2.894872e-001  7.448791e-001 -6.011259e-001
    outer loop
      vertex -7.793624e-001  6.000000e+000  9.772893e-001
      vertex -2.781514e-001  6.000000e+000  1.218660e+000
      vertex -6.067628e-001  5.500000e+000  4.408389e-001
    endloop
  endfacet
  facet normal  4.429599e-001  6.573236e-001 -6.096821e-001
    outer loop
      vertex -6.067628e-001  5.500000e+000  4.408389e-001
      vertex -2.781514e-001  6.000000e+000  1.218660e+000
      vertex -2.317628e-001  5.500000e+000  7.132924e-001
    endloop
  endfacet
  facet normal  1.507139e-007  7.108718e-001 -7.033216e-001
    outer loop
      vertex -2.781514e-001  6.000000e+000  1.218660e+000
      vertex  2.781508e-001  6.000000e+000  1.218660e+000
      vertex -2.317628e-001  5.500000e+000  7.132924e-001
    endloop
  endfacet
  facet normal  0.000000e+000  7.108719e-001 -7.033216e-001
    outer loop
      vertex -2.317628e-001  5.500000e+000  7.132924e-001
      vertex  2.781508e-001  6.000000e+000  1.218660e+000
      vertex  2.317628e-001  5.500000e+000  7.132924e-001
    endloop
  endfacet
  facet normal -6.980738e-001  6.980736e-001  1.593305e-001
    outer loop
      vertex  7.500000e-001  5.500000e+000  9.184851e-017
      vertex  1.250000e+000  6.000000e+000  6.416450e-007
      vertex  1.126211e+000  6.000000e+000 -5.423546e-001
    endloop
  endfacet
  facet normal -4.849512e-001  7.843838e-001  3.867356e-001
    outer loop
      vertex  7.500000e-001  5.500000e+000  9.184851e-017
      vertex  1.126211e+000  6.000000e+000 -5.423546e-001
      vertex  7.793623e-001  6.000000e+000 -9.772893e-001
    endloop
  endfacet
  facet normal -7.938161e-001  5.507541e-001  2.579264e-001
    outer loop
      vertex  7.500000e-001  5.500000e+000  9.184851e-017
      vertex  7.793623e-001  6.000000e+000 -9.772893e-001
      vertex  6.067628e-001  5.500000e+000 -4.408389e-001
    endloop
  endfacet
  facet normal  3.144249e-001  6.890904e-001  6.529101e-001
    outer loop
      vertex -2.781511e-001  6.000000e+000 -1.218660e+000
      vertex -7.793622e-001  6.000000e+000 -9.772894e-001
      vertex -2.317628e-001  5.500000e+000 -7.132924e-001
    endloop
  endfacet
  facet normal  5.041122e-001  7.643651e-001  4.020161e-001
    outer loop
      vertex -2.317628e-001  5.500000e+000 -7.132924e-001
      vertex -7.793622e-001  6.000000e+000 -9.772894e-001
      vertex -1.126211e+000  6.000000e+000 -5.423547e-001
    endloop
  endfacet
  facet normal  4.646159e-001  6.125243e-001  6.394889e-001
    outer loop
      vertex -2.317628e-001  5.500000e+000 -7.132924e-001
      vertex -1.126211e+000  6.000000e+000 -5.423547e-001
      vertex -6.067628e-001  5.500000e+000 -4.408389e-001
    endloop
  endfacet
  facet normal  6.696743e-001  7.267555e-001  1.528488e-001
    outer loop
      vertex -6.067628e-001  5.500000e+000 -4.408389e-001
      vertex -1.126211e+000  6.000000e+000 -5.423547e-001
      vertex -1.250000e+000  6.000000e+000  2.628276e-016
    endloop
  endfacet
  facet normal  6.891518e-001  6.891518e-001  2.239190e-001
    outer loop
      vertex -6.067628e-001  5.500000e+000 -4.408389e-001
      vertex -1.250000e+000  6.000000e+000  2.628276e-016
      vertex -7.500000e-001  5.500000e+000 -1.836970e-016
    endloop
  endfacet
  facet normal -2.894870e-001  7.448791e-001  6.011259e-001
    outer loop
      vertex  7.793623e-001  6.000000e+000 -9.772893e-001
      vertex  2.781512e-001  6.000000e+000 -1.218660e+000
      vertex  6.067628e-001  5.500000e+000 -4.408389e-001
    endloop
  endfacet
  facet normal -4.429600e-001  6.573235e-001  6.096821e-001
    outer loop
      vertex  6.067628e-001  5.500000e+000 -4.408389e-001
      vertex  2.781512e-001  6.000000e+000 -1.218660e+000
      vertex  2.317628e-001  5.500000e+000 -7.132924e-001
    endloop
  endfacet
  facet normal  -0.000000e+000  7.108718e-001  7.033217e-001
    outer loop
      vertex  2.781512e-001  6.000000e+000 -1.218660e+000
      vertex -2.781511e-001  6.000000e+000 -1.218660e+000
      vertex  2.317628e-001  5.500000e+000 -7.132924e-001
    endloop
  endfacet
  facet normal  0.000000e+000  7.108718e-001  7.033216e-001
    outer loop
      vertex  2.317628e-001  5.500000e+000 -7.132924e-001
      vertex -2.781511e-001  6.000000e+000 -1.218660e+000
      vertex -2.317628e-001  5.500000e+000 -7.132924e-001
    endloop
  endfacet
  facet normal  -0.000000e+000  0.000000e+000 -1.000000e+000
    outer loop
      vertex -1.600000e+001  6.000000e+000 -7.500000e+000
      vertex  1.600000e+001  6.000000e+000 -7.500000e+000
      vertex -1.600000e+001  0.000000e+000 -7.500000e+000
    endloop
  endfacet
  facet normal  0.000000e+000  0.000000e+000 -1.000000e+000
    outer loop
      vertex -1.600000e+001  0.000000e+000 -7.500000e+000
      vertex  1.600000e+001  6.000000e+000 -7.500000e+000
      vertex  1.600000e+001  0.000000e+000 -7.500000e+000
    endloop
  endfacet
  facet normal -1.000000e+000  0.000000e+000  0.000000e+000
    outer loop
      vertex -1.700000e+001  6.000000e+000  6.500000e+000
      vertex -1.700000e+001  6.000000e+000 -6.500000e+000
      vertex -1.700000e+001  0.000000e+000  6.500000e+000
    endloop
  endfacet
  facet normal -1.000000e+000  0.000000e+000  0.000000e+000
    outer loop
      vertex -1.700000e+001  0.000000e+000  6.500000e+000
      vertex -1.700000e+001  6.000000e+000 -6.500000e+000
      vertex -1.700000e+001  0.000000e+000 -6.500000e+000
    endloop
  endfacet
  facet normal -9.659261e-001  -0.000000e+000 -2.588181e-001
    outer loop
      vertex -1.700000e+001  0.000000e+000 -6.500000e+000
      vertex -1.700000e+001  6.000000e+000 -6.500000e+000
      vertex -1.686603e+001  0.000000e+000 -7.000000e+000
    endloop
  endfacet
  facet normal -9.659261e-001  0.000000e+000 -2.588181e-001
    outer loop
      vertex -1.686603e+001  0.000000e+000 -7.000000e+000
      vertex -1.700000e+001  6.000000e+000 -6.500000e+000
      vertex -1.686603e+001  6.000000e+000 -7.000000e+000
    endloop
  endfacet
  facet normal -7.071063e-001  -0.000000e+000 -7.071072e-001
    outer loop
      vertex -1.686603e+001  0.000000e+000 -7.000000e+000
      vertex -1.686603e+001  6.000000e+000 -7.000000e+000
      vertex -1.650000e+001  0.000000e+000 -7.366025e+000
    endloop
  endfacet
  facet normal -7.071063e-001  0.000000e+000 -7.071072e-001
    outer loop
      vertex -1.650000e+001  0.000000e+000 -7.366025e+000
      vertex -1.686603e+001  6.000000e+000 -7.000000e+000
      vertex -1.650000e+001  6.000000e+000 -7.366025e+000
    endloop
  endfacet
  facet normal -2.588190e-001  -0.000000e+000 -9.659259e-001
    outer loop
      vertex -1.650000e+001  0.000000e+000 -7.366025e+000
      vertex -1.650000e+001  6.000000e+000 -7.366025e+000
      vertex -1.600000e+001  0.000000e+000 -7.500000e+000
    endloop
  endfacet
  facet normal -2.588190e-001  0.000000e+000 -9.659259e-001
    outer loop
      vertex -1.600000e+001  0.000000e+000 -7.500000e+000
      vertex -1.650000e+001  6.000000e+000 -7.366025e+000
      vertex -1.600000e+001  6.000000e+000 -7.500000e+000
    endloop
  endfacet
  facet normal  1.000000e+000  0.000000e+000  0.000000e+000
    outer loop
      vertex  1.700000e+001  6.000000e+000 -6.500000e+000
      vertex  1.700000e+001  6.000000e+000  6.500000e+000
      vertex  1.700000e+001  0.000000e+000 -6.500000e+000
    endloop
  endfacet
  facet normal  1.000000e+000  0.000000e+000  0.000000e+000
    outer loop
      vertex  1.700000e+001  0.000000e+000 -6.500000e+000
      vertex  1.700000e+001  6.000000e+000  6.500000e+000
      vertex  1.700000e+001  0.000000e+000  6.500000e+000
    endloop
  endfacet
  facet normal  2.588190e-001  0.000000e+000 -9.659259e-001
    outer loop
      vertex  1.600000e+001  0.000000e+000 -7.500000e+000
      vertex  1.600000e+001  6.000000e+000 -7.500000e+000
      vertex  1.650000e+001  0.000000e+000 -7.366025e+000
    endloop
  endfacet
  facet normal  2.588190e-001  0.000000e+000 -9.659259e-001
    outer loop
      vertex  1.650000e+001  0.000000e+000 -7.366025e+000
      vertex  1.600000e+001  6.000000e+000 -7.500000e+000
      vertex  1.650000e+001  6.000000e+000 -7.366025e+000
    endloop
  endfacet
  facet normal  7.071063e-001  0.000000e+000 -7.071072e-001
    outer loop
      vertex  1.650000e+001  0.000000e+000 -7.366025e+000
      vertex  1.650000e+001  6.000000e+000 -7.366025e+000
      vertex  1.686603e+001  0.000000e+000 -7.000000e+000
    endloop
  endfacet
  facet normal  7.071063e-001  0.000000e+000 -7.071072e-001
    outer loop
      vertex  1.686603e+001  0.000000e+000 -7.000000e+000
      vertex  1.650000e+001  6.000000e+000 -7.366025e+000
      vertex  1.686603e+001  6.000000e+000 -7.000000e+000
    endloop
  endfacet
  facet normal  9.659261e-001  0.000000e+000 -2.588181e-001
    outer loop
      vertex  1.686603e+001  0.000000e+000 -7.000000e+000
      vertex  1.686603e+001  6.000000e+000 -7.000000e+000
      vertex  1.700000e+001  0.000000e+000 -6.500000e+000
    endloop
  endfacet
  facet normal  9.659261e-001  0.000000e+000 -2.588181e-001
    outer loop
      vertex  1.700000e+001  0.000000e+000 -6.500000e+000
      vertex  1.686603e+001  6.000000e+000 -7.000000e+000
      vertex  1.700000e+001  6.000000e+000 -6.500000e+000
    endloop
  endfacet
  facet normal  -0.000000e+000  0.000000e+000  1.000000e+000
    outer loop
      vertex  1.600000e+001  6.000000e+000  7.500000e+000
      vertex -1.600000e+001  6.000000e+000  7.500000e+000
      vertex  1.600000e+001  0.000000e+000  7.500000e+000
    endloop
  endfacet
  facet normal  0.000000e+000  0.000000e+000  1.000000e+000
    outer loop
      vertex  1.600000e+001  0.000000e+000  7.500000e+000
      vertex -1.600000e+001  6.000000e+000  7.500000e+000
      vertex -1.600000e+001  0.000000e+000  7.500000e+000
    endloop
  endfacet
  facet normal  9.659261e-001  0.000000e+000  2.588181e-001
    outer loop
      vertex  1.700000e+001  0.000000e+000  6.500000e+000
      vertex  1.700000e+001  6.000000e+000  6.500000e+000
      vertex  1.686603e+001  0.000000e+000  7.000000e+000
    endloop
  endfacet
  facet normal  9.659261e-001  -0.000000e+000  2.588181e-001
    outer loop
      vertex  1.686603e+001  0.000000e+000  7.000000e+000
      vertex  1.700000e+001  6.000000e+000  6.500000e+000
      vertex  1.686603e+001  6.000000e+000  7.000000e+000
    endloop
  endfacet
  facet normal  7.071063e-001  0.000000e+000  7.071072e-001
    outer loop
      vertex  1.686603e+001  0.000000e+000  7.000000e+000
      vertex  1.686603e+001  6.000000e+000  7.000000e+000
      vertex  1.650000e+001  0.000000e+000  7.366025e+000
    endloop
  endfacet
  facet normal  7.071063e-001  -0.000000e+000  7.071072e-001
    outer loop
      vertex  1.650000e+001  0.000000e+000  7.366025e+000
      vertex  1.686603e+001  6.000000e+000  7.000000e+000
      vertex  1.650000e+001  6.000000e+000  7.366025e+000
    endloop
  endfacet
  facet normal  2.588190e-001  0.000000e+000  9.659259e-001
    outer loop
      vertex  1.650000e+001  0.000000e+000  7.366025e+000
      vertex  1.650000e+001  6.000000e+000  7.366025e+000
      vertex  1.600000e+001  0.000000e+000  7.500000e+000
    endloop
  endfacet
  facet normal  2.588190e-001  -0.000000e+000  9.659259e-001
    outer loop
      vertex  1.600000e+001  0.000000e+000  7.500000e+000
      vertex  1.650000e+001  6.000000e+000  7.366025e+000
      vertex  1.600000e+001  6.000000e+000  7.500000e+000
    endloop
  endfacet
  facet normal -2.588190e-001  0.000000e+000  9.659259e-001
    outer loop
      vertex -1.600000e+001  0.000000e+000  7.500000e+000
      vertex -1.600000e+001  6.000000e+000  7.500000e+000
      vertex -1.650000e+001  0.000000e+000  7.366025e+000
    endloop
  endfacet
  facet normal -2.588190e-001  0.000000e+000  9.659259e-001
    outer loop
      vertex -1.650000e+001  0.000000e+000  7.366025e+000
      vertex -1.600000e+001  6.000000e+000  7.500000e+000
      vertex -1.650000e+001  6.000000e+000  7.366025e+000
    endloop
  endfacet
  facet normal -7.071063e-001  0.000000e+000  7.071072e-001
    outer loop
      vertex -1.650000e+001  0.000000e+000  7.366025e+000
      vertex -1.650000e+001  6.000000e+000  7.366025e+000
      vertex -1.686603e+001  0.000000e+000  7.000000e+000
    endloop
  endfacet
  facet normal -7.071063e-001  0.000000e+000  7.071072e-001
    outer loop
      vertex -1.686603e+001  0.000000e+000  7.000000e+000
      vertex -1.650000e+001  6.000000e+000  7.366025e+000
      vertex -1.686603e+001  6.000000e+000  7.000000e+000
    endloop
  endfacet
  facet normal -9.659261e-001  0.000000e+000  2.588181e-001
    outer loop
      vertex -1.686603e+001  0.000000e+000  7.000000e+000
      vertex -1.686603e+001  6.000000e+000  7.000000e+000
      vertex -1.700000e+001  0.000000e+000  6.500000e+000
    endloop
  endfacet
  facet normal -9.659261e-001  0.000000e+000  2.588181e-001
    outer loop
      vertex -1.700000e+001  0.000000e+000  6.500000e+000
      vertex -1.686603e+001  6.000000e+000  7.000000e+000
      vertex -1.700000e+001  6.000000e+000  6.500000e+000
    endloop
  endfacet
endsolid CATIA STL
