solid CATIA STL
  facet normal  0.000000e+000  0.000000e+000  1.000000e+000
    outer loop
      vertex  6.464392e+000  6.794350e-001  4.000000e+000
      vertex  6.314276e-001  1.524401e+000  4.000000e+000
      vertex  1.166726e+000  1.166726e+000  4.000000e+000
    endloop
  endfacet
  facet normal  0.000000e+000  -0.000000e+000  9.999999e-001
    outer loop
      vertex  1.166726e+000  1.166726e+000  4.000000e+000
      vertex  1.524401e+000  6.314276e-001  4.000000e+000
      vertex  6.464392e+000  6.794350e-001  4.000000e+000
    endloop
  endfacet
  facet normal  0.000000e+000  0.000000e+000  1.000000e+000
    outer loop
      vertex  6.181867e+000 -2.008610e+000  4.000000e+000
      vertex  6.314276e-001 -1.524401e+000  4.000000e+000
      vertex -3.031001e-016 -1.650000e+000  4.000000e+000
    endloop
  endfacet
  facet normal  0.000000e+000  0.000000e+000  1.000000e+000
    outer loop
      vertex  1.990051e-015  6.500000e+000  4.000000e+000
      vertex -1.524401e+000  6.314276e-001  4.000000e+000
      vertex -1.166726e+000  1.166726e+000  4.000000e+000
    endloop
  endfacet
  facet normal  0.000000e+000  0.000000e+000  1.000000e+000
    outer loop
      vertex  1.990051e-015  6.500000e+000  4.000000e+000
      vertex -1.166726e+000  1.166726e+000  4.000000e+000
      vertex -6.314276e-001  1.524401e+000  4.000000e+000
    endloop
  endfacet
  facet normal  0.000000e+000  0.000000e+000  9.999999e-001
    outer loop
      vertex  1.990051e-015  6.500000e+000  4.000000e+000
      vertex -6.314276e-001  1.524401e+000  4.000000e+000
      vertex  1.010334e-016  1.650000e+000  4.000000e+000
    endloop
  endfacet
  facet normal  0.000000e+000  -0.000000e+000  1.000000e+000
    outer loop
      vertex -3.000000e+000 -6.500000e+000  4.000000e+000
      vertex -3.552714e-015 -6.500000e+000  4.000000e+000
      vertex -3.031001e-016 -1.650000e+000  4.000000e+000
    endloop
  endfacet
  facet normal  0.000000e+000  0.000000e+000  9.999999e-001
    outer loop
      vertex -3.000000e+000 -6.500000e+000  4.000000e+000
      vertex -3.031001e-016 -1.650000e+000  4.000000e+000
      vertex -6.314276e-001 -1.524401e+000  4.000000e+000
    endloop
  endfacet
  facet normal  0.000000e+000  0.000000e+000  1.000000e+000
    outer loop
      vertex -3.000000e+000 -6.500000e+000  4.000000e+000
      vertex -6.314276e-001 -1.524401e+000  4.000000e+000
      vertex -1.166726e+000 -1.166726e+000  4.000000e+000
    endloop
  endfacet
  facet normal  0.000000e+000  0.000000e+000  1.000000e+000
    outer loop
      vertex -3.000000e+000 -6.500000e+000  4.000000e+000
      vertex -1.166726e+000 -1.166726e+000  4.000000e+000
      vertex -1.524401e+000 -6.314276e-001  4.000000e+000
    endloop
  endfacet
  facet normal  0.000000e+000  0.000000e+000  1.000000e+000
    outer loop
      vertex -3.000000e+000 -6.500000e+000  4.000000e+000
      vertex -1.524401e+000 -6.314276e-001  4.000000e+000
      vertex -1.650000e+000  2.020667e-016  4.000000e+000
    endloop
  endfacet
  facet normal  0.000000e+000  0.000000e+000  1.000000e+000
    outer loop
      vertex -3.000000e+000  6.500000e+000  4.000000e+000
      vertex -3.000000e+000 -6.500000e+000  4.000000e+000
      vertex -1.650000e+000  2.020667e-016  4.000000e+000
    endloop
  endfacet
  facet normal  0.000000e+000  -0.000000e+000  1.000000e+000
    outer loop
      vertex -3.000000e+000  6.500000e+000  4.000000e+000
      vertex -1.650000e+000  2.020667e-016  4.000000e+000
      vertex -1.524401e+000  6.314276e-001  4.000000e+000
    endloop
  endfacet
  facet normal  0.000000e+000  -0.000000e+000  1.000000e+000
    outer loop
      vertex -3.000000e+000  6.500000e+000  4.000000e+000
      vertex -1.524401e+000  6.314276e-001  4.000000e+000
      vertex  1.990051e-015  6.500000e+000  4.000000e+000
    endloop
  endfacet
  facet normal  -0.000000e+000  -0.000000e+000  9.999999e-001
    outer loop
      vertex  1.010334e-016  1.650000e+000  4.000000e+000
      vertex  6.314276e-001  1.524401e+000  4.000000e+000
      vertex  6.464392e+000  6.794350e-001  4.000000e+000
    endloop
  endfacet
  facet normal  0.000000e+000  0.000000e+000  1.000000e+000
    outer loop
      vertex  1.010334e-016  1.650000e+000  4.000000e+000
      vertex  6.464392e+000  6.794350e-001  4.000000e+000
      vertex  6.181867e+000  2.008610e+000  4.000000e+000
    endloop
  endfacet
  facet normal  0.000000e+000  0.000000e+000  1.000000e+000
    outer loop
      vertex  1.010334e-016  1.650000e+000  4.000000e+000
      vertex  6.181867e+000  2.008610e+000  4.000000e+000
      vertex  5.629165e+000  3.250000e+000  4.000000e+000
    endloop
  endfacet
  facet normal  0.000000e+000  0.000000e+000  1.000000e+000
    outer loop
      vertex  1.010334e-016  1.650000e+000  4.000000e+000
      vertex  5.629165e+000  3.250000e+000  4.000000e+000
      vertex  4.830441e+000  4.349349e+000  4.000000e+000
    endloop
  endfacet
  facet normal  0.000000e+000  0.000000e+000  1.000000e+000
    outer loop
      vertex  1.010334e-016  1.650000e+000  4.000000e+000
      vertex  4.830441e+000  4.349349e+000  4.000000e+000
      vertex  3.820604e+000  5.258610e+000  4.000000e+000
    endloop
  endfacet
  facet normal  0.000000e+000  0.000000e+000  1.000000e+000
    outer loop
      vertex  1.010334e-016  1.650000e+000  4.000000e+000
      vertex  3.820604e+000  5.258610e+000  4.000000e+000
      vertex  2.643788e+000  5.938046e+000  4.000000e+000
    endloop
  endfacet
  facet normal  0.000000e+000  0.000000e+000  9.999999e-001
    outer loop
      vertex  1.010334e-016  1.650000e+000  4.000000e+000
      vertex  2.643788e+000  5.938046e+000  4.000000e+000
      vertex  1.351426e+000  6.357959e+000  4.000000e+000
    endloop
  endfacet
  facet normal  0.000000e+000  0.000000e+000  1.000000e+000
    outer loop
      vertex  1.010334e-016  1.650000e+000  4.000000e+000
      vertex  1.351426e+000  6.357959e+000  4.000000e+000
      vertex  1.990051e-015  6.500000e+000  4.000000e+000
    endloop
  endfacet
  facet normal  0.000000e+000  -0.000000e+000  9.999999e-001
    outer loop
      vertex -3.552714e-015 -6.500000e+000  4.000000e+000
      vertex  1.351426e+000 -6.357959e+000  4.000000e+000
      vertex  2.643788e+000 -5.938046e+000  4.000000e+000
    endloop
  endfacet
  facet normal  0.000000e+000  -0.000000e+000  1.000000e+000
    outer loop
      vertex -3.552714e-015 -6.500000e+000  4.000000e+000
      vertex  2.643788e+000 -5.938046e+000  4.000000e+000
      vertex  3.820604e+000 -5.258610e+000  4.000000e+000
    endloop
  endfacet
  facet normal  0.000000e+000  -0.000000e+000  1.000000e+000
    outer loop
      vertex -3.552714e-015 -6.500000e+000  4.000000e+000
      vertex  3.820604e+000 -5.258610e+000  4.000000e+000
      vertex  4.830441e+000 -4.349349e+000  4.000000e+000
    endloop
  endfacet
  facet normal  0.000000e+000  -0.000000e+000  1.000000e+000
    outer loop
      vertex -3.552714e-015 -6.500000e+000  4.000000e+000
      vertex  4.830441e+000 -4.349349e+000  4.000000e+000
      vertex  5.629165e+000 -3.250000e+000  4.000000e+000
    endloop
  endfacet
  facet normal  0.000000e+000  -0.000000e+000  1.000000e+000
    outer loop
      vertex -3.552714e-015 -6.500000e+000  4.000000e+000
      vertex  5.629165e+000 -3.250000e+000  4.000000e+000
      vertex  6.181867e+000 -2.008610e+000  4.000000e+000
    endloop
  endfacet
  facet normal  0.000000e+000  0.000000e+000  9.999999e-001
    outer loop
      vertex -3.552714e-015 -6.500000e+000  4.000000e+000
      vertex  6.181867e+000 -2.008610e+000  4.000000e+000
      vertex -3.031001e-016 -1.650000e+000  4.000000e+000
    endloop
  endfacet
  facet normal  -0.000000e+000  0.000000e+000  1.000000e+000
    outer loop
      vertex  6.464392e+000  6.794350e-001  4.000000e+000
      vertex  1.524401e+000  6.314276e-001  4.000000e+000
      vertex  6.464392e+000 -6.794350e-001  4.000000e+000
    endloop
  endfacet
  facet normal  0.000000e+000  0.000000e+000  1.000000e+000
    outer loop
      vertex  6.464392e+000 -6.794350e-001  4.000000e+000
      vertex  1.524401e+000  6.314276e-001  4.000000e+000
      vertex  1.650000e+000  0.000000e+000  4.000000e+000
    endloop
  endfacet
  facet normal  0.000000e+000  0.000000e+000  1.000000e+000
    outer loop
      vertex  6.464392e+000 -6.794350e-001  4.000000e+000
      vertex  1.650000e+000  0.000000e+000  4.000000e+000
      vertex  1.524401e+000 -6.314276e-001  4.000000e+000
    endloop
  endfacet
  facet normal  0.000000e+000  0.000000e+000  1.000000e+000
    outer loop
      vertex  6.464392e+000 -6.794350e-001  4.000000e+000
      vertex  1.524401e+000 -6.314276e-001  4.000000e+000
      vertex  6.181867e+000 -2.008610e+000  4.000000e+000
    endloop
  endfacet
  facet normal  0.000000e+000  0.000000e+000  1.000000e+000
    outer loop
      vertex  6.181867e+000 -2.008610e+000  4.000000e+000
      vertex  1.524401e+000 -6.314276e-001  4.000000e+000
      vertex  1.166726e+000 -1.166726e+000  4.000000e+000
    endloop
  endfacet
  facet normal  0.000000e+000  0.000000e+000  1.000000e+000
    outer loop
      vertex  6.181867e+000 -2.008610e+000  4.000000e+000
      vertex  1.166726e+000 -1.166726e+000  4.000000e+000
      vertex  6.314276e-001 -1.524401e+000  4.000000e+000
    endloop
  endfacet
  facet normal  1.000000e+000  0.000000e+000  0.000000e+000
    outer loop
      vertex -6.000000e+000 -6.500000e+000  1.000000e+001
      vertex -6.000000e+000 -6.500000e+000  7.000000e+000
      vertex -6.000000e+000  6.500000e+000  1.000000e+001
    endloop
  endfacet
  facet normal  1.000000e+000  0.000000e+000  0.000000e+000
    outer loop
      vertex -6.000000e+000  6.500000e+000  1.000000e+001
      vertex -6.000000e+000 -6.500000e+000  7.000000e+000
      vertex -6.000000e+000  6.500000e+000  7.000000e+000
    endloop
  endfacet
  facet normal  0.000000e+000 -1.000000e+000  0.000000e+000
    outer loop
      vertex -1.000000e+001 -6.500000e+000  0.000000e+000
      vertex -3.552714e-015 -6.500000e+000  0.000000e+000
      vertex -3.552714e-015 -6.500000e+000  4.000000e+000
    endloop
  endfacet
  facet normal  -0.000000e+000 -1.000000e+000  0.000000e+000
    outer loop
      vertex -1.000000e+001 -6.500000e+000  0.000000e+000
      vertex -3.552714e-015 -6.500000e+000  4.000000e+000
      vertex -3.000000e+000 -6.500000e+000  4.000000e+000
    endloop
  endfacet
  facet normal  -0.000000e+000 -1.000000e+000  0.000000e+000
    outer loop
      vertex -1.000000e+001 -6.500000e+000  0.000000e+000
      vertex -3.000000e+000 -6.500000e+000  4.000000e+000
      vertex -6.000000e+000 -6.500000e+000  7.000000e+000
    endloop
  endfacet
  facet normal  -0.000000e+000 -1.000000e+000  0.000000e+000
    outer loop
      vertex -1.000000e+001 -6.500000e+000  0.000000e+000
      vertex -6.000000e+000 -6.500000e+000  7.000000e+000
      vertex -6.000000e+000 -6.500000e+000  1.000000e+001
    endloop
  endfacet
  facet normal  -0.000000e+000 -1.000000e+000  0.000000e+000
    outer loop
      vertex -1.000000e+001 -6.500000e+000  0.000000e+000
      vertex -6.000000e+000 -6.500000e+000  1.000000e+001
      vertex -1.000000e+001 -6.500000e+000  1.000000e+001
    endloop
  endfacet
  facet normal  -0.000000e+000  1.000000e+000  0.000000e+000
    outer loop
      vertex -1.000000e+001  6.500000e+000  0.000000e+000
      vertex -1.000000e+001  6.500000e+000  1.000000e+001
      vertex -6.000000e+000  6.500000e+000  1.000000e+001
    endloop
  endfacet
  facet normal  0.000000e+000  1.000000e+000  0.000000e+000
    outer loop
      vertex -1.000000e+001  6.500000e+000  0.000000e+000
      vertex -6.000000e+000  6.500000e+000  1.000000e+001
      vertex -6.000000e+000  6.500000e+000  7.000000e+000
    endloop
  endfacet
  facet normal  0.000000e+000  1.000000e+000  0.000000e+000
    outer loop
      vertex -1.000000e+001  6.500000e+000  0.000000e+000
      vertex -6.000000e+000  6.500000e+000  7.000000e+000
      vertex -3.000000e+000  6.500000e+000  4.000000e+000
    endloop
  endfacet
  facet normal  -0.000000e+000  1.000000e+000  0.000000e+000
    outer loop
      vertex -1.000000e+001  6.500000e+000  0.000000e+000
      vertex -3.000000e+000  6.500000e+000  4.000000e+000
      vertex  1.990051e-015  6.500000e+000  4.000000e+000
    endloop
  endfacet
  facet normal  0.000000e+000  1.000000e+000  0.000000e+000
    outer loop
      vertex -1.000000e+001  6.500000e+000  0.000000e+000
      vertex  1.990051e-015  6.500000e+000  4.000000e+000
      vertex  1.990051e-015  6.500000e+000  0.000000e+000
    endloop
  endfacet
  facet normal  7.071068e-001  0.000000e+000  7.071068e-001
    outer loop
      vertex -6.000000e+000 -6.500000e+000  7.000000e+000
      vertex -3.000000e+000 -6.500000e+000  4.000000e+000
      vertex -6.000000e+000  6.500000e+000  7.000000e+000
    endloop
  endfacet
  facet normal  7.071068e-001  0.000000e+000  7.071068e-001
    outer loop
      vertex -6.000000e+000  6.500000e+000  7.000000e+000
      vertex -3.000000e+000 -6.500000e+000  4.000000e+000
      vertex -3.000000e+000  6.500000e+000  4.000000e+000
    endloop
  endfacet
  facet normal  0.000000e+000  0.000000e+000 -1.000000e+000
    outer loop
      vertex  1.646996e+000  1.381993e+000  0.000000e+000
      vertex  1.075000e+000  1.861955e+000  0.000000e+000
      vertex  6.464392e+000  6.794350e-001  0.000000e+000
    endloop
  endfacet
  facet normal  0.000000e+000  0.000000e+000 -1.000000e+000
    outer loop
      vertex  6.464392e+000 -6.794350e-001  0.000000e+000
      vertex  2.020339e+000 -7.353433e-001  0.000000e+000
      vertex  2.150000e+000 -5.269973e-016  0.000000e+000
    endloop
  endfacet
  facet normal  0.000000e+000  0.000000e+000 -1.000000e+000
    outer loop
      vertex  6.181867e+000 -2.008610e+000  0.000000e+000
      vertex  3.733436e-001 -2.117337e+000  0.000000e+000
      vertex  1.075000e+000 -1.861955e+000  0.000000e+000
    endloop
  endfacet
  facet normal  0.000000e+000  0.000000e+000 -1.000000e+000
    outer loop
      vertex  3.733436e-001 -2.117337e+000  0.000000e+000
      vertex  6.181867e+000 -2.008610e+000  0.000000e+000
      vertex  5.629165e+000 -3.250000e+000  0.000000e+000
    endloop
  endfacet
  facet normal  -0.000000e+000  0.000000e+000 -1.000000e+000
    outer loop
      vertex  1.990051e-015  6.500000e+000  0.000000e+000
      vertex  1.351426e+000  6.357959e+000  0.000000e+000
      vertex  3.733436e-001  2.117337e+000  0.000000e+000
    endloop
  endfacet
  facet normal  0.000000e+000  0.000000e+000 -1.000000e+000
    outer loop
      vertex  1.990051e-015  6.500000e+000  0.000000e+000
      vertex  3.733436e-001  2.117337e+000  0.000000e+000
      vertex -3.733436e-001  2.117337e+000  0.000000e+000
    endloop
  endfacet
  facet normal  -0.000000e+000  0.000000e+000 -9.999999e-001
    outer loop
      vertex  1.990051e-015  6.500000e+000  0.000000e+000
      vertex -3.733436e-001  2.117337e+000  0.000000e+000
      vertex -1.075000e+000  1.861955e+000  0.000000e+000
    endloop
  endfacet
  facet normal  -0.000000e+000  0.000000e+000 -1.000000e+000
    outer loop
      vertex  1.990051e-015  6.500000e+000  0.000000e+000
      vertex -1.075000e+000  1.861955e+000  0.000000e+000
      vertex -1.646996e+000  1.381993e+000  0.000000e+000
    endloop
  endfacet
  facet normal  -0.000000e+000  0.000000e+000 -1.000000e+000
    outer loop
      vertex  1.990051e-015  6.500000e+000  0.000000e+000
      vertex -1.646996e+000  1.381993e+000  0.000000e+000
      vertex -1.000000e+001 -6.500000e+000  0.000000e+000
    endloop
  endfacet
  facet normal  0.000000e+000  0.000000e+000 -1.000000e+000
    outer loop
      vertex  1.990051e-015  6.500000e+000  0.000000e+000
      vertex -1.000000e+001 -6.500000e+000  0.000000e+000
      vertex -1.000000e+001  6.500000e+000  0.000000e+000
    endloop
  endfacet
  facet normal  0.000000e+000  -0.000000e+000 -1.000000e+000
    outer loop
      vertex  3.733436e-001  2.117337e+000  0.000000e+000
      vertex  1.351426e+000  6.357959e+000  0.000000e+000
      vertex  2.643788e+000  5.938046e+000  0.000000e+000
    endloop
  endfacet
  facet normal  0.000000e+000  -0.000000e+000 -1.000000e+000
    outer loop
      vertex  3.733436e-001  2.117337e+000  0.000000e+000
      vertex  2.643788e+000  5.938046e+000  0.000000e+000
      vertex  3.820604e+000  5.258610e+000  0.000000e+000
    endloop
  endfacet
  facet normal  0.000000e+000  -0.000000e+000 -9.999999e-001
    outer loop
      vertex  3.733436e-001  2.117337e+000  0.000000e+000
      vertex  3.820604e+000  5.258610e+000  0.000000e+000
      vertex  4.830441e+000  4.349349e+000  0.000000e+000
    endloop
  endfacet
  facet normal  0.000000e+000  -0.000000e+000 -9.999999e-001
    outer loop
      vertex  3.733436e-001  2.117337e+000  0.000000e+000
      vertex  4.830441e+000  4.349349e+000  0.000000e+000
      vertex  5.629165e+000  3.250000e+000  0.000000e+000
    endloop
  endfacet
  facet normal  0.000000e+000  -0.000000e+000 -1.000000e+000
    outer loop
      vertex  3.733436e-001  2.117337e+000  0.000000e+000
      vertex  5.629165e+000  3.250000e+000  0.000000e+000
      vertex  6.181867e+000  2.008610e+000  0.000000e+000
    endloop
  endfacet
  facet normal  -0.000000e+000  -0.000000e+000 -1.000000e+000
    outer loop
      vertex  3.733436e-001  2.117337e+000  0.000000e+000
      vertex  6.181867e+000  2.008610e+000  0.000000e+000
      vertex  6.464392e+000  6.794350e-001  0.000000e+000
    endloop
  endfacet
  facet normal  0.000000e+000  0.000000e+000 -1.000000e+000
    outer loop
      vertex  3.733436e-001  2.117337e+000  0.000000e+000
      vertex  6.464392e+000  6.794350e-001  0.000000e+000
      vertex  1.075000e+000  1.861955e+000  0.000000e+000
    endloop
  endfacet
  facet normal  0.000000e+000  0.000000e+000 -1.000000e+000
    outer loop
      vertex -1.000000e+001 -6.500000e+000  0.000000e+000
      vertex -1.646996e+000  1.381993e+000  0.000000e+000
      vertex -2.020339e+000  7.353432e-001  0.000000e+000
    endloop
  endfacet
  facet normal  0.000000e+000  0.000000e+000 -1.000000e+000
    outer loop
      vertex -1.000000e+001 -6.500000e+000  0.000000e+000
      vertex -2.020339e+000  7.353432e-001  0.000000e+000
      vertex -2.150000e+000 -8.253899e-008  0.000000e+000
    endloop
  endfacet
  facet normal  0.000000e+000  -0.000000e+000 -1.000000e+000
    outer loop
      vertex -1.000000e+001 -6.500000e+000  0.000000e+000
      vertex -2.150000e+000 -8.253899e-008  0.000000e+000
      vertex -2.020339e+000 -7.353433e-001  0.000000e+000
    endloop
  endfacet
  facet normal  0.000000e+000  -0.000000e+000 -9.999999e-001
    outer loop
      vertex -1.000000e+001 -6.500000e+000  0.000000e+000
      vertex -2.020339e+000 -7.353433e-001  0.000000e+000
      vertex -1.646996e+000 -1.381993e+000  0.000000e+000
    endloop
  endfacet
  facet normal  0.000000e+000  -0.000000e+000 -1.000000e+000
    outer loop
      vertex -1.000000e+001 -6.500000e+000  0.000000e+000
      vertex -1.646996e+000 -1.381993e+000  0.000000e+000
      vertex -1.075000e+000 -1.861955e+000  0.000000e+000
    endloop
  endfacet
  facet normal  0.000000e+000  -0.000000e+000 -1.000000e+000
    outer loop
      vertex -1.000000e+001 -6.500000e+000  0.000000e+000
      vertex -1.075000e+000 -1.861955e+000  0.000000e+000
      vertex -3.733436e-001 -2.117337e+000  0.000000e+000
    endloop
  endfacet
  facet normal  0.000000e+000  -0.000000e+000 -1.000000e+000
    outer loop
      vertex -1.000000e+001 -6.500000e+000  0.000000e+000
      vertex -3.733436e-001 -2.117337e+000  0.000000e+000
      vertex -3.552714e-015 -6.500000e+000  0.000000e+000
    endloop
  endfacet
  facet normal  0.000000e+000  0.000000e+000 -1.000000e+000
    outer loop
      vertex -3.552714e-015 -6.500000e+000  0.000000e+000
      vertex -3.733436e-001 -2.117337e+000  0.000000e+000
      vertex  3.733436e-001 -2.117337e+000  0.000000e+000
    endloop
  endfacet
  facet normal  0.000000e+000  -0.000000e+000 -1.000000e+000
    outer loop
      vertex -3.552714e-015 -6.500000e+000  0.000000e+000
      vertex  3.733436e-001 -2.117337e+000  0.000000e+000
      vertex  5.629165e+000 -3.250000e+000  0.000000e+000
    endloop
  endfacet
  facet normal  0.000000e+000  0.000000e+000 -1.000000e+000
    outer loop
      vertex -3.552714e-015 -6.500000e+000  0.000000e+000
      vertex  5.629165e+000 -3.250000e+000  0.000000e+000
      vertex  4.830441e+000 -4.349349e+000  0.000000e+000
    endloop
  endfacet
  facet normal  0.000000e+000  0.000000e+000 -1.000000e+000
    outer loop
      vertex -3.552714e-015 -6.500000e+000  0.000000e+000
      vertex  4.830441e+000 -4.349349e+000  0.000000e+000
      vertex  3.820604e+000 -5.258610e+000  0.000000e+000
    endloop
  endfacet
  facet normal  0.000000e+000  0.000000e+000 -1.000000e+000
    outer loop
      vertex -3.552714e-015 -6.500000e+000  0.000000e+000
      vertex  3.820604e+000 -5.258610e+000  0.000000e+000
      vertex  2.643788e+000 -5.938046e+000  0.000000e+000
    endloop
  endfacet
  facet normal  0.000000e+000  0.000000e+000 -1.000000e+000
    outer loop
      vertex -3.552714e-015 -6.500000e+000  0.000000e+000
      vertex  2.643788e+000 -5.938046e+000  0.000000e+000
      vertex  1.351426e+000 -6.357959e+000  0.000000e+000
    endloop
  endfacet
  facet normal  0.000000e+000  0.000000e+000 -1.000000e+000
    outer loop
      vertex  1.646996e+000  1.381993e+000  0.000000e+000
      vertex  6.464392e+000  6.794350e-001  0.000000e+000
      vertex  2.020339e+000  7.353433e-001  0.000000e+000
    endloop
  endfacet
  facet normal  0.000000e+000  0.000000e+000 -1.000000e+000
    outer loop
      vertex  2.020339e+000  7.353433e-001  0.000000e+000
      vertex  6.464392e+000  6.794350e-001  0.000000e+000
      vertex  6.464392e+000 -6.794350e-001  0.000000e+000
    endloop
  endfacet
  facet normal  0.000000e+000  0.000000e+000 -1.000000e+000
    outer loop
      vertex  2.020339e+000  7.353433e-001  0.000000e+000
      vertex  6.464392e+000 -6.794350e-001  0.000000e+000
      vertex  2.150000e+000 -5.269973e-016  0.000000e+000
    endloop
  endfacet
  facet normal  0.000000e+000  -0.000000e+000 -1.000000e+000
    outer loop
      vertex  1.075000e+000 -1.861955e+000  0.000000e+000
      vertex  1.646996e+000 -1.381993e+000  0.000000e+000
      vertex  6.181867e+000 -2.008610e+000  0.000000e+000
    endloop
  endfacet
  facet normal  0.000000e+000  0.000000e+000 -1.000000e+000
    outer loop
      vertex  6.181867e+000 -2.008610e+000  0.000000e+000
      vertex  1.646996e+000 -1.381993e+000  0.000000e+000
      vertex  2.020339e+000 -7.353433e-001  0.000000e+000
    endloop
  endfacet
  facet normal  0.000000e+000  0.000000e+000 -1.000000e+000
    outer loop
      vertex  6.181867e+000 -2.008610e+000  0.000000e+000
      vertex  2.020339e+000 -7.353433e-001  0.000000e+000
      vertex  6.464392e+000 -6.794350e-001  0.000000e+000
    endloop
  endfacet
  facet normal  1.950904e-001 -9.807853e-001  0.000000e+000
    outer loop
      vertex  1.010334e-016  1.650000e+000  5.000000e-001
      vertex -6.314276e-001  1.524401e+000  4.000000e+000
      vertex -6.314276e-001  1.524401e+000  5.000000e-001
    endloop
  endfacet
  facet normal  5.555701e-001 -8.314697e-001  0.000000e+000
    outer loop
      vertex -6.314276e-001  1.524401e+000  5.000000e-001
      vertex -6.314276e-001  1.524401e+000  4.000000e+000
      vertex -1.166726e+000  1.166726e+000  4.000000e+000
    endloop
  endfacet
  facet normal  5.555701e-001 -8.314697e-001  0.000000e+000
    outer loop
      vertex -6.314276e-001  1.524401e+000  5.000000e-001
      vertex -1.166726e+000  1.166726e+000  4.000000e+000
      vertex -1.166726e+000  1.166726e+000  5.000000e-001
    endloop
  endfacet
  facet normal  8.314697e-001 -5.555701e-001  0.000000e+000
    outer loop
      vertex -1.166726e+000  1.166726e+000  5.000000e-001
      vertex -1.166726e+000  1.166726e+000  4.000000e+000
      vertex -1.524401e+000  6.314276e-001  4.000000e+000
    endloop
  endfacet
  facet normal  8.314697e-001 -5.555701e-001  0.000000e+000
    outer loop
      vertex -1.166726e+000  1.166726e+000  5.000000e-001
      vertex -1.524401e+000  6.314276e-001  4.000000e+000
      vertex -1.524401e+000  6.314276e-001  5.000000e-001
    endloop
  endfacet
  facet normal  9.807853e-001 -1.950904e-001  0.000000e+000
    outer loop
      vertex -1.524401e+000  6.314276e-001  5.000000e-001
      vertex -1.524401e+000  6.314276e-001  4.000000e+000
      vertex -1.650000e+000  2.020667e-016  4.000000e+000
    endloop
  endfacet
  facet normal  9.807853e-001 -1.950904e-001  0.000000e+000
    outer loop
      vertex -1.524401e+000  6.314276e-001  5.000000e-001
      vertex -1.650000e+000  2.020667e-016  4.000000e+000
      vertex -1.650000e+000  2.020667e-016  5.000000e-001
    endloop
  endfacet
  facet normal  1.950904e-001 -9.807853e-001  0.000000e+000
    outer loop
      vertex -6.314276e-001  1.524401e+000  4.000000e+000
      vertex  1.010334e-016  1.650000e+000  5.000000e-001
      vertex  1.010334e-016  1.650000e+000  4.000000e+000
    endloop
  endfacet
  facet normal -1.950904e-001 -9.807853e-001  -0.000000e+000
    outer loop
      vertex  1.010334e-016  1.650000e+000  4.000000e+000
      vertex  1.010334e-016  1.650000e+000  5.000000e-001
      vertex  6.314276e-001  1.524401e+000  5.000000e-001
    endloop
  endfacet
  facet normal -1.950904e-001 -9.807853e-001  0.000000e+000
    outer loop
      vertex  1.010334e-016  1.650000e+000  4.000000e+000
      vertex  6.314276e-001  1.524401e+000  5.000000e-001
      vertex  6.314276e-001  1.524401e+000  4.000000e+000
    endloop
  endfacet
  facet normal -5.555701e-001 -8.314697e-001  -0.000000e+000
    outer loop
      vertex  6.314276e-001  1.524401e+000  4.000000e+000
      vertex  6.314276e-001  1.524401e+000  5.000000e-001
      vertex  1.166726e+000  1.166726e+000  5.000000e-001
    endloop
  endfacet
  facet normal -5.555701e-001 -8.314697e-001  0.000000e+000
    outer loop
      vertex  6.314276e-001  1.524401e+000  4.000000e+000
      vertex  1.166726e+000  1.166726e+000  5.000000e-001
      vertex  1.166726e+000  1.166726e+000  4.000000e+000
    endloop
  endfacet
  facet normal -8.314697e-001 -5.555701e-001  -0.000000e+000
    outer loop
      vertex  1.166726e+000  1.166726e+000  4.000000e+000
      vertex  1.166726e+000  1.166726e+000  5.000000e-001
      vertex  1.524401e+000  6.314276e-001  5.000000e-001
    endloop
  endfacet
  facet normal -8.314697e-001 -5.555701e-001  0.000000e+000
    outer loop
      vertex  1.166726e+000  1.166726e+000  4.000000e+000
      vertex  1.524401e+000  6.314276e-001  5.000000e-001
      vertex  1.524401e+000  6.314276e-001  4.000000e+000
    endloop
  endfacet
  facet normal -9.807853e-001 -1.950904e-001  -0.000000e+000
    outer loop
      vertex  1.524401e+000  6.314276e-001  4.000000e+000
      vertex  1.524401e+000  6.314276e-001  5.000000e-001
      vertex  1.650000e+000 -4.041334e-016  5.000000e-001
    endloop
  endfacet
  facet normal -9.807853e-001 -1.950904e-001  2.252644e-017
    outer loop
      vertex  1.524401e+000  6.314276e-001  4.000000e+000
      vertex  1.650000e+000 -4.041334e-016  5.000000e-001
      vertex  1.650000e+000  0.000000e+000  4.000000e+000
    endloop
  endfacet
  facet normal -1.950904e-001  9.807853e-001  0.000000e+000
    outer loop
      vertex -3.031001e-016 -1.650000e+000  5.000000e-001
      vertex  6.314276e-001 -1.524401e+000  4.000000e+000
      vertex  6.314276e-001 -1.524401e+000  5.000000e-001
    endloop
  endfacet
  facet normal -5.555701e-001  8.314697e-001  0.000000e+000
    outer loop
      vertex  6.314276e-001 -1.524401e+000  5.000000e-001
      vertex  6.314276e-001 -1.524401e+000  4.000000e+000
      vertex  1.166726e+000 -1.166726e+000  4.000000e+000
    endloop
  endfacet
  facet normal -5.555701e-001  8.314697e-001  0.000000e+000
    outer loop
      vertex  6.314276e-001 -1.524401e+000  5.000000e-001
      vertex  1.166726e+000 -1.166726e+000  4.000000e+000
      vertex  1.166726e+000 -1.166726e+000  5.000000e-001
    endloop
  endfacet
  facet normal -8.314697e-001  5.555701e-001  0.000000e+000
    outer loop
      vertex  1.166726e+000 -1.166726e+000  5.000000e-001
      vertex  1.166726e+000 -1.166726e+000  4.000000e+000
      vertex  1.524401e+000 -6.314276e-001  4.000000e+000
    endloop
  endfacet
  facet normal -8.314697e-001  5.555701e-001  0.000000e+000
    outer loop
      vertex  1.166726e+000 -1.166726e+000  5.000000e-001
      vertex  1.524401e+000 -6.314276e-001  4.000000e+000
      vertex  1.524401e+000 -6.314276e-001  5.000000e-001
    endloop
  endfacet
  facet normal -9.807853e-001  1.950904e-001  0.000000e+000
    outer loop
      vertex  1.524401e+000 -6.314276e-001  5.000000e-001
      vertex  1.524401e+000 -6.314276e-001  4.000000e+000
      vertex  1.650000e+000  0.000000e+000  4.000000e+000
    endloop
  endfacet
  facet normal -9.807853e-001  1.950904e-001 -2.252644e-017
    outer loop
      vertex  1.524401e+000 -6.314276e-001  5.000000e-001
      vertex  1.650000e+000  0.000000e+000  4.000000e+000
      vertex  1.650000e+000 -4.041334e-016  5.000000e-001
    endloop
  endfacet
  facet normal -1.950904e-001  9.807853e-001  0.000000e+000
    outer loop
      vertex  6.314276e-001 -1.524401e+000  4.000000e+000
      vertex -3.031001e-016 -1.650000e+000  5.000000e-001
      vertex -3.031001e-016 -1.650000e+000  4.000000e+000
    endloop
  endfacet
  facet normal  1.950904e-001  9.807853e-001  0.000000e+000
    outer loop
      vertex -3.031001e-016 -1.650000e+000  4.000000e+000
      vertex -3.031001e-016 -1.650000e+000  5.000000e-001
      vertex -6.314276e-001 -1.524401e+000  5.000000e-001
    endloop
  endfacet
  facet normal  1.950904e-001  9.807853e-001  -0.000000e+000
    outer loop
      vertex -3.031001e-016 -1.650000e+000  4.000000e+000
      vertex -6.314276e-001 -1.524401e+000  5.000000e-001
      vertex -6.314276e-001 -1.524401e+000  4.000000e+000
    endloop
  endfacet
  facet normal  5.555701e-001  8.314697e-001  0.000000e+000
    outer loop
      vertex -6.314276e-001 -1.524401e+000  4.000000e+000
      vertex -6.314276e-001 -1.524401e+000  5.000000e-001
      vertex -1.166726e+000 -1.166726e+000  5.000000e-001
    endloop
  endfacet
  facet normal  5.555701e-001  8.314697e-001  -0.000000e+000
    outer loop
      vertex -6.314276e-001 -1.524401e+000  4.000000e+000
      vertex -1.166726e+000 -1.166726e+000  5.000000e-001
      vertex -1.166726e+000 -1.166726e+000  4.000000e+000
    endloop
  endfacet
  facet normal  8.314697e-001  5.555701e-001  0.000000e+000
    outer loop
      vertex -1.166726e+000 -1.166726e+000  4.000000e+000
      vertex -1.166726e+000 -1.166726e+000  5.000000e-001
      vertex -1.524401e+000 -6.314276e-001  5.000000e-001
    endloop
  endfacet
  facet normal  8.314697e-001  5.555701e-001  -0.000000e+000
    outer loop
      vertex -1.166726e+000 -1.166726e+000  4.000000e+000
      vertex -1.524401e+000 -6.314276e-001  5.000000e-001
      vertex -1.524401e+000 -6.314276e-001  4.000000e+000
    endloop
  endfacet
  facet normal  9.807853e-001  1.950904e-001  0.000000e+000
    outer loop
      vertex -1.524401e+000 -6.314276e-001  4.000000e+000
      vertex -1.524401e+000 -6.314276e-001  5.000000e-001
      vertex -1.650000e+000  2.020667e-016  5.000000e-001
    endloop
  endfacet
  facet normal  9.807853e-001  1.950904e-001  -0.000000e+000
    outer loop
      vertex -1.524401e+000 -6.314276e-001  4.000000e+000
      vertex -1.650000e+000  2.020667e-016  5.000000e-001
      vertex -1.650000e+000  2.020667e-016  4.000000e+000
    endloop
  endfacet
  facet normal  8.653986e-001  1.721385e-001 -4.705885e-001
    outer loop
      vertex -1.650000e+000  2.020667e-016  5.000000e-001
      vertex -1.524401e+000 -6.314276e-001  5.000000e-001
      vertex -1.646996e+000 -1.381993e+000  0.000000e+000
    endloop
  endfacet
  facet normal  5.089381e-001  2.938357e-001 -8.090998e-001
    outer loop
      vertex -1.650000e+000  2.020667e-016  5.000000e-001
      vertex -1.646996e+000 -1.381993e+000  0.000000e+000
      vertex -2.020339e+000 -7.353433e-001  0.000000e+000
    endloop
  endfacet
  facet normal  7.016737e-001  1.237240e-001 -7.016739e-001
    outer loop
      vertex -1.650000e+000  2.020667e-016  5.000000e-001
      vertex -2.020339e+000 -7.353433e-001  0.000000e+000
      vertex -2.150000e+000 -8.253899e-008  0.000000e+000
    endloop
  endfacet
  facet normal  3.904905e-001  4.653685e-001 -7.943231e-001
    outer loop
      vertex -1.646996e+000 -1.381993e+000  0.000000e+000
      vertex -1.524401e+000 -6.314276e-001  5.000000e-001
      vertex -1.075000e+000 -1.861955e+000  0.000000e+000
    endloop
  endfacet
  facet normal  7.066807e-001  4.721888e-001 -5.269158e-001
    outer loop
      vertex -1.075000e+000 -1.861955e+000  0.000000e+000
      vertex -1.524401e+000 -6.314276e-001  5.000000e-001
      vertex -1.166726e+000 -1.166726e+000  5.000000e-001
    endloop
  endfacet
  facet normal  2.142999e-001  5.887839e-001 -7.793646e-001
    outer loop
      vertex -1.075000e+000 -1.861955e+000  0.000000e+000
      vertex -1.166726e+000 -1.166726e+000  5.000000e-001
      vertex -3.733436e-001 -2.117337e+000  0.000000e+000
    endloop
  endfacet
  facet normal  4.553016e-001  6.814072e-001 -5.730489e-001
    outer loop
      vertex -3.733436e-001 -2.117337e+000  0.000000e+000
      vertex -1.166726e+000 -1.166726e+000  5.000000e-001
      vertex -6.314276e-001 -1.524401e+000  5.000000e-001
    endloop
  endfacet
  facet normal  0.000000e+000  6.446530e-001 -7.644753e-001
    outer loop
      vertex -3.733436e-001 -2.117337e+000  0.000000e+000
      vertex -6.314276e-001 -1.524401e+000  5.000000e-001
      vertex  3.733436e-001 -2.117337e+000  0.000000e+000
    endloop
  endfacet
  facet normal  1.544979e-001  7.767134e-001 -6.106119e-001
    outer loop
      vertex  3.733436e-001 -2.117337e+000  0.000000e+000
      vertex -6.314276e-001 -1.524401e+000  5.000000e-001
      vertex -3.031001e-016 -1.650000e+000  5.000000e-001
    endloop
  endfacet
  facet normal -2.262482e-001  6.216116e-001 -7.499405e-001
    outer loop
      vertex  3.733436e-001 -2.117337e+000  0.000000e+000
      vertex -3.031001e-016 -1.650000e+000  5.000000e-001
      vertex  1.075000e+000 -1.861955e+000  0.000000e+000
    endloop
  endfacet
  facet normal -1.497344e-001  7.527656e-001 -6.410332e-001
    outer loop
      vertex  1.075000e+000 -1.861955e+000  0.000000e+000
      vertex -3.031001e-016 -1.650000e+000  5.000000e-001
      vertex  6.314276e-001 -1.524401e+000  5.000000e-001
    endloop
  endfacet
  facet normal -4.351058e-001  5.185390e-001 -7.360710e-001
    outer loop
      vertex  1.075000e+000 -1.861955e+000  0.000000e+000
      vertex  6.314276e-001 -1.524401e+000  5.000000e-001
      vertex  1.646996e+000 -1.381993e+000  0.000000e+000
    endloop
  endfacet
  facet normal -4.146749e-001  6.206050e-001 -6.655030e-001
    outer loop
      vertex  1.646996e+000 -1.381993e+000  0.000000e+000
      vertex  6.314276e-001 -1.524401e+000  5.000000e-001
      vertex  1.166726e+000 -1.166726e+000  5.000000e-001
    endloop
  endfacet
  facet normal -5.981191e-001  3.453243e-001 -7.231905e-001
    outer loop
      vertex  1.646996e+000 -1.381993e+000  0.000000e+000
      vertex  1.166726e+000 -1.166726e+000  5.000000e-001
      vertex  2.020339e+000 -7.353433e-001  0.000000e+000
    endloop
  endfacet
  facet normal -5.384273e-001  9.493924e-002 -8.373068e-001
    outer loop
      vertex  2.020339e+000 -7.353433e-001  0.000000e+000
      vertex  1.166726e+000 -1.166726e+000  5.000000e-001
      vertex  2.150000e+000 -5.269973e-016  0.000000e+000
    endloop
  endfacet
  facet normal -7.875175e-001  5.262022e-001 -3.208231e-001
    outer loop
      vertex  2.150000e+000 -5.269973e-016  0.000000e+000
      vertex  1.166726e+000 -1.166726e+000  5.000000e-001
      vertex  1.524401e+000 -6.314276e-001  5.000000e-001
    endloop
  endfacet
  facet normal -7.002144e-001  1.392813e-001 -7.002146e-001
    outer loop
      vertex  2.150000e+000 -5.269973e-016  0.000000e+000
      vertex  1.524401e+000 -6.314276e-001  5.000000e-001
      vertex  1.650000e+000 -4.041334e-016  5.000000e-001
    endloop
  endfacet
  facet normal -8.653986e-001 -1.721385e-001 -4.705885e-001
    outer loop
      vertex  1.650000e+000 -4.041334e-016  5.000000e-001
      vertex  1.524401e+000  6.314276e-001  5.000000e-001
      vertex  1.646996e+000  1.381993e+000  0.000000e+000
    endloop
  endfacet
  facet normal -5.089381e-001 -2.938357e-001 -8.090998e-001
    outer loop
      vertex  1.650000e+000 -4.041334e-016  5.000000e-001
      vertex  1.646996e+000  1.381993e+000  0.000000e+000
      vertex  2.020339e+000  7.353433e-001  0.000000e+000
    endloop
  endfacet
  facet normal -7.016738e-001 -1.237240e-001 -7.016740e-001
    outer loop
      vertex  1.650000e+000 -4.041334e-016  5.000000e-001
      vertex  2.020339e+000  7.353433e-001  0.000000e+000
      vertex  2.150000e+000 -5.269973e-016  0.000000e+000
    endloop
  endfacet
  facet normal -3.904905e-001 -4.653685e-001 -7.943231e-001
    outer loop
      vertex  1.646996e+000  1.381993e+000  0.000000e+000
      vertex  1.524401e+000  6.314276e-001  5.000000e-001
      vertex  1.075000e+000  1.861955e+000  0.000000e+000
    endloop
  endfacet
  facet normal -7.066807e-001 -4.721888e-001 -5.269157e-001
    outer loop
      vertex  1.075000e+000  1.861955e+000  0.000000e+000
      vertex  1.524401e+000  6.314276e-001  5.000000e-001
      vertex  1.166726e+000  1.166726e+000  5.000000e-001
    endloop
  endfacet
  facet normal -2.142998e-001 -5.887837e-001 -7.793646e-001
    outer loop
      vertex  1.075000e+000  1.861955e+000  0.000000e+000
      vertex  1.166726e+000  1.166726e+000  5.000000e-001
      vertex  3.733436e-001  2.117337e+000  0.000000e+000
    endloop
  endfacet
  facet normal -4.553016e-001 -6.814072e-001 -5.730488e-001
    outer loop
      vertex  3.733436e-001  2.117337e+000  0.000000e+000
      vertex  1.166726e+000  1.166726e+000  5.000000e-001
      vertex  6.314276e-001  1.524401e+000  5.000000e-001
    endloop
  endfacet
  facet normal  0.000000e+000 -6.446530e-001 -7.644753e-001
    outer loop
      vertex  3.733436e-001  2.117337e+000  0.000000e+000
      vertex  6.314276e-001  1.524401e+000  5.000000e-001
      vertex -3.733436e-001  2.117337e+000  0.000000e+000
    endloop
  endfacet
  facet normal -1.544979e-001 -7.767134e-001 -6.106118e-001
    outer loop
      vertex -3.733436e-001  2.117337e+000  0.000000e+000
      vertex  6.314276e-001  1.524401e+000  5.000000e-001
      vertex  1.010334e-016  1.650000e+000  5.000000e-001
    endloop
  endfacet
  facet normal  2.262482e-001 -6.216116e-001 -7.499405e-001
    outer loop
      vertex -3.733436e-001  2.117337e+000  0.000000e+000
      vertex  1.010334e-016  1.650000e+000  5.000000e-001
      vertex -1.075000e+000  1.861955e+000  0.000000e+000
    endloop
  endfacet
  facet normal  1.497344e-001 -7.527656e-001 -6.410332e-001
    outer loop
      vertex -1.075000e+000  1.861955e+000  0.000000e+000
      vertex  1.010334e-016  1.650000e+000  5.000000e-001
      vertex -6.314276e-001  1.524401e+000  5.000000e-001
    endloop
  endfacet
  facet normal  4.351058e-001 -5.185388e-001 -7.360709e-001
    outer loop
      vertex -1.075000e+000  1.861955e+000  0.000000e+000
      vertex -6.314276e-001  1.524401e+000  5.000000e-001
      vertex -1.646996e+000  1.381993e+000  0.000000e+000
    endloop
  endfacet
  facet normal  4.146749e-001 -6.206051e-001 -6.655029e-001
    outer loop
      vertex -1.646996e+000  1.381993e+000  0.000000e+000
      vertex -6.314276e-001  1.524401e+000  5.000000e-001
      vertex -1.166726e+000  1.166726e+000  5.000000e-001
    endloop
  endfacet
  facet normal  5.981191e-001 -3.453243e-001 -7.231905e-001
    outer loop
      vertex -1.646996e+000  1.381993e+000  0.000000e+000
      vertex -1.166726e+000  1.166726e+000  5.000000e-001
      vertex -2.020339e+000  7.353432e-001  0.000000e+000
    endloop
  endfacet
  facet normal  5.384273e-001 -9.493924e-002 -8.373068e-001
    outer loop
      vertex -2.020339e+000  7.353432e-001  0.000000e+000
      vertex -1.166726e+000  1.166726e+000  5.000000e-001
      vertex -2.150000e+000 -8.253899e-008  0.000000e+000
    endloop
  endfacet
  facet normal  7.875174e-001 -5.262021e-001 -3.208230e-001
    outer loop
      vertex -2.150000e+000 -8.253899e-008  0.000000e+000
      vertex -1.166726e+000  1.166726e+000  5.000000e-001
      vertex -1.524401e+000  6.314276e-001  5.000000e-001
    endloop
  endfacet
  facet normal  7.002144e-001 -1.392813e-001 -7.002145e-001
    outer loop
      vertex -2.150000e+000 -8.253899e-008  0.000000e+000
      vertex -1.524401e+000  6.314276e-001  5.000000e-001
      vertex -1.650000e+000  2.020667e-016  5.000000e-001
    endloop
  endfacet
  facet normal  0.000000e+000  0.000000e+000  1.000000e+000
    outer loop
      vertex -1.000000e+001 -6.500000e+000  1.000000e+001
      vertex -6.000000e+000 -6.500000e+000  1.000000e+001
      vertex -1.000000e+001  6.500000e+000  1.000000e+001
    endloop
  endfacet
  facet normal  -0.000000e+000  0.000000e+000  1.000000e+000
    outer loop
      vertex -1.000000e+001  6.500000e+000  1.000000e+001
      vertex -6.000000e+000 -6.500000e+000  1.000000e+001
      vertex -6.000000e+000  6.500000e+000  1.000000e+001
    endloop
  endfacet
  facet normal -1.000000e+000  -0.000000e+000  0.000000e+000
    outer loop
      vertex -1.000000e+001 -6.500000e+000  1.000000e+001
      vertex -1.000000e+001  6.500000e+000  1.000000e+001
      vertex -1.000000e+001 -6.500000e+000  0.000000e+000
    endloop
  endfacet
  facet normal -1.000000e+000  0.000000e+000  0.000000e+000
    outer loop
      vertex -1.000000e+001 -6.500000e+000  0.000000e+000
      vertex -1.000000e+001  6.500000e+000  1.000000e+001
      vertex -1.000000e+001  6.500000e+000  0.000000e+000
    endloop
  endfacet
  facet normal  1.045286e-001  9.945219e-001  0.000000e+000
    outer loop
      vertex  1.990051e-015  6.500000e+000  0.000000e+000
      vertex  1.990051e-015  6.500000e+000  4.000000e+000
      vertex  1.351426e+000  6.357959e+000  0.000000e+000
    endloop
  endfacet
  facet normal  1.045286e-001  9.945219e-001  -0.000000e+000
    outer loop
      vertex  1.351426e+000  6.357959e+000  0.000000e+000
      vertex  1.990051e-015  6.500000e+000  4.000000e+000
      vertex  1.351426e+000  6.357959e+000  4.000000e+000
    endloop
  endfacet
  facet normal  3.090169e-001  9.510565e-001  0.000000e+000
    outer loop
      vertex  1.351426e+000  6.357959e+000  0.000000e+000
      vertex  1.351426e+000  6.357959e+000  4.000000e+000
      vertex  2.643788e+000  5.938046e+000  0.000000e+000
    endloop
  endfacet
  facet normal  3.090169e-001  9.510565e-001  -0.000000e+000
    outer loop
      vertex  2.643788e+000  5.938046e+000  0.000000e+000
      vertex  1.351426e+000  6.357959e+000  4.000000e+000
      vertex  2.643788e+000  5.938046e+000  4.000000e+000
    endloop
  endfacet
  facet normal  5.000001e-001  8.660253e-001  0.000000e+000
    outer loop
      vertex  2.643788e+000  5.938046e+000  0.000000e+000
      vertex  2.643788e+000  5.938046e+000  4.000000e+000
      vertex  3.820604e+000  5.258610e+000  0.000000e+000
    endloop
  endfacet
  facet normal  5.000001e-001  8.660253e-001  -0.000000e+000
    outer loop
      vertex  3.820604e+000  5.258610e+000  0.000000e+000
      vertex  2.643788e+000  5.938046e+000  4.000000e+000
      vertex  3.820604e+000  5.258610e+000  4.000000e+000
    endloop
  endfacet
  facet normal  6.691304e-001  7.431450e-001  0.000000e+000
    outer loop
      vertex  3.820604e+000  5.258610e+000  0.000000e+000
      vertex  3.820604e+000  5.258610e+000  4.000000e+000
      vertex  4.830441e+000  4.349349e+000  0.000000e+000
    endloop
  endfacet
  facet normal  6.691304e-001  7.431450e-001  -0.000000e+000
    outer loop
      vertex  4.830441e+000  4.349349e+000  0.000000e+000
      vertex  3.820604e+000  5.258610e+000  4.000000e+000
      vertex  4.830441e+000  4.349349e+000  4.000000e+000
    endloop
  endfacet
  facet normal  8.090170e-001  5.877852e-001  0.000000e+000
    outer loop
      vertex  4.830441e+000  4.349349e+000  0.000000e+000
      vertex  4.830441e+000  4.349349e+000  4.000000e+000
      vertex  5.629165e+000  3.250000e+000  0.000000e+000
    endloop
  endfacet
  facet normal  8.090170e-001  5.877852e-001  -0.000000e+000
    outer loop
      vertex  5.629165e+000  3.250000e+000  0.000000e+000
      vertex  4.830441e+000  4.349349e+000  4.000000e+000
      vertex  5.629165e+000  3.250000e+000  4.000000e+000
    endloop
  endfacet
  facet normal  9.135455e-001  4.067365e-001  0.000000e+000
    outer loop
      vertex  5.629165e+000  3.250000e+000  0.000000e+000
      vertex  5.629165e+000  3.250000e+000  4.000000e+000
      vertex  6.181867e+000  2.008610e+000  0.000000e+000
    endloop
  endfacet
  facet normal  9.135455e-001  4.067365e-001  -0.000000e+000
    outer loop
      vertex  6.181867e+000  2.008610e+000  0.000000e+000
      vertex  5.629165e+000  3.250000e+000  4.000000e+000
      vertex  6.181867e+000  2.008610e+000  4.000000e+000
    endloop
  endfacet
  facet normal  9.781476e-001  2.079118e-001  0.000000e+000
    outer loop
      vertex  6.181867e+000  2.008610e+000  0.000000e+000
      vertex  6.181867e+000  2.008610e+000  4.000000e+000
      vertex  6.464392e+000  6.794350e-001  0.000000e+000
    endloop
  endfacet
  facet normal  9.781476e-001  2.079118e-001  -0.000000e+000
    outer loop
      vertex  6.464392e+000  6.794350e-001  0.000000e+000
      vertex  6.181867e+000  2.008610e+000  4.000000e+000
      vertex  6.464392e+000  6.794350e-001  4.000000e+000
    endloop
  endfacet
  facet normal  9.999999e-001  0.000000e+000  0.000000e+000
    outer loop
      vertex  6.464392e+000  6.794350e-001  0.000000e+000
      vertex  6.464392e+000  6.794350e-001  4.000000e+000
      vertex  6.464392e+000 -6.794350e-001  0.000000e+000
    endloop
  endfacet
  facet normal  9.999999e-001  0.000000e+000  0.000000e+000
    outer loop
      vertex  6.464392e+000 -6.794350e-001  0.000000e+000
      vertex  6.464392e+000  6.794350e-001  4.000000e+000
      vertex  6.464392e+000 -6.794350e-001  4.000000e+000
    endloop
  endfacet
  facet normal  9.781476e-001 -2.079118e-001  0.000000e+000
    outer loop
      vertex  6.464392e+000 -6.794350e-001  0.000000e+000
      vertex  6.464392e+000 -6.794350e-001  4.000000e+000
      vertex  6.181867e+000 -2.008610e+000  0.000000e+000
    endloop
  endfacet
  facet normal  9.781476e-001 -2.079118e-001  0.000000e+000
    outer loop
      vertex  6.181867e+000 -2.008610e+000  0.000000e+000
      vertex  6.464392e+000 -6.794350e-001  4.000000e+000
      vertex  6.181867e+000 -2.008610e+000  4.000000e+000
    endloop
  endfacet
  facet normal  9.135455e-001 -4.067365e-001  0.000000e+000
    outer loop
      vertex  6.181867e+000 -2.008610e+000  0.000000e+000
      vertex  6.181867e+000 -2.008610e+000  4.000000e+000
      vertex  5.629165e+000 -3.250000e+000  0.000000e+000
    endloop
  endfacet
  facet normal  9.135455e-001 -4.067365e-001  0.000000e+000
    outer loop
      vertex  5.629165e+000 -3.250000e+000  0.000000e+000
      vertex  6.181867e+000 -2.008610e+000  4.000000e+000
      vertex  5.629165e+000 -3.250000e+000  4.000000e+000
    endloop
  endfacet
  facet normal  8.090170e-001 -5.877852e-001  0.000000e+000
    outer loop
      vertex  5.629165e+000 -3.250000e+000  0.000000e+000
      vertex  5.629165e+000 -3.250000e+000  4.000000e+000
      vertex  4.830441e+000 -4.349349e+000  0.000000e+000
    endloop
  endfacet
  facet normal  8.090170e-001 -5.877852e-001  0.000000e+000
    outer loop
      vertex  4.830441e+000 -4.349349e+000  0.000000e+000
      vertex  5.629165e+000 -3.250000e+000  4.000000e+000
      vertex  4.830441e+000 -4.349349e+000  4.000000e+000
    endloop
  endfacet
  facet normal  6.691304e-001 -7.431450e-001  0.000000e+000
    outer loop
      vertex  4.830441e+000 -4.349349e+000  0.000000e+000
      vertex  4.830441e+000 -4.349349e+000  4.000000e+000
      vertex  3.820604e+000 -5.258610e+000  0.000000e+000
    endloop
  endfacet
  facet normal  6.691304e-001 -7.431450e-001  0.000000e+000
    outer loop
      vertex  3.820604e+000 -5.258610e+000  0.000000e+000
      vertex  4.830441e+000 -4.349349e+000  4.000000e+000
      vertex  3.820604e+000 -5.258610e+000  4.000000e+000
    endloop
  endfacet
  facet normal  5.000001e-001 -8.660253e-001  0.000000e+000
    outer loop
      vertex  3.820604e+000 -5.258610e+000  0.000000e+000
      vertex  3.820604e+000 -5.258610e+000  4.000000e+000
      vertex  2.643788e+000 -5.938046e+000  0.000000e+000
    endloop
  endfacet
  facet normal  5.000001e-001 -8.660253e-001  0.000000e+000
    outer loop
      vertex  2.643788e+000 -5.938046e+000  0.000000e+000
      vertex  3.820604e+000 -5.258610e+000  4.000000e+000
      vertex  2.643788e+000 -5.938046e+000  4.000000e+000
    endloop
  endfacet
  facet normal  3.090169e-001 -9.510565e-001  0.000000e+000
    outer loop
      vertex  2.643788e+000 -5.938046e+000  0.000000e+000
      vertex  2.643788e+000 -5.938046e+000  4.000000e+000
      vertex  1.351426e+000 -6.357959e+000  0.000000e+000
    endloop
  endfacet
  facet normal  3.090169e-001 -9.510565e-001  0.000000e+000
    outer loop
      vertex  1.351426e+000 -6.357959e+000  0.000000e+000
      vertex  2.643788e+000 -5.938046e+000  4.000000e+000
      vertex  1.351426e+000 -6.357959e+000  4.000000e+000
    endloop
  endfacet
  facet normal  1.045286e-001 -9.945219e-001  0.000000e+000
    outer loop
      vertex  1.351426e+000 -6.357959e+000  0.000000e+000
      vertex  1.351426e+000 -6.357959e+000  4.000000e+000
      vertex -3.552714e-015 -6.500000e+000  0.000000e+000
    endloop
  endfacet
  facet normal  1.045286e-001 -9.945219e-001  0.000000e+000
    outer loop
      vertex -3.552714e-015 -6.500000e+000  0.000000e+000
      vertex  1.351426e+000 -6.357959e+000  4.000000e+000
      vertex -3.552714e-015 -6.500000e+000  4.000000e+000
    endloop
  endfacet
endsolid CATIA STL
