solid CATIA STL
  facet normal  0.000000e+000  0.000000e+000  9.999999e-001
    outer loop
      vertex  6.464392e+000  6.794350e-001  4.000000e+000
      vertex  7.081639e-001  1.490303e+000  4.000000e+000
      vertex  1.205636e+000  1.126474e+000  4.000000e+000
    endloop
  endfacet
  facet normal  0.000000e+000  -0.000000e+000  1.000000e+000
    outer loop
      vertex  1.205636e+000  1.126474e+000  4.000000e+000
      vertex  1.534894e+000  6.054756e-001  4.000000e+000
      vertex  6.464392e+000  6.794350e-001  4.000000e+000
    endloop
  endfacet
  facet normal  0.000000e+000  0.000000e+000  1.000000e+000
    outer loop
      vertex  6.181867e+000 -2.008610e+000  4.000000e+000
      vertex  7.081639e-001 -1.490303e+000  4.000000e+000
      vertex  1.118873e-001 -1.646202e+000  4.000000e+000
    endloop
  endfacet
  facet normal  -0.000000e+000  -0.000000e+000  1.000000e+000
    outer loop
      vertex  1.118873e-001  1.646202e+000  4.000000e+000
      vertex  7.081639e-001  1.490303e+000  4.000000e+000
      vertex  6.464392e+000  6.794350e-001  4.000000e+000
    endloop
  endfacet
  facet normal  0.000000e+000  0.000000e+000  1.000000e+000
    outer loop
      vertex  1.118873e-001  1.646202e+000  4.000000e+000
      vertex  6.464392e+000  6.794350e-001  4.000000e+000
      vertex  6.181867e+000  2.008610e+000  4.000000e+000
    endloop
  endfacet
  facet normal  0.000000e+000  0.000000e+000  1.000000e+000
    outer loop
      vertex  1.118873e-001  1.646202e+000  4.000000e+000
      vertex  6.181867e+000  2.008610e+000  4.000000e+000
      vertex  5.629165e+000  3.250000e+000  4.000000e+000
    endloop
  endfacet
  facet normal  0.000000e+000  0.000000e+000  1.000000e+000
    outer loop
      vertex  1.118873e-001  1.646202e+000  4.000000e+000
      vertex  5.629165e+000  3.250000e+000  4.000000e+000
      vertex  4.830441e+000  4.349349e+000  4.000000e+000
    endloop
  endfacet
  facet normal  0.000000e+000  0.000000e+000  1.000000e+000
    outer loop
      vertex  1.118873e-001  1.646202e+000  4.000000e+000
      vertex  4.830441e+000  4.349349e+000  4.000000e+000
      vertex  3.820604e+000  5.258610e+000  4.000000e+000
    endloop
  endfacet
  facet normal  0.000000e+000  0.000000e+000  1.000000e+000
    outer loop
      vertex  1.118873e-001  1.646202e+000  4.000000e+000
      vertex  3.820604e+000  5.258610e+000  4.000000e+000
      vertex  2.643788e+000  5.938046e+000  4.000000e+000
    endloop
  endfacet
  facet normal  0.000000e+000  0.000000e+000  1.000000e+000
    outer loop
      vertex  1.118873e-001  1.646202e+000  4.000000e+000
      vertex  2.643788e+000  5.938046e+000  4.000000e+000
      vertex  1.351426e+000  6.357959e+000  4.000000e+000
    endloop
  endfacet
  facet normal  0.000000e+000  0.000000e+000  1.000000e+000
    outer loop
      vertex  1.118873e-001  1.646202e+000  4.000000e+000
      vertex  1.351426e+000  6.357959e+000  4.000000e+000
      vertex  1.990051e-015  6.500000e+000  4.000000e+000
    endloop
  endfacet
  facet normal  0.000000e+000  0.000000e+000  1.000000e+000
    outer loop
      vertex  1.118873e-001  1.646202e+000  4.000000e+000
      vertex  1.990051e-015  6.500000e+000  4.000000e+000
      vertex -5.000000e-001  6.500000e+000  4.000000e+000
    endloop
  endfacet
  facet normal  0.000000e+000  0.000000e+000  1.000000e+000
    outer loop
      vertex  1.118873e-001  1.646202e+000  4.000000e+000
      vertex -5.000000e-001  6.500000e+000  4.000000e+000
      vertex -5.000000e-001  1.572419e+000  4.000000e+000
    endloop
  endfacet
  facet normal  0.000000e+000  -0.000000e+000  1.000000e+000
    outer loop
      vertex -5.000000e-001 -6.500000e+000  4.000000e+000
      vertex -6.661338e-015 -6.500000e+000  4.000000e+000
      vertex  1.351426e+000 -6.357959e+000  4.000000e+000
    endloop
  endfacet
  facet normal  0.000000e+000  -0.000000e+000  1.000000e+000
    outer loop
      vertex -5.000000e-001 -6.500000e+000  4.000000e+000
      vertex  1.351426e+000 -6.357959e+000  4.000000e+000
      vertex  2.643788e+000 -5.938046e+000  4.000000e+000
    endloop
  endfacet
  facet normal  0.000000e+000  -0.000000e+000  1.000000e+000
    outer loop
      vertex -5.000000e-001 -6.500000e+000  4.000000e+000
      vertex  2.643788e+000 -5.938046e+000  4.000000e+000
      vertex  3.820604e+000 -5.258610e+000  4.000000e+000
    endloop
  endfacet
  facet normal  0.000000e+000  -0.000000e+000  1.000000e+000
    outer loop
      vertex -5.000000e-001 -6.500000e+000  4.000000e+000
      vertex  3.820604e+000 -5.258610e+000  4.000000e+000
      vertex  4.830441e+000 -4.349349e+000  4.000000e+000
    endloop
  endfacet
  facet normal  0.000000e+000  -0.000000e+000  1.000000e+000
    outer loop
      vertex -5.000000e-001 -6.500000e+000  4.000000e+000
      vertex  4.830441e+000 -4.349349e+000  4.000000e+000
      vertex  5.629165e+000 -3.250000e+000  4.000000e+000
    endloop
  endfacet
  facet normal  0.000000e+000  -0.000000e+000  1.000000e+000
    outer loop
      vertex -5.000000e-001 -6.500000e+000  4.000000e+000
      vertex  5.629165e+000 -3.250000e+000  4.000000e+000
      vertex  6.181867e+000 -2.008610e+000  4.000000e+000
    endloop
  endfacet
  facet normal  0.000000e+000  0.000000e+000  1.000000e+000
    outer loop
      vertex -5.000000e-001 -6.500000e+000  4.000000e+000
      vertex  6.181867e+000 -2.008610e+000  4.000000e+000
      vertex  1.118873e-001 -1.646202e+000  4.000000e+000
    endloop
  endfacet
  facet normal  0.000000e+000  0.000000e+000  1.000000e+000
    outer loop
      vertex -5.000000e-001 -6.500000e+000  4.000000e+000
      vertex  1.118873e-001 -1.646202e+000  4.000000e+000
      vertex -5.000000e-001 -1.572419e+000  4.000000e+000
    endloop
  endfacet
  facet normal  -0.000000e+000  0.000000e+000  9.999999e-001
    outer loop
      vertex  6.464392e+000  6.794350e-001  4.000000e+000
      vertex  1.534894e+000  6.054756e-001  4.000000e+000
      vertex  6.464392e+000 -6.794350e-001  4.000000e+000
    endloop
  endfacet
  facet normal  0.000000e+000  0.000000e+000  1.000000e+000
    outer loop
      vertex  6.464392e+000 -6.794350e-001  4.000000e+000
      vertex  1.534894e+000  6.054756e-001  4.000000e+000
      vertex  1.650000e+000  0.000000e+000  4.000000e+000
    endloop
  endfacet
  facet normal  0.000000e+000  0.000000e+000  1.000000e+000
    outer loop
      vertex  6.464392e+000 -6.794350e-001  4.000000e+000
      vertex  1.650000e+000  0.000000e+000  4.000000e+000
      vertex  1.534894e+000 -6.054756e-001  4.000000e+000
    endloop
  endfacet
  facet normal  0.000000e+000  0.000000e+000  1.000000e+000
    outer loop
      vertex  6.464392e+000 -6.794350e-001  4.000000e+000
      vertex  1.534894e+000 -6.054756e-001  4.000000e+000
      vertex  6.181867e+000 -2.008610e+000  4.000000e+000
    endloop
  endfacet
  facet normal  0.000000e+000  0.000000e+000  1.000000e+000
    outer loop
      vertex  6.181867e+000 -2.008610e+000  4.000000e+000
      vertex  1.534894e+000 -6.054756e-001  4.000000e+000
      vertex  1.205636e+000 -1.126474e+000  4.000000e+000
    endloop
  endfacet
  facet normal  0.000000e+000  0.000000e+000  1.000000e+000
    outer loop
      vertex  6.181867e+000 -2.008610e+000  4.000000e+000
      vertex  1.205636e+000 -1.126474e+000  4.000000e+000
      vertex  7.081639e-001 -1.490303e+000  4.000000e+000
    endloop
  endfacet
  facet normal  1.000000e+000  0.000000e+000  0.000000e+000
    outer loop
      vertex -3.500000e+000 -6.500000e+000  1.000000e+001
      vertex -3.500000e+000 -6.500000e+000  7.000000e+000
      vertex -3.500000e+000  6.500000e+000  1.000000e+001
    endloop
  endfacet
  facet normal  1.000000e+000  0.000000e+000  0.000000e+000
    outer loop
      vertex -3.500000e+000  6.500000e+000  1.000000e+001
      vertex -3.500000e+000 -6.500000e+000  7.000000e+000
      vertex -3.500000e+000  6.500000e+000  7.000000e+000
    endloop
  endfacet
  facet normal  0.000000e+000 -1.000000e+000  0.000000e+000
    outer loop
      vertex -7.500000e+000 -6.500000e+000  0.000000e+000
      vertex -6.661338e-015 -6.500000e+000  0.000000e+000
      vertex -6.661338e-015 -6.500000e+000  4.000000e+000
    endloop
  endfacet
  facet normal  -0.000000e+000 -1.000000e+000  0.000000e+000
    outer loop
      vertex -7.500000e+000 -6.500000e+000  0.000000e+000
      vertex -6.661338e-015 -6.500000e+000  4.000000e+000
      vertex -5.000000e-001 -6.500000e+000  4.000000e+000
    endloop
  endfacet
  facet normal  -0.000000e+000 -1.000000e+000  0.000000e+000
    outer loop
      vertex -7.500000e+000 -6.500000e+000  0.000000e+000
      vertex -5.000000e-001 -6.500000e+000  4.000000e+000
      vertex -3.500000e+000 -6.500000e+000  7.000000e+000
    endloop
  endfacet
  facet normal  -0.000000e+000 -1.000000e+000  0.000000e+000
    outer loop
      vertex -7.500000e+000 -6.500000e+000  0.000000e+000
      vertex -3.500000e+000 -6.500000e+000  7.000000e+000
      vertex -3.500000e+000 -6.500000e+000  1.000000e+001
    endloop
  endfacet
  facet normal  -0.000000e+000 -1.000000e+000  0.000000e+000
    outer loop
      vertex -7.500000e+000 -6.500000e+000  0.000000e+000
      vertex -3.500000e+000 -6.500000e+000  1.000000e+001
      vertex -7.500000e+000 -6.500000e+000  1.000000e+001
    endloop
  endfacet
  facet normal  6.243552e-001  7.811400e-001 -8.967594e-004
    outer loop
      vertex -1.188590e+000 -1.144442e+000  4.688590e+000
      vertex -8.563569e-001 -1.410373e+000  4.356357e+000
      vertex -1.166726e+000 -1.166726e+000  5.000000e-001
    endloop
  endfacet
  facet normal  4.321339e-001  9.015366e-001  2.218044e-002
    outer loop
      vertex -1.166726e+000 -1.166726e+000  5.000000e-001
      vertex -8.563569e-001 -1.410373e+000  4.356357e+000
      vertex -5.000000e-001 -1.572419e+000  4.000000e+000
    endloop
  endfacet
  facet normal  5.555453e-001  8.314326e-001 -9.454513e-003
    outer loop
      vertex -1.166726e+000 -1.166726e+000  5.000000e-001
      vertex -5.000000e-001 -1.572419e+000  4.000000e+000
      vertex -6.314276e-001 -1.524401e+000  5.000000e-001
    endloop
  endfacet
  facet normal  1.197113e-001  9.927668e-001  9.124768e-003
    outer loop
      vertex -6.314276e-001 -1.524401e+000  5.000000e-001
      vertex -5.000000e-001 -1.572419e+000  4.000000e+000
      vertex  1.118873e-001 -1.646202e+000  4.000000e+000
    endloop
  endfacet
  facet normal  1.950851e-001  9.807590e-001 -7.300675e-003
    outer loop
      vertex -6.314276e-001 -1.524401e+000  5.000000e-001
      vertex  1.118873e-001 -1.646202e+000  4.000000e+000
      vertex -3.031001e-016 -1.650000e+000  5.000000e-001
    endloop
  endfacet
  facet normal -2.529449e-001  9.674551e-001  7.036296e-003
    outer loop
      vertex -3.031001e-016 -1.650000e+000  5.000000e-001
      vertex  1.118873e-001 -1.646202e+000  4.000000e+000
      vertex  7.081639e-001 -1.490303e+000  4.000000e+000
    endloop
  endfacet
  facet normal -1.950876e-001  9.807716e-001 -5.277707e-003
    outer loop
      vertex -3.031001e-016 -1.650000e+000  5.000000e-001
      vertex  7.081639e-001 -1.490303e+000  4.000000e+000
      vertex  6.314276e-001 -1.524401e+000  5.000000e-001
    endloop
  endfacet
  facet normal -5.903184e-001  8.071545e-001  5.079005e-003
    outer loop
      vertex  6.314276e-001 -1.524401e+000  5.000000e-001
      vertex  7.081639e-001 -1.490303e+000  4.000000e+000
      vertex  1.205636e+000 -1.126474e+000  4.000000e+000
    endloop
  endfacet
  facet normal -5.555669e-001  8.314650e-001 -3.386248e-003
    outer loop
      vertex  6.314276e-001 -1.524401e+000  5.000000e-001
      vertex  1.205636e+000 -1.126474e+000  4.000000e+000
      vertex  1.166726e+000 -1.166726e+000  5.000000e-001
    endloop
  endfacet
  facet normal -8.453329e-001  5.342301e-001  3.253482e-003
    outer loop
      vertex  1.166726e+000 -1.166726e+000  5.000000e-001
      vertex  1.205636e+000 -1.126474e+000  4.000000e+000
      vertex  1.534894e+000 -6.054756e-001  4.000000e+000
    endloop
  endfacet
  facet normal -8.314686e-001  5.555694e-001 -1.626807e-003
    outer loop
      vertex  1.166726e+000 -1.166726e+000  5.000000e-001
      vertex  1.534894e+000 -6.054756e-001  4.000000e+000
      vertex  1.524401e+000 -6.314276e-001  5.000000e-001
    endloop
  endfacet
  facet normal -9.824037e-001  1.867634e-001  1.560331e-003
    outer loop
      vertex  1.524401e+000 -6.314276e-001  5.000000e-001
      vertex  1.534894e+000 -6.054756e-001  4.000000e+000
      vertex  1.650000e+000  0.000000e+000  4.000000e+000
    endloop
  endfacet
  facet normal -9.807853e-001  1.950904e-001 -2.252644e-017
    outer loop
      vertex  1.524401e+000 -6.314276e-001  5.000000e-001
      vertex  1.650000e+000  0.000000e+000  4.000000e+000
      vertex  1.650000e+000 -4.041334e-016  5.000000e-001
    endloop
  endfacet
  facet normal  9.952340e-001  9.751499e-002  0.000000e+000
    outer loop
      vertex -1.650000e+000  2.020667e-016  5.150000e+000
      vertex -1.618620e+000 -3.202660e-001  5.118620e+000
      vertex -1.650000e+000  2.020667e-016  5.000000e-001
    endloop
  endfacet
  facet normal  9.446087e-001  3.277929e-001  1.631198e-002
    outer loop
      vertex -1.650000e+000  2.020667e-016  5.000000e-001
      vertex -1.618620e+000 -3.202660e-001  5.118620e+000
      vertex -1.460828e+000 -7.671250e-001  4.960828e+000
    endloop
  endfacet
  facet normal  9.807536e-001  1.950840e-001 -8.042663e-003
    outer loop
      vertex -1.650000e+000  2.020667e-016  5.000000e-001
      vertex -1.460828e+000 -7.671250e-001  4.960828e+000
      vertex -1.524401e+000 -6.314276e-001  5.000000e-001
    endloop
  endfacet
  facet normal  8.130291e-001  5.821909e-001  6.123338e-003
    outer loop
      vertex -1.524401e+000 -6.314276e-001  5.000000e-001
      vertex -1.460828e+000 -7.671250e-001  4.960828e+000
      vertex -1.188590e+000 -1.144442e+000  4.688590e+000
    endloop
  endfacet
  facet normal  8.314689e-001  5.555696e-001  1.384417e-003
    outer loop
      vertex -1.524401e+000 -6.314276e-001  5.000000e-001
      vertex -1.188590e+000 -1.144442e+000  4.688590e+000
      vertex -1.166726e+000 -1.166726e+000  5.000000e-001
    endloop
  endfacet
  facet normal  9.608579e-001 -2.770404e-001  7.437514e-004
    outer loop
      vertex -1.536782e+000  6.006677e-001  5.036782e+000
      vertex -1.620534e+000  3.104140e-001  5.120534e+000
      vertex -1.524401e+000  6.314276e-001  5.000000e-001
    endloop
  endfacet
  facet normal  9.955503e-001 -9.314956e-002  1.424144e-002
    outer loop
      vertex -1.524401e+000  6.314276e-001  5.000000e-001
      vertex -1.620534e+000  3.104140e-001  5.120534e+000
      vertex -1.650000e+000  2.020667e-016  5.150000e+000
    endloop
  endfacet
  facet normal  9.807853e-001 -1.950904e-001  0.000000e+000
    outer loop
      vertex -1.524401e+000  6.314276e-001  5.000000e-001
      vertex -1.650000e+000  2.020667e-016  5.150000e+000
      vertex -1.650000e+000  2.020667e-016  5.000000e-001
    endloop
  endfacet
  facet normal  7.385737e-001 -6.741692e-001 -2.193386e-003
    outer loop
      vertex -1.084464e+000  1.243559e+000  4.584464e+000
      vertex -1.339914e+000  9.628740e-001  4.839914e+000
      vertex -1.166726e+000  1.166726e+000  5.000000e-001
    endloop
  endfacet
  facet normal  8.814818e-001 -4.720389e-001  1.300384e-002
    outer loop
      vertex -1.166726e+000  1.166726e+000  5.000000e-001
      vertex -1.339914e+000  9.628740e-001  4.839914e+000
      vertex -1.536782e+000  6.006677e-001  5.036782e+000
    endloop
  endfacet
  facet normal  8.314688e-001 -5.555695e-001 -1.497808e-003
    outer loop
      vertex -1.166726e+000  1.166726e+000  5.000000e-001
      vertex -1.536782e+000  6.006677e-001  5.036782e+000
      vertex -1.524401e+000  6.314276e-001  5.000000e-001
    endloop
  endfacet
  facet normal  3.946132e-001 -9.188447e-001 -2.212162e-003
    outer loop
      vertex -5.000000e-001  1.572419e+000  4.000000e+000
      vertex -8.018687e-001  1.442049e+000  4.301869e+000
      vertex -6.314276e-001  1.524401e+000  5.000000e-001
    endloop
  endfacet
  facet normal  5.803483e-001 -8.143253e-001  8.378484e-003
    outer loop
      vertex -6.314276e-001  1.524401e+000  5.000000e-001
      vertex -8.018687e-001  1.442049e+000  4.301869e+000
      vertex -1.084464e+000  1.243559e+000  4.584464e+000
    endloop
  endfacet
  facet normal  5.555646e-001 -8.314614e-001  4.451302e-003
    outer loop
      vertex -6.314276e-001  1.524401e+000  5.000000e-001
      vertex -1.084464e+000  1.243559e+000  4.584464e+000
      vertex -1.166726e+000  1.166726e+000  5.000000e-001
    endloop
  endfacet
  facet normal -1.950877e-001 -9.807721e-001  5.172280e-003
    outer loop
      vertex  6.314276e-001  1.524401e+000  5.000000e-001
      vertex  1.118873e-001  1.646202e+000  4.000000e+000
      vertex  1.010334e-016  1.650000e+000  5.000000e-001
    endloop
  endfacet
  facet normal  1.197148e-001 -9.927962e-001 -4.904315e-003
    outer loop
      vertex  1.010334e-016  1.650000e+000  5.000000e-001
      vertex  1.118873e-001  1.646202e+000  4.000000e+000
      vertex -5.000000e-001  1.572419e+000  4.000000e+000
    endloop
  endfacet
  facet normal  1.950867e-001 -9.807668e-001  6.129735e-003
    outer loop
      vertex  1.010334e-016  1.650000e+000  5.000000e-001
      vertex -5.000000e-001  1.572419e+000  4.000000e+000
      vertex -6.314276e-001  1.524401e+000  5.000000e-001
    endloop
  endfacet
  facet normal -2.529492e-001 -9.674718e-001 -3.879542e-003
    outer loop
      vertex  1.118873e-001  1.646202e+000  4.000000e+000
      vertex  6.314276e-001  1.524401e+000  5.000000e-001
      vertex  7.081639e-001  1.490303e+000  4.000000e+000
    endloop
  endfacet
  facet normal -5.555655e-001 -8.314627e-001  4.080242e-003
    outer loop
      vertex  7.081639e-001  1.490303e+000  4.000000e+000
      vertex  6.314276e-001  1.524401e+000  5.000000e-001
      vertex  1.166726e+000  1.166726e+000  5.000000e-001
    endloop
  endfacet
  facet normal -5.903239e-001 -8.071619e-001 -2.720355e-003
    outer loop
      vertex  7.081639e-001  1.490303e+000  4.000000e+000
      vertex  1.166726e+000  1.166726e+000  5.000000e-001
      vertex  1.205636e+000  1.126474e+000  4.000000e+000
    endloop
  endfacet
  facet normal -8.314663e-001 -5.555678e-001  2.853930e-003
    outer loop
      vertex  1.205636e+000  1.126474e+000  4.000000e+000
      vertex  1.166726e+000  1.166726e+000  5.000000e-001
      vertex  1.524401e+000  6.314276e-001  5.000000e-001
    endloop
  endfacet
  facet normal -8.453364e-001 -5.342324e-001 -1.427021e-003
    outer loop
      vertex  1.205636e+000  1.126474e+000  4.000000e+000
      vertex  1.524401e+000  6.314276e-001  5.000000e-001
      vertex  1.534894e+000  6.054756e-001  4.000000e+000
    endloop
  endfacet
  facet normal -9.807842e-001 -1.950901e-001  1.493734e-003
    outer loop
      vertex  1.534894e+000  6.054756e-001  4.000000e+000
      vertex  1.524401e+000  6.314276e-001  5.000000e-001
      vertex  1.650000e+000 -4.041334e-016  5.000000e-001
    endloop
  endfacet
  facet normal -9.824049e-001 -1.867636e-001  2.156498e-017
    outer loop
      vertex  1.534894e+000  6.054756e-001  4.000000e+000
      vertex  1.650000e+000 -4.041334e-016  5.000000e-001
      vertex  1.650000e+000  0.000000e+000  4.000000e+000
    endloop
  endfacet
  facet normal  -0.000000e+000  1.000000e+000  0.000000e+000
    outer loop
      vertex -7.500000e+000  6.500000e+000  0.000000e+000
      vertex -7.500000e+000  6.500000e+000  1.000000e+001
      vertex -3.500000e+000  6.500000e+000  1.000000e+001
    endloop
  endfacet
  facet normal  0.000000e+000  1.000000e+000  0.000000e+000
    outer loop
      vertex -7.500000e+000  6.500000e+000  0.000000e+000
      vertex -3.500000e+000  6.500000e+000  1.000000e+001
      vertex -3.500000e+000  6.500000e+000  7.000000e+000
    endloop
  endfacet
  facet normal  0.000000e+000  1.000000e+000  0.000000e+000
    outer loop
      vertex -7.500000e+000  6.500000e+000  0.000000e+000
      vertex -3.500000e+000  6.500000e+000  7.000000e+000
      vertex -5.000000e-001  6.500000e+000  4.000000e+000
    endloop
  endfacet
  facet normal  -0.000000e+000  1.000000e+000  0.000000e+000
    outer loop
      vertex -7.500000e+000  6.500000e+000  0.000000e+000
      vertex -5.000000e-001  6.500000e+000  4.000000e+000
      vertex  1.990051e-015  6.500000e+000  4.000000e+000
    endloop
  endfacet
  facet normal  0.000000e+000  1.000000e+000  0.000000e+000
    outer loop
      vertex -7.500000e+000  6.500000e+000  0.000000e+000
      vertex  1.990051e-015  6.500000e+000  4.000000e+000
      vertex  1.990051e-015  6.500000e+000  0.000000e+000
    endloop
  endfacet
  facet normal  7.071068e-001  0.000000e+000  7.071068e-001
    outer loop
      vertex -5.000000e-001  6.500000e+000  4.000000e+000
      vertex -3.500000e+000  6.500000e+000  7.000000e+000
      vertex -3.500000e+000 -6.500000e+000  7.000000e+000
    endloop
  endfacet
  facet normal  7.071066e-001  8.425555e-008  7.071069e-001
    outer loop
      vertex -5.000000e-001  6.500000e+000  4.000000e+000
      vertex -3.500000e+000 -6.500000e+000  7.000000e+000
      vertex -1.620534e+000  3.104140e-001  5.120534e+000
    endloop
  endfacet
  facet normal  7.071080e-001 -4.636806e-007  7.071055e-001
    outer loop
      vertex -5.000000e-001  6.500000e+000  4.000000e+000
      vertex -1.620534e+000  3.104140e-001  5.120534e+000
      vertex -1.536782e+000  6.006677e-001  5.036782e+000
    endloop
  endfacet
  facet normal  7.071068e-001  0.000000e+000  7.071068e-001
    outer loop
      vertex -5.000000e-001  6.500000e+000  4.000000e+000
      vertex -1.536782e+000  6.006677e-001  5.036782e+000
      vertex -1.339914e+000  9.628740e-001  4.839914e+000
    endloop
  endfacet
  facet normal  7.071068e-001  0.000000e+000  7.071068e-001
    outer loop
      vertex -5.000000e-001  6.500000e+000  4.000000e+000
      vertex -1.339914e+000  9.628740e-001  4.839914e+000
      vertex -1.084464e+000  1.243559e+000  4.584464e+000
    endloop
  endfacet
  facet normal  7.071065e-001  6.924797e-008  7.071072e-001
    outer loop
      vertex -5.000000e-001  6.500000e+000  4.000000e+000
      vertex -1.084464e+000  1.243559e+000  4.584464e+000
      vertex -8.018687e-001  1.442049e+000  4.301869e+000
    endloop
  endfacet
  facet normal  7.071070e-001  0.000000e+000  7.071065e-001
    outer loop
      vertex -5.000000e-001  6.500000e+000  4.000000e+000
      vertex -8.018687e-001  1.442049e+000  4.301869e+000
      vertex -5.000000e-001  1.572419e+000  4.000000e+000
    endloop
  endfacet
  facet normal  7.071068e-001  -0.000000e+000  7.071068e-001
    outer loop
      vertex -3.500000e+000 -6.500000e+000  7.000000e+000
      vertex -5.000000e-001 -6.500000e+000  4.000000e+000
      vertex -5.000000e-001 -1.572419e+000  4.000000e+000
    endloop
  endfacet
  facet normal  7.071070e-001 -2.255738e-007  7.071066e-001
    outer loop
      vertex -3.500000e+000 -6.500000e+000  7.000000e+000
      vertex -5.000000e-001 -1.572419e+000  4.000000e+000
      vertex -8.563569e-001 -1.410373e+000  4.356357e+000
    endloop
  endfacet
  facet normal  7.071065e-001  1.584488e-007  7.071069e-001
    outer loop
      vertex -3.500000e+000 -6.500000e+000  7.000000e+000
      vertex -8.563569e-001 -1.410373e+000  4.356357e+000
      vertex -1.188590e+000 -1.144442e+000  4.688590e+000
    endloop
  endfacet
  facet normal  7.071068e-001  0.000000e+000  7.071068e-001
    outer loop
      vertex -3.500000e+000 -6.500000e+000  7.000000e+000
      vertex -1.188590e+000 -1.144442e+000  4.688590e+000
      vertex -1.460828e+000 -7.671250e-001  4.960828e+000
    endloop
  endfacet
  facet normal  7.071071e-001 -1.972927e-007  7.071065e-001
    outer loop
      vertex -3.500000e+000 -6.500000e+000  7.000000e+000
      vertex -1.460828e+000 -7.671250e-001  4.960828e+000
      vertex -1.618620e+000 -3.202660e-001  5.118620e+000
    endloop
  endfacet
  facet normal  7.071050e-001  9.888971e-007  7.071084e-001
    outer loop
      vertex -3.500000e+000 -6.500000e+000  7.000000e+000
      vertex -1.618620e+000 -3.202660e-001  5.118620e+000
      vertex -1.650000e+000  2.020667e-016  5.150000e+000
    endloop
  endfacet
  facet normal  7.071097e-001 -1.644896e-006  7.071038e-001
    outer loop
      vertex -3.500000e+000 -6.500000e+000  7.000000e+000
      vertex -1.650000e+000  2.020667e-016  5.150000e+000
      vertex -1.620534e+000  3.104140e-001  5.120534e+000
    endloop
  endfacet
  facet normal  0.000000e+000  0.000000e+000 -1.000000e+000
    outer loop
      vertex  1.646996e+000  1.381993e+000  0.000000e+000
      vertex  1.075000e+000  1.861955e+000  0.000000e+000
      vertex  6.464392e+000  6.794350e-001  0.000000e+000
    endloop
  endfacet
  facet normal  0.000000e+000  0.000000e+000 -1.000000e+000
    outer loop
      vertex  6.464392e+000 -6.794350e-001  0.000000e+000
      vertex  2.020339e+000 -7.353433e-001  0.000000e+000
      vertex  2.150000e+000 -5.269973e-016  0.000000e+000
    endloop
  endfacet
  facet normal  0.000000e+000  0.000000e+000 -1.000000e+000
    outer loop
      vertex  6.181867e+000 -2.008610e+000  0.000000e+000
      vertex  3.733436e-001 -2.117337e+000  0.000000e+000
      vertex  1.075000e+000 -1.861955e+000  0.000000e+000
    endloop
  endfacet
  facet normal  0.000000e+000  0.000000e+000 -1.000000e+000
    outer loop
      vertex  3.733436e-001 -2.117337e+000  0.000000e+000
      vertex  6.181867e+000 -2.008610e+000  0.000000e+000
      vertex  5.629165e+000 -3.250000e+000  0.000000e+000
    endloop
  endfacet
  facet normal  -0.000000e+000  0.000000e+000 -1.000000e+000
    outer loop
      vertex  1.990051e-015  6.500000e+000  0.000000e+000
      vertex  1.351426e+000  6.357959e+000  0.000000e+000
      vertex  3.733436e-001  2.117337e+000  0.000000e+000
    endloop
  endfacet
  facet normal  0.000000e+000  0.000000e+000 -1.000000e+000
    outer loop
      vertex  1.990051e-015  6.500000e+000  0.000000e+000
      vertex  3.733436e-001  2.117337e+000  0.000000e+000
      vertex -3.733436e-001  2.117337e+000  0.000000e+000
    endloop
  endfacet
  facet normal  -0.000000e+000  0.000000e+000 -9.999999e-001
    outer loop
      vertex  1.990051e-015  6.500000e+000  0.000000e+000
      vertex -3.733436e-001  2.117337e+000  0.000000e+000
      vertex -1.075000e+000  1.861955e+000  0.000000e+000
    endloop
  endfacet
  facet normal  -0.000000e+000  0.000000e+000 -1.000000e+000
    outer loop
      vertex  1.990051e-015  6.500000e+000  0.000000e+000
      vertex -1.075000e+000  1.861955e+000  0.000000e+000
      vertex -1.646996e+000  1.381993e+000  0.000000e+000
    endloop
  endfacet
  facet normal  -0.000000e+000  0.000000e+000 -1.000000e+000
    outer loop
      vertex  1.990051e-015  6.500000e+000  0.000000e+000
      vertex -1.646996e+000  1.381993e+000  0.000000e+000
      vertex -7.500000e+000 -6.500000e+000  0.000000e+000
    endloop
  endfacet
  facet normal  0.000000e+000  0.000000e+000 -1.000000e+000
    outer loop
      vertex  1.990051e-015  6.500000e+000  0.000000e+000
      vertex -7.500000e+000 -6.500000e+000  0.000000e+000
      vertex -7.500000e+000  6.500000e+000  0.000000e+000
    endloop
  endfacet
  facet normal  0.000000e+000  -0.000000e+000 -1.000000e+000
    outer loop
      vertex  3.733436e-001  2.117337e+000  0.000000e+000
      vertex  1.351426e+000  6.357959e+000  0.000000e+000
      vertex  2.643788e+000  5.938046e+000  0.000000e+000
    endloop
  endfacet
  facet normal  0.000000e+000  -0.000000e+000 -1.000000e+000
    outer loop
      vertex  3.733436e-001  2.117337e+000  0.000000e+000
      vertex  2.643788e+000  5.938046e+000  0.000000e+000
      vertex  3.820604e+000  5.258610e+000  0.000000e+000
    endloop
  endfacet
  facet normal  0.000000e+000  -0.000000e+000 -9.999999e-001
    outer loop
      vertex  3.733436e-001  2.117337e+000  0.000000e+000
      vertex  3.820604e+000  5.258610e+000  0.000000e+000
      vertex  4.830441e+000  4.349349e+000  0.000000e+000
    endloop
  endfacet
  facet normal  0.000000e+000  -0.000000e+000 -9.999999e-001
    outer loop
      vertex  3.733436e-001  2.117337e+000  0.000000e+000
      vertex  4.830441e+000  4.349349e+000  0.000000e+000
      vertex  5.629165e+000  3.250000e+000  0.000000e+000
    endloop
  endfacet
  facet normal  0.000000e+000  -0.000000e+000 -1.000000e+000
    outer loop
      vertex  3.733436e-001  2.117337e+000  0.000000e+000
      vertex  5.629165e+000  3.250000e+000  0.000000e+000
      vertex  6.181867e+000  2.008610e+000  0.000000e+000
    endloop
  endfacet
  facet normal  -0.000000e+000  -0.000000e+000 -1.000000e+000
    outer loop
      vertex  3.733436e-001  2.117337e+000  0.000000e+000
      vertex  6.181867e+000  2.008610e+000  0.000000e+000
      vertex  6.464392e+000  6.794350e-001  0.000000e+000
    endloop
  endfacet
  facet normal  0.000000e+000  0.000000e+000 -1.000000e+000
    outer loop
      vertex  3.733436e-001  2.117337e+000  0.000000e+000
      vertex  6.464392e+000  6.794350e-001  0.000000e+000
      vertex  1.075000e+000  1.861955e+000  0.000000e+000
    endloop
  endfacet
  facet normal  0.000000e+000  0.000000e+000 -1.000000e+000
    outer loop
      vertex -7.500000e+000 -6.500000e+000  0.000000e+000
      vertex -1.646996e+000  1.381993e+000  0.000000e+000
      vertex -2.020339e+000  7.353432e-001  0.000000e+000
    endloop
  endfacet
  facet normal  0.000000e+000  0.000000e+000 -1.000000e+000
    outer loop
      vertex -7.500000e+000 -6.500000e+000  0.000000e+000
      vertex -2.020339e+000  7.353432e-001  0.000000e+000
      vertex -2.150000e+000 -8.253899e-008  0.000000e+000
    endloop
  endfacet
  facet normal  0.000000e+000  -0.000000e+000 -1.000000e+000
    outer loop
      vertex -7.500000e+000 -6.500000e+000  0.000000e+000
      vertex -2.150000e+000 -8.253899e-008  0.000000e+000
      vertex -2.020339e+000 -7.353433e-001  0.000000e+000
    endloop
  endfacet
  facet normal  0.000000e+000  -0.000000e+000 -1.000000e+000
    outer loop
      vertex -7.500000e+000 -6.500000e+000  0.000000e+000
      vertex -2.020339e+000 -7.353433e-001  0.000000e+000
      vertex -1.646996e+000 -1.381993e+000  0.000000e+000
    endloop
  endfacet
  facet normal  0.000000e+000  -0.000000e+000 -1.000000e+000
    outer loop
      vertex -7.500000e+000 -6.500000e+000  0.000000e+000
      vertex -1.646996e+000 -1.381993e+000  0.000000e+000
      vertex -1.075000e+000 -1.861955e+000  0.000000e+000
    endloop
  endfacet
  facet normal  0.000000e+000  -0.000000e+000 -1.000000e+000
    outer loop
      vertex -7.500000e+000 -6.500000e+000  0.000000e+000
      vertex -1.075000e+000 -1.861955e+000  0.000000e+000
      vertex -3.733436e-001 -2.117337e+000  0.000000e+000
    endloop
  endfacet
  facet normal  0.000000e+000  -0.000000e+000 -1.000000e+000
    outer loop
      vertex -7.500000e+000 -6.500000e+000  0.000000e+000
      vertex -3.733436e-001 -2.117337e+000  0.000000e+000
      vertex -6.661338e-015 -6.500000e+000  0.000000e+000
    endloop
  endfacet
  facet normal  0.000000e+000  0.000000e+000 -1.000000e+000
    outer loop
      vertex -6.661338e-015 -6.500000e+000  0.000000e+000
      vertex -3.733436e-001 -2.117337e+000  0.000000e+000
      vertex  3.733436e-001 -2.117337e+000  0.000000e+000
    endloop
  endfacet
  facet normal  0.000000e+000  -0.000000e+000 -1.000000e+000
    outer loop
      vertex -6.661338e-015 -6.500000e+000  0.000000e+000
      vertex  3.733436e-001 -2.117337e+000  0.000000e+000
      vertex  5.629165e+000 -3.250000e+000  0.000000e+000
    endloop
  endfacet
  facet normal  0.000000e+000  0.000000e+000 -1.000000e+000
    outer loop
      vertex -6.661338e-015 -6.500000e+000  0.000000e+000
      vertex  5.629165e+000 -3.250000e+000  0.000000e+000
      vertex  4.830441e+000 -4.349349e+000  0.000000e+000
    endloop
  endfacet
  facet normal  0.000000e+000  0.000000e+000 -1.000000e+000
    outer loop
      vertex -6.661338e-015 -6.500000e+000  0.000000e+000
      vertex  4.830441e+000 -4.349349e+000  0.000000e+000
      vertex  3.820604e+000 -5.258610e+000  0.000000e+000
    endloop
  endfacet
  facet normal  0.000000e+000  0.000000e+000 -1.000000e+000
    outer loop
      vertex -6.661338e-015 -6.500000e+000  0.000000e+000
      vertex  3.820604e+000 -5.258610e+000  0.000000e+000
      vertex  2.643788e+000 -5.938046e+000  0.000000e+000
    endloop
  endfacet
  facet normal  0.000000e+000  0.000000e+000 -1.000000e+000
    outer loop
      vertex -6.661338e-015 -6.500000e+000  0.000000e+000
      vertex  2.643788e+000 -5.938046e+000  0.000000e+000
      vertex  1.351426e+000 -6.357959e+000  0.000000e+000
    endloop
  endfacet
  facet normal  0.000000e+000  0.000000e+000 -1.000000e+000
    outer loop
      vertex  1.646996e+000  1.381993e+000  0.000000e+000
      vertex  6.464392e+000  6.794350e-001  0.000000e+000
      vertex  2.020339e+000  7.353433e-001  0.000000e+000
    endloop
  endfacet
  facet normal  0.000000e+000  0.000000e+000 -1.000000e+000
    outer loop
      vertex  2.020339e+000  7.353433e-001  0.000000e+000
      vertex  6.464392e+000  6.794350e-001  0.000000e+000
      vertex  6.464392e+000 -6.794350e-001  0.000000e+000
    endloop
  endfacet
  facet normal  0.000000e+000  0.000000e+000 -1.000000e+000
    outer loop
      vertex  2.020339e+000  7.353433e-001  0.000000e+000
      vertex  6.464392e+000 -6.794350e-001  0.000000e+000
      vertex  2.150000e+000 -5.269973e-016  0.000000e+000
    endloop
  endfacet
  facet normal  0.000000e+000  -0.000000e+000 -1.000000e+000
    outer loop
      vertex  1.075000e+000 -1.861955e+000  0.000000e+000
      vertex  1.646996e+000 -1.381993e+000  0.000000e+000
      vertex  6.181867e+000 -2.008610e+000  0.000000e+000
    endloop
  endfacet
  facet normal  0.000000e+000  0.000000e+000 -1.000000e+000
    outer loop
      vertex  6.181867e+000 -2.008610e+000  0.000000e+000
      vertex  1.646996e+000 -1.381993e+000  0.000000e+000
      vertex  2.020339e+000 -7.353433e-001  0.000000e+000
    endloop
  endfacet
  facet normal  0.000000e+000  0.000000e+000 -1.000000e+000
    outer loop
      vertex  6.181867e+000 -2.008610e+000  0.000000e+000
      vertex  2.020339e+000 -7.353433e-001  0.000000e+000
      vertex  6.464392e+000 -6.794350e-001  0.000000e+000
    endloop
  endfacet
  facet normal  8.653986e-001  1.721385e-001 -4.705885e-001
    outer loop
      vertex -1.650000e+000  2.020667e-016  5.000000e-001
      vertex -1.524401e+000 -6.314276e-001  5.000000e-001
      vertex -1.646996e+000 -1.381993e+000  0.000000e+000
    endloop
  endfacet
  facet normal  5.089381e-001  2.938357e-001 -8.090998e-001
    outer loop
      vertex -1.650000e+000  2.020667e-016  5.000000e-001
      vertex -1.646996e+000 -1.381993e+000  0.000000e+000
      vertex -2.020339e+000 -7.353433e-001  0.000000e+000
    endloop
  endfacet
  facet normal  7.016737e-001  1.237240e-001 -7.016739e-001
    outer loop
      vertex -1.650000e+000  2.020667e-016  5.000000e-001
      vertex -2.020339e+000 -7.353433e-001  0.000000e+000
      vertex -2.150000e+000 -8.253899e-008  0.000000e+000
    endloop
  endfacet
  facet normal  3.904905e-001  4.653685e-001 -7.943231e-001
    outer loop
      vertex -1.646996e+000 -1.381993e+000  0.000000e+000
      vertex -1.524401e+000 -6.314276e-001  5.000000e-001
      vertex -1.075000e+000 -1.861955e+000  0.000000e+000
    endloop
  endfacet
  facet normal  7.066807e-001  4.721888e-001 -5.269158e-001
    outer loop
      vertex -1.075000e+000 -1.861955e+000  0.000000e+000
      vertex -1.524401e+000 -6.314276e-001  5.000000e-001
      vertex -1.166726e+000 -1.166726e+000  5.000000e-001
    endloop
  endfacet
  facet normal  2.142999e-001  5.887839e-001 -7.793646e-001
    outer loop
      vertex -1.075000e+000 -1.861955e+000  0.000000e+000
      vertex -1.166726e+000 -1.166726e+000  5.000000e-001
      vertex -3.733436e-001 -2.117337e+000  0.000000e+000
    endloop
  endfacet
  facet normal  4.553016e-001  6.814072e-001 -5.730489e-001
    outer loop
      vertex -3.733436e-001 -2.117337e+000  0.000000e+000
      vertex -1.166726e+000 -1.166726e+000  5.000000e-001
      vertex -6.314276e-001 -1.524401e+000  5.000000e-001
    endloop
  endfacet
  facet normal  0.000000e+000  6.446530e-001 -7.644753e-001
    outer loop
      vertex -3.733436e-001 -2.117337e+000  0.000000e+000
      vertex -6.314276e-001 -1.524401e+000  5.000000e-001
      vertex  3.733436e-001 -2.117337e+000  0.000000e+000
    endloop
  endfacet
  facet normal  1.544979e-001  7.767134e-001 -6.106119e-001
    outer loop
      vertex  3.733436e-001 -2.117337e+000  0.000000e+000
      vertex -6.314276e-001 -1.524401e+000  5.000000e-001
      vertex -3.031001e-016 -1.650000e+000  5.000000e-001
    endloop
  endfacet
  facet normal -2.262482e-001  6.216116e-001 -7.499405e-001
    outer loop
      vertex  3.733436e-001 -2.117337e+000  0.000000e+000
      vertex -3.031001e-016 -1.650000e+000  5.000000e-001
      vertex  1.075000e+000 -1.861955e+000  0.000000e+000
    endloop
  endfacet
  facet normal -1.497344e-001  7.527656e-001 -6.410332e-001
    outer loop
      vertex  1.075000e+000 -1.861955e+000  0.000000e+000
      vertex -3.031001e-016 -1.650000e+000  5.000000e-001
      vertex  6.314276e-001 -1.524401e+000  5.000000e-001
    endloop
  endfacet
  facet normal -4.351058e-001  5.185390e-001 -7.360710e-001
    outer loop
      vertex  1.075000e+000 -1.861955e+000  0.000000e+000
      vertex  6.314276e-001 -1.524401e+000  5.000000e-001
      vertex  1.646996e+000 -1.381993e+000  0.000000e+000
    endloop
  endfacet
  facet normal -4.146749e-001  6.206050e-001 -6.655030e-001
    outer loop
      vertex  1.646996e+000 -1.381993e+000  0.000000e+000
      vertex  6.314276e-001 -1.524401e+000  5.000000e-001
      vertex  1.166726e+000 -1.166726e+000  5.000000e-001
    endloop
  endfacet
  facet normal -5.981191e-001  3.453243e-001 -7.231905e-001
    outer loop
      vertex  1.646996e+000 -1.381993e+000  0.000000e+000
      vertex  1.166726e+000 -1.166726e+000  5.000000e-001
      vertex  2.020339e+000 -7.353433e-001  0.000000e+000
    endloop
  endfacet
  facet normal -5.384273e-001  9.493924e-002 -8.373068e-001
    outer loop
      vertex  2.020339e+000 -7.353433e-001  0.000000e+000
      vertex  1.166726e+000 -1.166726e+000  5.000000e-001
      vertex  2.150000e+000 -5.269973e-016  0.000000e+000
    endloop
  endfacet
  facet normal -7.875175e-001  5.262022e-001 -3.208231e-001
    outer loop
      vertex  2.150000e+000 -5.269973e-016  0.000000e+000
      vertex  1.166726e+000 -1.166726e+000  5.000000e-001
      vertex  1.524401e+000 -6.314276e-001  5.000000e-001
    endloop
  endfacet
  facet normal -7.002144e-001  1.392813e-001 -7.002146e-001
    outer loop
      vertex  2.150000e+000 -5.269973e-016  0.000000e+000
      vertex  1.524401e+000 -6.314276e-001  5.000000e-001
      vertex  1.650000e+000 -4.041334e-016  5.000000e-001
    endloop
  endfacet
  facet normal -8.653986e-001 -1.721385e-001 -4.705885e-001
    outer loop
      vertex  1.650000e+000 -4.041334e-016  5.000000e-001
      vertex  1.524401e+000  6.314276e-001  5.000000e-001
      vertex  1.646996e+000  1.381993e+000  0.000000e+000
    endloop
  endfacet
  facet normal -5.089381e-001 -2.938357e-001 -8.090998e-001
    outer loop
      vertex  1.650000e+000 -4.041334e-016  5.000000e-001
      vertex  1.646996e+000  1.381993e+000  0.000000e+000
      vertex  2.020339e+000  7.353433e-001  0.000000e+000
    endloop
  endfacet
  facet normal -7.016738e-001 -1.237240e-001 -7.016740e-001
    outer loop
      vertex  1.650000e+000 -4.041334e-016  5.000000e-001
      vertex  2.020339e+000  7.353433e-001  0.000000e+000
      vertex  2.150000e+000 -5.269973e-016  0.000000e+000
    endloop
  endfacet
  facet normal -3.904905e-001 -4.653685e-001 -7.943231e-001
    outer loop
      vertex  1.646996e+000  1.381993e+000  0.000000e+000
      vertex  1.524401e+000  6.314276e-001  5.000000e-001
      vertex  1.075000e+000  1.861955e+000  0.000000e+000
    endloop
  endfacet
  facet normal -7.066807e-001 -4.721888e-001 -5.269157e-001
    outer loop
      vertex  1.075000e+000  1.861955e+000  0.000000e+000
      vertex  1.524401e+000  6.314276e-001  5.000000e-001
      vertex  1.166726e+000  1.166726e+000  5.000000e-001
    endloop
  endfacet
  facet normal -2.142998e-001 -5.887837e-001 -7.793646e-001
    outer loop
      vertex  1.075000e+000  1.861955e+000  0.000000e+000
      vertex  1.166726e+000  1.166726e+000  5.000000e-001
      vertex  3.733436e-001  2.117337e+000  0.000000e+000
    endloop
  endfacet
  facet normal -4.553016e-001 -6.814072e-001 -5.730488e-001
    outer loop
      vertex  3.733436e-001  2.117337e+000  0.000000e+000
      vertex  1.166726e+000  1.166726e+000  5.000000e-001
      vertex  6.314276e-001  1.524401e+000  5.000000e-001
    endloop
  endfacet
  facet normal  0.000000e+000 -6.446530e-001 -7.644753e-001
    outer loop
      vertex  3.733436e-001  2.117337e+000  0.000000e+000
      vertex  6.314276e-001  1.524401e+000  5.000000e-001
      vertex -3.733436e-001  2.117337e+000  0.000000e+000
    endloop
  endfacet
  facet normal -1.544979e-001 -7.767134e-001 -6.106118e-001
    outer loop
      vertex -3.733436e-001  2.117337e+000  0.000000e+000
      vertex  6.314276e-001  1.524401e+000  5.000000e-001
      vertex  1.010334e-016  1.650000e+000  5.000000e-001
    endloop
  endfacet
  facet normal  2.262482e-001 -6.216116e-001 -7.499405e-001
    outer loop
      vertex -3.733436e-001  2.117337e+000  0.000000e+000
      vertex  1.010334e-016  1.650000e+000  5.000000e-001
      vertex -1.075000e+000  1.861955e+000  0.000000e+000
    endloop
  endfacet
  facet normal  1.497344e-001 -7.527656e-001 -6.410332e-001
    outer loop
      vertex -1.075000e+000  1.861955e+000  0.000000e+000
      vertex  1.010334e-016  1.650000e+000  5.000000e-001
      vertex -6.314276e-001  1.524401e+000  5.000000e-001
    endloop
  endfacet
  facet normal  4.351058e-001 -5.185388e-001 -7.360709e-001
    outer loop
      vertex -1.075000e+000  1.861955e+000  0.000000e+000
      vertex -6.314276e-001  1.524401e+000  5.000000e-001
      vertex -1.646996e+000  1.381993e+000  0.000000e+000
    endloop
  endfacet
  facet normal  4.146749e-001 -6.206051e-001 -6.655029e-001
    outer loop
      vertex -1.646996e+000  1.381993e+000  0.000000e+000
      vertex -6.314276e-001  1.524401e+000  5.000000e-001
      vertex -1.166726e+000  1.166726e+000  5.000000e-001
    endloop
  endfacet
  facet normal  5.981191e-001 -3.453243e-001 -7.231905e-001
    outer loop
      vertex -1.646996e+000  1.381993e+000  0.000000e+000
      vertex -1.166726e+000  1.166726e+000  5.000000e-001
      vertex -2.020339e+000  7.353432e-001  0.000000e+000
    endloop
  endfacet
  facet normal  5.384273e-001 -9.493924e-002 -8.373068e-001
    outer loop
      vertex -2.020339e+000  7.353432e-001  0.000000e+000
      vertex -1.166726e+000  1.166726e+000  5.000000e-001
      vertex -2.150000e+000 -8.253899e-008  0.000000e+000
    endloop
  endfacet
  facet normal  7.875174e-001 -5.262021e-001 -3.208230e-001
    outer loop
      vertex -2.150000e+000 -8.253899e-008  0.000000e+000
      vertex -1.166726e+000  1.166726e+000  5.000000e-001
      vertex -1.524401e+000  6.314276e-001  5.000000e-001
    endloop
  endfacet
  facet normal  7.002144e-001 -1.392813e-001 -7.002145e-001
    outer loop
      vertex -2.150000e+000 -8.253899e-008  0.000000e+000
      vertex -1.524401e+000  6.314276e-001  5.000000e-001
      vertex -1.650000e+000  2.020667e-016  5.000000e-001
    endloop
  endfacet
  facet normal  0.000000e+000  0.000000e+000  1.000000e+000
    outer loop
      vertex -7.500000e+000 -6.500000e+000  1.000000e+001
      vertex -3.500000e+000 -6.500000e+000  1.000000e+001
      vertex -7.500000e+000  6.500000e+000  1.000000e+001
    endloop
  endfacet
  facet normal  -0.000000e+000  0.000000e+000  1.000000e+000
    outer loop
      vertex -7.500000e+000  6.500000e+000  1.000000e+001
      vertex -3.500000e+000 -6.500000e+000  1.000000e+001
      vertex -3.500000e+000  6.500000e+000  1.000000e+001
    endloop
  endfacet
  facet normal -1.000000e+000  -0.000000e+000  0.000000e+000
    outer loop
      vertex -7.500000e+000 -6.500000e+000  1.000000e+001
      vertex -7.500000e+000  6.500000e+000  1.000000e+001
      vertex -7.500000e+000 -6.500000e+000  0.000000e+000
    endloop
  endfacet
  facet normal -1.000000e+000  0.000000e+000  0.000000e+000
    outer loop
      vertex -7.500000e+000 -6.500000e+000  0.000000e+000
      vertex -7.500000e+000  6.500000e+000  1.000000e+001
      vertex -7.500000e+000  6.500000e+000  0.000000e+000
    endloop
  endfacet
  facet normal  1.045286e-001  9.945219e-001  0.000000e+000
    outer loop
      vertex  1.990051e-015  6.500000e+000  0.000000e+000
      vertex  1.990051e-015  6.500000e+000  4.000000e+000
      vertex  1.351426e+000  6.357959e+000  0.000000e+000
    endloop
  endfacet
  facet normal  1.045286e-001  9.945219e-001  -0.000000e+000
    outer loop
      vertex  1.351426e+000  6.357959e+000  0.000000e+000
      vertex  1.990051e-015  6.500000e+000  4.000000e+000
      vertex  1.351426e+000  6.357959e+000  4.000000e+000
    endloop
  endfacet
  facet normal  3.090169e-001  9.510565e-001  0.000000e+000
    outer loop
      vertex  1.351426e+000  6.357959e+000  0.000000e+000
      vertex  1.351426e+000  6.357959e+000  4.000000e+000
      vertex  2.643788e+000  5.938046e+000  0.000000e+000
    endloop
  endfacet
  facet normal  3.090169e-001  9.510565e-001  -0.000000e+000
    outer loop
      vertex  2.643788e+000  5.938046e+000  0.000000e+000
      vertex  1.351426e+000  6.357959e+000  4.000000e+000
      vertex  2.643788e+000  5.938046e+000  4.000000e+000
    endloop
  endfacet
  facet normal  5.000001e-001  8.660253e-001  0.000000e+000
    outer loop
      vertex  2.643788e+000  5.938046e+000  0.000000e+000
      vertex  2.643788e+000  5.938046e+000  4.000000e+000
      vertex  3.820604e+000  5.258610e+000  0.000000e+000
    endloop
  endfacet
  facet normal  5.000001e-001  8.660253e-001  -0.000000e+000
    outer loop
      vertex  3.820604e+000  5.258610e+000  0.000000e+000
      vertex  2.643788e+000  5.938046e+000  4.000000e+000
      vertex  3.820604e+000  5.258610e+000  4.000000e+000
    endloop
  endfacet
  facet normal  6.691304e-001  7.431450e-001  0.000000e+000
    outer loop
      vertex  3.820604e+000  5.258610e+000  0.000000e+000
      vertex  3.820604e+000  5.258610e+000  4.000000e+000
      vertex  4.830441e+000  4.349349e+000  0.000000e+000
    endloop
  endfacet
  facet normal  6.691304e-001  7.431450e-001  -0.000000e+000
    outer loop
      vertex  4.830441e+000  4.349349e+000  0.000000e+000
      vertex  3.820604e+000  5.258610e+000  4.000000e+000
      vertex  4.830441e+000  4.349349e+000  4.000000e+000
    endloop
  endfacet
  facet normal  8.090170e-001  5.877852e-001  0.000000e+000
    outer loop
      vertex  4.830441e+000  4.349349e+000  0.000000e+000
      vertex  4.830441e+000  4.349349e+000  4.000000e+000
      vertex  5.629165e+000  3.250000e+000  0.000000e+000
    endloop
  endfacet
  facet normal  8.090170e-001  5.877852e-001  -0.000000e+000
    outer loop
      vertex  5.629165e+000  3.250000e+000  0.000000e+000
      vertex  4.830441e+000  4.349349e+000  4.000000e+000
      vertex  5.629165e+000  3.250000e+000  4.000000e+000
    endloop
  endfacet
  facet normal  9.135455e-001  4.067365e-001  0.000000e+000
    outer loop
      vertex  5.629165e+000  3.250000e+000  0.000000e+000
      vertex  5.629165e+000  3.250000e+000  4.000000e+000
      vertex  6.181867e+000  2.008610e+000  0.000000e+000
    endloop
  endfacet
  facet normal  9.135455e-001  4.067365e-001  -0.000000e+000
    outer loop
      vertex  6.181867e+000  2.008610e+000  0.000000e+000
      vertex  5.629165e+000  3.250000e+000  4.000000e+000
      vertex  6.181867e+000  2.008610e+000  4.000000e+000
    endloop
  endfacet
  facet normal  9.781476e-001  2.079118e-001  0.000000e+000
    outer loop
      vertex  6.181867e+000  2.008610e+000  0.000000e+000
      vertex  6.181867e+000  2.008610e+000  4.000000e+000
      vertex  6.464392e+000  6.794350e-001  0.000000e+000
    endloop
  endfacet
  facet normal  9.781476e-001  2.079118e-001  -0.000000e+000
    outer loop
      vertex  6.464392e+000  6.794350e-001  0.000000e+000
      vertex  6.181867e+000  2.008610e+000  4.000000e+000
      vertex  6.464392e+000  6.794350e-001  4.000000e+000
    endloop
  endfacet
  facet normal  9.999999e-001  0.000000e+000  0.000000e+000
    outer loop
      vertex  6.464392e+000  6.794350e-001  0.000000e+000
      vertex  6.464392e+000  6.794350e-001  4.000000e+000
      vertex  6.464392e+000 -6.794350e-001  0.000000e+000
    endloop
  endfacet
  facet normal  9.999999e-001  0.000000e+000  0.000000e+000
    outer loop
      vertex  6.464392e+000 -6.794350e-001  0.000000e+000
      vertex  6.464392e+000  6.794350e-001  4.000000e+000
      vertex  6.464392e+000 -6.794350e-001  4.000000e+000
    endloop
  endfacet
  facet normal  9.781476e-001 -2.079118e-001  0.000000e+000
    outer loop
      vertex  6.464392e+000 -6.794350e-001  0.000000e+000
      vertex  6.464392e+000 -6.794350e-001  4.000000e+000
      vertex  6.181867e+000 -2.008610e+000  0.000000e+000
    endloop
  endfacet
  facet normal  9.781476e-001 -2.079118e-001  0.000000e+000
    outer loop
      vertex  6.181867e+000 -2.008610e+000  0.000000e+000
      vertex  6.464392e+000 -6.794350e-001  4.000000e+000
      vertex  6.181867e+000 -2.008610e+000  4.000000e+000
    endloop
  endfacet
  facet normal  9.135455e-001 -4.067365e-001  0.000000e+000
    outer loop
      vertex  6.181867e+000 -2.008610e+000  0.000000e+000
      vertex  6.181867e+000 -2.008610e+000  4.000000e+000
      vertex  5.629165e+000 -3.250000e+000  0.000000e+000
    endloop
  endfacet
  facet normal  9.135455e-001 -4.067365e-001  0.000000e+000
    outer loop
      vertex  5.629165e+000 -3.250000e+000  0.000000e+000
      vertex  6.181867e+000 -2.008610e+000  4.000000e+000
      vertex  5.629165e+000 -3.250000e+000  4.000000e+000
    endloop
  endfacet
  facet normal  8.090170e-001 -5.877852e-001  0.000000e+000
    outer loop
      vertex  5.629165e+000 -3.250000e+000  0.000000e+000
      vertex  5.629165e+000 -3.250000e+000  4.000000e+000
      vertex  4.830441e+000 -4.349349e+000  0.000000e+000
    endloop
  endfacet
  facet normal  8.090170e-001 -5.877852e-001  0.000000e+000
    outer loop
      vertex  4.830441e+000 -4.349349e+000  0.000000e+000
      vertex  5.629165e+000 -3.250000e+000  4.000000e+000
      vertex  4.830441e+000 -4.349349e+000  4.000000e+000
    endloop
  endfacet
  facet normal  6.691304e-001 -7.431450e-001  0.000000e+000
    outer loop
      vertex  4.830441e+000 -4.349349e+000  0.000000e+000
      vertex  4.830441e+000 -4.349349e+000  4.000000e+000
      vertex  3.820604e+000 -5.258610e+000  0.000000e+000
    endloop
  endfacet
  facet normal  6.691304e-001 -7.431450e-001  0.000000e+000
    outer loop
      vertex  3.820604e+000 -5.258610e+000  0.000000e+000
      vertex  4.830441e+000 -4.349349e+000  4.000000e+000
      vertex  3.820604e+000 -5.258610e+000  4.000000e+000
    endloop
  endfacet
  facet normal  5.000001e-001 -8.660253e-001  0.000000e+000
    outer loop
      vertex  3.820604e+000 -5.258610e+000  0.000000e+000
      vertex  3.820604e+000 -5.258610e+000  4.000000e+000
      vertex  2.643788e+000 -5.938046e+000  0.000000e+000
    endloop
  endfacet
  facet normal  5.000001e-001 -8.660253e-001  0.000000e+000
    outer loop
      vertex  2.643788e+000 -5.938046e+000  0.000000e+000
      vertex  3.820604e+000 -5.258610e+000  4.000000e+000
      vertex  2.643788e+000 -5.938046e+000  4.000000e+000
    endloop
  endfacet
  facet normal  3.090169e-001 -9.510565e-001  0.000000e+000
    outer loop
      vertex  2.643788e+000 -5.938046e+000  0.000000e+000
      vertex  2.643788e+000 -5.938046e+000  4.000000e+000
      vertex  1.351426e+000 -6.357959e+000  0.000000e+000
    endloop
  endfacet
  facet normal  3.090169e-001 -9.510565e-001  0.000000e+000
    outer loop
      vertex  1.351426e+000 -6.357959e+000  0.000000e+000
      vertex  2.643788e+000 -5.938046e+000  4.000000e+000
      vertex  1.351426e+000 -6.357959e+000  4.000000e+000
    endloop
  endfacet
  facet normal  1.045286e-001 -9.945219e-001  0.000000e+000
    outer loop
      vertex  1.351426e+000 -6.357959e+000  0.000000e+000
      vertex  1.351426e+000 -6.357959e+000  4.000000e+000
      vertex -6.661338e-015 -6.500000e+000  0.000000e+000
    endloop
  endfacet
  facet normal  1.045286e-001 -9.945219e-001  0.000000e+000
    outer loop
      vertex -6.661338e-015 -6.500000e+000  0.000000e+000
      vertex  1.351426e+000 -6.357959e+000  4.000000e+000
      vertex -6.661338e-015 -6.500000e+000  4.000000e+000
    endloop
  endfacet
endsolid CATIA STL
