solid CATIA STL
  facet normal  -0.000000e+000  0.000000e+000 -1.000000e+000
    outer loop
      vertex -7.500000e+000 -5.000000e+000 -1.000000e+001
      vertex -3.500000e+000 -5.000000e+000 -1.000000e+001
      vertex -7.500000e+000 -6.500000e+000 -1.000000e+001
    endloop
  endfacet
  facet normal  0.000000e+000  0.000000e+000 -1.000000e+000
    outer loop
      vertex -7.500000e+000 -6.500000e+000 -1.000000e+001
      vertex -3.500000e+000 -5.000000e+000 -1.000000e+001
      vertex -3.500000e+000 -6.500000e+000 -1.000000e+001
    endloop
  endfacet
  facet normal  0.000000e+000  0.000000e+000 -1.000000e+000
    outer loop
      vertex -3.500000e+000 -6.500000e+000  0.000000e+000
      vertex  1.175487e+000 -6.392827e+000  0.000000e+000
      vertex  0.000000e+000 -6.500000e+000  0.000000e+000
    endloop
  endfacet
  facet normal  0.000000e+000  0.000000e+000 -1.000000e+000
    outer loop
      vertex  5.766281e+000 -3.000000e+000  0.000000e+000
      vertex  5.128674e+000 -3.993333e+000  0.000000e+000
      vertex -1.500000e+000 -3.000000e+000  0.000000e+000
    endloop
  endfacet
  facet normal  0.000000e+000  -0.000000e+000 -1.000000e+000
    outer loop
      vertex -1.500000e+000 -3.000000e+000  0.000000e+000
      vertex  5.128674e+000 -3.993333e+000  0.000000e+000
      vertex -2.118034e+000 -3.097887e+000  0.000000e+000
    endloop
  endfacet
  facet normal  0.000000e+000  0.000000e+000 -1.000000e+000
    outer loop
      vertex  5.128674e+000 -3.993333e+000  0.000000e+000
      vertex -3.118034e+000 -3.824430e+000  0.000000e+000
      vertex -2.118034e+000 -3.097887e+000  0.000000e+000
    endloop
  endfacet
  facet normal  0.000000e+000  0.000000e+000 -1.000000e+000
    outer loop
      vertex -2.118034e+000 -3.097887e+000  0.000000e+000
      vertex -3.118034e+000 -3.824430e+000  0.000000e+000
      vertex -2.675570e+000 -3.381966e+000  0.000000e+000
    endloop
  endfacet
  facet normal  0.000000e+000  -0.000000e+000 -1.000000e+000
    outer loop
      vertex -3.500000e+000 -5.000000e+000  0.000000e+000
      vertex -3.402113e+000 -4.381966e+000  0.000000e+000
      vertex  4.321940e+000 -4.854980e+000  0.000000e+000
    endloop
  endfacet
  facet normal  0.000000e+000  0.000000e+000 -1.000000e+000
    outer loop
      vertex  4.321940e+000 -4.854980e+000  0.000000e+000
      vertex -3.402113e+000 -4.381966e+000  0.000000e+000
      vertex -3.118034e+000 -3.824430e+000  0.000000e+000
    endloop
  endfacet
  facet normal  0.000000e+000  0.000000e+000 -9.999999e-001
    outer loop
      vertex  4.321940e+000 -4.854980e+000  0.000000e+000
      vertex -3.118034e+000 -3.824430e+000  0.000000e+000
      vertex  5.128674e+000 -3.993333e+000  0.000000e+000
    endloop
  endfacet
  facet normal  0.000000e+000  0.000000e+000 -1.000000e+000
    outer loop
      vertex  4.321940e+000 -4.854980e+000  0.000000e+000
      vertex  3.372684e+000 -5.556528e+000  0.000000e+000
      vertex -3.500000e+000 -5.000000e+000  0.000000e+000
    endloop
  endfacet
  facet normal  0.000000e+000  0.000000e+000 -9.999999e-001
    outer loop
      vertex -3.500000e+000 -5.000000e+000  0.000000e+000
      vertex  3.372684e+000 -5.556528e+000  0.000000e+000
      vertex -3.500000e+000 -6.500000e+000  0.000000e+000
    endloop
  endfacet
  facet normal  -0.000000e+000  0.000000e+000 -1.000000e+000
    outer loop
      vertex  3.372684e+000 -5.556528e+000  0.000000e+000
      vertex  2.312210e+000 -6.074841e+000  0.000000e+000
      vertex -3.500000e+000 -6.500000e+000  0.000000e+000
    endloop
  endfacet
  facet normal  0.000000e+000  0.000000e+000 -9.999999e-001
    outer loop
      vertex -3.500000e+000 -6.500000e+000  0.000000e+000
      vertex  2.312210e+000 -6.074841e+000  0.000000e+000
      vertex  1.175487e+000 -6.392827e+000  0.000000e+000
    endloop
  endfacet
  facet normal  1.000000e+000  0.000000e+000  0.000000e+000
    outer loop
      vertex -3.500000e+000 -5.000000e+000 -1.000000e+001
      vertex -3.500000e+000 -5.000000e+000  0.000000e+000
      vertex -3.500000e+000 -6.500000e+000 -1.000000e+001
    endloop
  endfacet
  facet normal  1.000000e+000  0.000000e+000  0.000000e+000
    outer loop
      vertex -3.500000e+000 -6.500000e+000 -1.000000e+001
      vertex -3.500000e+000 -5.000000e+000  0.000000e+000
      vertex -3.500000e+000 -6.500000e+000  0.000000e+000
    endloop
  endfacet
  facet normal  -0.000000e+000 -1.000000e+000  -0.000000e+000
    outer loop
      vertex  1.250000e+001 -3.000000e+000 -1.900000e+001
      vertex  6.500000e+000 -3.000000e+000  0.000000e+000
      vertex  5.766281e+000 -3.000000e+000  0.000000e+000
    endloop
  endfacet
  facet normal  -0.000000e+000 -1.000000e+000  -0.000000e+000
    outer loop
      vertex  1.250000e+001 -3.000000e+000 -1.900000e+001
      vertex  5.766281e+000 -3.000000e+000  0.000000e+000
      vertex -1.500000e+000 -3.000000e+000  0.000000e+000
    endloop
  endfacet
  facet normal  0.000000e+000 -1.000000e+000  0.000000e+000
    outer loop
      vertex  1.250000e+001 -3.000000e+000 -1.900000e+001
      vertex -1.500000e+000 -3.000000e+000  0.000000e+000
      vertex -1.500000e+000 -3.000000e+000 -1.200000e+001
    endloop
  endfacet
  facet normal  -0.000000e+000 -1.000000e+000  -0.000000e+000
    outer loop
      vertex  1.250000e+001 -3.000000e+000 -1.900000e+001
      vertex -1.500000e+000 -3.000000e+000 -1.200000e+001
      vertex -7.500000e+000 -3.000000e+000 -1.200000e+001
    endloop
  endfacet
  facet normal  0.000000e+000 -1.000000e+000  0.000000e+000
    outer loop
      vertex  1.250000e+001 -3.000000e+000 -1.900000e+001
      vertex -7.500000e+000 -3.000000e+000 -1.200000e+001
      vertex -7.500000e+000 -3.000000e+000 -1.900000e+001
    endloop
  endfacet
  facet normal -1.000000e+000  0.000000e+000  0.000000e+000
    outer loop
      vertex -7.500000e+000 -5.000000e+000 -1.000000e+001
      vertex -7.500000e+000 -6.500000e+000 -1.000000e+001
      vertex -7.500000e+000 -6.500000e+000  4.000000e+000
    endloop
  endfacet
  facet normal -1.000000e+000  0.000000e+000  0.000000e+000
    outer loop
      vertex -7.500000e+000  3.000000e+000 -1.200000e+001
      vertex -7.500000e+000 -7.105427e-015 -1.570000e+001
      vertex -7.500000e+000  3.097887e+000 -1.138197e+001
    endloop
  endfacet
  facet normal -1.000000e+000  -0.000000e+000  0.000000e+000
    outer loop
      vertex -7.500000e+000  3.000000e+000 -1.200000e+001
      vertex -7.500000e+000  3.000000e+000 -1.518278e+001
      vertex -7.500000e+000 -7.105427e-015 -1.570000e+001
    endloop
  endfacet
  facet normal -1.000000e+000  0.000000e+000  0.000000e+000
    outer loop
      vertex -7.500000e+000 -3.000000e+000 -1.200000e+001
      vertex -7.500000e+000  3.824430e+000 -1.038197e+001
      vertex -7.500000e+000  3.381966e+000 -1.082443e+001
    endloop
  endfacet
  facet normal -9.999999e-001  0.000000e+000  -0.000000e+000
    outer loop
      vertex -7.500000e+000 -3.000000e+000 -1.900000e+001
      vertex -7.500000e+000 -7.105427e-015 -1.570000e+001
      vertex -7.500000e+000  0.000000e+000 -1.900000e+001
    endloop
  endfacet
  facet normal -1.000000e+000  -0.000000e+000  0.000000e+000
    outer loop
      vertex -7.500000e+000  4.381966e+000 -1.009789e+001
      vertex -7.500000e+000  3.824430e+000 -1.038197e+001
      vertex -7.500000e+000 -3.000000e+000 -1.200000e+001
    endloop
  endfacet
  facet normal -1.000000e+000  0.000000e+000  0.000000e+000
    outer loop
      vertex -7.500000e+000  4.381966e+000 -1.009789e+001
      vertex -7.500000e+000 -3.000000e+000 -1.200000e+001
      vertex -7.500000e+000 -3.097887e+000 -1.138197e+001
    endloop
  endfacet
  facet normal -1.000000e+000  0.000000e+000  0.000000e+000
    outer loop
      vertex -7.500000e+000  4.381966e+000 -1.009789e+001
      vertex -7.500000e+000 -3.097887e+000 -1.138197e+001
      vertex -7.500000e+000 -3.381966e+000 -1.082443e+001
    endloop
  endfacet
  facet normal -1.000000e+000  -0.000000e+000  0.000000e+000
    outer loop
      vertex -7.500000e+000  5.000000e+000 -1.000000e+001
      vertex -7.500000e+000  4.381966e+000 -1.009789e+001
      vertex -7.500000e+000 -3.381966e+000 -1.082443e+001
    endloop
  endfacet
  facet normal -1.000000e+000  0.000000e+000  0.000000e+000
    outer loop
      vertex -7.500000e+000  5.000000e+000 -1.000000e+001
      vertex -7.500000e+000 -3.381966e+000 -1.082443e+001
      vertex -7.500000e+000 -3.824430e+000 -1.038197e+001
    endloop
  endfacet
  facet normal -1.000000e+000  0.000000e+000  0.000000e+000
    outer loop
      vertex -7.500000e+000  5.000000e+000 -1.000000e+001
      vertex -7.500000e+000 -3.824430e+000 -1.038197e+001
      vertex -7.500000e+000 -4.381966e+000 -1.009789e+001
    endloop
  endfacet
  facet normal -1.000000e+000  0.000000e+000  0.000000e+000
    outer loop
      vertex -7.500000e+000  5.000000e+000 -1.000000e+001
      vertex -7.500000e+000 -4.381966e+000 -1.009789e+001
      vertex -7.500000e+000 -5.000000e+000 -1.000000e+001
    endloop
  endfacet
  facet normal -1.000000e+000  0.000000e+000  0.000000e+000
    outer loop
      vertex -7.500000e+000  5.000000e+000 -1.000000e+001
      vertex -7.500000e+000 -5.000000e+000 -1.000000e+001
      vertex -7.500000e+000 -6.500000e+000  4.000000e+000
    endloop
  endfacet
  facet normal -1.000000e+000  0.000000e+000  0.000000e+000
    outer loop
      vertex -7.500000e+000  5.000000e+000 -1.000000e+001
      vertex -7.500000e+000 -6.500000e+000  4.000000e+000
      vertex -7.500000e+000  6.500000e+000  4.000000e+000
    endloop
  endfacet
  facet normal -1.000000e+000  0.000000e+000  -0.000000e+000
    outer loop
      vertex -7.500000e+000  5.000000e+000 -1.000000e+001
      vertex -7.500000e+000  6.500000e+000  4.000000e+000
      vertex -7.500000e+000  6.500000e+000 -1.000000e+001
    endloop
  endfacet
  facet normal -1.000000e+000  0.000000e+000  0.000000e+000
    outer loop
      vertex -7.500000e+000 -3.000000e+000 -1.900000e+001
      vertex -7.500000e+000 -3.000000e+000 -1.200000e+001
      vertex -7.500000e+000 -7.105427e-015 -1.570000e+001
    endloop
  endfacet
  facet normal -1.000000e+000  0.000000e+000  0.000000e+000
    outer loop
      vertex -7.500000e+000 -7.105427e-015 -1.570000e+001
      vertex -7.500000e+000 -3.000000e+000 -1.200000e+001
      vertex -7.500000e+000  3.381966e+000 -1.082443e+001
    endloop
  endfacet
  facet normal -1.000000e+000  0.000000e+000  0.000000e+000
    outer loop
      vertex -7.500000e+000 -7.105427e-015 -1.570000e+001
      vertex -7.500000e+000  3.381966e+000 -1.082443e+001
      vertex -7.500000e+000  3.097887e+000 -1.138197e+001
    endloop
  endfacet
  facet normal  0.000000e+000  0.000000e+000 -1.000000e+000
    outer loop
      vertex  1.250000e+001 -3.000000e+000 -1.900000e+001
      vertex -7.500000e+000 -3.000000e+000 -1.900000e+001
      vertex  1.250000e+001  0.000000e+000 -1.900000e+001
    endloop
  endfacet
  facet normal  -0.000000e+000  0.000000e+000 -1.000000e+000
    outer loop
      vertex  1.250000e+001  0.000000e+000 -1.900000e+001
      vertex -7.500000e+000 -3.000000e+000 -1.900000e+001
      vertex -7.500000e+000  0.000000e+000 -1.900000e+001
    endloop
  endfacet
  facet normal -2.906342e-003 -2.490909e-001 -9.684758e-001
    outer loop
      vertex -3.358777e+000 -4.261797e+000 -1.014122e+001
      vertex -3.483920e+000 -4.746894e+000 -1.001608e+001
      vertex -7.500000e+000 -4.381966e+000 -1.009789e+001
    endloop
  endfacet
  facet normal  1.448174e-002 -6.431223e-002 -9.978248e-001
    outer loop
      vertex -7.500000e+000 -4.381966e+000 -1.009789e+001
      vertex -3.483920e+000 -4.746894e+000 -1.001608e+001
      vertex -3.500000e+000 -5.000000e+000 -1.000000e+001
    endloop
  endfacet
  facet normal  -0.000000e+000 -1.564346e-001 -9.876884e-001
    outer loop
      vertex -7.500000e+000 -4.381966e+000 -1.009789e+001
      vertex -3.500000e+000 -5.000000e+000 -1.000000e+001
      vertex -7.500000e+000 -5.000000e+000 -1.000000e+001
    endloop
  endfacet
  facet normal -1.806572e-003 -7.924053e-001 -6.099923e-001
    outer loop
      vertex -2.558199e+000 -3.302880e+000 -1.094180e+001
      vertex -2.865763e+000 -3.538940e+000 -1.063424e+001
      vertex -7.500000e+000 -3.381966e+000 -1.082443e+001
    endloop
  endfacet
  facet normal  8.456443e-003 -6.602557e-001 -7.509933e-001
    outer loop
      vertex -7.500000e+000 -3.381966e+000 -1.082443e+001
      vertex -2.865763e+000 -3.538940e+000 -1.063424e+001
      vertex -3.136788e+000 -3.850685e+000 -1.036321e+001
    endloop
  endfacet
  facet normal -1.215682e-003 -7.071066e-001 -7.071059e-001
    outer loop
      vertex -7.500000e+000 -3.381966e+000 -1.082443e+001
      vertex -3.136788e+000 -3.850685e+000 -1.036321e+001
      vertex -7.500000e+000 -3.824430e+000 -1.038197e+001
    endloop
  endfacet
  facet normal  9.197823e-004 -4.755152e-001 -8.797070e-001
    outer loop
      vertex -7.500000e+000 -3.824430e+000 -1.038197e+001
      vertex -3.136788e+000 -3.850685e+000 -1.036321e+001
      vertex -3.358777e+000 -4.261797e+000 -1.014122e+001
    endloop
  endfacet
  facet normal  3.850003e-003 -4.539866e-001 -8.910002e-001
    outer loop
      vertex -7.500000e+000 -3.824430e+000 -1.038197e+001
      vertex -3.358777e+000 -4.261797e+000 -1.014122e+001
      vertex -7.500000e+000 -4.381966e+000 -1.009789e+001
    endloop
  endfacet
  facet normal  0.000000e+000 -9.969045e-001 -7.862167e-002
    outer loop
      vertex -1.500000e+000 -3.000000e+000 -1.200000e+001
      vertex -1.813513e+000 -3.024725e+000 -1.168649e+001
      vertex -7.500000e+000 -3.000000e+000 -1.200000e+001
    endloop
  endfacet
  facet normal  9.247365e-003 -9.696801e-001 -2.442030e-001
    outer loop
      vertex -7.500000e+000 -3.000000e+000 -1.200000e+001
      vertex -1.813513e+000 -3.024725e+000 -1.168649e+001
      vertex -2.193129e+000 -3.123948e+000 -1.130687e+001
    endloop
  endfacet
  facet normal -2.636682e-003 -9.876849e-001 -1.564339e-001
    outer loop
      vertex -7.500000e+000 -3.000000e+000 -1.200000e+001
      vertex -2.193129e+000 -3.123948e+000 -1.130687e+001
      vertex -7.500000e+000 -3.097887e+000 -1.138197e+001
    endloop
  endfacet
  facet normal  1.794313e-003 -8.986495e-001 -4.386637e-001
    outer loop
      vertex -7.500000e+000 -3.097887e+000 -1.138197e+001
      vertex -2.193129e+000 -3.123948e+000 -1.130687e+001
      vertex -2.558199e+000 -3.302880e+000 -1.094180e+001
    endloop
  endfacet
  facet normal  3.476518e-003 -8.910010e-001 -4.539881e-001
    outer loop
      vertex -7.500000e+000 -3.097887e+000 -1.138197e+001
      vertex -2.558199e+000 -3.302880e+000 -1.094180e+001
      vertex -7.500000e+000 -3.381966e+000 -1.082443e+001
    endloop
  endfacet
  facet normal  2.533929e-001 -9.673633e-001  5.467460e-004
    outer loop
      vertex -2.193129e+000 -3.123948e+000 -1.130687e+001
      vertex -1.813513e+000 -3.024725e+000 -1.168649e+001
      vertex -2.118034e+000 -3.097887e+000  0.000000e+000
    endloop
  endfacet
  facet normal  7.434089e-002 -9.972236e-001 -4.305838e-003
    outer loop
      vertex -2.118034e+000 -3.097887e+000  0.000000e+000
      vertex -1.813513e+000 -3.024725e+000 -1.168649e+001
      vertex -1.500000e+000 -3.000000e+000 -1.200000e+001
    endloop
  endfacet
  facet normal  1.564346e-001 -9.876882e-001  0.000000e+000
    outer loop
      vertex -2.118034e+000 -3.097887e+000  0.000000e+000
      vertex -1.500000e+000 -3.000000e+000 -1.200000e+001
      vertex -1.500000e+000 -3.000000e+000  0.000000e+000
    endloop
  endfacet
  facet normal  7.548014e-001 -6.559533e-001  2.959274e-004
    outer loop
      vertex -3.136788e+000 -3.850685e+000 -1.036321e+001
      vertex -2.865763e+000 -3.538940e+000 -1.063424e+001
      vertex -3.118034e+000 -3.824430e+000  0.000000e+000
    endloop
  endfacet
  facet normal  6.043947e-001 -7.966538e-001 -7.049376e-003
    outer loop
      vertex -3.118034e+000 -3.824430e+000  0.000000e+000
      vertex -2.865763e+000 -3.538940e+000 -1.063424e+001
      vertex -2.558199e+000 -3.302880e+000 -1.094180e+001
    endloop
  endfacet
  facet normal  7.071046e-001 -7.071046e-001  2.474183e-003
    outer loop
      vertex -3.118034e+000 -3.824430e+000  0.000000e+000
      vertex -2.558199e+000 -3.302880e+000 -1.094180e+001
      vertex -2.675570e+000 -3.381966e+000  0.000000e+000
    endloop
  endfacet
  facet normal  4.386658e-001 -8.986486e-001 -1.789785e-003
    outer loop
      vertex -2.675570e+000 -3.381966e+000  0.000000e+000
      vertex -2.558199e+000 -3.302880e+000 -1.094180e+001
      vertex -2.193129e+000 -3.123948e+000 -1.130687e+001
    endloop
  endfacet
  facet normal  4.539903e-001 -8.910061e-001 -9.615225e-004
    outer loop
      vertex -2.675570e+000 -3.381966e+000  0.000000e+000
      vertex -2.193129e+000 -3.123948e+000 -1.130687e+001
      vertex -2.118034e+000 -3.097887e+000  0.000000e+000
    endloop
  endfacet
  facet normal  9.979880e-001 -6.340352e-002  0.000000e+000
    outer loop
      vertex -3.500000e+000 -5.000000e+000 -1.000000e+001
      vertex -3.483920e+000 -4.746894e+000 -1.001608e+001
      vertex -3.500000e+000 -5.000000e+000  0.000000e+000
    endloop
  endfacet
  facet normal  9.679877e-001 -2.509518e-001 -4.787494e-003
    outer loop
      vertex -3.500000e+000 -5.000000e+000  0.000000e+000
      vertex -3.483920e+000 -4.746894e+000 -1.001608e+001
      vertex -3.358777e+000 -4.261797e+000 -1.014122e+001
    endloop
  endfacet
  facet normal  9.876856e-001 -1.564342e-001  2.366966e-003
    outer loop
      vertex -3.500000e+000 -5.000000e+000  0.000000e+000
      vertex -3.358777e+000 -4.261797e+000 -1.014122e+001
      vertex -3.402113e+000 -4.381966e+000  0.000000e+000
    endloop
  endfacet
  facet normal  8.794892e-001 -4.759151e-001 -1.881099e-003
    outer loop
      vertex -3.402113e+000 -4.381966e+000  0.000000e+000
      vertex -3.358777e+000 -4.261797e+000 -1.014122e+001
      vertex -3.136788e+000 -3.850685e+000 -1.036321e+001
    endloop
  endfacet
  facet normal  8.910064e-001 -4.539904e-001 -4.622363e-004
    outer loop
      vertex -3.402113e+000 -4.381966e+000  0.000000e+000
      vertex -3.136788e+000 -3.850685e+000 -1.036321e+001
      vertex -3.118034e+000 -3.824430e+000  0.000000e+000
    endloop
  endfacet
  facet normal  -0.000000e+000  0.000000e+000 -1.000000e+000
    outer loop
      vertex -7.500000e+000  6.500000e+000 -1.000000e+001
      vertex -3.500000e+000  6.500000e+000 -1.000000e+001
      vertex -7.500000e+000  5.000000e+000 -1.000000e+001
    endloop
  endfacet
  facet normal  0.000000e+000  0.000000e+000 -1.000000e+000
    outer loop
      vertex -7.500000e+000  5.000000e+000 -1.000000e+001
      vertex -3.500000e+000  6.500000e+000 -1.000000e+001
      vertex -3.500000e+000  5.000000e+000 -1.000000e+001
    endloop
  endfacet
  facet normal  1.000000e+000  0.000000e+000  0.000000e+000
    outer loop
      vertex -3.500000e+000  6.500000e+000 -1.000000e+001
      vertex -3.500000e+000  6.500000e+000  0.000000e+000
      vertex -3.500000e+000  5.000000e+000 -1.000000e+001
    endloop
  endfacet
  facet normal  1.000000e+000  0.000000e+000  0.000000e+000
    outer loop
      vertex -3.500000e+000  5.000000e+000 -1.000000e+001
      vertex -3.500000e+000  6.500000e+000  0.000000e+000
      vertex -3.500000e+000  5.000000e+000  0.000000e+000
    endloop
  endfacet
  facet normal  0.000000e+000  0.000000e+000 -1.000000e+000
    outer loop
      vertex  5.128674e+000  3.993333e+000  0.000000e+000
      vertex -3.118034e+000  3.824430e+000  0.000000e+000
      vertex -3.402113e+000  4.381966e+000  0.000000e+000
    endloop
  endfacet
  facet normal  0.000000e+000  0.000000e+000 -1.000000e+000
    outer loop
      vertex -3.500000e+000  5.000000e+000  0.000000e+000
      vertex -3.500000e+000  6.500000e+000  0.000000e+000
      vertex  1.990051e-015  6.500000e+000  0.000000e+000
    endloop
  endfacet
  facet normal  0.000000e+000  -0.000000e+000 -1.000000e+000
    outer loop
      vertex -3.500000e+000  5.000000e+000  0.000000e+000
      vertex  1.990051e-015  6.500000e+000  0.000000e+000
      vertex  1.175487e+000  6.392827e+000  0.000000e+000
    endloop
  endfacet
  facet normal  0.000000e+000  -0.000000e+000 -1.000000e+000
    outer loop
      vertex -3.500000e+000  5.000000e+000  0.000000e+000
      vertex  1.175487e+000  6.392827e+000  0.000000e+000
      vertex  2.312210e+000  6.074841e+000  0.000000e+000
    endloop
  endfacet
  facet normal  0.000000e+000  -0.000000e+000 -1.000000e+000
    outer loop
      vertex -3.500000e+000  5.000000e+000  0.000000e+000
      vertex  2.312210e+000  6.074841e+000  0.000000e+000
      vertex  3.372684e+000  5.556528e+000  0.000000e+000
    endloop
  endfacet
  facet normal  0.000000e+000  -0.000000e+000 -1.000000e+000
    outer loop
      vertex -3.500000e+000  5.000000e+000  0.000000e+000
      vertex  3.372684e+000  5.556528e+000  0.000000e+000
      vertex  4.321940e+000  4.854980e+000  0.000000e+000
    endloop
  endfacet
  facet normal  -0.000000e+000  -0.000000e+000 -1.000000e+000
    outer loop
      vertex -3.500000e+000  5.000000e+000  0.000000e+000
      vertex  4.321940e+000  4.854980e+000  0.000000e+000
      vertex  5.128674e+000  3.993333e+000  0.000000e+000
    endloop
  endfacet
  facet normal  0.000000e+000  0.000000e+000 -1.000000e+000
    outer loop
      vertex -3.500000e+000  5.000000e+000  0.000000e+000
      vertex  5.128674e+000  3.993333e+000  0.000000e+000
      vertex -3.402113e+000  4.381966e+000  0.000000e+000
    endloop
  endfacet
  facet normal  0.000000e+000  0.000000e+000 -1.000000e+000
    outer loop
      vertex  5.766281e+000  3.000000e+000  0.000000e+000
      vertex -1.500000e+000  3.000000e+000  0.000000e+000
      vertex -2.118034e+000  3.097887e+000  0.000000e+000
    endloop
  endfacet
  facet normal  0.000000e+000  0.000000e+000 -1.000000e+000
    outer loop
      vertex  5.766281e+000  3.000000e+000  0.000000e+000
      vertex -2.118034e+000  3.097887e+000  0.000000e+000
      vertex -2.675570e+000  3.381966e+000  0.000000e+000
    endloop
  endfacet
  facet normal  0.000000e+000  0.000000e+000 -9.999999e-001
    outer loop
      vertex  5.766281e+000  3.000000e+000  0.000000e+000
      vertex -2.675570e+000  3.381966e+000  0.000000e+000
      vertex -3.118034e+000  3.824430e+000  0.000000e+000
    endloop
  endfacet
  facet normal  0.000000e+000  0.000000e+000 -1.000000e+000
    outer loop
      vertex  5.766281e+000  3.000000e+000  0.000000e+000
      vertex -3.118034e+000  3.824430e+000  0.000000e+000
      vertex  5.128674e+000  3.993333e+000  0.000000e+000
    endloop
  endfacet
  facet normal  0.000000e+000  1.000000e+000  0.000000e+000
    outer loop
      vertex  1.129456e+001  3.000000e+000 -1.518278e+001
      vertex -7.500000e+000  3.000000e+000 -1.518278e+001
      vertex -7.500000e+000  3.000000e+000 -1.200000e+001
    endloop
  endfacet
  facet normal  -0.000000e+000  1.000000e+000  0.000000e+000
    outer loop
      vertex  1.129456e+001  3.000000e+000 -1.518278e+001
      vertex -7.500000e+000  3.000000e+000 -1.200000e+001
      vertex -1.500000e+000  3.000000e+000 -1.200000e+001
    endloop
  endfacet
  facet normal  -0.000000e+000  1.000000e+000  0.000000e+000
    outer loop
      vertex  1.129456e+001  3.000000e+000 -1.518278e+001
      vertex -1.500000e+000  3.000000e+000 -1.200000e+001
      vertex -1.500000e+000  3.000000e+000  0.000000e+000
    endloop
  endfacet
  facet normal  -0.000000e+000  1.000000e+000  0.000000e+000
    outer loop
      vertex  1.129456e+001  3.000000e+000 -1.518278e+001
      vertex -1.500000e+000  3.000000e+000  0.000000e+000
      vertex  5.766281e+000  3.000000e+000  0.000000e+000
    endloop
  endfacet
  facet normal  -0.000000e+000  1.000000e+000  0.000000e+000
    outer loop
      vertex  1.129456e+001  3.000000e+000 -1.518278e+001
      vertex  5.766281e+000  3.000000e+000  0.000000e+000
      vertex  6.500000e+000  3.000000e+000  0.000000e+000
    endloop
  endfacet
  facet normal  9.535827e-001  0.000000e+000  3.011314e-001
    outer loop
      vertex  1.250000e+001 -3.000000e+000 -1.900000e+001
      vertex  1.250000e+001  0.000000e+000 -1.900000e+001
      vertex  6.500000e+000 -3.000000e+000  0.000000e+000
    endloop
  endfacet
  facet normal  9.535826e-001  7.348744e-007  3.011314e-001
    outer loop
      vertex  6.500000e+000 -3.000000e+000  0.000000e+000
      vertex  1.250000e+001  0.000000e+000 -1.900000e+001
      vertex  1.145789e+001  0.000000e+000 -1.570000e+001
    endloop
  endfacet
  facet normal  9.535826e-001  0.000000e+000  3.011314e-001
    outer loop
      vertex  6.500000e+000 -3.000000e+000  0.000000e+000
      vertex  1.145789e+001  0.000000e+000 -1.570000e+001
      vertex  6.500000e+000  4.181119e-015  0.000000e+000
    endloop
  endfacet
  facet normal  9.535826e-001 -1.544641e-007  3.011314e-001
    outer loop
      vertex  6.500000e+000  4.181119e-015  0.000000e+000
      vertex  1.145789e+001  0.000000e+000 -1.570000e+001
      vertex  1.129456e+001  3.000000e+000 -1.518278e+001
    endloop
  endfacet
  facet normal  9.535826e-001  0.000000e+000  3.011314e-001
    outer loop
      vertex  6.500000e+000  4.181119e-015  0.000000e+000
      vertex  1.129456e+001  3.000000e+000 -1.518278e+001
      vertex  6.500000e+000  3.000000e+000  0.000000e+000
    endloop
  endfacet
  facet normal  0.000000e+000  1.699000e-001 -9.854614e-001
    outer loop
      vertex -7.500000e+000 -7.105427e-015 -1.570000e+001
      vertex -7.500000e+000  3.000000e+000 -1.518278e+001
      vertex  1.145789e+001  0.000000e+000 -1.570000e+001
    endloop
  endfacet
  facet normal  0.000000e+000  1.699000e-001 -9.854613e-001
    outer loop
      vertex  1.145789e+001  0.000000e+000 -1.570000e+001
      vertex -7.500000e+000  3.000000e+000 -1.518278e+001
      vertex  1.129456e+001  3.000000e+000 -1.518278e+001
    endloop
  endfacet
  facet normal -1.156061e-003  9.672135e-001 -2.539617e-001
    outer loop
      vertex -2.193129e+000  3.123948e+000 -1.130687e+001
      vertex -1.813513e+000  3.024725e+000 -1.168649e+001
      vertex -7.500000e+000  3.097887e+000 -1.138197e+001
    endloop
  endfacet
  facet normal  9.108976e-003  9.975361e-001 -6.956249e-002
    outer loop
      vertex -7.500000e+000  3.097887e+000 -1.138197e+001
      vertex -1.813513e+000  3.024725e+000 -1.168649e+001
      vertex -1.500000e+000  3.000000e+000 -1.200000e+001
    endloop
  endfacet
  facet normal  0.000000e+000  9.876884e-001 -1.564345e-001
    outer loop
      vertex -7.500000e+000  3.097887e+000 -1.138197e+001
      vertex -1.500000e+000  3.000000e+000 -1.200000e+001
      vertex -7.500000e+000  3.000000e+000 -1.200000e+001
    endloop
  endfacet
  facet normal -7.009337e-004  6.557549e-001 -7.549735e-001
    outer loop
      vertex -3.136788e+000  3.850685e+000 -1.036321e+001
      vertex -2.865763e+000  3.538940e+000 -1.063424e+001
      vertex -7.500000e+000  3.824430e+000 -1.038197e+001
    endloop
  endfacet
  facet normal  1.679688e-002  8.012104e-001 -5.981469e-001
    outer loop
      vertex -7.500000e+000  3.824430e+000 -1.038197e+001
      vertex -2.865763e+000  3.538940e+000 -1.063424e+001
      vertex -2.558199e+000  3.302880e+000 -1.094180e+001
    endloop
  endfacet
  facet normal -5.478088e-003  7.070966e-001 -7.070958e-001
    outer loop
      vertex -7.500000e+000  3.824430e+000 -1.038197e+001
      vertex -2.558199e+000  3.302880e+000 -1.094180e+001
      vertex -7.500000e+000  3.381966e+000 -1.082443e+001
    endloop
  endfacet
  facet normal  4.019528e-003  8.995184e-001 -4.368644e-001
    outer loop
      vertex -7.500000e+000  3.381966e+000 -1.082443e+001
      vertex -2.558199e+000  3.302880e+000 -1.094180e+001
      vertex -2.193129e+000  3.123948e+000 -1.130687e+001
    endloop
  endfacet
  facet normal  2.048732e-003  8.910044e-001 -4.539898e-001
    outer loop
      vertex -7.500000e+000  3.381966e+000 -1.082443e+001
      vertex -2.193129e+000  3.123948e+000 -1.130687e+001
      vertex -7.500000e+000  3.097887e+000 -1.138197e+001
    endloop
  endfacet
  facet normal  0.000000e+000  6.340258e-002 -9.979880e-001
    outer loop
      vertex -3.500000e+000  5.000000e+000 -1.000000e+001
      vertex -3.483920e+000  4.746894e+000 -1.001608e+001
      vertex -7.500000e+000  5.000000e+000 -1.000000e+001
    endloop
  endfacet
  facet normal  1.205171e-002  2.526908e-001 -9.674720e-001
    outer loop
      vertex -7.500000e+000  5.000000e+000 -1.000000e+001
      vertex -3.483920e+000  4.746894e+000 -1.001608e+001
      vertex -3.358777e+000  4.261797e+000 -1.014122e+001
    endloop
  endfacet
  facet normal -5.795972e-003  1.564320e-001 -9.876717e-001
    outer loop
      vertex -7.500000e+000  5.000000e+000 -1.000000e+001
      vertex -3.358777e+000  4.261797e+000 -1.014122e+001
      vertex -7.500000e+000  4.381966e+000 -1.009789e+001
    endloop
  endfacet
  facet normal  4.646854e-003  4.770673e-001 -8.788545e-001
    outer loop
      vertex -7.500000e+000  4.381966e+000 -1.009789e+001
      vertex -3.358777e+000  4.261797e+000 -1.014122e+001
      vertex -3.136788e+000  3.850685e+000 -1.036321e+001
    endloop
  endfacet
  facet normal  1.097878e-003  4.539896e-001 -8.910063e-001
    outer loop
      vertex -7.500000e+000  4.381966e+000 -1.009789e+001
      vertex -3.136788e+000  3.850685e+000 -1.036321e+001
      vertex -7.500000e+000  3.824430e+000 -1.038197e+001
    endloop
  endfacet
  facet normal  9.683713e-001  2.495109e-001  1.181512e-003
    outer loop
      vertex -3.358777e+000  4.261797e+000 -1.014122e+001
      vertex -3.483920e+000  4.746894e+000 -1.001608e+001
      vertex -3.402113e+000  4.381966e+000  0.000000e+000
    endloop
  endfacet
  facet normal  9.979475e-001  6.377117e-002 -5.827339e-003
    outer loop
      vertex -3.402113e+000  4.381966e+000  0.000000e+000
      vertex -3.483920e+000  4.746894e+000 -1.001608e+001
      vertex -3.500000e+000  5.000000e+000 -1.000000e+001
    endloop
  endfacet
  facet normal  9.876884e-001  1.564346e-001  -0.000000e+000
    outer loop
      vertex -3.402113e+000  4.381966e+000  0.000000e+000
      vertex -3.500000e+000  5.000000e+000 -1.000000e+001
      vertex -3.500000e+000  5.000000e+000  0.000000e+000
    endloop
  endfacet
  facet normal  6.093622e-001  7.928916e-001  8.056536e-004
    outer loop
      vertex -2.558199e+000  3.302880e+000 -1.094180e+001
      vertex -2.865763e+000  3.538940e+000 -1.063424e+001
      vertex -2.675570e+000  3.381966e+000  0.000000e+000
    endloop
  endfacet
  facet normal  7.530496e-001  6.579531e-001 -3.756040e-003
    outer loop
      vertex -2.675570e+000  3.381966e+000  0.000000e+000
      vertex -2.865763e+000  3.538940e+000 -1.063424e+001
      vertex -3.136788e+000  3.850685e+000 -1.036321e+001
    endloop
  endfacet
  facet normal  7.071066e-001  7.071066e-001  5.118360e-004
    outer loop
      vertex -2.675570e+000  3.381966e+000  0.000000e+000
      vertex -3.136788e+000  3.850685e+000 -1.036321e+001
      vertex -3.118034e+000  3.824430e+000  0.000000e+000
    endloop
  endfacet
  facet normal  8.798281e-001  4.752919e-001 -3.880398e-004
    outer loop
      vertex -3.118034e+000  3.824430e+000  0.000000e+000
      vertex -3.136788e+000  3.850685e+000 -1.036321e+001
      vertex -3.358777e+000  4.261797e+000 -1.014122e+001
    endloop
  endfacet
  facet normal  8.910055e-001  4.539900e-001 -1.572083e-003
    outer loop
      vertex -3.118034e+000  3.824430e+000  0.000000e+000
      vertex -3.358777e+000  4.261797e+000 -1.014122e+001
      vertex -3.402113e+000  4.381966e+000  0.000000e+000
    endloop
  endfacet
  facet normal  7.862158e-002  9.969045e-001  0.000000e+000
    outer loop
      vertex -1.500000e+000  3.000000e+000 -1.200000e+001
      vertex -1.813513e+000  3.024725e+000 -1.168649e+001
      vertex -1.500000e+000  3.000000e+000  0.000000e+000
    endloop
  endfacet
  facet normal  2.485527e-001  9.686074e-001 -4.618608e-003
    outer loop
      vertex -1.500000e+000  3.000000e+000  0.000000e+000
      vertex -1.813513e+000  3.024725e+000 -1.168649e+001
      vertex -2.193129e+000  3.123948e+000 -1.130687e+001
    endloop
  endfacet
  facet normal  1.564345e-001  9.876875e-001  1.237544e-003
    outer loop
      vertex -1.500000e+000  3.000000e+000  0.000000e+000
      vertex -2.193129e+000  3.123948e+000 -1.130687e+001
      vertex -2.118034e+000  3.097887e+000  0.000000e+000
    endloop
  endfacet
  facet normal  4.394261e-001  8.982783e-001 -8.480324e-004
    outer loop
      vertex -2.118034e+000  3.097887e+000  0.000000e+000
      vertex -2.193129e+000  3.123948e+000 -1.130687e+001
      vertex -2.558199e+000  3.302880e+000 -1.094180e+001
    endloop
  endfacet
  facet normal  4.539900e-001  8.910055e-001 -1.570161e-003
    outer loop
      vertex -2.118034e+000  3.097887e+000  0.000000e+000
      vertex -2.558199e+000  3.302880e+000 -1.094180e+001
      vertex -2.675570e+000  3.381966e+000  0.000000e+000
    endloop
  endfacet
  facet normal  0.000000e+000  1.000000e+000  2.153160e-015
    outer loop
      vertex -7.500000e+000  0.000000e+000 -1.900000e+001
      vertex -7.500000e+000 -7.105427e-015 -1.570000e+001
      vertex  1.250000e+001  0.000000e+000 -1.900000e+001
    endloop
  endfacet
  facet normal -3.748005e-016  1.000000e+000 -1.183581e-016
    outer loop
      vertex  1.250000e+001  0.000000e+000 -1.900000e+001
      vertex -7.500000e+000 -7.105427e-015 -1.570000e+001
      vertex  1.145789e+001  0.000000e+000 -1.570000e+001
    endloop
  endfacet
  facet normal  -0.000000e+000  0.000000e+000 -1.000000e+000
    outer loop
      vertex  1.071566e-016  1.750000e+000  0.000000e+000
      vertex  1.010334e-016  1.650000e+000  0.000000e+000
      vertex -6.696960e-001  1.616789e+000  0.000000e+000
    endloop
  endfacet
  facet normal  0.000000e+000  -0.000000e+000 -1.000000e+000
    outer loop
      vertex -3.214698e-016 -1.750000e+000  0.000000e+000
      vertex -3.031001e-016 -1.650000e+000  0.000000e+000
      vertex  6.696960e-001 -1.616789e+000  0.000000e+000
    endloop
  endfacet
  facet normal  0.000000e+000  0.000000e+000 -1.000000e+000
    outer loop
      vertex  1.010334e-016  1.650000e+000  0.000000e+000
      vertex -6.314276e-001  1.524401e+000  0.000000e+000
      vertex -6.696960e-001  1.616789e+000  0.000000e+000
    endloop
  endfacet
  facet normal  0.000000e+000  -0.000000e+000 -1.000000e+000
    outer loop
      vertex -6.696960e-001  1.616789e+000  0.000000e+000
      vertex -6.314276e-001  1.524401e+000  0.000000e+000
      vertex -1.166726e+000  1.166726e+000  0.000000e+000
    endloop
  endfacet
  facet normal  0.000000e+000  0.000000e+000 -1.000000e+000
    outer loop
      vertex -6.696960e-001  1.616789e+000  0.000000e+000
      vertex -1.166726e+000  1.166726e+000  0.000000e+000
      vertex -1.237437e+000  1.237437e+000  0.000000e+000
    endloop
  endfacet
  facet normal  0.000000e+000  -0.000000e+000 -1.000000e+000
    outer loop
      vertex -1.237437e+000  1.237437e+000  0.000000e+000
      vertex -1.166726e+000  1.166726e+000  0.000000e+000
      vertex -1.524401e+000  6.314276e-001  0.000000e+000
    endloop
  endfacet
  facet normal  0.000000e+000  0.000000e+000 -1.000000e+000
    outer loop
      vertex -1.237437e+000  1.237437e+000  0.000000e+000
      vertex -1.524401e+000  6.314276e-001  0.000000e+000
      vertex -1.616789e+000  6.696960e-001  0.000000e+000
    endloop
  endfacet
  facet normal  0.000000e+000  -0.000000e+000 -1.000000e+000
    outer loop
      vertex -1.616789e+000  6.696960e-001  0.000000e+000
      vertex -1.524401e+000  6.314276e-001  0.000000e+000
      vertex -1.650000e+000  2.020667e-016  0.000000e+000
    endloop
  endfacet
  facet normal  0.000000e+000  0.000000e+000 -1.000000e+000
    outer loop
      vertex -1.616789e+000  6.696960e-001  0.000000e+000
      vertex -1.650000e+000  2.020667e-016  0.000000e+000
      vertex -1.750000e+000  2.143132e-016  0.000000e+000
    endloop
  endfacet
  facet normal  0.000000e+000  0.000000e+000 -1.000000e+000
    outer loop
      vertex -1.750000e+000  2.143132e-016  0.000000e+000
      vertex -1.650000e+000  2.020667e-016  0.000000e+000
      vertex -1.524401e+000 -6.314276e-001  0.000000e+000
    endloop
  endfacet
  facet normal  -0.000000e+000  0.000000e+000 -1.000000e+000
    outer loop
      vertex -1.750000e+000  2.143132e-016  0.000000e+000
      vertex -1.524401e+000 -6.314276e-001  0.000000e+000
      vertex -1.616789e+000 -6.696960e-001  0.000000e+000
    endloop
  endfacet
  facet normal  0.000000e+000  0.000000e+000 -1.000000e+000
    outer loop
      vertex -1.616789e+000 -6.696960e-001  0.000000e+000
      vertex -1.524401e+000 -6.314276e-001  0.000000e+000
      vertex -1.166726e+000 -1.166726e+000  0.000000e+000
    endloop
  endfacet
  facet normal  -0.000000e+000  0.000000e+000 -1.000000e+000
    outer loop
      vertex -1.616789e+000 -6.696960e-001  0.000000e+000
      vertex -1.166726e+000 -1.166726e+000  0.000000e+000
      vertex -1.237437e+000 -1.237437e+000  0.000000e+000
    endloop
  endfacet
  facet normal  0.000000e+000  0.000000e+000 -1.000000e+000
    outer loop
      vertex -1.237437e+000 -1.237437e+000  0.000000e+000
      vertex -1.166726e+000 -1.166726e+000  0.000000e+000
      vertex -6.314276e-001 -1.524401e+000  0.000000e+000
    endloop
  endfacet
  facet normal  -0.000000e+000  0.000000e+000 -1.000000e+000
    outer loop
      vertex -1.237437e+000 -1.237437e+000  0.000000e+000
      vertex -6.314276e-001 -1.524401e+000  0.000000e+000
      vertex -6.696960e-001 -1.616789e+000  0.000000e+000
    endloop
  endfacet
  facet normal  0.000000e+000  0.000000e+000 -1.000000e+000
    outer loop
      vertex -6.696960e-001 -1.616789e+000  0.000000e+000
      vertex -6.314276e-001 -1.524401e+000  0.000000e+000
      vertex -3.031001e-016 -1.650000e+000  0.000000e+000
    endloop
  endfacet
  facet normal  -0.000000e+000  0.000000e+000 -1.000000e+000
    outer loop
      vertex -6.696960e-001 -1.616789e+000  0.000000e+000
      vertex -3.031001e-016 -1.650000e+000  0.000000e+000
      vertex -3.214698e-016 -1.750000e+000  0.000000e+000
    endloop
  endfacet
  facet normal  0.000000e+000  -0.000000e+000 -1.000000e+000
    outer loop
      vertex -3.031001e-016 -1.650000e+000  0.000000e+000
      vertex  6.314276e-001 -1.524401e+000  0.000000e+000
      vertex  6.696960e-001 -1.616789e+000  0.000000e+000
    endloop
  endfacet
  facet normal  0.000000e+000  0.000000e+000 -1.000000e+000
    outer loop
      vertex  6.696960e-001 -1.616789e+000  0.000000e+000
      vertex  6.314276e-001 -1.524401e+000  0.000000e+000
      vertex  1.166726e+000 -1.166726e+000  0.000000e+000
    endloop
  endfacet
  facet normal  0.000000e+000  -0.000000e+000 -1.000000e+000
    outer loop
      vertex  6.696960e-001 -1.616789e+000  0.000000e+000
      vertex  1.166726e+000 -1.166726e+000  0.000000e+000
      vertex  1.237437e+000 -1.237437e+000  0.000000e+000
    endloop
  endfacet
  facet normal  0.000000e+000  0.000000e+000 -1.000000e+000
    outer loop
      vertex  1.237437e+000 -1.237437e+000  0.000000e+000
      vertex  1.166726e+000 -1.166726e+000  0.000000e+000
      vertex  1.524401e+000 -6.314276e-001  0.000000e+000
    endloop
  endfacet
  facet normal  0.000000e+000  -0.000000e+000 -1.000000e+000
    outer loop
      vertex  1.237437e+000 -1.237437e+000  0.000000e+000
      vertex  1.524401e+000 -6.314276e-001  0.000000e+000
      vertex  1.616789e+000 -6.696960e-001  0.000000e+000
    endloop
  endfacet
  facet normal  0.000000e+000  0.000000e+000 -1.000000e+000
    outer loop
      vertex  1.616789e+000 -6.696960e-001  0.000000e+000
      vertex  1.524401e+000 -6.314276e-001  0.000000e+000
      vertex  1.650000e+000  0.000000e+000  0.000000e+000
    endloop
  endfacet
  facet normal  0.000000e+000  -0.000000e+000 -1.000000e+000
    outer loop
      vertex  1.616789e+000 -6.696960e-001  0.000000e+000
      vertex  1.650000e+000  0.000000e+000  0.000000e+000
      vertex  1.750000e+000  0.000000e+000  0.000000e+000
    endloop
  endfacet
  facet normal  0.000000e+000  0.000000e+000 -1.000000e+000
    outer loop
      vertex  1.750000e+000  0.000000e+000  0.000000e+000
      vertex  1.650000e+000  0.000000e+000  0.000000e+000
      vertex  1.524401e+000  6.314276e-001  0.000000e+000
    endloop
  endfacet
  facet normal  0.000000e+000  0.000000e+000 -1.000000e+000
    outer loop
      vertex  1.750000e+000  0.000000e+000  0.000000e+000
      vertex  1.524401e+000  6.314276e-001  0.000000e+000
      vertex  1.616789e+000  6.696960e-001  0.000000e+000
    endloop
  endfacet
  facet normal  -0.000000e+000  0.000000e+000 -1.000000e+000
    outer loop
      vertex  1.616789e+000  6.696960e-001  0.000000e+000
      vertex  1.524401e+000  6.314276e-001  0.000000e+000
      vertex  1.166726e+000  1.166726e+000  0.000000e+000
    endloop
  endfacet
  facet normal  0.000000e+000  0.000000e+000 -1.000000e+000
    outer loop
      vertex  1.616789e+000  6.696960e-001  0.000000e+000
      vertex  1.166726e+000  1.166726e+000  0.000000e+000
      vertex  1.237437e+000  1.237437e+000  0.000000e+000
    endloop
  endfacet
  facet normal  -0.000000e+000  0.000000e+000 -1.000000e+000
    outer loop
      vertex  1.237437e+000  1.237437e+000  0.000000e+000
      vertex  1.166726e+000  1.166726e+000  0.000000e+000
      vertex  6.314276e-001  1.524401e+000  0.000000e+000
    endloop
  endfacet
  facet normal  0.000000e+000  0.000000e+000 -1.000000e+000
    outer loop
      vertex  1.237437e+000  1.237437e+000  0.000000e+000
      vertex  6.314276e-001  1.524401e+000  0.000000e+000
      vertex  6.696960e-001  1.616789e+000  0.000000e+000
    endloop
  endfacet
  facet normal  -0.000000e+000  0.000000e+000 -1.000000e+000
    outer loop
      vertex  6.696960e-001  1.616789e+000  0.000000e+000
      vertex  6.314276e-001  1.524401e+000  0.000000e+000
      vertex  1.010334e-016  1.650000e+000  0.000000e+000
    endloop
  endfacet
  facet normal  0.000000e+000  0.000000e+000 -1.000000e+000
    outer loop
      vertex  6.696960e-001  1.616789e+000  0.000000e+000
      vertex  1.010334e-016  1.650000e+000  0.000000e+000
      vertex  1.071566e-016  1.750000e+000  0.000000e+000
    endloop
  endfacet
  facet normal  1.950904e-001 -9.807853e-001  0.000000e+000
    outer loop
      vertex  1.010334e-016  1.650000e+000  0.000000e+000
      vertex -6.314276e-001  1.524401e+000  4.000000e+000
      vertex -6.314276e-001  1.524401e+000  0.000000e+000
    endloop
  endfacet
  facet normal  5.555701e-001 -8.314697e-001  0.000000e+000
    outer loop
      vertex -6.314276e-001  1.524401e+000  0.000000e+000
      vertex -6.314276e-001  1.524401e+000  4.000000e+000
      vertex -1.166726e+000  1.166726e+000  4.000000e+000
    endloop
  endfacet
  facet normal  5.555701e-001 -8.314697e-001  0.000000e+000
    outer loop
      vertex -6.314276e-001  1.524401e+000  0.000000e+000
      vertex -1.166726e+000  1.166726e+000  4.000000e+000
      vertex -1.166726e+000  1.166726e+000  0.000000e+000
    endloop
  endfacet
  facet normal  8.314697e-001 -5.555701e-001  0.000000e+000
    outer loop
      vertex -1.166726e+000  1.166726e+000  0.000000e+000
      vertex -1.166726e+000  1.166726e+000  4.000000e+000
      vertex -1.524401e+000  6.314276e-001  4.000000e+000
    endloop
  endfacet
  facet normal  8.314697e-001 -5.555701e-001  0.000000e+000
    outer loop
      vertex -1.166726e+000  1.166726e+000  0.000000e+000
      vertex -1.524401e+000  6.314276e-001  4.000000e+000
      vertex -1.524401e+000  6.314276e-001  0.000000e+000
    endloop
  endfacet
  facet normal  9.807853e-001 -1.950904e-001  0.000000e+000
    outer loop
      vertex -1.524401e+000  6.314276e-001  0.000000e+000
      vertex -1.524401e+000  6.314276e-001  4.000000e+000
      vertex -1.650000e+000  2.020667e-016  4.000000e+000
    endloop
  endfacet
  facet normal  9.807853e-001 -1.950904e-001  0.000000e+000
    outer loop
      vertex -1.524401e+000  6.314276e-001  0.000000e+000
      vertex -1.650000e+000  2.020667e-016  4.000000e+000
      vertex -1.650000e+000  2.020667e-016  0.000000e+000
    endloop
  endfacet
  facet normal  1.950904e-001 -9.807853e-001  0.000000e+000
    outer loop
      vertex -6.314276e-001  1.524401e+000  4.000000e+000
      vertex  1.010334e-016  1.650000e+000  0.000000e+000
      vertex  1.010334e-016  1.650000e+000  4.000000e+000
    endloop
  endfacet
  facet normal -1.950904e-001 -9.807853e-001  -0.000000e+000
    outer loop
      vertex  1.010334e-016  1.650000e+000  4.000000e+000
      vertex  1.010334e-016  1.650000e+000  0.000000e+000
      vertex  6.314276e-001  1.524401e+000  0.000000e+000
    endloop
  endfacet
  facet normal -1.950904e-001 -9.807853e-001  0.000000e+000
    outer loop
      vertex  1.010334e-016  1.650000e+000  4.000000e+000
      vertex  6.314276e-001  1.524401e+000  0.000000e+000
      vertex  6.314276e-001  1.524401e+000  4.000000e+000
    endloop
  endfacet
  facet normal -5.555701e-001 -8.314697e-001  -0.000000e+000
    outer loop
      vertex  6.314276e-001  1.524401e+000  4.000000e+000
      vertex  6.314276e-001  1.524401e+000  0.000000e+000
      vertex  1.166726e+000  1.166726e+000  0.000000e+000
    endloop
  endfacet
  facet normal -5.555701e-001 -8.314697e-001  0.000000e+000
    outer loop
      vertex  6.314276e-001  1.524401e+000  4.000000e+000
      vertex  1.166726e+000  1.166726e+000  0.000000e+000
      vertex  1.166726e+000  1.166726e+000  4.000000e+000
    endloop
  endfacet
  facet normal -8.314697e-001 -5.555701e-001  -0.000000e+000
    outer loop
      vertex  1.166726e+000  1.166726e+000  4.000000e+000
      vertex  1.166726e+000  1.166726e+000  0.000000e+000
      vertex  1.524401e+000  6.314276e-001  0.000000e+000
    endloop
  endfacet
  facet normal -8.314697e-001 -5.555701e-001  0.000000e+000
    outer loop
      vertex  1.166726e+000  1.166726e+000  4.000000e+000
      vertex  1.524401e+000  6.314276e-001  0.000000e+000
      vertex  1.524401e+000  6.314276e-001  4.000000e+000
    endloop
  endfacet
  facet normal -9.807853e-001 -1.950904e-001  -0.000000e+000
    outer loop
      vertex  1.524401e+000  6.314276e-001  4.000000e+000
      vertex  1.524401e+000  6.314276e-001  0.000000e+000
      vertex  1.650000e+000  0.000000e+000  0.000000e+000
    endloop
  endfacet
  facet normal -9.807853e-001 -1.950904e-001  0.000000e+000
    outer loop
      vertex  1.524401e+000  6.314276e-001  4.000000e+000
      vertex  1.650000e+000  0.000000e+000  0.000000e+000
      vertex  1.650000e+000  0.000000e+000  4.000000e+000
    endloop
  endfacet
  facet normal -1.950904e-001  9.807853e-001  0.000000e+000
    outer loop
      vertex -3.031001e-016 -1.650000e+000  0.000000e+000
      vertex  6.314276e-001 -1.524401e+000  4.000000e+000
      vertex  6.314276e-001 -1.524401e+000  0.000000e+000
    endloop
  endfacet
  facet normal -5.555701e-001  8.314697e-001  0.000000e+000
    outer loop
      vertex  6.314276e-001 -1.524401e+000  0.000000e+000
      vertex  6.314276e-001 -1.524401e+000  4.000000e+000
      vertex  1.166726e+000 -1.166726e+000  4.000000e+000
    endloop
  endfacet
  facet normal -5.555701e-001  8.314697e-001  0.000000e+000
    outer loop
      vertex  6.314276e-001 -1.524401e+000  0.000000e+000
      vertex  1.166726e+000 -1.166726e+000  4.000000e+000
      vertex  1.166726e+000 -1.166726e+000  0.000000e+000
    endloop
  endfacet
  facet normal -8.314697e-001  5.555701e-001  0.000000e+000
    outer loop
      vertex  1.166726e+000 -1.166726e+000  0.000000e+000
      vertex  1.166726e+000 -1.166726e+000  4.000000e+000
      vertex  1.524401e+000 -6.314276e-001  4.000000e+000
    endloop
  endfacet
  facet normal -8.314697e-001  5.555701e-001  0.000000e+000
    outer loop
      vertex  1.166726e+000 -1.166726e+000  0.000000e+000
      vertex  1.524401e+000 -6.314276e-001  4.000000e+000
      vertex  1.524401e+000 -6.314276e-001  0.000000e+000
    endloop
  endfacet
  facet normal -9.807853e-001  1.950904e-001  0.000000e+000
    outer loop
      vertex  1.524401e+000 -6.314276e-001  0.000000e+000
      vertex  1.524401e+000 -6.314276e-001  4.000000e+000
      vertex  1.650000e+000  0.000000e+000  4.000000e+000
    endloop
  endfacet
  facet normal -9.807853e-001  1.950904e-001  0.000000e+000
    outer loop
      vertex  1.524401e+000 -6.314276e-001  0.000000e+000
      vertex  1.650000e+000  0.000000e+000  4.000000e+000
      vertex  1.650000e+000  0.000000e+000  0.000000e+000
    endloop
  endfacet
  facet normal -1.950904e-001  9.807853e-001  0.000000e+000
    outer loop
      vertex  6.314276e-001 -1.524401e+000  4.000000e+000
      vertex -3.031001e-016 -1.650000e+000  0.000000e+000
      vertex -3.031001e-016 -1.650000e+000  4.000000e+000
    endloop
  endfacet
  facet normal  1.950904e-001  9.807853e-001  0.000000e+000
    outer loop
      vertex -3.031001e-016 -1.650000e+000  4.000000e+000
      vertex -3.031001e-016 -1.650000e+000  0.000000e+000
      vertex -6.314276e-001 -1.524401e+000  0.000000e+000
    endloop
  endfacet
  facet normal  1.950904e-001  9.807853e-001  -0.000000e+000
    outer loop
      vertex -3.031001e-016 -1.650000e+000  4.000000e+000
      vertex -6.314276e-001 -1.524401e+000  0.000000e+000
      vertex -6.314276e-001 -1.524401e+000  4.000000e+000
    endloop
  endfacet
  facet normal  5.555701e-001  8.314697e-001  0.000000e+000
    outer loop
      vertex -6.314276e-001 -1.524401e+000  4.000000e+000
      vertex -6.314276e-001 -1.524401e+000  0.000000e+000
      vertex -1.166726e+000 -1.166726e+000  0.000000e+000
    endloop
  endfacet
  facet normal  5.555701e-001  8.314697e-001  -0.000000e+000
    outer loop
      vertex -6.314276e-001 -1.524401e+000  4.000000e+000
      vertex -1.166726e+000 -1.166726e+000  0.000000e+000
      vertex -1.166726e+000 -1.166726e+000  4.000000e+000
    endloop
  endfacet
  facet normal  8.314697e-001  5.555701e-001  0.000000e+000
    outer loop
      vertex -1.166726e+000 -1.166726e+000  4.000000e+000
      vertex -1.166726e+000 -1.166726e+000  0.000000e+000
      vertex -1.524401e+000 -6.314276e-001  0.000000e+000
    endloop
  endfacet
  facet normal  8.314697e-001  5.555701e-001  -0.000000e+000
    outer loop
      vertex -1.166726e+000 -1.166726e+000  4.000000e+000
      vertex -1.524401e+000 -6.314276e-001  0.000000e+000
      vertex -1.524401e+000 -6.314276e-001  4.000000e+000
    endloop
  endfacet
  facet normal  9.807853e-001  1.950904e-001  0.000000e+000
    outer loop
      vertex -1.524401e+000 -6.314276e-001  4.000000e+000
      vertex -1.524401e+000 -6.314276e-001  0.000000e+000
      vertex -1.650000e+000  2.020667e-016  0.000000e+000
    endloop
  endfacet
  facet normal  9.807853e-001  1.950904e-001  -0.000000e+000
    outer loop
      vertex -1.524401e+000 -6.314276e-001  4.000000e+000
      vertex -1.650000e+000  2.020667e-016  0.000000e+000
      vertex -1.650000e+000  2.020667e-016  4.000000e+000
    endloop
  endfacet
  facet normal  0.000000e+000  0.000000e+000  1.000000e+000
    outer loop
      vertex -6.696960e-001  1.616789e+000 -1.100000e+001
      vertex  6.696960e-001  1.616789e+000 -1.100000e+001
      vertex  1.071566e-016  1.750000e+000 -1.100000e+001
    endloop
  endfacet
  facet normal  -0.000000e+000  0.000000e+000  1.000000e+000
    outer loop
      vertex  6.696960e-001  1.616789e+000 -1.100000e+001
      vertex -6.696960e-001  1.616789e+000 -1.100000e+001
      vertex  1.237437e+000  1.237437e+000 -1.100000e+001
    endloop
  endfacet
  facet normal  0.000000e+000  0.000000e+000  1.000000e+000
    outer loop
      vertex  1.237437e+000  1.237437e+000 -1.100000e+001
      vertex -6.696960e-001  1.616789e+000 -1.100000e+001
      vertex -1.237437e+000  1.237437e+000 -1.100000e+001
    endloop
  endfacet
  facet normal  -0.000000e+000  0.000000e+000  1.000000e+000
    outer loop
      vertex  1.237437e+000  1.237437e+000 -1.100000e+001
      vertex -1.237437e+000  1.237437e+000 -1.100000e+001
      vertex  1.616789e+000  6.696960e-001 -1.100000e+001
    endloop
  endfacet
  facet normal  0.000000e+000  0.000000e+000  9.999999e-001
    outer loop
      vertex  1.616789e+000  6.696960e-001 -1.100000e+001
      vertex -1.237437e+000  1.237437e+000 -1.100000e+001
      vertex -1.616789e+000  6.696960e-001 -1.100000e+001
    endloop
  endfacet
  facet normal  -0.000000e+000  0.000000e+000  1.000000e+000
    outer loop
      vertex  1.616789e+000  6.696960e-001 -1.100000e+001
      vertex -1.616789e+000  6.696960e-001 -1.100000e+001
      vertex  1.750000e+000  0.000000e+000 -1.100000e+001
    endloop
  endfacet
  facet normal  0.000000e+000  0.000000e+000  1.000000e+000
    outer loop
      vertex  1.750000e+000  0.000000e+000 -1.100000e+001
      vertex -1.616789e+000  6.696960e-001 -1.100000e+001
      vertex -1.750000e+000  2.143132e-016 -1.100000e+001
    endloop
  endfacet
  facet normal  0.000000e+000  0.000000e+000  1.000000e+000
    outer loop
      vertex  1.750000e+000  0.000000e+000 -1.100000e+001
      vertex -1.750000e+000  2.143132e-016 -1.100000e+001
      vertex  1.616789e+000 -6.696960e-001 -1.100000e+001
    endloop
  endfacet
  facet normal  0.000000e+000  0.000000e+000  1.000000e+000
    outer loop
      vertex  1.616789e+000 -6.696960e-001 -1.100000e+001
      vertex -1.750000e+000  2.143132e-016 -1.100000e+001
      vertex -1.616789e+000 -6.696960e-001 -1.100000e+001
    endloop
  endfacet
  facet normal  -0.000000e+000  0.000000e+000  9.999999e-001
    outer loop
      vertex  1.616789e+000 -6.696960e-001 -1.100000e+001
      vertex -1.616789e+000 -6.696960e-001 -1.100000e+001
      vertex  1.237437e+000 -1.237437e+000 -1.100000e+001
    endloop
  endfacet
  facet normal  0.000000e+000  0.000000e+000  1.000000e+000
    outer loop
      vertex  1.237437e+000 -1.237437e+000 -1.100000e+001
      vertex -1.616789e+000 -6.696960e-001 -1.100000e+001
      vertex -1.237437e+000 -1.237437e+000 -1.100000e+001
    endloop
  endfacet
  facet normal  -0.000000e+000  0.000000e+000  1.000000e+000
    outer loop
      vertex  1.237437e+000 -1.237437e+000 -1.100000e+001
      vertex -1.237437e+000 -1.237437e+000 -1.100000e+001
      vertex  6.696960e-001 -1.616789e+000 -1.100000e+001
    endloop
  endfacet
  facet normal  0.000000e+000  0.000000e+000  1.000000e+000
    outer loop
      vertex  6.696960e-001 -1.616789e+000 -1.100000e+001
      vertex -1.237437e+000 -1.237437e+000 -1.100000e+001
      vertex -6.696960e-001 -1.616789e+000 -1.100000e+001
    endloop
  endfacet
  facet normal  -0.000000e+000  0.000000e+000  1.000000e+000
    outer loop
      vertex  6.696960e-001 -1.616789e+000 -1.100000e+001
      vertex -6.696960e-001 -1.616789e+000 -1.100000e+001
      vertex -3.214698e-016 -1.750000e+000 -1.100000e+001
    endloop
  endfacet
  facet normal -1.950903e-001  9.807853e-001  0.000000e+000
    outer loop
      vertex -3.214698e-016 -1.750000e+000 -1.100000e+001
      vertex  6.696960e-001 -1.616789e+000  0.000000e+000
      vertex  6.696960e-001 -1.616789e+000 -1.100000e+001
    endloop
  endfacet
  facet normal -5.555702e-001  8.314696e-001  0.000000e+000
    outer loop
      vertex  6.696960e-001 -1.616789e+000 -1.100000e+001
      vertex  6.696960e-001 -1.616789e+000  0.000000e+000
      vertex  1.237437e+000 -1.237437e+000  0.000000e+000
    endloop
  endfacet
  facet normal -5.555702e-001  8.314696e-001  0.000000e+000
    outer loop
      vertex  6.696960e-001 -1.616789e+000 -1.100000e+001
      vertex  1.237437e+000 -1.237437e+000  0.000000e+000
      vertex  1.237437e+000 -1.237437e+000 -1.100000e+001
    endloop
  endfacet
  facet normal -8.314696e-001  5.555702e-001  0.000000e+000
    outer loop
      vertex  1.237437e+000 -1.237437e+000 -1.100000e+001
      vertex  1.237437e+000 -1.237437e+000  0.000000e+000
      vertex  1.616789e+000 -6.696960e-001  0.000000e+000
    endloop
  endfacet
  facet normal -8.314696e-001  5.555702e-001  0.000000e+000
    outer loop
      vertex  1.237437e+000 -1.237437e+000 -1.100000e+001
      vertex  1.616789e+000 -6.696960e-001  0.000000e+000
      vertex  1.616789e+000 -6.696960e-001 -1.100000e+001
    endloop
  endfacet
  facet normal -9.807853e-001  1.950903e-001  0.000000e+000
    outer loop
      vertex  1.616789e+000 -6.696960e-001 -1.100000e+001
      vertex  1.616789e+000 -6.696960e-001  0.000000e+000
      vertex  1.750000e+000  0.000000e+000  0.000000e+000
    endloop
  endfacet
  facet normal -9.807853e-001  1.950903e-001  0.000000e+000
    outer loop
      vertex  1.616789e+000 -6.696960e-001 -1.100000e+001
      vertex  1.750000e+000  0.000000e+000  0.000000e+000
      vertex  1.750000e+000  0.000000e+000 -1.100000e+001
    endloop
  endfacet
  facet normal -1.950903e-001  9.807853e-001  0.000000e+000
    outer loop
      vertex  6.696960e-001 -1.616789e+000  0.000000e+000
      vertex -3.214698e-016 -1.750000e+000 -1.100000e+001
      vertex -3.214698e-016 -1.750000e+000  0.000000e+000
    endloop
  endfacet
  facet normal  1.950903e-001  9.807853e-001  0.000000e+000
    outer loop
      vertex -3.214698e-016 -1.750000e+000  0.000000e+000
      vertex -3.214698e-016 -1.750000e+000 -1.100000e+001
      vertex -6.696960e-001 -1.616789e+000 -1.100000e+001
    endloop
  endfacet
  facet normal  1.950903e-001  9.807853e-001  -0.000000e+000
    outer loop
      vertex -3.214698e-016 -1.750000e+000  0.000000e+000
      vertex -6.696960e-001 -1.616789e+000 -1.100000e+001
      vertex -6.696960e-001 -1.616789e+000  0.000000e+000
    endloop
  endfacet
  facet normal  5.555702e-001  8.314696e-001  0.000000e+000
    outer loop
      vertex -6.696960e-001 -1.616789e+000  0.000000e+000
      vertex -6.696960e-001 -1.616789e+000 -1.100000e+001
      vertex -1.237437e+000 -1.237437e+000 -1.100000e+001
    endloop
  endfacet
  facet normal  5.555702e-001  8.314696e-001  -0.000000e+000
    outer loop
      vertex -6.696960e-001 -1.616789e+000  0.000000e+000
      vertex -1.237437e+000 -1.237437e+000 -1.100000e+001
      vertex -1.237437e+000 -1.237437e+000  0.000000e+000
    endloop
  endfacet
  facet normal  8.314696e-001  5.555702e-001  0.000000e+000
    outer loop
      vertex -1.237437e+000 -1.237437e+000  0.000000e+000
      vertex -1.237437e+000 -1.237437e+000 -1.100000e+001
      vertex -1.616789e+000 -6.696960e-001 -1.100000e+001
    endloop
  endfacet
  facet normal  8.314696e-001  5.555702e-001  -0.000000e+000
    outer loop
      vertex -1.237437e+000 -1.237437e+000  0.000000e+000
      vertex -1.616789e+000 -6.696960e-001 -1.100000e+001
      vertex -1.616789e+000 -6.696960e-001  0.000000e+000
    endloop
  endfacet
  facet normal  9.807853e-001  1.950903e-001  0.000000e+000
    outer loop
      vertex -1.616789e+000 -6.696960e-001  0.000000e+000
      vertex -1.616789e+000 -6.696960e-001 -1.100000e+001
      vertex -1.750000e+000  2.143132e-016 -1.100000e+001
    endloop
  endfacet
  facet normal  9.807853e-001  1.950903e-001  -0.000000e+000
    outer loop
      vertex -1.616789e+000 -6.696960e-001  0.000000e+000
      vertex -1.750000e+000  2.143132e-016 -1.100000e+001
      vertex -1.750000e+000  2.143132e-016  0.000000e+000
    endloop
  endfacet
  facet normal  1.950903e-001 -9.807853e-001  0.000000e+000
    outer loop
      vertex  1.071566e-016  1.750000e+000 -1.100000e+001
      vertex -6.696960e-001  1.616789e+000  0.000000e+000
      vertex -6.696960e-001  1.616789e+000 -1.100000e+001
    endloop
  endfacet
  facet normal  5.555702e-001 -8.314696e-001  0.000000e+000
    outer loop
      vertex -6.696960e-001  1.616789e+000 -1.100000e+001
      vertex -6.696960e-001  1.616789e+000  0.000000e+000
      vertex -1.237437e+000  1.237437e+000  0.000000e+000
    endloop
  endfacet
  facet normal  5.555702e-001 -8.314696e-001  0.000000e+000
    outer loop
      vertex -6.696960e-001  1.616789e+000 -1.100000e+001
      vertex -1.237437e+000  1.237437e+000  0.000000e+000
      vertex -1.237437e+000  1.237437e+000 -1.100000e+001
    endloop
  endfacet
  facet normal  8.314696e-001 -5.555702e-001  0.000000e+000
    outer loop
      vertex -1.237437e+000  1.237437e+000 -1.100000e+001
      vertex -1.237437e+000  1.237437e+000  0.000000e+000
      vertex -1.616789e+000  6.696960e-001  0.000000e+000
    endloop
  endfacet
  facet normal  8.314696e-001 -5.555702e-001  0.000000e+000
    outer loop
      vertex -1.237437e+000  1.237437e+000 -1.100000e+001
      vertex -1.616789e+000  6.696960e-001  0.000000e+000
      vertex -1.616789e+000  6.696960e-001 -1.100000e+001
    endloop
  endfacet
  facet normal  9.807853e-001 -1.950903e-001  0.000000e+000
    outer loop
      vertex -1.616789e+000  6.696960e-001 -1.100000e+001
      vertex -1.616789e+000  6.696960e-001  0.000000e+000
      vertex -1.750000e+000  2.143132e-016  0.000000e+000
    endloop
  endfacet
  facet normal  9.807853e-001 -1.950903e-001  0.000000e+000
    outer loop
      vertex -1.616789e+000  6.696960e-001 -1.100000e+001
      vertex -1.750000e+000  2.143132e-016  0.000000e+000
      vertex -1.750000e+000  2.143132e-016 -1.100000e+001
    endloop
  endfacet
  facet normal  1.950903e-001 -9.807853e-001  0.000000e+000
    outer loop
      vertex -6.696960e-001  1.616789e+000  0.000000e+000
      vertex  1.071566e-016  1.750000e+000 -1.100000e+001
      vertex  1.071566e-016  1.750000e+000  0.000000e+000
    endloop
  endfacet
  facet normal -1.950903e-001 -9.807853e-001  -0.000000e+000
    outer loop
      vertex  1.071566e-016  1.750000e+000  0.000000e+000
      vertex  1.071566e-016  1.750000e+000 -1.100000e+001
      vertex  6.696960e-001  1.616789e+000 -1.100000e+001
    endloop
  endfacet
  facet normal -1.950903e-001 -9.807853e-001  0.000000e+000
    outer loop
      vertex  1.071566e-016  1.750000e+000  0.000000e+000
      vertex  6.696960e-001  1.616789e+000 -1.100000e+001
      vertex  6.696960e-001  1.616789e+000  0.000000e+000
    endloop
  endfacet
  facet normal -5.555702e-001 -8.314696e-001  -0.000000e+000
    outer loop
      vertex  6.696960e-001  1.616789e+000  0.000000e+000
      vertex  6.696960e-001  1.616789e+000 -1.100000e+001
      vertex  1.237437e+000  1.237437e+000 -1.100000e+001
    endloop
  endfacet
  facet normal -5.555702e-001 -8.314696e-001  0.000000e+000
    outer loop
      vertex  6.696960e-001  1.616789e+000  0.000000e+000
      vertex  1.237437e+000  1.237437e+000 -1.100000e+001
      vertex  1.237437e+000  1.237437e+000  0.000000e+000
    endloop
  endfacet
  facet normal -8.314696e-001 -5.555702e-001  -0.000000e+000
    outer loop
      vertex  1.237437e+000  1.237437e+000  0.000000e+000
      vertex  1.237437e+000  1.237437e+000 -1.100000e+001
      vertex  1.616789e+000  6.696960e-001 -1.100000e+001
    endloop
  endfacet
  facet normal -8.314696e-001 -5.555702e-001  0.000000e+000
    outer loop
      vertex  1.237437e+000  1.237437e+000  0.000000e+000
      vertex  1.616789e+000  6.696960e-001 -1.100000e+001
      vertex  1.616789e+000  6.696960e-001  0.000000e+000
    endloop
  endfacet
  facet normal -9.807853e-001 -1.950903e-001  -0.000000e+000
    outer loop
      vertex  1.616789e+000  6.696960e-001  0.000000e+000
      vertex  1.616789e+000  6.696960e-001 -1.100000e+001
      vertex  1.750000e+000  0.000000e+000 -1.100000e+001
    endloop
  endfacet
  facet normal -9.807853e-001 -1.950903e-001  0.000000e+000
    outer loop
      vertex  1.616789e+000  6.696960e-001  0.000000e+000
      vertex  1.750000e+000  0.000000e+000 -1.100000e+001
      vertex  1.750000e+000  0.000000e+000  0.000000e+000
    endloop
  endfacet
  facet normal  -0.000000e+000  0.000000e+000  1.000000e+000
    outer loop
      vertex  6.500000e+000  3.000000e+000  0.000000e+000
      vertex  5.766281e+000  3.000000e+000  0.000000e+000
      vertex  6.170400e+000  2.043566e+000  0.000000e+000
    endloop
  endfacet
  facet normal  -0.000000e+000  0.000000e+000  1.000000e+000
    outer loop
      vertex  6.500000e+000  3.000000e+000  0.000000e+000
      vertex  6.170400e+000  2.043566e+000  0.000000e+000
      vertex  6.417071e+000  1.034988e+000  0.000000e+000
    endloop
  endfacet
  facet normal  -0.000000e+000  0.000000e+000  9.999999e-001
    outer loop
      vertex  6.500000e+000  3.000000e+000  0.000000e+000
      vertex  6.417071e+000  1.034988e+000  0.000000e+000
      vertex  6.500000e+000  4.181119e-015  0.000000e+000
    endloop
  endfacet
  facet normal  0.000000e+000  0.000000e+000  9.999999e-001
    outer loop
      vertex  6.500000e+000 -3.000000e+000  0.000000e+000
      vertex  6.500000e+000  4.181119e-015  0.000000e+000
      vertex  6.417071e+000 -1.034988e+000  0.000000e+000
    endloop
  endfacet
  facet normal  0.000000e+000  0.000000e+000  1.000000e+000
    outer loop
      vertex  6.500000e+000 -3.000000e+000  0.000000e+000
      vertex  6.417071e+000 -1.034988e+000  0.000000e+000
      vertex  6.170400e+000 -2.043566e+000  0.000000e+000
    endloop
  endfacet
  facet normal  0.000000e+000  0.000000e+000  1.000000e+000
    outer loop
      vertex  6.500000e+000 -3.000000e+000  0.000000e+000
      vertex  6.170400e+000 -2.043566e+000  0.000000e+000
      vertex  5.766281e+000 -3.000000e+000  0.000000e+000
    endloop
  endfacet
  facet normal  9.079708e-002  9.958694e-001  0.000000e+000
    outer loop
      vertex  1.990051e-015  6.500000e+000  0.000000e+000
      vertex  1.990051e-015  6.500000e+000  4.000000e+000
      vertex  1.175487e+000  6.392827e+000  0.000000e+000
    endloop
  endfacet
  facet normal  1.045277e-001  9.945136e-001  4.071362e-003
    outer loop
      vertex  1.175487e+000  6.392827e+000  0.000000e+000
      vertex  1.990051e-015  6.500000e+000  4.000000e+000
      vertex  1.351426e+000  6.357959e+000  4.000000e+000
    endloop
  endfacet
  facet normal  2.693954e-001  9.630235e-001 -3.454816e-003
    outer loop
      vertex  1.175487e+000  6.392827e+000  0.000000e+000
      vertex  1.351426e+000  6.357959e+000  4.000000e+000
      vertex  2.312210e+000  6.074841e+000  0.000000e+000
    endloop
  endfacet
  facet normal  3.090095e-001  9.510338e-001  6.908950e-003
    outer loop
      vertex  2.312210e+000  6.074841e+000  0.000000e+000
      vertex  1.351426e+000  6.357959e+000  4.000000e+000
      vertex  2.643788e+000  5.938046e+000  4.000000e+000
    endloop
  endfacet
  facet normal  4.391064e-001  8.984172e-001 -5.674800e-003
    outer loop
      vertex  2.312210e+000  6.074841e+000  0.000000e+000
      vertex  2.643788e+000  5.938046e+000  4.000000e+000
      vertex  3.372684e+000  5.556528e+000  0.000000e+000
    endloop
  endfacet
  facet normal  4.999820e-001  8.659940e-001  8.510724e-003
    outer loop
      vertex  3.372684e+000  5.556528e+000  0.000000e+000
      vertex  2.643788e+000  5.938046e+000  4.000000e+000
      vertex  3.820604e+000  5.258610e+000  4.000000e+000
    endloop
  endfacet
  facet normal  5.943360e-001  8.041893e-001 -6.658197e-003
    outer loop
      vertex  3.372684e+000  5.556528e+000  0.000000e+000
      vertex  3.820604e+000  5.258610e+000  4.000000e+000
      vertex  4.321940e+000  4.854980e+000  0.000000e+000
    endloop
  endfacet
  facet normal  6.691041e-001  7.431157e-001  8.875556e-003
    outer loop
      vertex  4.321940e+000  4.854980e+000  0.000000e+000
      vertex  3.820604e+000  5.258610e+000  4.000000e+000
      vertex  4.830441e+000  4.349349e+000  4.000000e+000
    endloop
  endfacet
  facet normal  7.299705e-001  6.834487e-001 -6.404495e-003
    outer loop
      vertex  4.321940e+000  4.854980e+000  0.000000e+000
      vertex  4.830441e+000  4.349349e+000  4.000000e+000
      vertex  5.128674e+000  3.993333e+000  0.000000e+000
    endloop
  endfacet
  facet normal  8.414591e-001  5.401217e-001  1.466455e-002
    outer loop
      vertex  5.128674e+000  3.993333e+000  0.000000e+000
      vertex  4.830441e+000  4.349349e+000  4.000000e+000
      vertex  5.766281e+000  3.000000e+000  0.000000e+000
    endloop
  endfacet
  facet normal  8.089843e-001  5.877614e-001 -9.003925e-003
    outer loop
      vertex  5.766281e+000  3.000000e+000  0.000000e+000
      vertex  4.830441e+000  4.349349e+000  4.000000e+000
      vertex  5.629165e+000  3.250000e+000  4.000000e+000
    endloop
  endfacet
  facet normal  9.211247e-001  3.892001e-001  7.250220e-003
    outer loop
      vertex  5.766281e+000  3.000000e+000  0.000000e+000
      vertex  5.629165e+000  3.250000e+000  4.000000e+000
      vertex  6.170400e+000  2.043566e+000  0.000000e+000
    endloop
  endfacet
  facet normal  9.135451e-001  4.067363e-001  9.355652e-004
    outer loop
      vertex  6.170400e+000  2.043566e+000  0.000000e+000
      vertex  5.629165e+000  3.250000e+000  4.000000e+000
      vertex  6.181867e+000  2.008610e+000  4.000000e+000
    endloop
  endfacet
  facet normal  9.713700e-001  2.375706e-001 -7.085425e-004
    outer loop
      vertex  6.170400e+000  2.043566e+000  0.000000e+000
      vertex  6.181867e+000  2.008610e+000  4.000000e+000
      vertex  6.417071e+000  1.034988e+000  0.000000e+000
    endloop
  endfacet
  facet normal  9.781243e-001  2.079068e-001  6.908934e-003
    outer loop
      vertex  6.417071e+000  1.034988e+000  0.000000e+000
      vertex  6.181867e+000  2.008610e+000  4.000000e+000
      vertex  6.464392e+000  6.794350e-001  4.000000e+000
    endloop
  endfacet
  facet normal  9.967943e-001  7.986885e-002 -4.693006e-003
    outer loop
      vertex  6.417071e+000  1.034988e+000  0.000000e+000
      vertex  6.464392e+000  6.794350e-001  4.000000e+000
      vertex  6.500000e+000  4.181119e-015  0.000000e+000
    endloop
  endfacet
  facet normal  9.999604e-001  0.000000e+000  8.901601e-003
    outer loop
      vertex  6.500000e+000  4.181119e-015  0.000000e+000
      vertex  6.464392e+000  6.794350e-001  4.000000e+000
      vertex  6.464392e+000 -6.794350e-001  4.000000e+000
    endloop
  endfacet
  facet normal  9.967943e-001 -7.986885e-002 -4.693006e-003
    outer loop
      vertex  6.500000e+000  4.181119e-015  0.000000e+000
      vertex  6.464392e+000 -6.794350e-001  4.000000e+000
      vertex  6.417071e+000 -1.034988e+000  0.000000e+000
    endloop
  endfacet
  facet normal  9.713253e-001 -2.375596e-001  9.625153e-003
    outer loop
      vertex  6.417071e+000 -1.034988e+000  0.000000e+000
      vertex  6.464392e+000 -6.794350e-001  4.000000e+000
      vertex  6.170400e+000 -2.043566e+000  0.000000e+000
    endloop
  endfacet
  facet normal  9.781471e-001 -2.079117e-001 -9.871594e-004
    outer loop
      vertex  6.170400e+000 -2.043566e+000  0.000000e+000
      vertex  6.464392e+000 -6.794350e-001  4.000000e+000
      vertex  6.181867e+000 -2.008610e+000  4.000000e+000
    endloop
  endfacet
  facet normal  9.211487e-001 -3.892102e-001  7.606074e-004
    outer loop
      vertex  6.170400e+000 -2.043566e+000  0.000000e+000
      vertex  6.181867e+000 -2.008610e+000  4.000000e+000
      vertex  5.766281e+000 -3.000000e+000  0.000000e+000
    endloop
  endfacet
  facet normal  9.135296e-001 -4.067294e-001  5.894285e-003
    outer loop
      vertex  5.766281e+000 -3.000000e+000  0.000000e+000
      vertex  6.181867e+000 -2.008610e+000  4.000000e+000
      vertex  5.629165e+000 -3.250000e+000  4.000000e+000
    endloop
  endfacet
  facet normal  8.415395e-001 -5.401732e-001 -4.913705e-003
    outer loop
      vertex  5.766281e+000 -3.000000e+000  0.000000e+000
      vertex  5.629165e+000 -3.250000e+000  4.000000e+000
      vertex  5.128674e+000 -3.993333e+000  0.000000e+000
    endloop
  endfacet
  facet normal  8.089911e-001 -5.877664e-001  8.003230e-003
    outer loop
      vertex  5.128674e+000 -3.993333e+000  0.000000e+000
      vertex  5.629165e+000 -3.250000e+000  4.000000e+000
      vertex  4.830441e+000 -4.349349e+000  4.000000e+000
    endloop
  endfacet
  facet normal  7.299705e-001 -6.834487e-001 -6.404495e-003
    outer loop
      vertex  5.128674e+000 -3.993333e+000  0.000000e+000
      vertex  4.830441e+000 -4.349349e+000  4.000000e+000
      vertex  4.321940e+000 -4.854980e+000  0.000000e+000
    endloop
  endfacet
  facet normal  6.691041e-001 -7.431157e-001  8.875556e-003
    outer loop
      vertex  4.321940e+000 -4.854980e+000  0.000000e+000
      vertex  4.830441e+000 -4.349349e+000  4.000000e+000
      vertex  3.820604e+000 -5.258610e+000  4.000000e+000
    endloop
  endfacet
  facet normal  5.943360e-001 -8.041893e-001 -6.658197e-003
    outer loop
      vertex  4.321940e+000 -4.854980e+000  0.000000e+000
      vertex  3.820604e+000 -5.258610e+000  4.000000e+000
      vertex  3.372684e+000 -5.556528e+000  0.000000e+000
    endloop
  endfacet
  facet normal  4.390443e-001 -8.982903e-001  1.773993e-002
    outer loop
      vertex  3.372684e+000 -5.556528e+000  0.000000e+000
      vertex  3.820604e+000 -5.258610e+000  4.000000e+000
      vertex  2.312210e+000 -6.074841e+000  0.000000e+000
    endloop
  endfacet
  facet normal  4.999651e-001 -8.659647e-001 -1.182950e-002
    outer loop
      vertex  2.312210e+000 -6.074841e+000  0.000000e+000
      vertex  3.820604e+000 -5.258610e+000  4.000000e+000
      vertex  2.643788e+000 -5.938046e+000  4.000000e+000
    endloop
  endfacet
  facet normal  2.693819e-001 -9.629750e-001  1.060224e-002
    outer loop
      vertex  2.312210e+000 -6.074841e+000  0.000000e+000
      vertex  2.643788e+000 -5.938046e+000  4.000000e+000
      vertex  1.175487e+000 -6.392827e+000  0.000000e+000
    endloop
  endfacet
  facet normal  3.090126e-001 -9.510432e-001 -5.301800e-003
    outer loop
      vertex  1.175487e+000 -6.392827e+000  0.000000e+000
      vertex  2.643788e+000 -5.938046e+000  4.000000e+000
      vertex  1.351426e+000 -6.357959e+000  4.000000e+000
    endloop
  endfacet
  facet normal  9.079608e-002 -9.958584e-001  4.687067e-003
    outer loop
      vertex  1.175487e+000 -6.392827e+000  0.000000e+000
      vertex  1.351426e+000 -6.357959e+000  4.000000e+000
      vertex  0.000000e+000 -6.500000e+000  0.000000e+000
    endloop
  endfacet
  facet normal  1.045286e-001 -9.945219e-001  0.000000e+000
    outer loop
      vertex  0.000000e+000 -6.500000e+000  0.000000e+000
      vertex  1.351426e+000 -6.357959e+000  4.000000e+000
      vertex  0.000000e+000 -6.500000e+000  4.000000e+000
    endloop
  endfacet
  facet normal  0.000000e+000  0.000000e+000  1.000000e+000
    outer loop
      vertex  6.464392e+000  6.794350e-001  4.000000e+000
      vertex  6.314276e-001  1.524401e+000  4.000000e+000
      vertex  1.166726e+000  1.166726e+000  4.000000e+000
    endloop
  endfacet
  facet normal  0.000000e+000  -0.000000e+000  9.999999e-001
    outer loop
      vertex  1.166726e+000  1.166726e+000  4.000000e+000
      vertex  1.524401e+000  6.314276e-001  4.000000e+000
      vertex  6.464392e+000  6.794350e-001  4.000000e+000
    endloop
  endfacet
  facet normal  0.000000e+000  0.000000e+000  1.000000e+000
    outer loop
      vertex  6.181867e+000 -2.008610e+000  4.000000e+000
      vertex  6.314276e-001 -1.524401e+000  4.000000e+000
      vertex -3.031001e-016 -1.650000e+000  4.000000e+000
    endloop
  endfacet
  facet normal  -0.000000e+000  0.000000e+000  1.000000e+000
    outer loop
      vertex  1.990051e-015  6.500000e+000  4.000000e+000
      vertex -7.500000e+000  6.500000e+000  4.000000e+000
      vertex -7.500000e+000 -6.500000e+000  4.000000e+000
    endloop
  endfacet
  facet normal  0.000000e+000  0.000000e+000  9.999999e-001
    outer loop
      vertex  1.990051e-015  6.500000e+000  4.000000e+000
      vertex -7.500000e+000 -6.500000e+000  4.000000e+000
      vertex -1.166726e+000  1.166726e+000  4.000000e+000
    endloop
  endfacet
  facet normal  0.000000e+000  0.000000e+000  1.000000e+000
    outer loop
      vertex  1.990051e-015  6.500000e+000  4.000000e+000
      vertex -1.166726e+000  1.166726e+000  4.000000e+000
      vertex -6.314276e-001  1.524401e+000  4.000000e+000
    endloop
  endfacet
  facet normal  0.000000e+000  0.000000e+000  9.999999e-001
    outer loop
      vertex  1.990051e-015  6.500000e+000  4.000000e+000
      vertex -6.314276e-001  1.524401e+000  4.000000e+000
      vertex  1.010334e-016  1.650000e+000  4.000000e+000
    endloop
  endfacet
  facet normal  0.000000e+000  0.000000e+000  1.000000e+000
    outer loop
      vertex -7.500000e+000 -6.500000e+000  4.000000e+000
      vertex  0.000000e+000 -6.500000e+000  4.000000e+000
      vertex -3.031001e-016 -1.650000e+000  4.000000e+000
    endloop
  endfacet
  facet normal  0.000000e+000  0.000000e+000  1.000000e+000
    outer loop
      vertex -7.500000e+000 -6.500000e+000  4.000000e+000
      vertex -3.031001e-016 -1.650000e+000  4.000000e+000
      vertex -6.314276e-001 -1.524401e+000  4.000000e+000
    endloop
  endfacet
  facet normal  0.000000e+000  0.000000e+000  1.000000e+000
    outer loop
      vertex -7.500000e+000 -6.500000e+000  4.000000e+000
      vertex -6.314276e-001 -1.524401e+000  4.000000e+000
      vertex -1.166726e+000 -1.166726e+000  4.000000e+000
    endloop
  endfacet
  facet normal  0.000000e+000  0.000000e+000  1.000000e+000
    outer loop
      vertex -7.500000e+000 -6.500000e+000  4.000000e+000
      vertex -1.166726e+000 -1.166726e+000  4.000000e+000
      vertex -1.524401e+000 -6.314276e-001  4.000000e+000
    endloop
  endfacet
  facet normal  0.000000e+000  0.000000e+000  1.000000e+000
    outer loop
      vertex -7.500000e+000 -6.500000e+000  4.000000e+000
      vertex -1.524401e+000 -6.314276e-001  4.000000e+000
      vertex -1.650000e+000  2.020667e-016  4.000000e+000
    endloop
  endfacet
  facet normal  0.000000e+000  -0.000000e+000  1.000000e+000
    outer loop
      vertex -7.500000e+000 -6.500000e+000  4.000000e+000
      vertex -1.650000e+000  2.020667e-016  4.000000e+000
      vertex -1.524401e+000  6.314276e-001  4.000000e+000
    endloop
  endfacet
  facet normal  0.000000e+000  -0.000000e+000  1.000000e+000
    outer loop
      vertex -7.500000e+000 -6.500000e+000  4.000000e+000
      vertex -1.524401e+000  6.314276e-001  4.000000e+000
      vertex -1.166726e+000  1.166726e+000  4.000000e+000
    endloop
  endfacet
  facet normal  -0.000000e+000  -0.000000e+000  9.999999e-001
    outer loop
      vertex  1.010334e-016  1.650000e+000  4.000000e+000
      vertex  6.314276e-001  1.524401e+000  4.000000e+000
      vertex  6.464392e+000  6.794350e-001  4.000000e+000
    endloop
  endfacet
  facet normal  0.000000e+000  0.000000e+000  1.000000e+000
    outer loop
      vertex  1.010334e-016  1.650000e+000  4.000000e+000
      vertex  6.464392e+000  6.794350e-001  4.000000e+000
      vertex  6.181867e+000  2.008610e+000  4.000000e+000
    endloop
  endfacet
  facet normal  0.000000e+000  0.000000e+000  1.000000e+000
    outer loop
      vertex  1.010334e-016  1.650000e+000  4.000000e+000
      vertex  6.181867e+000  2.008610e+000  4.000000e+000
      vertex  5.629165e+000  3.250000e+000  4.000000e+000
    endloop
  endfacet
  facet normal  0.000000e+000  0.000000e+000  1.000000e+000
    outer loop
      vertex  1.010334e-016  1.650000e+000  4.000000e+000
      vertex  5.629165e+000  3.250000e+000  4.000000e+000
      vertex  4.830441e+000  4.349349e+000  4.000000e+000
    endloop
  endfacet
  facet normal  0.000000e+000  0.000000e+000  1.000000e+000
    outer loop
      vertex  1.010334e-016  1.650000e+000  4.000000e+000
      vertex  4.830441e+000  4.349349e+000  4.000000e+000
      vertex  3.820604e+000  5.258610e+000  4.000000e+000
    endloop
  endfacet
  facet normal  0.000000e+000  0.000000e+000  1.000000e+000
    outer loop
      vertex  1.010334e-016  1.650000e+000  4.000000e+000
      vertex  3.820604e+000  5.258610e+000  4.000000e+000
      vertex  2.643788e+000  5.938046e+000  4.000000e+000
    endloop
  endfacet
  facet normal  0.000000e+000  0.000000e+000  9.999999e-001
    outer loop
      vertex  1.010334e-016  1.650000e+000  4.000000e+000
      vertex  2.643788e+000  5.938046e+000  4.000000e+000
      vertex  1.351426e+000  6.357959e+000  4.000000e+000
    endloop
  endfacet
  facet normal  0.000000e+000  0.000000e+000  1.000000e+000
    outer loop
      vertex  1.010334e-016  1.650000e+000  4.000000e+000
      vertex  1.351426e+000  6.357959e+000  4.000000e+000
      vertex  1.990051e-015  6.500000e+000  4.000000e+000
    endloop
  endfacet
  facet normal  0.000000e+000  -0.000000e+000  9.999999e-001
    outer loop
      vertex  0.000000e+000 -6.500000e+000  4.000000e+000
      vertex  1.351426e+000 -6.357959e+000  4.000000e+000
      vertex  2.643788e+000 -5.938046e+000  4.000000e+000
    endloop
  endfacet
  facet normal  0.000000e+000  -0.000000e+000  1.000000e+000
    outer loop
      vertex  0.000000e+000 -6.500000e+000  4.000000e+000
      vertex  2.643788e+000 -5.938046e+000  4.000000e+000
      vertex  3.820604e+000 -5.258610e+000  4.000000e+000
    endloop
  endfacet
  facet normal  0.000000e+000  -0.000000e+000  1.000000e+000
    outer loop
      vertex  0.000000e+000 -6.500000e+000  4.000000e+000
      vertex  3.820604e+000 -5.258610e+000  4.000000e+000
      vertex  4.830441e+000 -4.349349e+000  4.000000e+000
    endloop
  endfacet
  facet normal  0.000000e+000  -0.000000e+000  1.000000e+000
    outer loop
      vertex  0.000000e+000 -6.500000e+000  4.000000e+000
      vertex  4.830441e+000 -4.349349e+000  4.000000e+000
      vertex  5.629165e+000 -3.250000e+000  4.000000e+000
    endloop
  endfacet
  facet normal  0.000000e+000  -0.000000e+000  1.000000e+000
    outer loop
      vertex  0.000000e+000 -6.500000e+000  4.000000e+000
      vertex  5.629165e+000 -3.250000e+000  4.000000e+000
      vertex  6.181867e+000 -2.008610e+000  4.000000e+000
    endloop
  endfacet
  facet normal  0.000000e+000  0.000000e+000  9.999999e-001
    outer loop
      vertex  0.000000e+000 -6.500000e+000  4.000000e+000
      vertex  6.181867e+000 -2.008610e+000  4.000000e+000
      vertex -3.031001e-016 -1.650000e+000  4.000000e+000
    endloop
  endfacet
  facet normal  -0.000000e+000  0.000000e+000  1.000000e+000
    outer loop
      vertex  6.464392e+000  6.794350e-001  4.000000e+000
      vertex  1.524401e+000  6.314276e-001  4.000000e+000
      vertex  6.464392e+000 -6.794350e-001  4.000000e+000
    endloop
  endfacet
  facet normal  0.000000e+000  0.000000e+000  1.000000e+000
    outer loop
      vertex  6.464392e+000 -6.794350e-001  4.000000e+000
      vertex  1.524401e+000  6.314276e-001  4.000000e+000
      vertex  1.650000e+000  0.000000e+000  4.000000e+000
    endloop
  endfacet
  facet normal  0.000000e+000  0.000000e+000  1.000000e+000
    outer loop
      vertex  6.464392e+000 -6.794350e-001  4.000000e+000
      vertex  1.650000e+000  0.000000e+000  4.000000e+000
      vertex  1.524401e+000 -6.314276e-001  4.000000e+000
    endloop
  endfacet
  facet normal  0.000000e+000  0.000000e+000  1.000000e+000
    outer loop
      vertex  6.464392e+000 -6.794350e-001  4.000000e+000
      vertex  1.524401e+000 -6.314276e-001  4.000000e+000
      vertex  6.181867e+000 -2.008610e+000  4.000000e+000
    endloop
  endfacet
  facet normal  0.000000e+000  0.000000e+000  1.000000e+000
    outer loop
      vertex  6.181867e+000 -2.008610e+000  4.000000e+000
      vertex  1.524401e+000 -6.314276e-001  4.000000e+000
      vertex  1.166726e+000 -1.166726e+000  4.000000e+000
    endloop
  endfacet
  facet normal  0.000000e+000  0.000000e+000  1.000000e+000
    outer loop
      vertex  6.181867e+000 -2.008610e+000  4.000000e+000
      vertex  1.166726e+000 -1.166726e+000  4.000000e+000
      vertex  6.314276e-001 -1.524401e+000  4.000000e+000
    endloop
  endfacet
  facet normal  0.000000e+000 -1.000000e+000  0.000000e+000
    outer loop
      vertex -7.500000e+000 -6.500000e+000 -1.000000e+001
      vertex -3.500000e+000 -6.500000e+000 -1.000000e+001
      vertex -7.500000e+000 -6.500000e+000  4.000000e+000
    endloop
  endfacet
  facet normal  0.000000e+000 -1.000000e+000  0.000000e+000
    outer loop
      vertex -7.500000e+000 -6.500000e+000  4.000000e+000
      vertex -3.500000e+000 -6.500000e+000 -1.000000e+001
      vertex -3.500000e+000 -6.500000e+000  0.000000e+000
    endloop
  endfacet
  facet normal  0.000000e+000 -1.000000e+000  0.000000e+000
    outer loop
      vertex -7.500000e+000 -6.500000e+000  4.000000e+000
      vertex -3.500000e+000 -6.500000e+000  0.000000e+000
      vertex  0.000000e+000 -6.500000e+000  4.000000e+000
    endloop
  endfacet
  facet normal  0.000000e+000 -1.000000e+000  -0.000000e+000
    outer loop
      vertex  0.000000e+000 -6.500000e+000  4.000000e+000
      vertex -3.500000e+000 -6.500000e+000  0.000000e+000
      vertex  0.000000e+000 -6.500000e+000  0.000000e+000
    endloop
  endfacet
  facet normal  0.000000e+000  1.000000e+000  -0.000000e+000
    outer loop
      vertex  1.990051e-015  6.500000e+000  4.000000e+000
      vertex  1.990051e-015  6.500000e+000  0.000000e+000
      vertex -7.500000e+000  6.500000e+000  4.000000e+000
    endloop
  endfacet
  facet normal  0.000000e+000  1.000000e+000  0.000000e+000
    outer loop
      vertex -7.500000e+000  6.500000e+000  4.000000e+000
      vertex  1.990051e-015  6.500000e+000  0.000000e+000
      vertex -3.500000e+000  6.500000e+000  0.000000e+000
    endloop
  endfacet
  facet normal  0.000000e+000  1.000000e+000  0.000000e+000
    outer loop
      vertex -7.500000e+000  6.500000e+000  4.000000e+000
      vertex -3.500000e+000  6.500000e+000  0.000000e+000
      vertex -7.500000e+000  6.500000e+000 -1.000000e+001
    endloop
  endfacet
  facet normal  0.000000e+000  1.000000e+000  0.000000e+000
    outer loop
      vertex -7.500000e+000  6.500000e+000 -1.000000e+001
      vertex -3.500000e+000  6.500000e+000  0.000000e+000
      vertex -3.500000e+000  6.500000e+000 -1.000000e+001
    endloop
  endfacet
endsolid CATIA STL
