solid CATIA STL
  facet normal  0.000000e+000  0.000000e+000 -1.000000e+000
    outer loop
      vertex -5.000000e+000 -7.000000e+000 -9.911859e+000
      vertex -5.000000e+000  7.000000e+000 -9.911859e+000
      vertex  3.552714e-015 -7.000000e+000 -9.911859e+000
    endloop
  endfacet
  facet normal  0.000000e+000  0.000000e+000 -1.000000e+000
    outer loop
      vertex  3.552714e-015 -7.000000e+000 -9.911859e+000
      vertex -5.000000e+000  7.000000e+000 -9.911859e+000
      vertex  3.552714e-015  7.000000e+000 -9.911859e+000
    endloop
  endfacet
  facet normal  0.000000e+000  0.000000e+000 -1.000000e+000
    outer loop
      vertex -1.421085e-014 -7.000000e+000 -2.541186e+001
      vertex -1.421085e-014  7.000000e+000 -2.541186e+001
      vertex  5.000000e+000 -7.000000e+000 -2.541186e+001
    endloop
  endfacet
  facet normal  0.000000e+000  0.000000e+000 -1.000000e+000
    outer loop
      vertex  5.000000e+000 -7.000000e+000 -2.541186e+001
      vertex -1.421085e-014  7.000000e+000 -2.541186e+001
      vertex  5.000000e+000  7.000000e+000 -2.541186e+001
    endloop
  endfacet
  facet normal -1.000000e+000  0.000000e+000  2.378147e-015
    outer loop
      vertex -1.421085e-014  7.000000e+000 -2.541186e+001
      vertex -1.421085e-014 -7.000000e+000 -2.541186e+001
      vertex  0.000000e+000  6.314276e-001 -1.943626e+001
    endloop
  endfacet
  facet normal -1.000000e+000 -9.281058e-016  1.389007e-015
    outer loop
      vertex -1.421085e-014  7.000000e+000 -2.541186e+001
      vertex  0.000000e+000  6.314276e-001 -1.943626e+001
      vertex  0.000000e+000  1.166726e+000 -1.907858e+001
    endloop
  endfacet
  facet normal -1.000000e+000 -1.411902e-015  9.434048e-016
    outer loop
      vertex -1.421085e-014  7.000000e+000 -2.541186e+001
      vertex  0.000000e+000  1.166726e+000 -1.907858e+001
      vertex  0.000000e+000  1.524401e+000 -1.854329e+001
    endloop
  endfacet
  facet normal -1.000000e+000 -1.157722e-015  1.146037e-015
    outer loop
      vertex -1.421085e-014  7.000000e+000 -2.541186e+001
      vertex  0.000000e+000  1.524401e+000 -1.854329e+001
      vertex  3.552714e-015  7.000000e+000 -9.911859e+000
    endloop
  endfacet
  facet normal -9.999999e-001  0.000000e+000  5.594824e-016
    outer loop
      vertex  3.552714e-015 -7.000000e+000 -9.911859e+000
      vertex  3.552714e-015  7.000000e+000 -9.911859e+000
      vertex  0.000000e+000  9.104442e-017 -1.626186e+001
    endloop
  endfacet
  facet normal -1.000000e+000 -9.127294e-017  4.588665e-016
    outer loop
      vertex  3.552714e-015 -7.000000e+000 -9.911859e+000
      vertex  0.000000e+000  9.104442e-017 -1.626186e+001
      vertex  0.000000e+000 -6.314276e-001 -1.638746e+001
    endloop
  endfacet
  facet normal -1.000000e+000 -2.212154e-016  3.310717e-016
    outer loop
      vertex  3.552714e-015 -7.000000e+000 -9.911859e+000
      vertex  0.000000e+000 -6.314276e-001 -1.638746e+001
      vertex  0.000000e+000 -1.166726e+000 -1.674513e+001
    endloop
  endfacet
  facet normal -1.000000e+000 -3.416362e-016  2.282736e-016
    outer loop
      vertex  3.552714e-015 -7.000000e+000 -9.911859e+000
      vertex  0.000000e+000 -1.166726e+000 -1.674513e+001
      vertex  0.000000e+000 -1.524401e+000 -1.728043e+001
    endloop
  endfacet
  facet normal -1.000000e+000 -5.118226e-016  1.018078e-016
    outer loop
      vertex  3.552714e-015 -7.000000e+000 -9.911859e+000
      vertex  0.000000e+000 -1.524401e+000 -1.728043e+001
      vertex  0.000000e+000 -1.650000e+000 -1.791186e+001
    endloop
  endfacet
  facet normal -1.000000e+000 -9.451972e-016 -1.880114e-016
    outer loop
      vertex  3.552714e-015 -7.000000e+000 -9.911859e+000
      vertex  0.000000e+000 -1.650000e+000 -1.791186e+001
      vertex  0.000000e+000 -1.524401e+000 -1.854329e+001
    endloop
  endfacet
  facet normal -1.000000e+000  1.157722e-015  1.146037e-015
    outer loop
      vertex -1.421085e-014 -7.000000e+000 -2.541186e+001
      vertex  3.552714e-015 -7.000000e+000 -9.911859e+000
      vertex  0.000000e+000 -1.524401e+000 -1.854329e+001
    endloop
  endfacet
  facet normal -1.000000e+000  1.411902e-015  9.434049e-016
    outer loop
      vertex -1.421085e-014 -7.000000e+000 -2.541186e+001
      vertex  0.000000e+000 -1.524401e+000 -1.854329e+001
      vertex  0.000000e+000 -1.166726e+000 -1.907858e+001
    endloop
  endfacet
  facet normal -1.000000e+000  9.281058e-016  1.389007e-015
    outer loop
      vertex -1.421085e-014 -7.000000e+000 -2.541186e+001
      vertex  0.000000e+000 -1.166726e+000 -1.907858e+001
      vertex  0.000000e+000 -6.314276e-001 -1.943626e+001
    endloop
  endfacet
  facet normal -1.000000e+000  3.903019e-016  1.962178e-015
    outer loop
      vertex -1.421085e-014 -7.000000e+000 -2.541186e+001
      vertex  0.000000e+000 -6.314276e-001 -1.943626e+001
      vertex  0.000000e+000 -5.151558e-016 -1.956186e+001
    endloop
  endfacet
  facet normal -1.000000e+000 -6.341328e-016  3.187997e-015
    outer loop
      vertex -1.421085e-014 -7.000000e+000 -2.541186e+001
      vertex  0.000000e+000 -5.151558e-016 -1.956186e+001
      vertex  0.000000e+000  6.314276e-001 -1.943626e+001
    endloop
  endfacet
  facet normal -1.000000e+000  9.451972e-016 -1.880114e-016
    outer loop
      vertex  3.552714e-015  7.000000e+000 -9.911859e+000
      vertex  0.000000e+000  1.524401e+000 -1.854329e+001
      vertex  0.000000e+000  1.650000e+000 -1.791186e+001
    endloop
  endfacet
  facet normal -1.000000e+000  5.118226e-016  1.018078e-016
    outer loop
      vertex  3.552714e-015  7.000000e+000 -9.911859e+000
      vertex  0.000000e+000  1.650000e+000 -1.791186e+001
      vertex  0.000000e+000  1.524401e+000 -1.728043e+001
    endloop
  endfacet
  facet normal -1.000000e+000  3.416362e-016  2.282736e-016
    outer loop
      vertex  3.552714e-015  7.000000e+000 -9.911859e+000
      vertex  0.000000e+000  1.524401e+000 -1.728043e+001
      vertex  0.000000e+000  1.166726e+000 -1.674513e+001
    endloop
  endfacet
  facet normal -1.000000e+000  2.212154e-016  3.310717e-016
    outer loop
      vertex  3.552714e-015  7.000000e+000 -9.911859e+000
      vertex  0.000000e+000  1.166726e+000 -1.674513e+001
      vertex  0.000000e+000  6.314276e-001 -1.638746e+001
    endloop
  endfacet
  facet normal -1.000000e+000  9.127294e-017  4.588665e-016
    outer loop
      vertex  3.552714e-015  7.000000e+000 -9.911859e+000
      vertex  0.000000e+000  6.314276e-001 -1.638746e+001
      vertex  0.000000e+000  9.104442e-017 -1.626186e+001
    endloop
  endfacet
  facet normal -1.000000e+000  0.000000e+000  0.000000e+000
    outer loop
      vertex -5.000000e+000  7.000000e+000  8.088141e+000
      vertex -5.000000e+000  7.000000e+000 -9.911859e+000
      vertex -5.000000e+000 -7.000000e+000  8.088141e+000
    endloop
  endfacet
  facet normal -1.000000e+000  0.000000e+000  0.000000e+000
    outer loop
      vertex -5.000000e+000 -7.000000e+000  8.088141e+000
      vertex -5.000000e+000  7.000000e+000 -9.911859e+000
      vertex -5.000000e+000 -7.000000e+000 -9.911859e+000
    endloop
  endfacet
  facet normal  0.000000e+000 -1.000000e+000  -0.000000e+000
    outer loop
      vertex  5.000000e+000 -7.000000e+000 -2.541186e+001
      vertex  5.000000e+000 -7.000000e+000  8.088141e+000
      vertex -1.421085e-014 -7.000000e+000 -2.541186e+001
    endloop
  endfacet
  facet normal  0.000000e+000 -1.000000e+000  0.000000e+000
    outer loop
      vertex -1.421085e-014 -7.000000e+000 -2.541186e+001
      vertex  5.000000e+000 -7.000000e+000  8.088141e+000
      vertex  3.552714e-015 -7.000000e+000 -9.911859e+000
    endloop
  endfacet
  facet normal  0.000000e+000 -1.000000e+000  0.000000e+000
    outer loop
      vertex  5.000000e+000 -7.000000e+000  8.088141e+000
      vertex -5.000000e+000 -7.000000e+000  8.088141e+000
      vertex  3.552714e-015 -7.000000e+000 -9.911859e+000
    endloop
  endfacet
  facet normal  0.000000e+000 -1.000000e+000  0.000000e+000
    outer loop
      vertex  3.552714e-015 -7.000000e+000 -9.911859e+000
      vertex -5.000000e+000 -7.000000e+000  8.088141e+000
      vertex -5.000000e+000 -7.000000e+000 -9.911859e+000
    endloop
  endfacet
  facet normal  0.000000e+000  1.000000e+000  0.000000e+000
    outer loop
      vertex  5.000000e+000  7.000000e+000 -2.541186e+001
      vertex -1.421085e-014  7.000000e+000 -2.541186e+001
      vertex  5.000000e+000  7.000000e+000  8.088141e+000
    endloop
  endfacet
  facet normal  0.000000e+000  1.000000e+000  0.000000e+000
    outer loop
      vertex  5.000000e+000  7.000000e+000  8.088141e+000
      vertex -1.421085e-014  7.000000e+000 -2.541186e+001
      vertex  3.552714e-015  7.000000e+000 -9.911859e+000
    endloop
  endfacet
  facet normal  0.000000e+000  1.000000e+000  -0.000000e+000
    outer loop
      vertex  5.000000e+000  7.000000e+000  8.088141e+000
      vertex  3.552714e-015  7.000000e+000 -9.911859e+000
      vertex -5.000000e+000  7.000000e+000  8.088141e+000
    endloop
  endfacet
  facet normal  0.000000e+000  1.000000e+000  0.000000e+000
    outer loop
      vertex -5.000000e+000  7.000000e+000  8.088141e+000
      vertex  3.552714e-015  7.000000e+000 -9.911859e+000
      vertex -5.000000e+000  7.000000e+000 -9.911859e+000
    endloop
  endfacet
  facet normal  1.000000e+000  0.000000e+000  0.000000e+000
    outer loop
      vertex  5.000000e+000 -7.000000e+000  8.088141e+000
      vertex  5.000000e+000 -7.000000e+000 -2.541186e+001
      vertex  5.000000e+000 -1.524401e+000 -1.728043e+001
    endloop
  endfacet
  facet normal  1.000000e+000  0.000000e+000  -0.000000e+000
    outer loop
      vertex  5.000000e+000 -7.000000e+000  8.088141e+000
      vertex  5.000000e+000 -1.524401e+000 -1.728043e+001
      vertex  5.000000e+000 -1.166726e+000 -1.674513e+001
    endloop
  endfacet
  facet normal  1.000000e+000  0.000000e+000  -0.000000e+000
    outer loop
      vertex  5.000000e+000 -7.000000e+000  8.088141e+000
      vertex  5.000000e+000 -1.166726e+000 -1.674513e+001
      vertex  5.000000e+000 -6.314276e-001 -1.638746e+001
    endloop
  endfacet
  facet normal  1.000000e+000  0.000000e+000  -0.000000e+000
    outer loop
      vertex  5.000000e+000 -7.000000e+000  8.088141e+000
      vertex  5.000000e+000 -6.314276e-001 -1.638746e+001
      vertex  5.000000e+000  1.010334e-016 -1.626186e+001
    endloop
  endfacet
  facet normal  1.000000e+000  -0.000000e+000  -0.000000e+000
    outer loop
      vertex  5.000000e+000 -7.000000e+000  8.088141e+000
      vertex  5.000000e+000  1.010334e-016 -1.626186e+001
      vertex  5.000000e+000  6.314276e-001 -1.638746e+001
    endloop
  endfacet
  facet normal  1.000000e+000  -0.000000e+000  -0.000000e+000
    outer loop
      vertex  5.000000e+000 -7.000000e+000  8.088141e+000
      vertex  5.000000e+000  6.314276e-001 -1.638746e+001
      vertex  5.000000e+000  1.166726e+000 -1.674513e+001
    endloop
  endfacet
  facet normal  1.000000e+000  -0.000000e+000  -0.000000e+000
    outer loop
      vertex  5.000000e+000 -7.000000e+000  8.088141e+000
      vertex  5.000000e+000  1.166726e+000 -1.674513e+001
      vertex  5.000000e+000  1.524401e+000 -1.728043e+001
    endloop
  endfacet
  facet normal  1.000000e+000  -0.000000e+000  -0.000000e+000
    outer loop
      vertex  5.000000e+000 -7.000000e+000  8.088141e+000
      vertex  5.000000e+000  1.524401e+000 -1.728043e+001
      vertex  5.000000e+000  7.000000e+000 -2.541186e+001
    endloop
  endfacet
  facet normal  1.000000e+000  0.000000e+000  -0.000000e+000
    outer loop
      vertex  5.000000e+000 -7.000000e+000  8.088141e+000
      vertex  5.000000e+000  7.000000e+000 -2.541186e+001
      vertex  5.000000e+000  7.000000e+000  8.088141e+000
    endloop
  endfacet
  facet normal  1.000000e+000  0.000000e+000  0.000000e+000
    outer loop
      vertex  5.000000e+000 -7.000000e+000 -2.541186e+001
      vertex  5.000000e+000  7.000000e+000 -2.541186e+001
      vertex  5.000000e+000 -3.031001e-016 -1.956186e+001
    endloop
  endfacet
  facet normal  1.000000e+000  0.000000e+000  0.000000e+000
    outer loop
      vertex  5.000000e+000 -7.000000e+000 -2.541186e+001
      vertex  5.000000e+000 -3.031001e-016 -1.956186e+001
      vertex  5.000000e+000 -6.314276e-001 -1.943626e+001
    endloop
  endfacet
  facet normal  1.000000e+000  0.000000e+000  0.000000e+000
    outer loop
      vertex  5.000000e+000 -7.000000e+000 -2.541186e+001
      vertex  5.000000e+000 -6.314276e-001 -1.943626e+001
      vertex  5.000000e+000 -1.166726e+000 -1.907858e+001
    endloop
  endfacet
  facet normal  1.000000e+000  0.000000e+000  0.000000e+000
    outer loop
      vertex  5.000000e+000 -7.000000e+000 -2.541186e+001
      vertex  5.000000e+000 -1.166726e+000 -1.907858e+001
      vertex  5.000000e+000 -1.524401e+000 -1.854329e+001
    endloop
  endfacet
  facet normal  1.000000e+000  0.000000e+000  0.000000e+000
    outer loop
      vertex  5.000000e+000 -7.000000e+000 -2.541186e+001
      vertex  5.000000e+000 -1.524401e+000 -1.854329e+001
      vertex  5.000000e+000 -1.650000e+000 -1.791186e+001
    endloop
  endfacet
  facet normal  1.000000e+000  0.000000e+000  -0.000000e+000
    outer loop
      vertex  5.000000e+000 -7.000000e+000 -2.541186e+001
      vertex  5.000000e+000 -1.650000e+000 -1.791186e+001
      vertex  5.000000e+000 -1.524401e+000 -1.728043e+001
    endloop
  endfacet
  facet normal  1.000000e+000  0.000000e+000  0.000000e+000
    outer loop
      vertex  5.000000e+000  7.000000e+000 -2.541186e+001
      vertex  5.000000e+000  1.524401e+000 -1.728043e+001
      vertex  5.000000e+000  1.650000e+000 -1.791186e+001
    endloop
  endfacet
  facet normal  1.000000e+000  0.000000e+000  0.000000e+000
    outer loop
      vertex  5.000000e+000  7.000000e+000 -2.541186e+001
      vertex  5.000000e+000  1.650000e+000 -1.791186e+001
      vertex  5.000000e+000  1.524401e+000 -1.854329e+001
    endloop
  endfacet
  facet normal  1.000000e+000  0.000000e+000  0.000000e+000
    outer loop
      vertex  5.000000e+000  7.000000e+000 -2.541186e+001
      vertex  5.000000e+000  1.524401e+000 -1.854329e+001
      vertex  5.000000e+000  1.166726e+000 -1.907858e+001
    endloop
  endfacet
  facet normal  1.000000e+000  0.000000e+000  0.000000e+000
    outer loop
      vertex  5.000000e+000  7.000000e+000 -2.541186e+001
      vertex  5.000000e+000  1.166726e+000 -1.907858e+001
      vertex  5.000000e+000  6.314276e-001 -1.943626e+001
    endloop
  endfacet
  facet normal  1.000000e+000  0.000000e+000  0.000000e+000
    outer loop
      vertex  5.000000e+000  7.000000e+000 -2.541186e+001
      vertex  5.000000e+000  6.314276e-001 -1.943626e+001
      vertex  5.000000e+000 -3.031001e-016 -1.956186e+001
    endloop
  endfacet
  facet normal  0.000000e+000  1.950877e-001 -9.807858e-001
    outer loop
      vertex  0.000000e+000  9.104442e-017 -1.626186e+001
      vertex  5.000000e+000 -6.314276e-001 -1.638746e+001
      vertex  0.000000e+000 -6.314276e-001 -1.638746e+001
    endloop
  endfacet
  facet normal  0.000000e+000  5.555707e-001 -8.314692e-001
    outer loop
      vertex  0.000000e+000 -6.314276e-001 -1.638746e+001
      vertex  5.000000e+000 -6.314276e-001 -1.638746e+001
      vertex  5.000000e+000 -1.166726e+000 -1.674513e+001
    endloop
  endfacet
  facet normal  0.000000e+000  5.555707e-001 -8.314692e-001
    outer loop
      vertex  0.000000e+000 -6.314276e-001 -1.638746e+001
      vertex  5.000000e+000 -1.166726e+000 -1.674513e+001
      vertex  0.000000e+000 -1.166726e+000 -1.674513e+001
    endloop
  endfacet
  facet normal  0.000000e+000  8.314701e-001 -5.555696e-001
    outer loop
      vertex  0.000000e+000 -1.166726e+000 -1.674513e+001
      vertex  5.000000e+000 -1.166726e+000 -1.674513e+001
      vertex  5.000000e+000 -1.524401e+000 -1.728043e+001
    endloop
  endfacet
  facet normal  0.000000e+000  8.314701e-001 -5.555696e-001
    outer loop
      vertex  0.000000e+000 -1.166726e+000 -1.674513e+001
      vertex  5.000000e+000 -1.524401e+000 -1.728043e+001
      vertex  0.000000e+000 -1.524401e+000 -1.728043e+001
    endloop
  endfacet
  facet normal  0.000000e+000  9.807853e-001 -1.950903e-001
    outer loop
      vertex  0.000000e+000 -1.524401e+000 -1.728043e+001
      vertex  5.000000e+000 -1.524401e+000 -1.728043e+001
      vertex  5.000000e+000 -1.650000e+000 -1.791186e+001
    endloop
  endfacet
  facet normal  0.000000e+000  9.807853e-001 -1.950903e-001
    outer loop
      vertex  0.000000e+000 -1.524401e+000 -1.728043e+001
      vertex  5.000000e+000 -1.650000e+000 -1.791186e+001
      vertex  0.000000e+000 -1.650000e+000 -1.791186e+001
    endloop
  endfacet
  facet normal -3.897438e-019  1.950877e-001 -9.807858e-001
    outer loop
      vertex  5.000000e+000 -6.314276e-001 -1.638746e+001
      vertex  0.000000e+000  9.104442e-017 -1.626186e+001
      vertex  5.000000e+000  1.010334e-016 -1.626186e+001
    endloop
  endfacet
  facet normal  3.897438e-019 -1.950877e-001 -9.807858e-001
    outer loop
      vertex  5.000000e+000  1.010334e-016 -1.626186e+001
      vertex  0.000000e+000  9.104442e-017 -1.626186e+001
      vertex  0.000000e+000  6.314276e-001 -1.638746e+001
    endloop
  endfacet
  facet normal  0.000000e+000 -1.950877e-001 -9.807858e-001
    outer loop
      vertex  5.000000e+000  1.010334e-016 -1.626186e+001
      vertex  0.000000e+000  6.314276e-001 -1.638746e+001
      vertex  5.000000e+000  6.314276e-001 -1.638746e+001
    endloop
  endfacet
  facet normal  -0.000000e+000 -5.555707e-001 -8.314692e-001
    outer loop
      vertex  5.000000e+000  6.314276e-001 -1.638746e+001
      vertex  0.000000e+000  6.314276e-001 -1.638746e+001
      vertex  0.000000e+000  1.166726e+000 -1.674513e+001
    endloop
  endfacet
  facet normal  0.000000e+000 -5.555707e-001 -8.314692e-001
    outer loop
      vertex  5.000000e+000  6.314276e-001 -1.638746e+001
      vertex  0.000000e+000  1.166726e+000 -1.674513e+001
      vertex  5.000000e+000  1.166726e+000 -1.674513e+001
    endloop
  endfacet
  facet normal  -0.000000e+000 -8.314701e-001 -5.555696e-001
    outer loop
      vertex  5.000000e+000  1.166726e+000 -1.674513e+001
      vertex  0.000000e+000  1.166726e+000 -1.674513e+001
      vertex  0.000000e+000  1.524401e+000 -1.728043e+001
    endloop
  endfacet
  facet normal  0.000000e+000 -8.314701e-001 -5.555696e-001
    outer loop
      vertex  5.000000e+000  1.166726e+000 -1.674513e+001
      vertex  0.000000e+000  1.524401e+000 -1.728043e+001
      vertex  5.000000e+000  1.524401e+000 -1.728043e+001
    endloop
  endfacet
  facet normal  -0.000000e+000 -9.807853e-001 -1.950903e-001
    outer loop
      vertex  5.000000e+000  1.524401e+000 -1.728043e+001
      vertex  0.000000e+000  1.524401e+000 -1.728043e+001
      vertex  0.000000e+000  1.650000e+000 -1.791186e+001
    endloop
  endfacet
  facet normal  0.000000e+000 -9.807853e-001 -1.950903e-001
    outer loop
      vertex  5.000000e+000  1.524401e+000 -1.728043e+001
      vertex  0.000000e+000  1.650000e+000 -1.791186e+001
      vertex  5.000000e+000  1.650000e+000 -1.791186e+001
    endloop
  endfacet
  facet normal  0.000000e+000 -1.950905e-001  9.807853e-001
    outer loop
      vertex  0.000000e+000 -5.151558e-016 -1.956186e+001
      vertex  5.000000e+000  6.314276e-001 -1.943626e+001
      vertex  0.000000e+000  6.314276e-001 -1.943626e+001
    endloop
  endfacet
  facet normal  0.000000e+000 -5.555707e-001  8.314692e-001
    outer loop
      vertex  0.000000e+000  6.314276e-001 -1.943626e+001
      vertex  5.000000e+000  6.314276e-001 -1.943626e+001
      vertex  5.000000e+000  1.166726e+000 -1.907858e+001
    endloop
  endfacet
  facet normal  0.000000e+000 -5.555707e-001  8.314692e-001
    outer loop
      vertex  0.000000e+000  6.314276e-001 -1.943626e+001
      vertex  5.000000e+000  1.166726e+000 -1.907858e+001
      vertex  0.000000e+000  1.166726e+000 -1.907858e+001
    endloop
  endfacet
  facet normal  0.000000e+000 -8.314692e-001  5.555710e-001
    outer loop
      vertex  0.000000e+000  1.166726e+000 -1.907858e+001
      vertex  5.000000e+000  1.166726e+000 -1.907858e+001
      vertex  5.000000e+000  1.524401e+000 -1.854329e+001
    endloop
  endfacet
  facet normal  0.000000e+000 -8.314692e-001  5.555710e-001
    outer loop
      vertex  0.000000e+000  1.166726e+000 -1.907858e+001
      vertex  5.000000e+000  1.524401e+000 -1.854329e+001
      vertex  0.000000e+000  1.524401e+000 -1.854329e+001
    endloop
  endfacet
  facet normal  0.000000e+000 -9.807853e-001  1.950903e-001
    outer loop
      vertex  0.000000e+000  1.524401e+000 -1.854329e+001
      vertex  5.000000e+000  1.524401e+000 -1.854329e+001
      vertex  5.000000e+000  1.650000e+000 -1.791186e+001
    endloop
  endfacet
  facet normal  0.000000e+000 -9.807853e-001  1.950903e-001
    outer loop
      vertex  0.000000e+000  1.524401e+000 -1.854329e+001
      vertex  5.000000e+000  1.650000e+000 -1.791186e+001
      vertex  0.000000e+000  1.650000e+000 -1.791186e+001
    endloop
  endfacet
  facet normal  8.274011e-018 -1.950905e-001  9.807853e-001
    outer loop
      vertex  5.000000e+000  6.314276e-001 -1.943626e+001
      vertex  0.000000e+000 -5.151558e-016 -1.956186e+001
      vertex  5.000000e+000 -3.031001e-016 -1.956186e+001
    endloop
  endfacet
  facet normal -8.274011e-018  1.950905e-001  9.807853e-001
    outer loop
      vertex  5.000000e+000 -3.031001e-016 -1.956186e+001
      vertex  0.000000e+000 -5.151558e-016 -1.956186e+001
      vertex  0.000000e+000 -6.314276e-001 -1.943626e+001
    endloop
  endfacet
  facet normal  -0.000000e+000  1.950905e-001  9.807853e-001
    outer loop
      vertex  5.000000e+000 -3.031001e-016 -1.956186e+001
      vertex  0.000000e+000 -6.314276e-001 -1.943626e+001
      vertex  5.000000e+000 -6.314276e-001 -1.943626e+001
    endloop
  endfacet
  facet normal  0.000000e+000  5.555707e-001  8.314692e-001
    outer loop
      vertex  5.000000e+000 -6.314276e-001 -1.943626e+001
      vertex  0.000000e+000 -6.314276e-001 -1.943626e+001
      vertex  0.000000e+000 -1.166726e+000 -1.907858e+001
    endloop
  endfacet
  facet normal  -0.000000e+000  5.555707e-001  8.314692e-001
    outer loop
      vertex  5.000000e+000 -6.314276e-001 -1.943626e+001
      vertex  0.000000e+000 -1.166726e+000 -1.907858e+001
      vertex  5.000000e+000 -1.166726e+000 -1.907858e+001
    endloop
  endfacet
  facet normal  0.000000e+000  8.314692e-001  5.555710e-001
    outer loop
      vertex  5.000000e+000 -1.166726e+000 -1.907858e+001
      vertex  0.000000e+000 -1.166726e+000 -1.907858e+001
      vertex  0.000000e+000 -1.524401e+000 -1.854329e+001
    endloop
  endfacet
  facet normal  -0.000000e+000  8.314692e-001  5.555710e-001
    outer loop
      vertex  5.000000e+000 -1.166726e+000 -1.907858e+001
      vertex  0.000000e+000 -1.524401e+000 -1.854329e+001
      vertex  5.000000e+000 -1.524401e+000 -1.854329e+001
    endloop
  endfacet
  facet normal  0.000000e+000  9.807853e-001  1.950903e-001
    outer loop
      vertex  5.000000e+000 -1.524401e+000 -1.854329e+001
      vertex  0.000000e+000 -1.524401e+000 -1.854329e+001
      vertex  0.000000e+000 -1.650000e+000 -1.791186e+001
    endloop
  endfacet
  facet normal  -0.000000e+000  9.807853e-001  1.950903e-001
    outer loop
      vertex  5.000000e+000 -1.524401e+000 -1.854329e+001
      vertex  0.000000e+000 -1.650000e+000 -1.791186e+001
      vertex  5.000000e+000 -1.650000e+000 -1.791186e+001
    endloop
  endfacet
  facet normal  0.000000e+000  0.000000e+000  1.000000e+000
    outer loop
      vertex  5.000000e+000 -7.000000e+000  8.088141e+000
      vertex  5.000000e+000  7.000000e+000  8.088141e+000
      vertex -5.000000e+000 -7.000000e+000  8.088141e+000
    endloop
  endfacet
  facet normal  0.000000e+000  0.000000e+000  1.000000e+000
    outer loop
      vertex -5.000000e+000 -7.000000e+000  8.088141e+000
      vertex  5.000000e+000  7.000000e+000  8.088141e+000
      vertex -5.000000e+000  7.000000e+000  8.088141e+000
    endloop
  endfacet
endsolid CATIA STL
