solid CATIA STL
  facet normal -1.000000e+000  -0.000000e+000  0.000000e+000
    outer loop
      vertex  0.000000e+000 -4.000000e+000  7.500000e+000
      vertex  0.000000e+000  4.000000e+000  7.500000e+000
      vertex  0.000000e+000  3.472964e-001  1.969615e+000
    endloop
  endfacet
  facet normal -1.000000e+000  0.000000e+000  0.000000e+000
    outer loop
      vertex  0.000000e+000 -4.000000e+000  7.500000e+000
      vertex  0.000000e+000  3.472964e-001  1.969615e+000
      vertex  0.000000e+000 -3.472964e-001  1.969615e+000
    endloop
  endfacet
  facet normal -1.000000e+000  -0.000000e+000  0.000000e+000
    outer loop
      vertex  0.000000e+000 -4.000000e+000  7.500000e+000
      vertex  0.000000e+000 -3.472964e-001  1.969615e+000
      vertex  0.000000e+000 -1.000000e+000  1.732051e+000
    endloop
  endfacet
  facet normal -1.000000e+000  -0.000000e+000  0.000000e+000
    outer loop
      vertex  0.000000e+000 -4.000000e+000  7.500000e+000
      vertex  0.000000e+000 -1.000000e+000  1.732051e+000
      vertex  0.000000e+000 -1.532089e+000  1.285575e+000
    endloop
  endfacet
  facet normal -1.000000e+000  -0.000000e+000  0.000000e+000
    outer loop
      vertex  0.000000e+000 -4.000000e+000  7.500000e+000
      vertex  0.000000e+000 -1.532089e+000  1.285575e+000
      vertex  0.000000e+000 -1.879385e+000  6.840403e-001
    endloop
  endfacet
  facet normal -9.999999e-001  -0.000000e+000  0.000000e+000
    outer loop
      vertex  0.000000e+000 -4.000000e+000  7.500000e+000
      vertex  0.000000e+000 -1.879385e+000  6.840403e-001
      vertex  0.000000e+000 -4.000000e+000 -7.500000e+000
    endloop
  endfacet
  facet normal -1.000000e+000  0.000000e+000  0.000000e+000
    outer loop
      vertex  0.000000e+000 -4.000000e+000 -7.500000e+000
      vertex  0.000000e+000 -1.879385e+000  6.840403e-001
      vertex  0.000000e+000 -2.000000e+000 -3.307784e-015
    endloop
  endfacet
  facet normal -1.000000e+000  0.000000e+000  -0.000000e+000
    outer loop
      vertex  0.000000e+000 -4.000000e+000 -7.500000e+000
      vertex  0.000000e+000 -2.000000e+000 -3.307784e-015
      vertex  0.000000e+000 -1.879385e+000 -6.840403e-001
    endloop
  endfacet
  facet normal -1.000000e+000  0.000000e+000  -0.000000e+000
    outer loop
      vertex  0.000000e+000 -4.000000e+000 -7.500000e+000
      vertex  0.000000e+000 -1.879385e+000 -6.840403e-001
      vertex  0.000000e+000 -1.532089e+000 -1.285575e+000
    endloop
  endfacet
  facet normal -1.000000e+000  0.000000e+000  -0.000000e+000
    outer loop
      vertex  0.000000e+000 -4.000000e+000 -7.500000e+000
      vertex  0.000000e+000 -1.532089e+000 -1.285575e+000
      vertex  0.000000e+000 -1.000000e+000 -1.732051e+000
    endloop
  endfacet
  facet normal -1.000000e+000  0.000000e+000  -0.000000e+000
    outer loop
      vertex  0.000000e+000 -4.000000e+000 -7.500000e+000
      vertex  0.000000e+000 -1.000000e+000 -1.732051e+000
      vertex  0.000000e+000 -3.472964e-001 -1.969615e+000
    endloop
  endfacet
  facet normal -1.000000e+000  0.000000e+000  -0.000000e+000
    outer loop
      vertex  0.000000e+000 -4.000000e+000 -7.500000e+000
      vertex  0.000000e+000 -3.472964e-001 -1.969615e+000
      vertex  0.000000e+000  3.472964e-001 -1.969615e+000
    endloop
  endfacet
  facet normal -1.000000e+000  0.000000e+000  -0.000000e+000
    outer loop
      vertex  0.000000e+000 -4.000000e+000 -7.500000e+000
      vertex  0.000000e+000  3.472964e-001 -1.969615e+000
      vertex  0.000000e+000  4.000000e+000 -7.500000e+000
    endloop
  endfacet
  facet normal -1.000000e+000  0.000000e+000  0.000000e+000
    outer loop
      vertex  0.000000e+000  4.000000e+000 -7.500000e+000
      vertex  0.000000e+000  3.472964e-001 -1.969615e+000
      vertex  0.000000e+000  1.000000e+000 -1.732051e+000
    endloop
  endfacet
  facet normal -1.000000e+000  0.000000e+000  0.000000e+000
    outer loop
      vertex  0.000000e+000  4.000000e+000 -7.500000e+000
      vertex  0.000000e+000  1.000000e+000 -1.732051e+000
      vertex  0.000000e+000  1.532089e+000 -1.285575e+000
    endloop
  endfacet
  facet normal -1.000000e+000  0.000000e+000  0.000000e+000
    outer loop
      vertex  0.000000e+000  4.000000e+000 -7.500000e+000
      vertex  0.000000e+000  1.532089e+000 -1.285575e+000
      vertex  0.000000e+000  1.879385e+000 -6.840403e-001
    endloop
  endfacet
  facet normal -1.000000e+000  0.000000e+000  0.000000e+000
    outer loop
      vertex  0.000000e+000  4.000000e+000 -7.500000e+000
      vertex  0.000000e+000  1.879385e+000 -6.840403e-001
      vertex  0.000000e+000  2.000000e+000 -3.552714e-015
    endloop
  endfacet
  facet normal -1.000000e+000  0.000000e+000  0.000000e+000
    outer loop
      vertex  0.000000e+000  4.000000e+000 -7.500000e+000
      vertex  0.000000e+000  2.000000e+000 -3.552714e-015
      vertex  0.000000e+000  1.879385e+000  6.840403e-001
    endloop
  endfacet
  facet normal -9.999999e-001  0.000000e+000  0.000000e+000
    outer loop
      vertex  0.000000e+000  4.000000e+000  7.500000e+000
      vertex  0.000000e+000  4.000000e+000 -7.500000e+000
      vertex  0.000000e+000  1.879385e+000  6.840403e-001
    endloop
  endfacet
  facet normal -1.000000e+000  0.000000e+000  0.000000e+000
    outer loop
      vertex  0.000000e+000  4.000000e+000  7.500000e+000
      vertex  0.000000e+000  1.879385e+000  6.840403e-001
      vertex  0.000000e+000  1.532089e+000  1.285575e+000
    endloop
  endfacet
  facet normal -1.000000e+000  0.000000e+000  0.000000e+000
    outer loop
      vertex  0.000000e+000  4.000000e+000  7.500000e+000
      vertex  0.000000e+000  1.532089e+000  1.285575e+000
      vertex  0.000000e+000  1.000000e+000  1.732051e+000
    endloop
  endfacet
  facet normal -1.000000e+000  0.000000e+000  0.000000e+000
    outer loop
      vertex  0.000000e+000  4.000000e+000  7.500000e+000
      vertex  0.000000e+000  1.000000e+000  1.732051e+000
      vertex  0.000000e+000  3.472964e-001  1.969615e+000
    endloop
  endfacet
  facet normal  0.000000e+000  0.000000e+000 -1.000000e+000
    outer loop
      vertex  0.000000e+000 -4.000000e+000 -7.500000e+000
      vertex  0.000000e+000  4.000000e+000 -7.500000e+000
      vertex  7.000000e+000  5.000000e+000 -7.500000e+000
    endloop
  endfacet
  facet normal  0.000000e+000  -0.000000e+000 -1.000000e+000
    outer loop
      vertex  0.000000e+000 -4.000000e+000 -7.500000e+000
      vertex  7.000000e+000  5.000000e+000 -7.500000e+000
      vertex  7.000000e+000 -5.000000e+000 -7.500000e+000
    endloop
  endfacet
  facet normal  0.000000e+000  0.000000e+000 -1.000000e+000
    outer loop
      vertex  0.000000e+000 -4.000000e+000 -7.500000e+000
      vertex  7.000000e+000 -5.000000e+000 -7.500000e+000
      vertex  1.000000e+000 -5.000000e+000 -7.500000e+000
    endloop
  endfacet
  facet normal  0.000000e+000  0.000000e+000 -1.000000e+000
    outer loop
      vertex  0.000000e+000 -4.000000e+000 -7.500000e+000
      vertex  1.000000e+000 -5.000000e+000 -7.500000e+000
      vertex  5.000000e-001 -4.866025e+000 -7.500000e+000
    endloop
  endfacet
  facet normal  0.000000e+000  0.000000e+000 -1.000000e+000
    outer loop
      vertex  0.000000e+000 -4.000000e+000 -7.500000e+000
      vertex  5.000000e-001 -4.866025e+000 -7.500000e+000
      vertex  1.339746e-001 -4.500000e+000 -7.500000e+000
    endloop
  endfacet
  facet normal  -0.000000e+000  0.000000e+000 -1.000000e+000
    outer loop
      vertex  1.000000e+000  5.000000e+000 -7.500000e+000
      vertex  7.000000e+000  5.000000e+000 -7.500000e+000
      vertex  5.000000e-001  4.866025e+000 -7.500000e+000
    endloop
  endfacet
  facet normal  0.000000e+000  -0.000000e+000 -1.000000e+000
    outer loop
      vertex  5.000000e-001  4.866025e+000 -7.500000e+000
      vertex  7.000000e+000  5.000000e+000 -7.500000e+000
      vertex  0.000000e+000  4.000000e+000 -7.500000e+000
    endloop
  endfacet
  facet normal  0.000000e+000  0.000000e+000 -1.000000e+000
    outer loop
      vertex  5.000000e-001  4.866025e+000 -7.500000e+000
      vertex  0.000000e+000  4.000000e+000 -7.500000e+000
      vertex  1.339746e-001  4.500000e+000 -7.500000e+000
    endloop
  endfacet
  facet normal  -0.000000e+000  0.000000e+000  1.000000e+000
    outer loop
      vertex  5.000000e-001  4.866025e+000  7.500000e+000
      vertex  1.339746e-001  4.500000e+000  7.500000e+000
      vertex  0.000000e+000  4.000000e+000  7.500000e+000
    endloop
  endfacet
  facet normal  0.000000e+000  0.000000e+000  1.000000e+000
    outer loop
      vertex  7.000000e+000 -5.000000e+000  7.500000e+000
      vertex  5.000000e-001 -4.866025e+000  7.500000e+000
      vertex  1.000000e+000 -5.000000e+000  7.500000e+000
    endloop
  endfacet
  facet normal  0.000000e+000  0.000000e+000  1.000000e+000
    outer loop
      vertex  7.000000e+000 -5.000000e+000  7.500000e+000
      vertex  1.339746e-001 -4.500000e+000  7.500000e+000
      vertex  5.000000e-001 -4.866025e+000  7.500000e+000
    endloop
  endfacet
  facet normal  0.000000e+000  0.000000e+000  1.000000e+000
    outer loop
      vertex  1.339746e-001 -4.500000e+000  7.500000e+000
      vertex  7.000000e+000 -5.000000e+000  7.500000e+000
      vertex  0.000000e+000 -4.000000e+000  7.500000e+000
    endloop
  endfacet
  facet normal  -0.000000e+000  0.000000e+000  1.000000e+000
    outer loop
      vertex  0.000000e+000 -4.000000e+000  7.500000e+000
      vertex  7.000000e+000 -5.000000e+000  7.500000e+000
      vertex  7.000000e+000  5.000000e+000  7.500000e+000
    endloop
  endfacet
  facet normal  0.000000e+000  0.000000e+000  1.000000e+000
    outer loop
      vertex  0.000000e+000 -4.000000e+000  7.500000e+000
      vertex  7.000000e+000  5.000000e+000  7.500000e+000
      vertex  0.000000e+000  4.000000e+000  7.500000e+000
    endloop
  endfacet
  facet normal  0.000000e+000  0.000000e+000  1.000000e+000
    outer loop
      vertex  0.000000e+000  4.000000e+000  7.500000e+000
      vertex  7.000000e+000  5.000000e+000  7.500000e+000
      vertex  1.000000e+000  5.000000e+000  7.500000e+000
    endloop
  endfacet
  facet normal  0.000000e+000  0.000000e+000  1.000000e+000
    outer loop
      vertex  0.000000e+000  4.000000e+000  7.500000e+000
      vertex  1.000000e+000  5.000000e+000  7.500000e+000
      vertex  5.000000e-001  4.866025e+000  7.500000e+000
    endloop
  endfacet
  facet normal  0.000000e+000 -1.000000e+000  -0.000000e+000
    outer loop
      vertex  7.000000e+000 -5.000000e+000 -7.500000e+000
      vertex  7.000000e+000 -5.000000e+000  7.500000e+000
      vertex  1.000000e+000 -5.000000e+000 -7.500000e+000
    endloop
  endfacet
  facet normal  0.000000e+000 -1.000000e+000  0.000000e+000
    outer loop
      vertex  1.000000e+000 -5.000000e+000 -7.500000e+000
      vertex  7.000000e+000 -5.000000e+000  7.500000e+000
      vertex  1.000000e+000 -5.000000e+000  7.500000e+000
    endloop
  endfacet
  facet normal -2.588190e-001 -9.659258e-001  -0.000000e+000
    outer loop
      vertex  1.000000e+000 -5.000000e+000 -7.500000e+000
      vertex  1.000000e+000 -5.000000e+000  7.500000e+000
      vertex  5.000000e-001 -4.866025e+000 -7.500000e+000
    endloop
  endfacet
  facet normal -2.588190e-001 -9.659258e-001  0.000000e+000
    outer loop
      vertex  5.000000e-001 -4.866025e+000 -7.500000e+000
      vertex  1.000000e+000 -5.000000e+000  7.500000e+000
      vertex  5.000000e-001 -4.866025e+000  7.500000e+000
    endloop
  endfacet
  facet normal -7.071069e-001 -7.071068e-001  -0.000000e+000
    outer loop
      vertex  5.000000e-001 -4.866025e+000 -7.500000e+000
      vertex  5.000000e-001 -4.866025e+000  7.500000e+000
      vertex  1.339746e-001 -4.500000e+000 -7.500000e+000
    endloop
  endfacet
  facet normal -7.071069e-001 -7.071068e-001  0.000000e+000
    outer loop
      vertex  1.339746e-001 -4.500000e+000 -7.500000e+000
      vertex  5.000000e-001 -4.866025e+000  7.500000e+000
      vertex  1.339746e-001 -4.500000e+000  7.500000e+000
    endloop
  endfacet
  facet normal -9.659258e-001 -2.588190e-001  -0.000000e+000
    outer loop
      vertex  1.339746e-001 -4.500000e+000 -7.500000e+000
      vertex  1.339746e-001 -4.500000e+000  7.500000e+000
      vertex  0.000000e+000 -4.000000e+000 -7.500000e+000
    endloop
  endfacet
  facet normal -9.659258e-001 -2.588190e-001  0.000000e+000
    outer loop
      vertex  0.000000e+000 -4.000000e+000 -7.500000e+000
      vertex  1.339746e-001 -4.500000e+000  7.500000e+000
      vertex  0.000000e+000 -4.000000e+000  7.500000e+000
    endloop
  endfacet
  facet normal  0.000000e+000  1.000000e+000  -0.000000e+000
    outer loop
      vertex  7.000000e+000  5.000000e+000  7.500000e+000
      vertex  7.000000e+000  5.000000e+000 -7.500000e+000
      vertex  1.000000e+000  5.000000e+000  7.500000e+000
    endloop
  endfacet
  facet normal  0.000000e+000  1.000000e+000  0.000000e+000
    outer loop
      vertex  1.000000e+000  5.000000e+000  7.500000e+000
      vertex  7.000000e+000  5.000000e+000 -7.500000e+000
      vertex  1.000000e+000  5.000000e+000 -7.500000e+000
    endloop
  endfacet
  facet normal -2.588190e-001  9.659258e-001  0.000000e+000
    outer loop
      vertex  1.000000e+000  5.000000e+000  7.500000e+000
      vertex  1.000000e+000  5.000000e+000 -7.500000e+000
      vertex  5.000000e-001  4.866025e+000  7.500000e+000
    endloop
  endfacet
  facet normal -2.588190e-001  9.659258e-001  0.000000e+000
    outer loop
      vertex  5.000000e-001  4.866025e+000  7.500000e+000
      vertex  1.000000e+000  5.000000e+000 -7.500000e+000
      vertex  5.000000e-001  4.866025e+000 -7.500000e+000
    endloop
  endfacet
  facet normal -7.071069e-001  7.071068e-001  0.000000e+000
    outer loop
      vertex  5.000000e-001  4.866025e+000  7.500000e+000
      vertex  5.000000e-001  4.866025e+000 -7.500000e+000
      vertex  1.339746e-001  4.500000e+000  7.500000e+000
    endloop
  endfacet
  facet normal -7.071069e-001  7.071068e-001  0.000000e+000
    outer loop
      vertex  1.339746e-001  4.500000e+000  7.500000e+000
      vertex  5.000000e-001  4.866025e+000 -7.500000e+000
      vertex  1.339746e-001  4.500000e+000 -7.500000e+000
    endloop
  endfacet
  facet normal -9.659258e-001  2.588190e-001  0.000000e+000
    outer loop
      vertex  1.339746e-001  4.500000e+000  7.500000e+000
      vertex  1.339746e-001  4.500000e+000 -7.500000e+000
      vertex  0.000000e+000  4.000000e+000  7.500000e+000
    endloop
  endfacet
  facet normal -9.659258e-001  2.588190e-001  0.000000e+000
    outer loop
      vertex  0.000000e+000  4.000000e+000  7.500000e+000
      vertex  1.339746e-001  4.500000e+000 -7.500000e+000
      vertex  0.000000e+000  4.000000e+000 -7.500000e+000
    endloop
  endfacet
  facet normal  9.999999e-001  0.000000e+000  0.000000e+000
    outer loop
      vertex  7.000000e+000 -5.000000e+000  7.500000e+000
      vertex  7.000000e+000 -5.000000e+000 -7.500000e+000
      vertex  7.000000e+000 -1.879385e+000  6.840403e-001
    endloop
  endfacet
  facet normal  1.000000e+000  0.000000e+000  -0.000000e+000
    outer loop
      vertex  7.000000e+000 -5.000000e+000  7.500000e+000
      vertex  7.000000e+000 -1.879385e+000  6.840403e-001
      vertex  7.000000e+000 -1.532089e+000  1.285575e+000
    endloop
  endfacet
  facet normal  1.000000e+000  0.000000e+000  -0.000000e+000
    outer loop
      vertex  7.000000e+000 -5.000000e+000  7.500000e+000
      vertex  7.000000e+000 -1.532089e+000  1.285575e+000
      vertex  7.000000e+000 -1.000000e+000  1.732051e+000
    endloop
  endfacet
  facet normal  1.000000e+000  0.000000e+000  -0.000000e+000
    outer loop
      vertex  7.000000e+000 -5.000000e+000  7.500000e+000
      vertex  7.000000e+000 -1.000000e+000  1.732051e+000
      vertex  7.000000e+000 -3.472964e-001  1.969615e+000
    endloop
  endfacet
  facet normal  1.000000e+000  0.000000e+000  -0.000000e+000
    outer loop
      vertex  7.000000e+000 -5.000000e+000  7.500000e+000
      vertex  7.000000e+000 -3.472964e-001  1.969615e+000
      vertex  7.000000e+000  3.472964e-001  1.969615e+000
    endloop
  endfacet
  facet normal  1.000000e+000  0.000000e+000  -0.000000e+000
    outer loop
      vertex  7.000000e+000 -5.000000e+000  7.500000e+000
      vertex  7.000000e+000  3.472964e-001  1.969615e+000
      vertex  7.000000e+000  5.000000e+000  7.500000e+000
    endloop
  endfacet
  facet normal  1.000000e+000  0.000000e+000  0.000000e+000
    outer loop
      vertex  7.000000e+000 -5.000000e+000 -7.500000e+000
      vertex  7.000000e+000  5.000000e+000 -7.500000e+000
      vertex  7.000000e+000  3.472964e-001 -1.969615e+000
    endloop
  endfacet
  facet normal  1.000000e+000  0.000000e+000  0.000000e+000
    outer loop
      vertex  7.000000e+000 -5.000000e+000 -7.500000e+000
      vertex  7.000000e+000  3.472964e-001 -1.969615e+000
      vertex  7.000000e+000 -3.472964e-001 -1.969615e+000
    endloop
  endfacet
  facet normal  1.000000e+000  0.000000e+000  0.000000e+000
    outer loop
      vertex  7.000000e+000 -5.000000e+000 -7.500000e+000
      vertex  7.000000e+000 -3.472964e-001 -1.969615e+000
      vertex  7.000000e+000 -1.000000e+000 -1.732051e+000
    endloop
  endfacet
  facet normal  1.000000e+000  0.000000e+000  0.000000e+000
    outer loop
      vertex  7.000000e+000 -5.000000e+000 -7.500000e+000
      vertex  7.000000e+000 -1.000000e+000 -1.732051e+000
      vertex  7.000000e+000 -1.532089e+000 -1.285575e+000
    endloop
  endfacet
  facet normal  1.000000e+000  0.000000e+000  0.000000e+000
    outer loop
      vertex  7.000000e+000 -5.000000e+000 -7.500000e+000
      vertex  7.000000e+000 -1.532089e+000 -1.285575e+000
      vertex  7.000000e+000 -1.879385e+000 -6.840403e-001
    endloop
  endfacet
  facet normal  1.000000e+000  0.000000e+000  0.000000e+000
    outer loop
      vertex  7.000000e+000 -5.000000e+000 -7.500000e+000
      vertex  7.000000e+000 -1.879385e+000 -6.840403e-001
      vertex  7.000000e+000 -2.000000e+000 -3.307784e-015
    endloop
  endfacet
  facet normal  1.000000e+000  0.000000e+000  -0.000000e+000
    outer loop
      vertex  7.000000e+000 -5.000000e+000 -7.500000e+000
      vertex  7.000000e+000 -2.000000e+000 -3.307784e-015
      vertex  7.000000e+000 -1.879385e+000  6.840403e-001
    endloop
  endfacet
  facet normal  1.000000e+000  0.000000e+000  0.000000e+000
    outer loop
      vertex  7.000000e+000  5.000000e+000 -7.500000e+000
      vertex  7.000000e+000  1.879385e+000  6.840403e-001
      vertex  7.000000e+000  2.000000e+000 -3.552714e-015
    endloop
  endfacet
  facet normal  1.000000e+000  0.000000e+000  0.000000e+000
    outer loop
      vertex  7.000000e+000  5.000000e+000 -7.500000e+000
      vertex  7.000000e+000  2.000000e+000 -3.552714e-015
      vertex  7.000000e+000  1.879385e+000 -6.840403e-001
    endloop
  endfacet
  facet normal  1.000000e+000  0.000000e+000  0.000000e+000
    outer loop
      vertex  7.000000e+000  5.000000e+000 -7.500000e+000
      vertex  7.000000e+000  1.879385e+000 -6.840403e-001
      vertex  7.000000e+000  1.532089e+000 -1.285575e+000
    endloop
  endfacet
  facet normal  1.000000e+000  0.000000e+000  0.000000e+000
    outer loop
      vertex  7.000000e+000  5.000000e+000 -7.500000e+000
      vertex  7.000000e+000  1.532089e+000 -1.285575e+000
      vertex  7.000000e+000  1.000000e+000 -1.732051e+000
    endloop
  endfacet
  facet normal  1.000000e+000  0.000000e+000  0.000000e+000
    outer loop
      vertex  7.000000e+000  5.000000e+000 -7.500000e+000
      vertex  7.000000e+000  1.000000e+000 -1.732051e+000
      vertex  7.000000e+000  3.472964e-001 -1.969615e+000
    endloop
  endfacet
  facet normal  1.000000e+000  -0.000000e+000  0.000000e+000
    outer loop
      vertex  7.000000e+000  5.000000e+000  7.500000e+000
      vertex  7.000000e+000  3.472964e-001  1.969615e+000
      vertex  7.000000e+000  1.000000e+000  1.732051e+000
    endloop
  endfacet
  facet normal  1.000000e+000  -0.000000e+000  0.000000e+000
    outer loop
      vertex  7.000000e+000  5.000000e+000  7.500000e+000
      vertex  7.000000e+000  1.000000e+000  1.732051e+000
      vertex  7.000000e+000  1.532089e+000  1.285575e+000
    endloop
  endfacet
  facet normal  1.000000e+000  -0.000000e+000  0.000000e+000
    outer loop
      vertex  7.000000e+000  5.000000e+000  7.500000e+000
      vertex  7.000000e+000  1.532089e+000  1.285575e+000
      vertex  7.000000e+000  1.879385e+000  6.840403e-001
    endloop
  endfacet
  facet normal  1.000000e+000  -0.000000e+000  0.000000e+000
    outer loop
      vertex  7.000000e+000  5.000000e+000  7.500000e+000
      vertex  7.000000e+000  1.879385e+000  6.840403e-001
      vertex  7.000000e+000  5.000000e+000 -7.500000e+000
    endloop
  endfacet
  facet normal  0.000000e+000  3.420202e-001 -9.396927e-001
    outer loop
      vertex  0.000000e+000 -3.472964e-001  1.969615e+000
      vertex  7.000000e+000 -1.000000e+000  1.732051e+000
      vertex  0.000000e+000 -1.000000e+000  1.732051e+000
    endloop
  endfacet
  facet normal  0.000000e+000  6.427875e-001 -7.660445e-001
    outer loop
      vertex  0.000000e+000 -1.000000e+000  1.732051e+000
      vertex  7.000000e+000 -1.000000e+000  1.732051e+000
      vertex  7.000000e+000 -1.532089e+000  1.285575e+000
    endloop
  endfacet
  facet normal  0.000000e+000  6.427875e-001 -7.660445e-001
    outer loop
      vertex  0.000000e+000 -1.000000e+000  1.732051e+000
      vertex  7.000000e+000 -1.532089e+000  1.285575e+000
      vertex  0.000000e+000 -1.532089e+000  1.285575e+000
    endloop
  endfacet
  facet normal  0.000000e+000  8.660254e-001 -5.000000e-001
    outer loop
      vertex  0.000000e+000 -1.532089e+000  1.285575e+000
      vertex  7.000000e+000 -1.532089e+000  1.285575e+000
      vertex  7.000000e+000 -1.879385e+000  6.840403e-001
    endloop
  endfacet
  facet normal  0.000000e+000  8.660254e-001 -5.000000e-001
    outer loop
      vertex  0.000000e+000 -1.532089e+000  1.285575e+000
      vertex  7.000000e+000 -1.879385e+000  6.840403e-001
      vertex  0.000000e+000 -1.879385e+000  6.840403e-001
    endloop
  endfacet
  facet normal  0.000000e+000  9.848077e-001 -1.736482e-001
    outer loop
      vertex  0.000000e+000 -1.879385e+000  6.840403e-001
      vertex  7.000000e+000 -1.879385e+000  6.840403e-001
      vertex  7.000000e+000 -2.000000e+000 -3.307784e-015
    endloop
  endfacet
  facet normal  0.000000e+000  9.848077e-001 -1.736482e-001
    outer loop
      vertex  0.000000e+000 -1.879385e+000  6.840403e-001
      vertex  7.000000e+000 -2.000000e+000 -3.307784e-015
      vertex  0.000000e+000 -2.000000e+000 -3.307784e-015
    endloop
  endfacet
  facet normal  0.000000e+000  3.420202e-001 -9.396927e-001
    outer loop
      vertex  7.000000e+000 -1.000000e+000  1.732051e+000
      vertex  0.000000e+000 -3.472964e-001  1.969615e+000
      vertex  7.000000e+000 -3.472964e-001  1.969615e+000
    endloop
  endfacet
  facet normal  0.000000e+000  0.000000e+000 -9.999999e-001
    outer loop
      vertex  7.000000e+000 -3.472964e-001  1.969615e+000
      vertex  0.000000e+000 -3.472964e-001  1.969615e+000
      vertex  0.000000e+000  3.472964e-001  1.969615e+000
    endloop
  endfacet
  facet normal  0.000000e+000  0.000000e+000 -9.999999e-001
    outer loop
      vertex  7.000000e+000 -3.472964e-001  1.969615e+000
      vertex  0.000000e+000  3.472964e-001  1.969615e+000
      vertex  7.000000e+000  3.472964e-001  1.969615e+000
    endloop
  endfacet
  facet normal  -0.000000e+000 -3.420202e-001 -9.396927e-001
    outer loop
      vertex  7.000000e+000  3.472964e-001  1.969615e+000
      vertex  0.000000e+000  3.472964e-001  1.969615e+000
      vertex  0.000000e+000  1.000000e+000  1.732051e+000
    endloop
  endfacet
  facet normal  0.000000e+000 -3.420202e-001 -9.396927e-001
    outer loop
      vertex  7.000000e+000  3.472964e-001  1.969615e+000
      vertex  0.000000e+000  1.000000e+000  1.732051e+000
      vertex  7.000000e+000  1.000000e+000  1.732051e+000
    endloop
  endfacet
  facet normal  -0.000000e+000 -6.427875e-001 -7.660445e-001
    outer loop
      vertex  7.000000e+000  1.000000e+000  1.732051e+000
      vertex  0.000000e+000  1.000000e+000  1.732051e+000
      vertex  0.000000e+000  1.532089e+000  1.285575e+000
    endloop
  endfacet
  facet normal  0.000000e+000 -6.427875e-001 -7.660445e-001
    outer loop
      vertex  7.000000e+000  1.000000e+000  1.732051e+000
      vertex  0.000000e+000  1.532089e+000  1.285575e+000
      vertex  7.000000e+000  1.532089e+000  1.285575e+000
    endloop
  endfacet
  facet normal  -0.000000e+000 -8.660254e-001 -5.000000e-001
    outer loop
      vertex  7.000000e+000  1.532089e+000  1.285575e+000
      vertex  0.000000e+000  1.532089e+000  1.285575e+000
      vertex  0.000000e+000  1.879385e+000  6.840403e-001
    endloop
  endfacet
  facet normal  0.000000e+000 -8.660254e-001 -5.000000e-001
    outer loop
      vertex  7.000000e+000  1.532089e+000  1.285575e+000
      vertex  0.000000e+000  1.879385e+000  6.840403e-001
      vertex  7.000000e+000  1.879385e+000  6.840403e-001
    endloop
  endfacet
  facet normal  -0.000000e+000 -9.848077e-001 -1.736482e-001
    outer loop
      vertex  7.000000e+000  1.879385e+000  6.840403e-001
      vertex  0.000000e+000  1.879385e+000  6.840403e-001
      vertex  0.000000e+000  2.000000e+000 -3.552714e-015
    endloop
  endfacet
  facet normal  0.000000e+000 -9.848077e-001 -1.736482e-001
    outer loop
      vertex  7.000000e+000  1.879385e+000  6.840403e-001
      vertex  0.000000e+000  2.000000e+000 -3.552714e-015
      vertex  7.000000e+000  2.000000e+000 -3.552714e-015
    endloop
  endfacet
  facet normal  0.000000e+000 -3.420202e-001  9.396927e-001
    outer loop
      vertex  0.000000e+000  3.472964e-001 -1.969615e+000
      vertex  7.000000e+000  1.000000e+000 -1.732051e+000
      vertex  0.000000e+000  1.000000e+000 -1.732051e+000
    endloop
  endfacet
  facet normal  0.000000e+000 -6.427875e-001  7.660445e-001
    outer loop
      vertex  0.000000e+000  1.000000e+000 -1.732051e+000
      vertex  7.000000e+000  1.000000e+000 -1.732051e+000
      vertex  7.000000e+000  1.532089e+000 -1.285575e+000
    endloop
  endfacet
  facet normal  0.000000e+000 -6.427875e-001  7.660445e-001
    outer loop
      vertex  0.000000e+000  1.000000e+000 -1.732051e+000
      vertex  7.000000e+000  1.532089e+000 -1.285575e+000
      vertex  0.000000e+000  1.532089e+000 -1.285575e+000
    endloop
  endfacet
  facet normal  0.000000e+000 -8.660254e-001  5.000000e-001
    outer loop
      vertex  0.000000e+000  1.532089e+000 -1.285575e+000
      vertex  7.000000e+000  1.532089e+000 -1.285575e+000
      vertex  7.000000e+000  1.879385e+000 -6.840403e-001
    endloop
  endfacet
  facet normal  0.000000e+000 -8.660254e-001  5.000000e-001
    outer loop
      vertex  0.000000e+000  1.532089e+000 -1.285575e+000
      vertex  7.000000e+000  1.879385e+000 -6.840403e-001
      vertex  0.000000e+000  1.879385e+000 -6.840403e-001
    endloop
  endfacet
  facet normal  0.000000e+000 -9.848077e-001  1.736482e-001
    outer loop
      vertex  0.000000e+000  1.879385e+000 -6.840403e-001
      vertex  7.000000e+000  1.879385e+000 -6.840403e-001
      vertex  7.000000e+000  2.000000e+000 -3.552714e-015
    endloop
  endfacet
  facet normal  0.000000e+000 -9.848077e-001  1.736482e-001
    outer loop
      vertex  0.000000e+000  1.879385e+000 -6.840403e-001
      vertex  7.000000e+000  2.000000e+000 -3.552714e-015
      vertex  0.000000e+000  2.000000e+000 -3.552714e-015
    endloop
  endfacet
  facet normal  0.000000e+000 -3.420202e-001  9.396927e-001
    outer loop
      vertex  7.000000e+000  1.000000e+000 -1.732051e+000
      vertex  0.000000e+000  3.472964e-001 -1.969615e+000
      vertex  7.000000e+000  3.472964e-001 -1.969615e+000
    endloop
  endfacet
  facet normal  0.000000e+000  0.000000e+000  9.999999e-001
    outer loop
      vertex  7.000000e+000  3.472964e-001 -1.969615e+000
      vertex  0.000000e+000  3.472964e-001 -1.969615e+000
      vertex  0.000000e+000 -3.472964e-001 -1.969615e+000
    endloop
  endfacet
  facet normal  0.000000e+000  0.000000e+000  9.999999e-001
    outer loop
      vertex  7.000000e+000  3.472964e-001 -1.969615e+000
      vertex  0.000000e+000 -3.472964e-001 -1.969615e+000
      vertex  7.000000e+000 -3.472964e-001 -1.969615e+000
    endloop
  endfacet
  facet normal  0.000000e+000  3.420202e-001  9.396927e-001
    outer loop
      vertex  7.000000e+000 -3.472964e-001 -1.969615e+000
      vertex  0.000000e+000 -3.472964e-001 -1.969615e+000
      vertex  0.000000e+000 -1.000000e+000 -1.732051e+000
    endloop
  endfacet
  facet normal  -0.000000e+000  3.420202e-001  9.396927e-001
    outer loop
      vertex  7.000000e+000 -3.472964e-001 -1.969615e+000
      vertex  0.000000e+000 -1.000000e+000 -1.732051e+000
      vertex  7.000000e+000 -1.000000e+000 -1.732051e+000
    endloop
  endfacet
  facet normal  0.000000e+000  6.427875e-001  7.660445e-001
    outer loop
      vertex  7.000000e+000 -1.000000e+000 -1.732051e+000
      vertex  0.000000e+000 -1.000000e+000 -1.732051e+000
      vertex  0.000000e+000 -1.532089e+000 -1.285575e+000
    endloop
  endfacet
  facet normal  -0.000000e+000  6.427875e-001  7.660445e-001
    outer loop
      vertex  7.000000e+000 -1.000000e+000 -1.732051e+000
      vertex  0.000000e+000 -1.532089e+000 -1.285575e+000
      vertex  7.000000e+000 -1.532089e+000 -1.285575e+000
    endloop
  endfacet
  facet normal  0.000000e+000  8.660254e-001  5.000000e-001
    outer loop
      vertex  7.000000e+000 -1.532089e+000 -1.285575e+000
      vertex  0.000000e+000 -1.532089e+000 -1.285575e+000
      vertex  0.000000e+000 -1.879385e+000 -6.840403e-001
    endloop
  endfacet
  facet normal  -0.000000e+000  8.660254e-001  5.000000e-001
    outer loop
      vertex  7.000000e+000 -1.532089e+000 -1.285575e+000
      vertex  0.000000e+000 -1.879385e+000 -6.840403e-001
      vertex  7.000000e+000 -1.879385e+000 -6.840403e-001
    endloop
  endfacet
  facet normal  0.000000e+000  9.848077e-001  1.736482e-001
    outer loop
      vertex  7.000000e+000 -1.879385e+000 -6.840403e-001
      vertex  0.000000e+000 -1.879385e+000 -6.840403e-001
      vertex  0.000000e+000 -2.000000e+000 -3.307784e-015
    endloop
  endfacet
  facet normal  -0.000000e+000  9.848077e-001  1.736482e-001
    outer loop
      vertex  7.000000e+000 -1.879385e+000 -6.840403e-001
      vertex  0.000000e+000 -2.000000e+000 -3.307784e-015
      vertex  7.000000e+000 -2.000000e+000 -3.307784e-015
    endloop
  endfacet
endsolid CATIA STL
