solid CATIA STL
  facet normal -1.000000e+000  0.000000e+000  0.000000e+000
    outer loop
      vertex -4.000000e+000  7.000000e+000 -5.000000e-001
      vertex -4.000000e+000  7.000000e+000 -1.000000e+001
      vertex -4.000000e+000  5.024401e+000 -4.368572e+000
    endloop
  endfacet
  facet normal -1.000000e+000  0.000000e+000  0.000000e+000
    outer loop
      vertex -4.000000e+000  7.000000e+000 -5.000000e-001
      vertex -4.000000e+000  5.024401e+000 -4.368572e+000
      vertex -4.000000e+000  4.666726e+000 -3.833274e+000
    endloop
  endfacet
  facet normal -1.000000e+000  0.000000e+000  0.000000e+000
    outer loop
      vertex -4.000000e+000  7.000000e+000 -5.000000e-001
      vertex -4.000000e+000  4.666726e+000 -3.833274e+000
      vertex -4.000000e+000  4.131428e+000 -3.475599e+000
    endloop
  endfacet
  facet normal -1.000000e+000  0.000000e+000  0.000000e+000
    outer loop
      vertex -4.000000e+000  7.000000e+000 -5.000000e-001
      vertex -4.000000e+000  4.131428e+000 -3.475599e+000
      vertex -4.000000e+000  0.000000e+000 -5.000000e-001
    endloop
  endfacet
  facet normal -1.000000e+000  0.000000e+000  0.000000e+000
    outer loop
      vertex -4.000000e+000  0.000000e+000 -1.000000e+001
      vertex -4.000000e+000  1.975599e+000 -4.368572e+000
      vertex -4.000000e+000  1.850000e+000 -5.000000e+000
    endloop
  endfacet
  facet normal -1.000000e+000  0.000000e+000  -0.000000e+000
    outer loop
      vertex -4.000000e+000  0.000000e+000 -1.000000e+001
      vertex -4.000000e+000  1.850000e+000 -5.000000e+000
      vertex -4.000000e+000  1.975599e+000 -5.631428e+000
    endloop
  endfacet
  facet normal -1.000000e+000  0.000000e+000  -0.000000e+000
    outer loop
      vertex -4.000000e+000  0.000000e+000 -1.000000e+001
      vertex -4.000000e+000  1.975599e+000 -5.631428e+000
      vertex -4.000000e+000  2.333274e+000 -6.166726e+000
    endloop
  endfacet
  facet normal -1.000000e+000  0.000000e+000  -0.000000e+000
    outer loop
      vertex -4.000000e+000  0.000000e+000 -1.000000e+001
      vertex -4.000000e+000  2.333274e+000 -6.166726e+000
      vertex -4.000000e+000  2.868572e+000 -6.524401e+000
    endloop
  endfacet
  facet normal -1.000000e+000  0.000000e+000  -0.000000e+000
    outer loop
      vertex -4.000000e+000  0.000000e+000 -1.000000e+001
      vertex -4.000000e+000  2.868572e+000 -6.524401e+000
      vertex -4.000000e+000  3.500000e+000 -6.650000e+000
    endloop
  endfacet
  facet normal -1.000000e+000  0.000000e+000  -0.000000e+000
    outer loop
      vertex -4.000000e+000  0.000000e+000 -1.000000e+001
      vertex -4.000000e+000  3.500000e+000 -6.650000e+000
      vertex -4.000000e+000  7.000000e+000 -1.000000e+001
    endloop
  endfacet
  facet normal -1.000000e+000  0.000000e+000  0.000000e+000
    outer loop
      vertex -4.000000e+000  0.000000e+000 -5.000000e-001
      vertex -4.000000e+000  4.131428e+000 -3.475599e+000
      vertex -4.000000e+000  3.500000e+000 -3.350000e+000
    endloop
  endfacet
  facet normal -1.000000e+000  -0.000000e+000  0.000000e+000
    outer loop
      vertex -4.000000e+000  0.000000e+000 -5.000000e-001
      vertex -4.000000e+000  3.500000e+000 -3.350000e+000
      vertex -4.000000e+000  2.868572e+000 -3.475599e+000
    endloop
  endfacet
  facet normal -1.000000e+000  -0.000000e+000  0.000000e+000
    outer loop
      vertex -4.000000e+000  0.000000e+000 -5.000000e-001
      vertex -4.000000e+000  2.868572e+000 -3.475599e+000
      vertex -4.000000e+000  2.333274e+000 -3.833274e+000
    endloop
  endfacet
  facet normal -1.000000e+000  -0.000000e+000  0.000000e+000
    outer loop
      vertex -4.000000e+000  0.000000e+000 -5.000000e-001
      vertex -4.000000e+000  2.333274e+000 -3.833274e+000
      vertex -4.000000e+000  1.975599e+000 -4.368572e+000
    endloop
  endfacet
  facet normal -1.000000e+000  -0.000000e+000  0.000000e+000
    outer loop
      vertex -4.000000e+000  0.000000e+000 -5.000000e-001
      vertex -4.000000e+000  1.975599e+000 -4.368572e+000
      vertex -4.000000e+000  0.000000e+000 -1.000000e+001
    endloop
  endfacet
  facet normal -1.000000e+000  0.000000e+000  0.000000e+000
    outer loop
      vertex -4.000000e+000  7.000000e+000 -1.000000e+001
      vertex -4.000000e+000  3.500000e+000 -6.650000e+000
      vertex -4.000000e+000  4.131428e+000 -6.524401e+000
    endloop
  endfacet
  facet normal -1.000000e+000  0.000000e+000  0.000000e+000
    outer loop
      vertex -4.000000e+000  7.000000e+000 -1.000000e+001
      vertex -4.000000e+000  4.131428e+000 -6.524401e+000
      vertex -4.000000e+000  4.666726e+000 -6.166726e+000
    endloop
  endfacet
  facet normal -1.000000e+000  0.000000e+000  0.000000e+000
    outer loop
      vertex -4.000000e+000  7.000000e+000 -1.000000e+001
      vertex -4.000000e+000  4.666726e+000 -6.166726e+000
      vertex -4.000000e+000  5.024401e+000 -5.631428e+000
    endloop
  endfacet
  facet normal -9.999999e-001  0.000000e+000  0.000000e+000
    outer loop
      vertex -4.000000e+000  7.000000e+000 -1.000000e+001
      vertex -4.000000e+000  5.024401e+000 -5.631428e+000
      vertex -4.000000e+000  5.150000e+000 -5.000000e+000
    endloop
  endfacet
  facet normal -1.000000e+000  0.000000e+000  0.000000e+000
    outer loop
      vertex -4.000000e+000  7.000000e+000 -1.000000e+001
      vertex -4.000000e+000  5.150000e+000 -5.000000e+000
      vertex -4.000000e+000  5.024401e+000 -4.368572e+000
    endloop
  endfacet
  facet normal  1.000000e+000  3.255029e-015 -1.544658e-016
    outer loop
      vertex -7.105427e-015  7.000000e+000 -1.000000e+001
      vertex -5.329071e-015  7.000000e+000  1.500000e+000
      vertex  0.000000e+000  5.024401e+000 -5.631428e+000
    endloop
  endfacet
  facet normal  1.000000e+000  1.451691e-015 -9.699893e-016
    outer loop
      vertex -7.105427e-015  7.000000e+000 -1.000000e+001
      vertex  0.000000e+000  5.024401e+000 -5.631428e+000
      vertex  0.000000e+000  4.666726e+000 -6.166726e+000
    endloop
  endfacet
  facet normal  1.000000e+000  8.804556e-016 -1.317694e-015
    outer loop
      vertex -7.105427e-015  7.000000e+000 -1.000000e+001
      vertex  0.000000e+000  4.666726e+000 -6.166726e+000
      vertex  0.000000e+000  4.131428e+000 -6.524401e+000
    endloop
  endfacet
  facet normal  1.000000e+000  0.000000e+000 -2.044375e-015
    outer loop
      vertex -7.105427e-015  7.000000e+000 -1.000000e+001
      vertex  0.000000e+000  4.131428e+000 -6.524401e+000
      vertex -7.105427e-015  0.000000e+000 -1.000000e+001
    endloop
  endfacet
  facet normal  1.000000e+000 -9.566254e-015 -1.902846e-015
    outer loop
      vertex -5.329071e-015  0.000000e+000  1.500000e+000
      vertex  0.000000e+000  1.975599e+000 -5.631428e+000
      vertex  0.000000e+000  1.850000e+000 -5.000000e+000
    endloop
  endfacet
  facet normal  1.000000e+000 -1.695574e-015  3.372706e-016
    outer loop
      vertex -5.329071e-015  0.000000e+000  1.500000e+000
      vertex  0.000000e+000  1.850000e+000 -5.000000e+000
      vertex  0.000000e+000  1.975599e+000 -4.368572e+000
    endloop
  endfacet
  facet normal  1.000000e+000 -9.037141e-016  6.038427e-016
    outer loop
      vertex -5.329071e-015  0.000000e+000  1.500000e+000
      vertex  0.000000e+000  1.975599e+000 -4.368572e+000
      vertex  0.000000e+000  2.333274e+000 -3.833274e+000
    endloop
  endfacet
  facet normal  1.000000e+000 -5.166292e-016  7.731898e-016
    outer loop
      vertex -5.329071e-015  0.000000e+000  1.500000e+000
      vertex  0.000000e+000  2.333274e+000 -3.833274e+000
      vertex  0.000000e+000  2.868572e+000 -3.475599e+000
    endloop
  endfacet
  facet normal  9.999999e-001 -1.911255e-016  9.608517e-016
    outer loop
      vertex -5.329071e-015  0.000000e+000  1.500000e+000
      vertex  0.000000e+000  2.868572e+000 -3.475599e+000
      vertex  0.000000e+000  3.500000e+000 -3.350000e+000
    endloop
  endfacet
  facet normal  1.000000e+000  0.000000e+000  1.098777e-015
    outer loop
      vertex -5.329071e-015  0.000000e+000  1.500000e+000
      vertex  0.000000e+000  3.500000e+000 -3.350000e+000
      vertex -5.329071e-015  7.000000e+000  1.500000e+000
    endloop
  endfacet
  facet normal  1.000000e+000  5.325780e-016 -2.677448e-015
    outer loop
      vertex -7.105427e-015  0.000000e+000 -1.000000e+001
      vertex  0.000000e+000  4.131428e+000 -6.524401e+000
      vertex  0.000000e+000  3.500000e+000 -6.650000e+000
    endloop
  endfacet
  facet normal  1.000000e+000 -3.493057e-016 -1.756077e-015
    outer loop
      vertex -7.105427e-015  0.000000e+000 -1.000000e+001
      vertex  0.000000e+000  3.500000e+000 -6.650000e+000
      vertex  0.000000e+000  2.868572e+000 -6.524401e+000
    endloop
  endfacet
  facet normal  1.000000e+000 -8.804556e-016 -1.317694e-015
    outer loop
      vertex -7.105427e-015  0.000000e+000 -1.000000e+001
      vertex  0.000000e+000  2.868572e+000 -6.524401e+000
      vertex  0.000000e+000  2.333274e+000 -6.166726e+000
    endloop
  endfacet
  facet normal  1.000000e+000 -1.451691e-015 -9.699893e-016
    outer loop
      vertex -7.105427e-015  0.000000e+000 -1.000000e+001
      vertex  0.000000e+000  2.333274e+000 -6.166726e+000
      vertex  0.000000e+000  1.975599e+000 -5.631428e+000
    endloop
  endfacet
  facet normal  1.000000e+000 -3.255029e-015 -1.544658e-016
    outer loop
      vertex -7.105427e-015  0.000000e+000 -1.000000e+001
      vertex  0.000000e+000  1.975599e+000 -5.631428e+000
      vertex -5.329071e-015  0.000000e+000  1.500000e+000
    endloop
  endfacet
  facet normal  9.999999e-001  1.911255e-016  9.608517e-016
    outer loop
      vertex -5.329071e-015  7.000000e+000  1.500000e+000
      vertex  0.000000e+000  3.500000e+000 -3.350000e+000
      vertex  0.000000e+000  4.131428e+000 -3.475599e+000
    endloop
  endfacet
  facet normal  9.999999e-001  5.166292e-016  7.731898e-016
    outer loop
      vertex -5.329071e-015  7.000000e+000  1.500000e+000
      vertex  0.000000e+000  4.131428e+000 -3.475599e+000
      vertex  0.000000e+000  4.666726e+000 -3.833274e+000
    endloop
  endfacet
  facet normal  1.000000e+000  9.037140e-016  6.038426e-016
    outer loop
      vertex -5.329071e-015  7.000000e+000  1.500000e+000
      vertex  0.000000e+000  4.666726e+000 -3.833274e+000
      vertex  0.000000e+000  5.024401e+000 -4.368572e+000
    endloop
  endfacet
  facet normal  1.000000e+000  1.695573e-015  3.372708e-016
    outer loop
      vertex -5.329071e-015  7.000000e+000  1.500000e+000
      vertex  0.000000e+000  5.024401e+000 -4.368572e+000
      vertex  0.000000e+000  5.150000e+000 -5.000000e+000
    endloop
  endfacet
  facet normal  1.000000e+000  9.566279e-015 -1.902853e-015
    outer loop
      vertex -5.329071e-015  7.000000e+000  1.500000e+000
      vertex  0.000000e+000  5.150000e+000 -5.000000e+000
      vertex  0.000000e+000  5.024401e+000 -5.631428e+000
    endloop
  endfacet
  facet normal  0.000000e+000 -1.950905e-001 -9.807853e-001
    outer loop
      vertex  0.000000e+000  3.500000e+000 -3.350000e+000
      vertex -4.000000e+000  4.131428e+000 -3.475599e+000
      vertex  0.000000e+000  4.131428e+000 -3.475599e+000
    endloop
  endfacet
  facet normal  -0.000000e+000 -5.555704e-001 -8.314695e-001
    outer loop
      vertex  0.000000e+000  4.131428e+000 -3.475599e+000
      vertex -4.000000e+000  4.131428e+000 -3.475599e+000
      vertex -4.000000e+000  4.666726e+000 -3.833274e+000
    endloop
  endfacet
  facet normal  0.000000e+000 -5.555704e-001 -8.314695e-001
    outer loop
      vertex  0.000000e+000  4.131428e+000 -3.475599e+000
      vertex -4.000000e+000  4.666726e+000 -3.833274e+000
      vertex  0.000000e+000  4.666726e+000 -3.833274e+000
    endloop
  endfacet
  facet normal  -0.000000e+000 -8.314695e-001 -5.555704e-001
    outer loop
      vertex  0.000000e+000  4.666726e+000 -3.833274e+000
      vertex -4.000000e+000  4.666726e+000 -3.833274e+000
      vertex -4.000000e+000  5.024401e+000 -4.368572e+000
    endloop
  endfacet
  facet normal  0.000000e+000 -8.314695e-001 -5.555704e-001
    outer loop
      vertex  0.000000e+000  4.666726e+000 -3.833274e+000
      vertex -4.000000e+000  5.024401e+000 -4.368572e+000
      vertex  0.000000e+000  5.024401e+000 -4.368572e+000
    endloop
  endfacet
  facet normal  -0.000000e+000 -9.807853e-001 -1.950905e-001
    outer loop
      vertex  0.000000e+000  5.024401e+000 -4.368572e+000
      vertex -4.000000e+000  5.024401e+000 -4.368572e+000
      vertex -4.000000e+000  5.150000e+000 -5.000000e+000
    endloop
  endfacet
  facet normal  0.000000e+000 -9.807853e-001 -1.950905e-001
    outer loop
      vertex  0.000000e+000  5.024401e+000 -4.368572e+000
      vertex -4.000000e+000  5.150000e+000 -5.000000e+000
      vertex  0.000000e+000  5.150000e+000 -5.000000e+000
    endloop
  endfacet
  facet normal  -0.000000e+000 -1.950905e-001 -9.807853e-001
    outer loop
      vertex -4.000000e+000  4.131428e+000 -3.475599e+000
      vertex  0.000000e+000  3.500000e+000 -3.350000e+000
      vertex -4.000000e+000  3.500000e+000 -3.350000e+000
    endloop
  endfacet
  facet normal  0.000000e+000  1.950905e-001 -9.807853e-001
    outer loop
      vertex -4.000000e+000  3.500000e+000 -3.350000e+000
      vertex  0.000000e+000  3.500000e+000 -3.350000e+000
      vertex  0.000000e+000  2.868572e+000 -3.475599e+000
    endloop
  endfacet
  facet normal  0.000000e+000  1.950905e-001 -9.807853e-001
    outer loop
      vertex -4.000000e+000  3.500000e+000 -3.350000e+000
      vertex  0.000000e+000  2.868572e+000 -3.475599e+000
      vertex -4.000000e+000  2.868572e+000 -3.475599e+000
    endloop
  endfacet
  facet normal  0.000000e+000  5.555704e-001 -8.314695e-001
    outer loop
      vertex -4.000000e+000  2.868572e+000 -3.475599e+000
      vertex  0.000000e+000  2.868572e+000 -3.475599e+000
      vertex  0.000000e+000  2.333274e+000 -3.833274e+000
    endloop
  endfacet
  facet normal  0.000000e+000  5.555704e-001 -8.314695e-001
    outer loop
      vertex -4.000000e+000  2.868572e+000 -3.475599e+000
      vertex  0.000000e+000  2.333274e+000 -3.833274e+000
      vertex -4.000000e+000  2.333274e+000 -3.833274e+000
    endloop
  endfacet
  facet normal  0.000000e+000  8.314695e-001 -5.555704e-001
    outer loop
      vertex -4.000000e+000  2.333274e+000 -3.833274e+000
      vertex  0.000000e+000  2.333274e+000 -3.833274e+000
      vertex  0.000000e+000  1.975599e+000 -4.368572e+000
    endloop
  endfacet
  facet normal  0.000000e+000  8.314695e-001 -5.555704e-001
    outer loop
      vertex -4.000000e+000  2.333274e+000 -3.833274e+000
      vertex  0.000000e+000  1.975599e+000 -4.368572e+000
      vertex -4.000000e+000  1.975599e+000 -4.368572e+000
    endloop
  endfacet
  facet normal  0.000000e+000  9.807853e-001 -1.950903e-001
    outer loop
      vertex -4.000000e+000  1.975599e+000 -4.368572e+000
      vertex  0.000000e+000  1.975599e+000 -4.368572e+000
      vertex  0.000000e+000  1.850000e+000 -5.000000e+000
    endloop
  endfacet
  facet normal  0.000000e+000  9.807853e-001 -1.950903e-001
    outer loop
      vertex -4.000000e+000  1.975599e+000 -4.368572e+000
      vertex  0.000000e+000  1.850000e+000 -5.000000e+000
      vertex -4.000000e+000  1.850000e+000 -5.000000e+000
    endloop
  endfacet
  facet normal  -0.000000e+000  1.950905e-001  9.807853e-001
    outer loop
      vertex  0.000000e+000  3.500000e+000 -6.650000e+000
      vertex -4.000000e+000  2.868572e+000 -6.524401e+000
      vertex  0.000000e+000  2.868572e+000 -6.524401e+000
    endloop
  endfacet
  facet normal  0.000000e+000  5.555704e-001  8.314695e-001
    outer loop
      vertex  0.000000e+000  2.868572e+000 -6.524401e+000
      vertex -4.000000e+000  2.868572e+000 -6.524401e+000
      vertex -4.000000e+000  2.333274e+000 -6.166726e+000
    endloop
  endfacet
  facet normal  -0.000000e+000  5.555704e-001  8.314695e-001
    outer loop
      vertex  0.000000e+000  2.868572e+000 -6.524401e+000
      vertex -4.000000e+000  2.333274e+000 -6.166726e+000
      vertex  0.000000e+000  2.333274e+000 -6.166726e+000
    endloop
  endfacet
  facet normal  0.000000e+000  8.314695e-001  5.555704e-001
    outer loop
      vertex  0.000000e+000  2.333274e+000 -6.166726e+000
      vertex -4.000000e+000  2.333274e+000 -6.166726e+000
      vertex -4.000000e+000  1.975599e+000 -5.631428e+000
    endloop
  endfacet
  facet normal  -0.000000e+000  8.314695e-001  5.555704e-001
    outer loop
      vertex  0.000000e+000  2.333274e+000 -6.166726e+000
      vertex -4.000000e+000  1.975599e+000 -5.631428e+000
      vertex  0.000000e+000  1.975599e+000 -5.631428e+000
    endloop
  endfacet
  facet normal  0.000000e+000  9.807853e-001  1.950903e-001
    outer loop
      vertex  0.000000e+000  1.975599e+000 -5.631428e+000
      vertex -4.000000e+000  1.975599e+000 -5.631428e+000
      vertex -4.000000e+000  1.850000e+000 -5.000000e+000
    endloop
  endfacet
  facet normal  -0.000000e+000  9.807853e-001  1.950903e-001
    outer loop
      vertex  0.000000e+000  1.975599e+000 -5.631428e+000
      vertex -4.000000e+000  1.850000e+000 -5.000000e+000
      vertex  0.000000e+000  1.850000e+000 -5.000000e+000
    endloop
  endfacet
  facet normal  0.000000e+000  1.950905e-001  9.807853e-001
    outer loop
      vertex -4.000000e+000  2.868572e+000 -6.524401e+000
      vertex  0.000000e+000  3.500000e+000 -6.650000e+000
      vertex -4.000000e+000  3.500000e+000 -6.650000e+000
    endloop
  endfacet
  facet normal  0.000000e+000 -1.950905e-001  9.807853e-001
    outer loop
      vertex -4.000000e+000  3.500000e+000 -6.650000e+000
      vertex  0.000000e+000  3.500000e+000 -6.650000e+000
      vertex  0.000000e+000  4.131428e+000 -6.524401e+000
    endloop
  endfacet
  facet normal  0.000000e+000 -1.950905e-001  9.807853e-001
    outer loop
      vertex -4.000000e+000  3.500000e+000 -6.650000e+000
      vertex  0.000000e+000  4.131428e+000 -6.524401e+000
      vertex -4.000000e+000  4.131428e+000 -6.524401e+000
    endloop
  endfacet
  facet normal  0.000000e+000 -5.555704e-001  8.314695e-001
    outer loop
      vertex -4.000000e+000  4.131428e+000 -6.524401e+000
      vertex  0.000000e+000  4.131428e+000 -6.524401e+000
      vertex  0.000000e+000  4.666726e+000 -6.166726e+000
    endloop
  endfacet
  facet normal  0.000000e+000 -5.555704e-001  8.314695e-001
    outer loop
      vertex -4.000000e+000  4.131428e+000 -6.524401e+000
      vertex  0.000000e+000  4.666726e+000 -6.166726e+000
      vertex -4.000000e+000  4.666726e+000 -6.166726e+000
    endloop
  endfacet
  facet normal  0.000000e+000 -8.314695e-001  5.555704e-001
    outer loop
      vertex -4.000000e+000  4.666726e+000 -6.166726e+000
      vertex  0.000000e+000  4.666726e+000 -6.166726e+000
      vertex  0.000000e+000  5.024401e+000 -5.631428e+000
    endloop
  endfacet
  facet normal  0.000000e+000 -8.314695e-001  5.555704e-001
    outer loop
      vertex -4.000000e+000  4.666726e+000 -6.166726e+000
      vertex  0.000000e+000  5.024401e+000 -5.631428e+000
      vertex -4.000000e+000  5.024401e+000 -5.631428e+000
    endloop
  endfacet
  facet normal  0.000000e+000 -9.807853e-001  1.950905e-001
    outer loop
      vertex -4.000000e+000  5.024401e+000 -5.631428e+000
      vertex  0.000000e+000  5.024401e+000 -5.631428e+000
      vertex  0.000000e+000  5.150000e+000 -5.000000e+000
    endloop
  endfacet
  facet normal  0.000000e+000 -9.807853e-001  1.950905e-001
    outer loop
      vertex -4.000000e+000  5.024401e+000 -5.631428e+000
      vertex  0.000000e+000  5.150000e+000 -5.000000e+000
      vertex -4.000000e+000  5.150000e+000 -5.000000e+000
    endloop
  endfacet
  facet normal  0.000000e+000  1.000000e+000  0.000000e+000
    outer loop
      vertex -7.105427e-015  7.000000e+000 -1.000000e+001
      vertex -4.000000e+000  7.000000e+000 -1.000000e+001
      vertex -5.329071e-015  7.000000e+000  1.500000e+000
    endloop
  endfacet
  facet normal  0.000000e+000  1.000000e+000  0.000000e+000
    outer loop
      vertex -5.329071e-015  7.000000e+000  1.500000e+000
      vertex -4.000000e+000  7.000000e+000 -1.000000e+001
      vertex -4.000000e+000  7.000000e+000 -5.000000e-001
    endloop
  endfacet
  facet normal  0.000000e+000  1.000000e+000  -0.000000e+000
    outer loop
      vertex -5.329071e-015  7.000000e+000  1.500000e+000
      vertex -4.000000e+000  7.000000e+000 -5.000000e-001
      vertex -1.200000e+001  7.000000e+000  1.500000e+000
    endloop
  endfacet
  facet normal  0.000000e+000  1.000000e+000  0.000000e+000
    outer loop
      vertex -1.200000e+001  7.000000e+000  1.500000e+000
      vertex -4.000000e+000  7.000000e+000 -5.000000e-001
      vertex -1.400000e+001  7.000000e+000 -5.000000e-001
    endloop
  endfacet
  facet normal  0.000000e+000  1.000000e+000  0.000000e+000
    outer loop
      vertex -1.200000e+001  7.000000e+000  1.500000e+000
      vertex -1.400000e+001  7.000000e+000 -5.000000e-001
      vertex -1.200000e+001  7.000000e+000  2.450000e+001
    endloop
  endfacet
  facet normal  0.000000e+000  1.000000e+000  0.000000e+000
    outer loop
      vertex -1.200000e+001  7.000000e+000  2.450000e+001
      vertex -1.400000e+001  7.000000e+000 -5.000000e-001
      vertex -1.400000e+001  7.000000e+000  2.550000e+001
    endloop
  endfacet
  facet normal  0.000000e+000  1.000000e+000  0.000000e+000
    outer loop
      vertex -1.200000e+001  7.000000e+000  2.450000e+001
      vertex -1.400000e+001  7.000000e+000  2.550000e+001
      vertex  3.500000e+000  7.000000e+000  2.450000e+001
    endloop
  endfacet
  facet normal  0.000000e+000  9.999999e-001  -0.000000e+000
    outer loop
      vertex  3.500000e+000  7.000000e+000  2.450000e+001
      vertex -1.400000e+001  7.000000e+000  2.550000e+001
      vertex  4.900000e+000  7.000000e+000  2.550000e+001
    endloop
  endfacet
  facet normal  0.000000e+000  1.000000e+000  0.000000e+000
    outer loop
      vertex  3.500000e+000  7.000000e+000  2.450000e+001
      vertex  4.900000e+000  7.000000e+000  2.550000e+001
      vertex  3.500000e+000  7.000000e+000  1.800000e+001
    endloop
  endfacet
  facet normal  0.000000e+000  1.000000e+000  0.000000e+000
    outer loop
      vertex  3.500000e+000  7.000000e+000  1.800000e+001
      vertex  4.900000e+000  7.000000e+000  2.550000e+001
      vertex  4.900000e+000  7.000000e+000  1.800000e+001
    endloop
  endfacet
  facet normal  0.000000e+000 -1.000000e+000  0.000000e+000
    outer loop
      vertex -1.200000e+001  0.000000e+000  1.500000e+000
      vertex -4.000000e+000  0.000000e+000 -5.000000e-001
      vertex -5.329071e-015  0.000000e+000  1.500000e+000
    endloop
  endfacet
  facet normal  0.000000e+000 -1.000000e+000  0.000000e+000
    outer loop
      vertex -5.329071e-015  0.000000e+000  1.500000e+000
      vertex -4.000000e+000  0.000000e+000 -5.000000e-001
      vertex -4.000000e+000  0.000000e+000 -1.000000e+001
    endloop
  endfacet
  facet normal  0.000000e+000 -1.000000e+000  0.000000e+000
    outer loop
      vertex -5.329071e-015  0.000000e+000  1.500000e+000
      vertex -4.000000e+000  0.000000e+000 -1.000000e+001
      vertex -7.105427e-015  0.000000e+000 -1.000000e+001
    endloop
  endfacet
  facet normal  0.000000e+000 -1.000000e+000  -0.000000e+000
    outer loop
      vertex -4.000000e+000  0.000000e+000 -5.000000e-001
      vertex -1.200000e+001  0.000000e+000  1.500000e+000
      vertex -1.400000e+001  0.000000e+000 -5.000000e-001
    endloop
  endfacet
  facet normal  0.000000e+000 -1.000000e+000  0.000000e+000
    outer loop
      vertex -1.400000e+001  0.000000e+000 -5.000000e-001
      vertex -1.200000e+001  0.000000e+000  1.500000e+000
      vertex -1.200000e+001  0.000000e+000  2.450000e+001
    endloop
  endfacet
  facet normal  -0.000000e+000 -1.000000e+000  0.000000e+000
    outer loop
      vertex -1.400000e+001  0.000000e+000 -5.000000e-001
      vertex -1.200000e+001  0.000000e+000  2.450000e+001
      vertex -1.400000e+001  0.000000e+000  2.550000e+001
    endloop
  endfacet
  facet normal  0.000000e+000 -1.000000e+000  0.000000e+000
    outer loop
      vertex -1.400000e+001  0.000000e+000  2.550000e+001
      vertex -1.200000e+001  0.000000e+000  2.450000e+001
      vertex  3.500000e+000  0.000000e+000  2.450000e+001
    endloop
  endfacet
  facet normal  0.000000e+000 -9.999999e-001  0.000000e+000
    outer loop
      vertex -1.400000e+001  0.000000e+000  2.550000e+001
      vertex  3.500000e+000  0.000000e+000  2.450000e+001
      vertex  4.900000e+000  0.000000e+000  2.550000e+001
    endloop
  endfacet
  facet normal  0.000000e+000 -1.000000e+000  0.000000e+000
    outer loop
      vertex  4.900000e+000  0.000000e+000  2.550000e+001
      vertex  3.500000e+000  0.000000e+000  2.450000e+001
      vertex  3.500000e+000  0.000000e+000  1.800000e+001
    endloop
  endfacet
  facet normal  0.000000e+000 -1.000000e+000  0.000000e+000
    outer loop
      vertex  4.900000e+000  0.000000e+000  2.550000e+001
      vertex  3.500000e+000  0.000000e+000  1.800000e+001
      vertex  4.900000e+000  0.000000e+000  1.800000e+001
    endloop
  endfacet
  facet normal  0.000000e+000  0.000000e+000  1.000000e+000
    outer loop
      vertex -1.200000e+001  7.000000e+000  1.500000e+000
      vertex -1.200000e+001  0.000000e+000  1.500000e+000
      vertex -5.329071e-015  7.000000e+000  1.500000e+000
    endloop
  endfacet
  facet normal  0.000000e+000  0.000000e+000  1.000000e+000
    outer loop
      vertex -5.329071e-015  7.000000e+000  1.500000e+000
      vertex -1.200000e+001  0.000000e+000  1.500000e+000
      vertex -5.329071e-015  0.000000e+000  1.500000e+000
    endloop
  endfacet
  facet normal  1.000000e+000  -0.000000e+000  0.000000e+000
    outer loop
      vertex -1.200000e+001  7.000000e+000  2.450000e+001
      vertex -1.200000e+001  0.000000e+000  2.450000e+001
      vertex -1.200000e+001  7.000000e+000  1.500000e+000
    endloop
  endfacet
  facet normal  1.000000e+000  0.000000e+000  0.000000e+000
    outer loop
      vertex -1.200000e+001  7.000000e+000  1.500000e+000
      vertex -1.200000e+001  0.000000e+000  2.450000e+001
      vertex -1.200000e+001  0.000000e+000  1.500000e+000
    endloop
  endfacet
  facet normal  0.000000e+000  0.000000e+000 -1.000000e+000
    outer loop
      vertex  3.500000e+000  7.000000e+000  2.450000e+001
      vertex  3.500000e+000  0.000000e+000  2.450000e+001
      vertex -1.200000e+001  7.000000e+000  2.450000e+001
    endloop
  endfacet
  facet normal  0.000000e+000  0.000000e+000 -1.000000e+000
    outer loop
      vertex -1.200000e+001  7.000000e+000  2.450000e+001
      vertex  3.500000e+000  0.000000e+000  2.450000e+001
      vertex -1.200000e+001  0.000000e+000  2.450000e+001
    endloop
  endfacet
  facet normal -1.000000e+000  0.000000e+000  0.000000e+000
    outer loop
      vertex  3.500000e+000  0.000000e+000  1.800000e+001
      vertex  3.500000e+000  0.000000e+000  2.450000e+001
      vertex  3.500000e+000  7.000000e+000  1.800000e+001
    endloop
  endfacet
  facet normal -1.000000e+000  0.000000e+000  0.000000e+000
    outer loop
      vertex  3.500000e+000  7.000000e+000  1.800000e+001
      vertex  3.500000e+000  0.000000e+000  2.450000e+001
      vertex  3.500000e+000  7.000000e+000  2.450000e+001
    endloop
  endfacet
  facet normal  0.000000e+000  0.000000e+000 -1.000000e+000
    outer loop
      vertex  4.900000e+000  0.000000e+000  1.800000e+001
      vertex  3.500000e+000  0.000000e+000  1.800000e+001
      vertex  4.900000e+000  7.000000e+000  1.800000e+001
    endloop
  endfacet
  facet normal  -0.000000e+000  0.000000e+000 -1.000000e+000
    outer loop
      vertex  4.900000e+000  7.000000e+000  1.800000e+001
      vertex  3.500000e+000  0.000000e+000  1.800000e+001
      vertex  3.500000e+000  7.000000e+000  1.800000e+001
    endloop
  endfacet
  facet normal  1.000000e+000  -0.000000e+000  0.000000e+000
    outer loop
      vertex  4.900000e+000  7.000000e+000  2.550000e+001
      vertex  4.900000e+000  0.000000e+000  2.550000e+001
      vertex  4.900000e+000  7.000000e+000  1.800000e+001
    endloop
  endfacet
  facet normal  1.000000e+000  0.000000e+000  0.000000e+000
    outer loop
      vertex  4.900000e+000  7.000000e+000  1.800000e+001
      vertex  4.900000e+000  0.000000e+000  2.550000e+001
      vertex  4.900000e+000  0.000000e+000  1.800000e+001
    endloop
  endfacet
  facet normal  0.000000e+000  0.000000e+000  1.000000e+000
    outer loop
      vertex -1.400000e+001  7.000000e+000  2.550000e+001
      vertex -1.400000e+001  0.000000e+000  2.550000e+001
      vertex  4.900000e+000  7.000000e+000  2.550000e+001
    endloop
  endfacet
  facet normal  0.000000e+000  0.000000e+000  1.000000e+000
    outer loop
      vertex  4.900000e+000  7.000000e+000  2.550000e+001
      vertex -1.400000e+001  0.000000e+000  2.550000e+001
      vertex  4.900000e+000  0.000000e+000  2.550000e+001
    endloop
  endfacet
  facet normal -1.000000e+000  0.000000e+000  0.000000e+000
    outer loop
      vertex -1.400000e+001  7.000000e+000 -5.000000e-001
      vertex -1.400000e+001  0.000000e+000 -5.000000e-001
      vertex -1.400000e+001  7.000000e+000  2.550000e+001
    endloop
  endfacet
  facet normal -1.000000e+000  -0.000000e+000  0.000000e+000
    outer loop
      vertex -1.400000e+001  7.000000e+000  2.550000e+001
      vertex -1.400000e+001  0.000000e+000 -5.000000e-001
      vertex -1.400000e+001  0.000000e+000  2.550000e+001
    endloop
  endfacet
  facet normal  0.000000e+000  0.000000e+000 -1.000000e+000
    outer loop
      vertex -4.000000e+000  7.000000e+000 -5.000000e-001
      vertex -4.000000e+000  0.000000e+000 -5.000000e-001
      vertex -1.400000e+001  7.000000e+000 -5.000000e-001
    endloop
  endfacet
  facet normal  0.000000e+000  0.000000e+000 -1.000000e+000
    outer loop
      vertex -1.400000e+001  7.000000e+000 -5.000000e-001
      vertex -4.000000e+000  0.000000e+000 -5.000000e-001
      vertex -1.400000e+001  0.000000e+000 -5.000000e-001
    endloop
  endfacet
  facet normal  0.000000e+000  0.000000e+000 -1.000000e+000
    outer loop
      vertex -7.105427e-015  0.000000e+000 -1.000000e+001
      vertex -4.000000e+000  0.000000e+000 -1.000000e+001
      vertex -7.105427e-015  7.000000e+000 -1.000000e+001
    endloop
  endfacet
  facet normal  -0.000000e+000  0.000000e+000 -1.000000e+000
    outer loop
      vertex -7.105427e-015  7.000000e+000 -1.000000e+001
      vertex -4.000000e+000  0.000000e+000 -1.000000e+001
      vertex -4.000000e+000  7.000000e+000 -1.000000e+001
    endloop
  endfacet
endsolid CATIA STL
